<svg width="394" height="132" viewBox="0 0 394 132" fill="none" xmlns="http://www.w3.org/2000/svg">
<rect x="0.5" y="0.5" width="393" height="131" rx="14.5" fill="#FFD527" stroke="black"/>
<path d="M136.211 73.674C131.841 69.3366 132.905 62.1003 138.346 59.1532C139.112 58.7383 139.815 58.2202 140.434 57.6138L163 35.528L184.037 13.8335C190.003 7.68149 199.997 7.68147 205.963 13.8335L227 35.528L252.5 60.028C257.434 63.6626 257.786 70.8063 253.232 74.8913L228 97.526L204 122.028C199.531 127.546 191.103 127.854 186.229 122.676L179.5 115.528L161.5 98.7762L136.211 73.674Z" fill="#F87B21"/>
<path d="M176.13 23.2707L176.13 23.2708L176.139 23.2617L179.768 19.5916L179.768 19.5917L179.776 19.5826L182.358 16.8365L186.852 12.383L186.854 12.3814L188.854 10.3814L190.319 8.91639L191.72 7.98178L193.142 7.51652L194.344 7.1958H194.522L194.582 7.52874L195.001 7.52783L195.499 7.52675H195.501L195.865 7.52755L195.866 7.52755L196.5 7.52724L196.5 7.52724L197.419 7.52724L198.73 7.96426L199.146 8.3808L199.166 8.39985L199.186 8.41675L199.996 9.06811L203.988 12.7215L208.182 16.8441L208.182 16.8441L208.186 16.848L211.814 20.3346L215.633 24.0047L215.633 24.0048L215.638 24.0088L219.739 27.8583L223.5 31.5609V94.5277H167.5V31.6531L171.834 27.3996L171.838 27.3959L176.13 23.2707Z" fill="white" stroke="black"/>
<rect x="1.07035" width="90.7288" height="90.7288" rx="9.25" transform="matrix(0.713564 -0.70059 0.713564 0.70059 129.583 67.8793)" stroke="black" stroke-width="1.5"/>
<path d="M195 8.02783V95.0278" stroke="black" stroke-width="0.8"/>
<path d="M160.823 70.1987C160.823 72.5815 160.765 74.271 160.647 75.2671C160.54 76.2534 160.188 77.1567 159.593 77.9771C159.007 78.7974 158.211 79.4272 157.205 79.8667C156.199 80.3062 155.027 80.5259 153.689 80.5259C152.42 80.5259 151.277 80.3208 150.262 79.9106C149.256 79.4907 148.445 78.8657 147.83 78.0356C147.215 77.2056 146.849 76.3022 146.731 75.3257C146.614 74.3491 146.556 72.6401 146.556 70.1987V66.1411C146.556 63.7583 146.609 62.0737 146.717 61.0874C146.834 60.0913 147.186 59.1831 147.771 58.3628C148.367 57.5425 149.168 56.9126 150.174 56.4731C151.18 56.0337 152.352 55.814 153.689 55.814C154.959 55.814 156.097 56.0239 157.103 56.4438C158.118 56.854 158.934 57.4741 159.549 58.3042C160.164 59.1343 160.53 60.0376 160.647 61.0142C160.765 61.9907 160.823 63.6997 160.823 66.1411V70.1987ZM154.656 62.4058C154.656 61.3022 154.593 60.5991 154.466 60.2964C154.349 59.9839 154.1 59.8276 153.719 59.8276C153.396 59.8276 153.147 59.9546 152.972 60.2085C152.806 60.4526 152.723 61.1851 152.723 62.4058V73.48C152.723 74.8569 152.776 75.7065 152.884 76.0288C153.001 76.3511 153.265 76.5122 153.675 76.5122C154.095 76.5122 154.363 76.3267 154.48 75.9556C154.598 75.5845 154.656 74.7007 154.656 73.3042V62.4058ZM177.332 80.0278H171.15V61.0435H169.319V80.0278H163.138V56.2974H177.332V80.0278ZM190.457 56.312L193.987 80.0278H187.674L187.366 75.7651H185.154L184.788 80.0278H178.401L181.536 56.312H190.457ZM187.19 71.561C186.878 68.8755 186.565 65.5601 186.253 61.6147C185.628 66.146 185.237 69.4614 185.081 71.561H187.19ZM209.441 66.6538H203.274V62.5229C203.274 61.3218 203.206 60.5747 203.069 60.2817C202.942 59.979 202.654 59.8276 202.205 59.8276C201.697 59.8276 201.375 60.0083 201.238 60.3696C201.102 60.731 201.033 61.5122 201.033 62.7134V73.729C201.033 74.8813 201.102 75.6333 201.238 75.9849C201.375 76.3364 201.683 76.5122 202.161 76.5122C202.62 76.5122 202.918 76.3364 203.055 75.9849C203.201 75.6333 203.274 74.8081 203.274 73.5093V70.5356H209.441V71.4585C209.441 73.9097 209.266 75.6479 208.914 76.6733C208.572 77.6987 207.806 78.5972 206.614 79.3687C205.433 80.1401 203.973 80.5259 202.234 80.5259C200.428 80.5259 198.938 80.1987 197.767 79.5444C196.595 78.8901 195.818 77.9868 195.438 76.8345C195.057 75.6724 194.866 73.9292 194.866 71.605V64.6763C194.866 62.9673 194.925 61.688 195.042 60.8384C195.159 59.979 195.506 59.1538 196.082 58.3628C196.668 57.5718 197.474 56.9517 198.499 56.5024C199.534 56.0435 200.721 55.814 202.059 55.814C203.875 55.814 205.374 56.1655 206.556 56.8687C207.737 57.5718 208.514 58.4507 208.885 59.5054C209.256 60.5503 209.441 62.1812 209.441 64.3979V66.6538ZM225.833 56.312V80.0278H219.666V70.0669H217.82V80.0278H211.653V56.312H217.82V64.7935H219.666V56.312H225.833ZM242.415 70.1987C242.415 72.5815 242.356 74.271 242.239 75.2671C242.132 76.2534 241.78 77.1567 241.185 77.9771C240.599 78.7974 239.803 79.4272 238.797 79.8667C237.791 80.3062 236.619 80.5259 235.281 80.5259C234.012 80.5259 232.869 80.3208 231.854 79.9106C230.848 79.4907 230.037 78.8657 229.422 78.0356C228.807 77.2056 228.44 76.3022 228.323 75.3257C228.206 74.3491 228.147 72.6401 228.147 70.1987V66.1411C228.147 63.7583 228.201 62.0737 228.309 61.0874C228.426 60.0913 228.777 59.1831 229.363 58.3628C229.959 57.5425 230.76 56.9126 231.766 56.4731C232.771 56.0337 233.943 55.814 235.281 55.814C236.551 55.814 237.688 56.0239 238.694 56.4438C239.71 56.854 240.525 57.4741 241.141 58.3042C241.756 59.1343 242.122 60.0376 242.239 61.0142C242.356 61.9907 242.415 63.6997 242.415 66.1411V70.1987ZM236.248 62.4058C236.248 61.3022 236.185 60.5991 236.058 60.2964C235.94 59.9839 235.691 59.8276 235.311 59.8276C234.988 59.8276 234.739 59.9546 234.563 60.2085C234.397 60.4526 234.314 61.1851 234.314 62.4058V73.48C234.314 74.8569 234.368 75.7065 234.476 76.0288C234.593 76.3511 234.856 76.5122 235.267 76.5122C235.687 76.5122 235.955 76.3267 236.072 75.9556C236.189 75.5845 236.248 74.7007 236.248 73.3042V62.4058Z" fill="black"/>
</svg>
