<svg width="394" height="133" viewBox="0 0 394 133" fill="none" xmlns="http://www.w3.org/2000/svg">
<rect x="0.5" y="0.527832" width="393" height="131" rx="14.5" fill="#FFD527" stroke="black"/>
<mask id="mask0_667_520" style="mask-type:alpha" maskUnits="userSpaceOnUse" x="1" y="1" width="392" height="131">
<rect x="1.50488" y="1.52783" width="390.99" height="129" rx="14.5" fill="#D9D9D9" stroke="black"/>
</mask>
<g mask="url(#mask0_667_520)">
<path d="M85.7379 -65.9398L90.5108 -40.8084L104.942 -31.0714L100.169 -56.2028L85.7379 -65.9398Z" fill="white"/>
<path d="M114.489 -46.5408L119.262 -21.4094L133.693 -11.6725L128.92 -36.8039L114.489 -46.5408Z" fill="white"/>
<path d="M143.24 -27.1419L148.124 -1.9356L162.334 7.65153L157.561 -17.4799L143.24 -27.1419Z" fill="white"/>
<path d="M172.436 -7.44337L177.209 17.688L191.418 27.2751L186.645 2.14374L172.436 -7.44337Z" fill="white"/>
<path d="M201.187 11.9556L206.071 37.1619L220.613 46.9737L215.729 21.7674L201.187 11.9556Z" fill="white"/>
<path d="M404.001 148.798L408.884 174.003L419.208 159.058L404.001 148.798Z" fill="white"/>
<path d="M374.694 129.023L379.578 154.23L394.12 164.041L389.347 138.91L374.694 129.023Z" fill="white"/>
<path d="M345.832 109.549L350.715 134.756L365.147 144.493L360.263 119.286L345.832 109.549Z" fill="white"/>
<path d="M259.245 51.1279L264.018 76.2593L278.116 85.7715L273.343 60.6401L259.245 51.1279Z" fill="white"/>
<path d="M316.858 90.0007L321.742 115.207L336.173 124.944L331.289 99.7376L316.858 90.0007Z" fill="white"/>
<path d="M288.218 70.6767L293.102 95.883L307.089 105.32L302.316 80.1889L288.218 70.6767Z" fill="white"/>
<path d="M230.16 31.5043L235.044 56.7106L249.253 66.2977L244.369 41.0914L230.16 31.5043Z" fill="white"/>
<path d="M56.9866 -85.3387L61.7595 -60.2073L76.1135 -50.5224L71.3067 -75.6767L56.9866 -85.3387Z" fill="white"/>
<path d="M71.3067 -75.6767L76.1135 -50.5224L90.5108 -40.8084L85.7379 -65.9398L71.3067 -75.6767Z" fill="#F33332"/>
<path d="M56.9866 -85.3387L46.6623 -70.3936L61.7595 -60.2073L56.9866 -85.3387Z" fill="#F33332"/>
<path d="M100.169 -56.2028L104.942 -31.0714L119.262 -21.4094L114.489 -46.5408L100.169 -56.2028Z" fill="#F33332"/>
<path d="M360.263 119.286L365.147 144.493L379.578 154.23L374.694 129.023L360.263 119.286Z" fill="#F33332"/>
<path d="M128.92 -36.8039L133.693 -11.6725L148.124 -1.9356L143.24 -27.1419L128.92 -36.8039Z" fill="#F33332"/>
<path d="M157.561 -17.4799L162.334 7.65153L177.209 17.688L172.436 -7.44337L157.561 -17.4799Z" fill="#F33332"/>
<path d="M186.645 2.14374L191.418 27.2751L206.071 37.1619L201.187 11.9556L186.645 2.14374Z" fill="#F33332"/>
<path d="M215.729 21.7674L220.613 46.9737L235.044 56.7106L230.16 31.5043L215.729 21.7674Z" fill="#F33332"/>
<path d="M244.369 41.0914L249.253 66.2977L264.018 76.2593L259.245 51.1279L244.369 41.0914Z" fill="#F33332"/>
<path d="M273.343 60.6401L278.116 85.7715L293.102 95.883L288.218 70.6767L273.343 60.6401Z" fill="#F33332"/>
<path d="M302.316 80.1889L307.089 105.32L321.742 115.207L316.858 90.0007L302.316 80.1889Z" fill="#F33332"/>
<path d="M331.289 99.7376L336.173 124.944L350.715 134.756L345.832 109.549L331.289 99.7376Z" fill="#F33332"/>
<path d="M389.347 138.91L394.12 164.041L408.884 174.003L404.001 148.798L389.347 138.91Z" fill="#F33332"/>
<path d="M56.9866 -85.3387L46.6623 -70.3936L61.7595 -60.2073M56.9866 -85.3387L61.7595 -60.2073M56.9866 -85.3387L71.3067 -75.6767M61.7595 -60.2073L76.1135 -50.5224M71.3067 -75.6767L76.1135 -50.5224M71.3067 -75.6767L85.7379 -65.9398M76.1135 -50.5224L90.5108 -40.8084M85.7379 -65.9398L90.5108 -40.8084M85.7379 -65.9398L100.169 -56.2028M90.5108 -40.8084L104.942 -31.0714M100.169 -56.2028L104.942 -31.0714M100.169 -56.2028L114.489 -46.5408M104.942 -31.0714L119.262 -21.4094M114.489 -46.5408L119.262 -21.4094M114.489 -46.5408L128.92 -36.8039M119.262 -21.4094L133.693 -11.6725M128.92 -36.8039L133.693 -11.6725M128.92 -36.8039L143.24 -27.1419M133.693 -11.6725L148.124 -1.93559M143.24 -27.1419L148.124 -1.93559M143.24 -27.1419L157.561 -17.4799M148.124 -1.93559L162.333 7.65152M157.561 -17.4799L162.333 7.65152M157.561 -17.4799L172.436 -7.44337M162.333 7.65152L177.209 17.688M172.436 -7.44337L177.209 17.688M172.436 -7.44337L186.645 2.14374M177.209 17.688L191.418 27.2751M186.645 2.14374L191.418 27.2751M186.645 2.14374L201.187 11.9556M191.418 27.2751L206.071 37.1619M201.187 11.9556L206.071 37.1619M201.187 11.9556L215.729 21.7674M206.071 37.1619L220.613 46.9737M215.729 21.7674L220.613 46.9737M215.729 21.7674L230.16 31.5043M220.613 46.9737L235.044 56.7106M230.16 31.5043L235.044 56.7106M230.16 31.5043L244.369 41.0914M235.044 56.7106L249.253 66.2977M244.369 41.0914L249.253 66.2977M244.369 41.0914L259.245 51.1279M249.253 66.2977L264.018 76.2593M259.245 51.1279L264.018 76.2593M259.245 51.1279L273.343 60.6401M264.018 76.2593L278.116 85.7715M273.343 60.6401L278.116 85.7715M273.343 60.6401L288.218 70.6767M278.116 85.7715L293.102 95.883M288.218 70.6767L293.102 95.883M288.218 70.6767L302.316 80.1889M293.102 95.883L307.089 105.32M302.316 80.1889L307.089 105.32M302.316 80.1889L316.858 90.0007M307.089 105.32L321.742 115.207M316.858 90.0007L321.742 115.207M316.858 90.0007L331.289 99.7376M321.742 115.207L336.173 124.944M331.289 99.7376L336.173 124.944M331.289 99.7376L345.832 109.549M336.173 124.944L350.715 134.756M345.832 109.549L350.715 134.756M345.832 109.549L360.263 119.286M350.715 134.756L365.147 144.493M360.263 119.286L365.147 144.493M360.263 119.286L374.694 129.023M365.147 144.493L379.578 154.23M374.694 129.023L379.578 154.23M374.694 129.023L389.347 138.91M379.578 154.23L394.12 164.041M389.347 138.91L394.12 164.041M389.347 138.91L404.001 148.798M394.12 164.041L408.884 174.003M403.93 148.427L404.001 148.798M408.884 174.003L419.208 159.058L404.001 148.798M408.884 174.003L404.001 148.798" stroke="black" stroke-width="0.7"/>
<path d="M-35.802 233.547L-9.95395 232.412L1.83064 219.662L-24.0174 220.796L-35.802 233.547Z" fill="white"/>
<path d="M-12.3235 208.144L13.5246 207.009L25.3092 194.259L-0.538862 195.393L-12.3235 208.144Z" fill="white"/>
<path d="M11.1551 182.741L37.0938 181.509L48.6971 168.954L22.849 170.089L11.1551 182.741Z" fill="white"/>
<path d="M34.9962 156.946L60.8442 155.812L72.4475 143.257L46.5995 144.392L34.9962 156.946Z" fill="white"/>
<path d="M58.4747 131.544L84.4134 130.311L96.2887 117.462L70.35 118.695L58.4747 131.544Z" fill="white"/>
<path d="M224.095 -47.6494L250.032 -48.8809L236.513 -61.0852L224.095 -47.6494Z" fill="white"/>
<path d="M200.162 -21.7552L226.1 -22.9878L237.976 -35.8363L212.128 -34.7017L200.162 -21.7552Z" fill="white"/>
<path d="M176.593 3.74556L202.531 2.5129L214.316 -10.2375L188.377 -9.00481L176.593 3.74556Z" fill="white"/>
<path d="M105.885 80.2478L131.733 79.1132L143.246 66.6571L117.398 67.7917L105.885 80.2478Z" fill="white"/>
<path d="M152.933 29.3444L178.871 28.1117L190.656 15.3613L164.717 16.594L152.933 29.3444Z" fill="white"/>
<path d="M129.545 54.649L155.484 53.4163L166.906 41.0583L141.058 42.1928L129.545 54.649Z" fill="white"/>
<path d="M82.1346 105.945L108.073 104.712L119.677 92.1578L93.7379 93.3905L82.1346 105.945Z" fill="white"/>
<path d="M-59.2805 258.949L-33.4325 257.815L-21.7109 245.132L-47.5866 246.297L-59.2805 258.949Z" fill="white"/>
<path d="M-47.5866 246.297L-21.7109 245.132L-9.95395 232.412L-35.802 233.547L-47.5866 246.297Z" fill="#F33332"/>
<path d="M-59.2805 258.949L-45.761 271.153L-33.4325 257.815L-59.2805 258.949Z" fill="#F33332"/>
<path d="M-24.0174 220.796L1.83064 219.662L13.5246 207.009L-12.3235 208.144L-24.0174 220.796Z" fill="#F33332"/>
<path d="M188.377 -9.00481L214.316 -10.2375L226.1 -22.9878L200.162 -21.7552L188.377 -9.00481Z" fill="#F33332"/>
<path d="M-0.538862 195.393L25.3092 194.259L37.0938 181.509L11.1551 182.741L-0.538862 195.393Z" fill="#F33332"/>
<path d="M22.849 170.089L48.6971 168.954L60.8442 155.812L34.9962 156.946L22.849 170.089Z" fill="#F33332"/>
<path d="M46.5995 144.392L72.4475 143.257L84.4134 130.311L58.4747 131.544L46.5995 144.392Z" fill="#F33332"/>
<path d="M70.35 118.695L96.2887 117.462L108.073 104.712L82.1346 105.945L70.35 118.695Z" fill="#F33332"/>
<path d="M93.7379 93.3905L119.677 92.1578L131.733 79.1132L105.885 80.2478L93.7379 93.3905Z" fill="#F33332"/>
<path d="M117.398 67.7917L143.246 66.6571L155.484 53.4163L129.545 54.649L117.398 67.7917Z" fill="#F33332"/>
<path d="M141.058 42.1928L166.906 41.0583L178.871 28.1117L152.933 29.3444L141.058 42.1928Z" fill="#F33332"/>
<path d="M164.717 16.594L190.656 15.3613L202.531 2.5129L176.593 3.74556L164.717 16.594Z" fill="#F33332"/>
<path d="M212.128 -34.7017L237.976 -35.8363L250.032 -48.8809L224.095 -47.6494L212.128 -34.7017Z" fill="#F33332"/>
<path d="M-59.2805 258.949L-45.761 271.153L-33.4325 257.815M-59.2805 258.949L-33.4325 257.815M-59.2805 258.949L-47.5866 246.297M-33.4325 257.815L-21.7109 245.132M-47.5866 246.297L-21.7109 245.132M-47.5866 246.297L-35.802 233.547M-21.7109 245.132L-9.95395 232.412M-35.802 233.547L-9.95395 232.412M-35.802 233.547L-24.0174 220.796M-9.95395 232.412L1.83064 219.662M-24.0174 220.796L1.83064 219.662M-24.0174 220.796L-12.3235 208.144M1.83064 219.662L13.5246 207.009M-12.3235 208.144L13.5246 207.009M-12.3235 208.144L-0.538863 195.393M13.5246 207.009L25.3092 194.259M-0.538863 195.393L25.3092 194.259M-0.538863 195.393L11.1551 182.741M25.3092 194.259L37.0938 181.509M11.1551 182.741L37.0938 181.509M11.1551 182.741L22.849 170.089M37.0938 181.509L48.6971 168.954M22.849 170.089L48.6971 168.954M22.849 170.089L34.9962 156.946M48.6971 168.954L60.8442 155.812M34.9962 156.946L60.8442 155.812M34.9962 156.946L46.5995 144.392M60.8442 155.812L72.4475 143.257M46.5995 144.392L72.4475 143.257M46.5995 144.392L58.4747 131.544M72.4475 143.257L84.4134 130.311M58.4747 131.544L84.4134 130.311M58.4747 131.544L70.35 118.695M84.4134 130.311L96.2887 117.462M70.35 118.695L96.2887 117.462M70.35 118.695L82.1346 105.945M96.2887 117.462L108.073 104.712M82.1346 105.945L108.073 104.712M82.1346 105.945L93.7379 93.3905M108.073 104.712L119.677 92.1578M93.7379 93.3905L119.677 92.1578M93.7379 93.3905L105.885 80.2478M119.677 92.1578L131.733 79.1132M105.885 80.2478L131.733 79.1132M105.885 80.2478L117.398 67.7917M131.733 79.1132L143.246 66.6571M117.398 67.7917L143.246 66.6571M117.398 67.7917L129.545 54.649M143.246 66.6571L155.484 53.4163M129.545 54.649L155.484 53.4163M129.545 54.649L141.058 42.1928M155.484 53.4163L166.906 41.0583M141.058 42.1928L166.906 41.0583M141.058 42.1928L152.933 29.3444M166.906 41.0583L178.871 28.1117M152.933 29.3444L178.871 28.1117M152.933 29.3444L164.717 16.594M178.871 28.1117L190.656 15.3614M164.717 16.594L190.656 15.3614M164.717 16.594L176.593 3.74555M190.656 15.3614L202.531 2.5129M176.593 3.74555L202.531 2.5129M176.593 3.74555L188.377 -9.00482M202.531 2.5129L214.316 -10.2375M188.377 -9.00482L214.316 -10.2375M188.377 -9.00482L200.162 -21.7552M214.316 -10.2375L226.1 -22.9878M200.162 -21.7552L226.1 -22.9878M200.162 -21.7552L212.128 -34.7017M226.1 -22.9878L237.976 -35.8363M212.128 -34.7017L237.976 -35.8363M212.128 -34.7017L224.095 -47.6494M237.976 -35.8363L250.032 -48.8809M223.714 -47.6313L224.095 -47.6494M250.032 -48.8809L236.513 -61.0852L224.095 -47.6494M250.032 -48.8809L224.095 -47.6494" stroke="black" stroke-width="0.7"/>
<path d="M-20.1589 13.8693L-11.8312 38.0789L3.85035 45.6968L-4.4774 21.4873L-20.1589 13.8693Z" fill="white"/>
<path d="M11.0835 29.0467L19.4112 53.2562L35.0927 60.8742L26.765 36.6646L11.0835 29.0467Z" fill="white"/>
<path d="M42.3259 44.224L50.7743 68.4921L66.2145 75.9929L57.8867 51.7833L42.3259 44.224Z" fill="white"/>
<path d="M74.0508 59.6357L82.3785 83.8452L97.8188 91.346L89.491 67.1364L74.0508 59.6357Z" fill="white"/>
<path d="M105.293 74.813L113.742 99.0811L129.544 106.758L121.095 82.4895L105.293 74.813Z" fill="white"/>
<path d="M325.68 181.875L334.127 206.143L342.205 189.903L325.68 181.875Z" fill="white"/>
<path d="M293.833 166.404L302.282 190.672L318.084 198.349L309.756 174.139L293.833 166.404Z" fill="white"/>
<path d="M262.47 151.168L270.918 175.436L286.6 183.054L278.152 158.786L262.47 151.168Z" fill="white"/>
<path d="M168.381 105.461L176.709 129.67L192.028 137.112L183.701 112.903L168.381 105.461Z" fill="white"/>
<path d="M230.986 135.874L239.435 160.142L255.116 167.76L246.668 143.492L230.986 135.874Z" fill="white"/>
<path d="M199.865 120.755L208.313 145.023L223.512 152.407L215.184 128.197L199.865 120.755Z" fill="white"/>
<path d="M136.777 90.1075L145.225 114.376L160.665 121.876L152.217 97.6083L136.777 90.1075Z" fill="white"/>
<path d="M-51.4013 -1.30796L-43.0735 22.9016L-27.4759 30.4788L-35.8404 6.25139L-51.4013 -1.30796Z" fill="white"/>
<path d="M-35.8404 6.25139L-27.4759 30.4788L-11.8312 38.0789L-20.1589 13.8693L-35.8404 6.25139Z" fill="#F33332"/>
<path d="M-51.4013 -1.30796L-59.4788 14.932L-43.0735 22.9016L-51.4013 -1.30796Z" fill="#F33332"/>
<path d="M-4.4774 21.4873L3.85035 45.6968L19.4112 53.2562L11.0835 29.0467L-4.4774 21.4873Z" fill="#F33332"/>
<path d="M278.152 158.786L286.6 183.054L302.282 190.672L293.833 166.404L278.152 158.786Z" fill="#F33332"/>
<path d="M26.765 36.6646L35.0927 60.8742L50.7743 68.4921L42.3259 44.224L26.765 36.6646Z" fill="#F33332"/>
<path d="M57.8867 51.7833L66.2145 75.9929L82.3785 83.8452L74.0508 59.6357L57.8867 51.7833Z" fill="#F33332"/>
<path d="M89.491 67.1364L97.8188 91.346L113.742 99.0811L105.293 74.813L89.491 67.1364Z" fill="#F33332"/>
<path d="M121.095 82.4895L129.544 106.758L145.225 114.376L136.777 90.1075L121.095 82.4895Z" fill="#F33332"/>
<path d="M152.217 97.6083L160.665 121.876L176.709 129.67L168.381 105.461L152.217 97.6083Z" fill="#F33332"/>
<path d="M183.701 112.903L192.028 137.112L208.313 145.023L199.865 120.755L183.701 112.903Z" fill="#F33332"/>
<path d="M215.184 128.197L223.512 152.407L239.435 160.142L230.986 135.874L215.184 128.197Z" fill="#F33332"/>
<path d="M246.668 143.492L255.116 167.76L270.918 175.436L262.47 151.168L246.668 143.492Z" fill="#F33332"/>
<path d="M309.756 174.139L318.084 198.349L334.127 206.143L325.68 181.875L309.756 174.139Z" fill="#F33332"/>
<path d="M-51.4013 -1.30796L-59.4788 14.932L-43.0735 22.9016M-51.4013 -1.30796L-43.0735 22.9016M-51.4013 -1.30796L-35.8404 6.25139M-43.0735 22.9016L-27.4759 30.4788M-35.8404 6.25139L-27.4759 30.4788M-35.8404 6.25139L-20.1589 13.8693M-27.4759 30.4788L-11.8312 38.0789M-20.1589 13.8693L-11.8312 38.0789M-20.1589 13.8693L-4.47741 21.4873M-11.8312 38.0789L3.85036 45.6969M-4.47741 21.4873L3.85036 45.6969M-4.47741 21.4873L11.0835 29.0467M3.85036 45.6969L19.4112 53.2562M11.0835 29.0467L19.4112 53.2562M11.0835 29.0467L26.765 36.6646M19.4112 53.2562L35.0927 60.8742M26.765 36.6646L35.0927 60.8742M26.765 36.6646L42.3259 44.224M35.0927 60.8742L50.7743 68.4921M42.3259 44.224L50.7743 68.4921M42.3259 44.224L57.8867 51.7833M50.7743 68.4921L66.2145 75.9929M57.8867 51.7833L66.2145 75.9929M57.8867 51.7833L74.0508 59.6357M66.2145 75.9929L82.3785 83.8452M74.0508 59.6357L82.3785 83.8452M74.0508 59.6357L89.491 67.1364M82.3785 83.8452L97.8188 91.346M89.491 67.1364L97.8188 91.346M89.491 67.1364L105.293 74.813M97.8188 91.346L113.742 99.0811M105.293 74.813L113.742 99.0811M105.293 74.813L121.095 82.4895M113.742 99.0811L129.544 106.758M121.095 82.4895L129.544 106.758M121.095 82.4895L136.777 90.1075M129.544 106.758L145.225 114.376M136.777 90.1075L145.225 114.376M136.777 90.1075L152.217 97.6083M145.225 114.376L160.665 121.876M152.217 97.6083L160.665 121.876M152.217 97.6083L168.381 105.461M160.665 121.876L176.709 129.67M168.381 105.461L176.709 129.67M168.381 105.461L183.701 112.903M176.709 129.67L192.028 137.112M183.701 112.903L192.028 137.112M183.701 112.903L199.865 120.755M192.028 137.112L208.313 145.023M199.865 120.755L208.313 145.023M199.865 120.755L215.184 128.197M208.313 145.023L223.512 152.407M215.184 128.197L223.512 152.407M215.184 128.197L230.986 135.874M223.512 152.407L239.435 160.142M230.986 135.874L239.435 160.142M230.986 135.874L246.668 143.492M239.435 160.142L255.116 167.76M246.668 143.492L255.116 167.76M246.668 143.492L262.47 151.168M255.116 167.76L270.919 175.436M262.47 151.168L270.919 175.436M262.47 151.168L278.152 158.786M270.919 175.436L286.6 183.054M278.152 158.786L286.6 183.054M278.152 158.786L293.833 166.404M286.6 183.054L302.282 190.672M293.833 166.404L302.282 190.672M293.833 166.404L309.756 174.139M302.282 190.672L318.084 198.349M309.756 174.139L318.084 198.349M309.756 174.139L325.68 181.875M318.084 198.349L334.127 206.143M325.556 181.519L325.68 181.875M334.127 206.143L342.205 189.903L325.68 181.875M334.127 206.143L325.68 181.875" stroke="black" stroke-width="0.7"/>
<path d="M16.4392 129.314L39.0779 141.695L55.8671 136.909L33.2284 124.529L16.4392 129.314Z" fill="white"/>
<path d="M49.8884 119.779L72.5271 132.16L89.3162 127.374L66.6776 114.993L49.8884 119.779Z" fill="white"/>
<path d="M83.3376 110.244L106.105 122.588L122.636 117.875L99.9976 105.495L83.3376 110.244Z" fill="white"/>
<path d="M117.303 100.562L139.942 112.942L156.473 108.23L133.834 95.8497L117.303 100.562Z" fill="white"/>
<path d="M150.753 91.027L173.52 103.37L190.439 98.5477L167.671 86.2042L150.753 91.027Z" fill="white"/>
<path d="M386.706 23.7658L409.473 36.1097L404.398 18.7226L386.706 23.7658Z" fill="white"/>
<path d="M352.61 33.4853L375.378 45.8288L392.296 41.006L369.657 28.6258L352.61 33.4853Z" fill="white"/>
<path d="M319.032 43.0572L341.799 55.4007L358.589 50.6147L335.821 38.2713L319.032 43.0572Z" fill="white"/>
<path d="M218.297 71.7728L240.935 84.1531L257.337 79.4776L234.698 67.0973L218.297 71.7728Z" fill="white"/>
<path d="M285.324 52.6659L308.092 65.0093L324.881 60.2234L302.113 47.8799L285.324 52.6659Z" fill="white"/>
<path d="M252.004 62.1641L274.772 74.5076L291.045 69.8689L268.406 57.4886L252.004 62.1641Z" fill="white"/>
<path d="M184.46 81.4183L207.228 93.7618L223.759 89.0494L200.991 76.706L184.46 81.4183Z" fill="white"/>
<path d="M-17.01 138.85L5.62872 151.23L22.3281 146.469L-0.349953 134.1L-17.01 138.85Z" fill="white"/>
<path d="M-0.349953 134.1L22.3281 146.469L39.0779 141.695L16.4392 129.314L-0.349953 134.1Z" fill="#F33332"/>
<path d="M-17.01 138.85L-11.9353 156.237L5.62872 151.23L-17.01 138.85Z" fill="#F33332"/>
<path d="M33.2284 124.529L55.8671 136.909L72.5271 132.16L49.8884 119.779L33.2284 124.529Z" fill="#F33332"/>
<path d="M335.821 38.2713L358.589 50.6147L375.378 45.8288L352.61 33.4853L335.821 38.2713Z" fill="#F33332"/>
<path d="M66.6776 114.993L89.3162 127.374L106.105 122.588L83.3376 110.244L66.6776 114.993Z" fill="#F33332"/>
<path d="M99.9976 105.495L122.636 117.875L139.942 112.942L117.303 100.562L99.9976 105.495Z" fill="#F33332"/>
<path d="M133.834 95.8497L156.473 108.23L173.52 103.37L150.753 91.027L133.834 95.8497Z" fill="#F33332"/>
<path d="M167.671 86.2042L190.439 98.5477L207.228 93.7618L184.46 81.4183L167.671 86.2042Z" fill="#F33332"/>
<path d="M200.991 76.706L223.759 89.0494L240.935 84.1531L218.297 71.7728L200.991 76.706Z" fill="#F33332"/>
<path d="M234.698 67.0973L257.337 79.4776L274.772 74.5076L252.004 62.1641L234.698 67.0973Z" fill="#F33332"/>
<path d="M268.406 57.4886L291.045 69.8689L308.092 65.0093L285.324 52.6659L268.406 57.4886Z" fill="#F33332"/>
<path d="M302.113 47.8799L324.881 60.2234L341.799 55.4007L319.032 43.0572L302.113 47.8799Z" fill="#F33332"/>
<path d="M369.657 28.6258L392.296 41.006L409.473 36.1097L386.706 23.7658L369.657 28.6258Z" fill="#F33332"/>
<path d="M-17.01 138.85L-11.9353 156.237L5.62872 151.23M-17.01 138.85L5.62872 151.23M-17.01 138.85L-0.349953 134.1M5.62872 151.23L22.3281 146.469M-0.349953 134.1L22.3281 146.469M-0.349953 134.1L16.4392 129.314M22.3281 146.469L39.0779 141.695M16.4392 129.314L39.0779 141.695M16.4392 129.314L33.2284 124.529M39.0779 141.695L55.8671 136.909M33.2284 124.529L55.8671 136.909M33.2284 124.529L49.8884 119.779M55.8671 136.909L72.5271 132.16M49.8884 119.779L72.5271 132.16M49.8884 119.779L66.6776 114.993M72.5271 132.16L89.3162 127.374M66.6776 114.993L89.3162 127.374M66.6776 114.993L83.3376 110.244M89.3162 127.374L106.105 122.588M83.3376 110.244L106.105 122.588M83.3376 110.244L99.9976 105.495M106.105 122.588L122.636 117.875M99.9976 105.495L122.636 117.875M99.9976 105.495L117.303 100.562M122.636 117.875L139.942 112.942M117.303 100.562L139.942 112.942M117.303 100.562L133.834 95.8497M139.942 112.942L156.473 108.23M133.834 95.8497L156.473 108.23M133.834 95.8497L150.753 91.027M156.473 108.23L173.52 103.37M150.753 91.027L173.52 103.37M150.753 91.027L167.671 86.2042M173.52 103.37L190.439 98.5477M167.671 86.2042L190.439 98.5477M167.671 86.2042L184.46 81.4183M190.439 98.5477L207.228 93.7618M184.46 81.4183L207.228 93.7618M184.46 81.4183L200.991 76.706M207.228 93.7618L223.759 89.0494M200.991 76.706L223.759 89.0494M200.991 76.706L218.297 71.7728M223.759 89.0494L240.935 84.1531M218.297 71.7728L240.935 84.1531M218.297 71.7728L234.698 67.0973M240.935 84.1531L257.337 79.4776M234.698 67.0973L257.337 79.4776M234.698 67.0973L252.004 62.1641M257.337 79.4776L274.772 74.5076M252.004 62.1641L274.772 74.5076M252.004 62.1641L268.406 57.4886M274.772 74.5076L291.045 69.8689M268.406 57.4886L291.045 69.8689M268.406 57.4886L285.324 52.6659M291.045 69.8689L308.092 65.0093M285.324 52.6659L308.092 65.0093M285.324 52.6659L302.113 47.8799M308.092 65.0093L324.881 60.2234M302.113 47.8799L324.881 60.2234M302.113 47.8799L319.032 43.0572M324.881 60.2234L341.799 55.4007M319.032 43.0572L341.799 55.4007M319.032 43.0572L335.821 38.2713M341.799 55.4007L358.589 50.6147M335.821 38.2713L358.589 50.6147M335.821 38.2713L352.61 33.4853M358.589 50.6147L375.378 45.8288M352.61 33.4853L375.378 45.8288M352.61 33.4853L369.657 28.6258M375.378 45.8288L392.296 41.006M369.657 28.6258L392.296 41.006M369.657 28.6258L386.706 23.7658M392.296 41.006L409.473 36.1097M386.372 23.5846L386.706 23.7658M409.473 36.1097L404.398 18.7226L386.706 23.7658M409.473 36.1097L386.706 23.7658" stroke="black" stroke-width="0.7"/>
</g>
<path d="M136.211 72.674C131.841 68.3366 132.905 61.1003 138.346 58.1532C139.112 57.7383 139.815 57.2202 140.434 56.6138L163 34.528L184.037 12.8335C190.003 6.68149 199.997 6.68147 205.963 12.8335L227 34.528L252.5 59.028C257.434 62.6626 257.786 69.8063 253.232 73.8913L228 96.526L204 121.028C199.531 126.546 191.103 126.854 186.229 121.676L179.5 114.528L161.5 97.7762L136.211 72.674Z" fill="#F87B21"/>
<path d="M176.13 22.2707L176.13 22.2708L176.139 22.2617L179.768 18.5916L179.768 18.5917L179.776 18.5826L182.358 15.8365L186.852 11.383L186.854 11.3814L188.854 9.38139L190.319 7.91639L191.72 6.98178L193.142 6.51652L194.344 6.1958H194.522L194.582 6.52874L195.001 6.52783L195.499 6.52675H195.501L195.865 6.52755L195.866 6.52755L196.5 6.52724L196.5 6.52724L197.419 6.52724L198.73 6.96426L199.146 7.3808L199.166 7.39985L199.186 7.41675L199.996 8.06811L203.988 11.7215L208.182 15.8441L208.182 15.8441L208.186 15.848L211.814 19.3346L215.633 23.0047L215.633 23.0048L215.638 23.0088L219.739 26.8583L223.5 30.5609V93.5277H167.5V30.6531L171.834 26.3996L171.838 26.3959L176.13 22.2707Z" fill="white" stroke="black"/>
<rect x="1.07035" width="90.7288" height="90.7288" rx="9.25" transform="matrix(0.713564 -0.70059 0.713564 0.70059 129.583 66.8793)" stroke="black" stroke-width="1.5"/>
<path d="M195 7.02783V94.0278" stroke="black" stroke-width="0.8"/>
<path d="M160.823 69.1987C160.823 71.5815 160.765 73.271 160.647 74.2671C160.54 75.2534 160.188 76.1567 159.593 76.9771C159.007 77.7974 158.211 78.4272 157.205 78.8667C156.199 79.3062 155.027 79.5259 153.689 79.5259C152.42 79.5259 151.277 79.3208 150.262 78.9106C149.256 78.4907 148.445 77.8657 147.83 77.0356C147.215 76.2056 146.849 75.3022 146.731 74.3257C146.614 73.3491 146.556 71.6401 146.556 69.1987V65.1411C146.556 62.7583 146.609 61.0737 146.717 60.0874C146.834 59.0913 147.186 58.1831 147.771 57.3628C148.367 56.5425 149.168 55.9126 150.174 55.4731C151.18 55.0337 152.352 54.814 153.689 54.814C154.959 54.814 156.097 55.0239 157.103 55.4438C158.118 55.854 158.934 56.4741 159.549 57.3042C160.164 58.1343 160.53 59.0376 160.647 60.0142C160.765 60.9907 160.823 62.6997 160.823 65.1411V69.1987ZM154.656 61.4058C154.656 60.3022 154.593 59.5991 154.466 59.2964C154.349 58.9839 154.1 58.8276 153.719 58.8276C153.396 58.8276 153.147 58.9546 152.972 59.2085C152.806 59.4526 152.723 60.1851 152.723 61.4058V72.48C152.723 73.8569 152.776 74.7065 152.884 75.0288C153.001 75.3511 153.265 75.5122 153.675 75.5122C154.095 75.5122 154.363 75.3267 154.48 74.9556C154.598 74.5845 154.656 73.7007 154.656 72.3042V61.4058ZM177.332 79.0278H171.15V60.0435H169.319V79.0278H163.138V55.2974H177.332V79.0278ZM190.457 55.312L193.987 79.0278H187.674L187.366 74.7651H185.154L184.788 79.0278H178.401L181.536 55.312H190.457ZM187.19 70.561C186.878 67.8755 186.565 64.5601 186.253 60.6147C185.628 65.146 185.237 68.4614 185.081 70.561H187.19ZM209.441 65.6538H203.274V61.5229C203.274 60.3218 203.206 59.5747 203.069 59.2817C202.942 58.979 202.654 58.8276 202.205 58.8276C201.697 58.8276 201.375 59.0083 201.238 59.3696C201.102 59.731 201.033 60.5122 201.033 61.7134V72.729C201.033 73.8813 201.102 74.6333 201.238 74.9849C201.375 75.3364 201.683 75.5122 202.161 75.5122C202.62 75.5122 202.918 75.3364 203.055 74.9849C203.201 74.6333 203.274 73.8081 203.274 72.5093V69.5356H209.441V70.4585C209.441 72.9097 209.266 74.6479 208.914 75.6733C208.572 76.6987 207.806 77.5972 206.614 78.3687C205.433 79.1401 203.973 79.5259 202.234 79.5259C200.428 79.5259 198.938 79.1987 197.767 78.5444C196.595 77.8901 195.818 76.9868 195.438 75.8345C195.057 74.6724 194.866 72.9292 194.866 70.605V63.6763C194.866 61.9673 194.925 60.688 195.042 59.8384C195.159 58.979 195.506 58.1538 196.082 57.3628C196.668 56.5718 197.474 55.9517 198.499 55.5024C199.534 55.0435 200.721 54.814 202.059 54.814C203.875 54.814 205.374 55.1655 206.556 55.8687C207.737 56.5718 208.514 57.4507 208.885 58.5054C209.256 59.5503 209.441 61.1812 209.441 63.3979V65.6538ZM225.833 55.312V79.0278H219.666V69.0669H217.82V79.0278H211.653V55.312H217.82V63.7935H219.666V55.312H225.833ZM242.415 69.1987C242.415 71.5815 242.356 73.271 242.239 74.2671C242.132 75.2534 241.78 76.1567 241.185 76.9771C240.599 77.7974 239.803 78.4272 238.797 78.8667C237.791 79.3062 236.619 79.5259 235.281 79.5259C234.012 79.5259 232.869 79.3208 231.854 78.9106C230.848 78.4907 230.037 77.8657 229.422 77.0356C228.807 76.2056 228.44 75.3022 228.323 74.3257C228.206 73.3491 228.147 71.6401 228.147 69.1987V65.1411C228.147 62.7583 228.201 61.0737 228.309 60.0874C228.426 59.0913 228.777 58.1831 229.363 57.3628C229.959 56.5425 230.76 55.9126 231.766 55.4731C232.771 55.0337 233.943 54.814 235.281 54.814C236.551 54.814 237.688 55.0239 238.694 55.4438C239.71 55.854 240.525 56.4741 241.141 57.3042C241.756 58.1343 242.122 59.0376 242.239 60.0142C242.356 60.9907 242.415 62.6997 242.415 65.1411V69.1987ZM236.248 61.4058C236.248 60.3022 236.185 59.5991 236.058 59.2964C235.94 58.9839 235.691 58.8276 235.311 58.8276C234.988 58.8276 234.739 58.9546 234.563 59.2085C234.397 59.4526 234.314 60.1851 234.314 61.4058V72.48C234.314 73.8569 234.368 74.7065 234.476 75.0288C234.593 75.3511 234.856 75.5122 235.267 75.5122C235.687 75.5122 235.955 75.3267 236.072 74.9556C236.189 74.5845 236.248 73.7007 236.248 72.3042V61.4058Z" fill="black"/>
</svg>
