<svg width="394" height="133" viewBox="0 0 394 133" fill="none" xmlns="http://www.w3.org/2000/svg">
<rect x="0.5" y="0.527832" width="393" height="131" rx="14.5" fill="#FFD527" stroke="black"/>
<mask id="mask0_667_520" style="mask-type:alpha" maskUnits="userSpaceOnUse" x="1" y="1" width="392" height="131">
<rect x="1.50488" y="1.52783" width="390.99" height="129" rx="14.5" fill="#D9D9D9" stroke="black"/>
</mask>
<g mask="url(#mask0_667_520)">
<path d="M85.7381 -65.9398L90.511 -40.8083L104.942 -31.0714L100.169 -56.2028L85.7381 -65.9398Z" fill="white"/>
<path d="M114.489 -46.5408L119.262 -21.4094L133.693 -11.6725L128.921 -36.8039L114.489 -46.5408Z" fill="white"/>
<path d="M143.241 -27.1419L148.125 -1.93559L162.334 7.65153L157.561 -17.4799L143.241 -27.1419Z" fill="white"/>
<path d="M56.9868 -85.3387L61.7597 -60.2073L76.1137 -50.5224L71.307 -75.6767L56.9868 -85.3387Z" fill="white"/>
<path d="M71.307 -75.6767L76.1137 -50.5224L90.511 -40.8083L85.7381 -65.9398L71.307 -75.6767Z" fill="#F33332"/>
<path d="M56.9868 -85.3387L46.6625 -70.3936L61.7597 -60.2073L56.9868 -85.3387Z" fill="#F33332"/>
<path d="M100.169 -56.2028L104.942 -31.0714L119.262 -21.4094L114.489 -46.5408L100.169 -56.2028Z" fill="#F33332"/>
<path d="M128.921 -36.8039L133.693 -11.6725L148.125 -1.93559L143.241 -27.1419L128.921 -36.8039Z" fill="#F33332"/>
<path d="M157.561 -17.4799L162.334 7.65153L177.209 17.688L172.436 -7.44336L157.561 -17.4799Z" fill="#F33332"/>
<path d="M56.9868 -85.3387L46.6625 -70.3936L61.7597 -60.2073M56.9868 -85.3387L61.7597 -60.2073M56.9868 -85.3387L71.307 -75.6767M61.7597 -60.2073L76.1137 -50.5224M71.307 -75.6767L76.1137 -50.5224M71.307 -75.6767L85.7381 -65.9398M76.1137 -50.5224L90.511 -40.8083M85.7381 -65.9398L90.511 -40.8083M85.7381 -65.9398L100.169 -56.2028M90.511 -40.8083L104.942 -31.0714M100.169 -56.2028L104.942 -31.0714M100.169 -56.2028L114.489 -46.5408M104.942 -31.0714L119.262 -21.4094M114.489 -46.5408L119.262 -21.4094M114.489 -46.5408L128.921 -36.8039M119.262 -21.4094L133.693 -11.6725M128.921 -36.8039L133.693 -11.6725M128.921 -36.8039L143.241 -27.1419M133.693 -11.6725L148.125 -1.93559M143.241 -27.1419L148.125 -1.93559M143.241 -27.1419L157.561 -17.4799M148.125 -1.93559L162.334 7.65153M157.561 -17.4799L162.334 7.65153M157.561 -17.4799L172.436 -7.44336M162.334 7.65153L177.209 17.688L172.436 -7.44336M172.436 -7.44336L186.645 2.14375" stroke="black" stroke-width="0.7"/>
</g>
<mask id="mask1_667_520" style="mask-type:alpha" maskUnits="userSpaceOnUse" x="33" y="92" width="69" height="39">
<rect x="33" y="92" width="69" height="39" fill="#D9D9D9"/>
</mask>
<g mask="url(#mask1_667_520)">
<path d="M50.5064 149.987C49.3927 149.513 46.4335 146.598 45.8349 145.998C42.0302 141.663 40.0698 135.598 39.1505 130.377C43.1755 124.443 52.9722 111.548 59.9586 107.443C57.8818 113.1 57.2476 119.033 57.2171 121.821C57.3198 128.943 59.0835 134.929 60.6927 138.72C57.8788 144.169 55.0643 148.527 54.0088 150.025L50.5064 149.987Z" fill="#F33332"/>
<path d="M48.2914 99.998C49.848 99.6463 52.5055 98.8407 54.458 98.6757L57.7945 98.4802C56.4899 98.6201 48.9035 100.906 45.2734 102.031C46.1989 101.104 47.2257 100.345 48.2914 99.998Z" fill="#F33332"/>
<path fill-rule="evenodd" clip-rule="evenodd" d="M82.5233 141.902C80.4586 146.109 77.3053 148.481 75.9867 149.141C75.1948 149.591 73.6706 149.838 72.3863 149.96C70.3596 149.789 65.53 147.985 62.4251 142.134C61.9482 141.388 61.3327 140.227 60.6927 138.72C59.0835 134.929 57.3198 128.943 57.2171 121.821C57.2476 119.033 57.8818 113.1 59.9586 107.443C60.5793 105.753 61.3288 104.087 62.2296 102.537C63.0183 101.214 65.5449 98.3086 69.3409 97.2693C70.5636 97.2088 72.2748 97.2458 73.3649 97.6669C74.2215 98.0757 76.1508 99.2052 77.1973 100.528L77.2886 100.647C80.1804 103.092 82.9934 109.749 84.0384 112.772C85.1308 115.932 85.7 119.159 85.9779 122.381C86.1739 124.653 86.2777 126.942 86.0882 129.118C85.6069 134.647 83.5737 139.539 82.5233 141.902ZM64.3398 112.552C62.4172 117.206 62.6672 124.575 63.0325 127.678C63.662 133.361 65.9355 138.053 67.3328 139.868C71.4802 145.253 75.5912 143.124 77.5214 141.296C81.3439 136.731 82.64 129.586 82.5499 126.37C82.3652 119.771 81.0454 115.093 80.2959 113.6C77.969 108.328 75.2504 105.443 71.6384 105.637C67.7431 105.847 65.2599 110.387 64.3398 112.552Z" fill="#F33332"/>
<path d="M38.4563 122C38.4001 119.581 38.9476 113.256 41.5878 107.304C42.2196 105.993 43.5763 103.731 45.2734 102.031C48.9035 100.906 56.4899 98.6201 57.7945 98.4802L59.7963 98.2655L68.3807 97.3447C68.6325 97.3159 68.9634 97.2879 69.3409 97.2693C65.5449 98.3086 63.0183 101.214 62.2296 102.537C61.3288 104.087 60.5793 105.753 59.9586 107.443C52.9722 111.548 43.1755 124.443 39.1505 130.377C38.5556 126.999 38.3968 123.974 38.4563 122Z" fill="white"/>
<path d="M70.8232 150.055L60.0129 150.089L54.0088 150.025C55.0643 148.527 57.8788 144.169 60.6927 138.72C61.3327 140.227 61.9482 141.388 62.4251 142.134C65.53 147.985 70.3596 149.789 72.3863 149.96C71.7764 150.017 71.2207 150.046 70.8232 150.055Z" fill="white"/>
<path d="M63.0325 127.678C62.6672 124.575 62.4172 117.206 64.3398 112.552C65.2599 110.387 67.7431 105.847 71.6384 105.637C75.2504 105.443 77.969 108.328 80.2959 113.6C81.0454 115.093 82.3652 119.771 82.5499 126.37C82.64 129.586 81.3439 136.731 77.5214 141.296C75.5912 143.124 71.4802 145.253 67.3328 139.868C65.9355 138.053 63.662 133.361 63.0325 127.678Z" fill="url(#paint0_linear_667_520)"/>
<path d="M77.2886 100.647C80.1804 103.092 82.9934 109.749 84.0384 112.772C85.1308 115.932 85.7 119.159 85.9779 122.381C86.1739 124.653 86.2777 126.942 86.0882 129.118C85.6069 134.647 83.5737 139.539 82.5233 141.902C80.4586 146.109 77.3053 148.481 75.9867 149.141C75.1948 149.591 73.6706 149.838 72.3863 149.96M77.2886 100.647C77.259 100.607 77.2286 100.567 77.1973 100.528M77.2886 100.647L77.1973 100.528M72.3863 149.96C71.7764 150.017 71.2207 150.046 70.8232 150.055L60.0129 150.089L54.0088 150.025M72.3863 149.96C70.3596 149.789 65.53 147.985 62.4251 142.134C61.9482 141.388 61.3327 140.227 60.6927 138.72M69.3409 97.2693C68.9634 97.2879 68.6325 97.3159 68.3807 97.3447L59.7963 98.2655L57.7945 98.4802M69.3409 97.2693C70.5636 97.2088 72.2748 97.2458 73.3649 97.6669C74.2215 98.0757 76.1508 99.2052 77.1973 100.528M69.3409 97.2693C65.5449 98.3086 63.0183 101.214 62.2296 102.537C61.3288 104.087 60.5793 105.753 59.9586 107.443M54.0088 150.025L50.5064 149.987C49.3927 149.513 46.4335 146.598 45.8349 145.998C42.0302 141.663 40.0698 135.598 39.1505 130.377M54.0088 150.025C55.0643 148.527 57.8788 144.169 60.6927 138.72M60.6927 138.72C59.0835 134.929 57.3198 128.943 57.2171 121.821C57.2476 119.033 57.8818 113.1 59.9586 107.443M39.1505 130.377C38.5556 126.999 38.3968 123.974 38.4563 122C38.4001 119.581 38.9476 113.256 41.5878 107.304C42.2196 105.993 43.5763 103.731 45.2734 102.031M39.1505 130.377C43.1755 124.443 52.9722 111.548 59.9586 107.443M45.2734 102.031C46.1989 101.104 47.2257 100.345 48.2914 99.998C49.848 99.6463 52.5055 98.8407 54.458 98.6757L57.7945 98.4802M45.2734 102.031C48.9035 100.906 56.4899 98.6201 57.7945 98.4802M63.0325 127.678C62.6672 124.575 62.4172 117.206 64.3398 112.552C65.2599 110.387 67.7431 105.847 71.6384 105.637C75.2504 105.443 77.969 108.328 80.2959 113.6C81.0454 115.093 82.3652 119.771 82.5499 126.37C82.64 129.586 81.3439 136.731 77.5214 141.296C75.5912 143.124 71.4802 145.253 67.3328 139.868C65.9355 138.053 63.662 133.361 63.0325 127.678Z" stroke="black" stroke-width="0.7"/>
</g>
<mask id="mask2_667_520" style="mask-type:alpha" maskUnits="userSpaceOnUse" x="154" y="1" width="86" height="48">
<rect x="154" y="1" width="86" height="48" fill="#D9D9D9"/>
</mask>
<g mask="url(#mask2_667_520)">
<path d="M215.157 2.08965C215.399 0.904152 214.68 -3.18734 214.526 -4.02066C213.119 -9.6139 209.24 -14.6718 205.464 -18.3933C198.294 -18.4501 182.117 -17.7089 174.771 -14.2891C180.606 -12.7862 185.85 -9.93905 188.162 -8.3809C193.966 -4.25232 197.892 0.598772 200.098 4.07602C206.181 4.85398 211.366 5.01216 213.199 4.994L215.157 2.08965Z" fill="#F33332"/>
<path d="M175.268 -28.1206C174.094 -27.0391 171.922 -25.3091 170.677 -23.7957L168.622 -21.1604C169.478 -22.1547 175.667 -27.1012 178.655 -29.4502C177.367 -29.2147 176.158 -28.8009 175.268 -28.1206Z" fill="#F33332"/>
<path fill-rule="evenodd" clip-rule="evenodd" d="M190.321 23.8525C194.956 24.5419 198.699 23.2933 199.991 22.5827C200.811 22.1866 201.88 21.0722 202.709 20.084C203.72 18.3189 204.978 13.3192 201.925 7.44077C201.581 6.62432 200.975 5.4588 200.098 4.07602C197.892 0.598772 193.966 -4.25232 188.162 -8.3809C185.85 -9.93905 180.606 -12.7862 174.771 -14.2891C173.027 -14.7383 171.23 -15.0674 169.442 -15.2062C167.906 -15.3081 164.079 -14.8783 161.068 -12.3439C160.324 -11.3718 159.383 -9.94226 159.11 -8.80587C158.96 -7.86863 158.795 -5.63919 159.289 -4.02658L159.335 -3.88387C159.706 -0.115302 163.588 5.98071 165.483 8.55765C167.464 11.2513 169.796 13.552 172.291 15.6105C174.049 17.0617 175.874 18.4471 177.773 19.5268C182.598 22.2705 187.779 23.3752 190.321 23.8525ZM176.488 -7.78174C181.411 -6.72136 187.334 -2.33099 189.681 -0.268359C194.001 3.47727 196.572 8.01304 197.272 10.1935C199.35 16.6652 195.263 18.8403 192.662 19.3912C186.734 19.9452 180.117 16.9547 177.521 15.0544C172.194 11.1545 169.092 7.41164 168.289 5.94685C165.271 1.03778 164.44 -2.83813 166.652 -5.70084C169.036 -8.78806 174.183 -8.25381 176.488 -7.78174Z" fill="#F33332"/>
<path d="M198.963 -23.7219C197.004 -25.1418 191.486 -28.283 185.088 -29.4897C183.65 -29.7141 181.018 -29.8819 178.655 -29.4502C175.667 -27.1012 169.478 -22.1547 168.622 -21.1604L167.308 -19.6345L161.676 -13.0914C161.509 -12.9006 161.298 -12.644 161.068 -12.3439C164.079 -14.8783 167.906 -15.3081 169.442 -15.2062C171.23 -15.0674 173.027 -14.7383 174.771 -14.2891C182.117 -17.7089 198.294 -18.4501 205.464 -18.3933C203.021 -20.8014 200.621 -22.65 198.963 -23.7219Z" fill="white"/>
<path d="M203.676 18.8516L209.843 9.97288L213.199 4.994C211.366 5.01216 206.181 4.85398 200.098 4.07602C200.975 5.4588 201.581 6.62432 201.925 7.44077C204.978 13.3192 203.72 18.3189 202.709 20.084C203.103 19.6146 203.443 19.1737 203.676 18.8516Z" fill="white"/>
<path d="M189.681 -0.268359C187.334 -2.33099 181.411 -6.72136 176.488 -7.78174C174.183 -8.25381 169.036 -8.78806 166.652 -5.70084C164.44 -2.83813 165.271 1.03778 168.289 5.94685C169.092 7.41164 172.194 11.1545 177.521 15.0544C180.117 16.9547 186.734 19.9452 192.662 19.3912C195.263 18.8403 199.35 16.6652 197.272 10.1935C196.572 8.01304 194.001 3.47727 189.681 -0.268359Z" fill="url(#paint1_linear_667_520)"/>
<path d="M159.335 -3.88387C159.706 -0.115302 163.588 5.98071 165.483 8.55765C167.464 11.2513 169.796 13.552 172.291 15.6105C174.049 17.0617 175.874 18.4471 177.773 19.5268C182.598 22.2705 187.779 23.3752 190.321 23.8525C194.956 24.5419 198.699 23.2933 199.991 22.5827C200.811 22.1866 201.88 21.0722 202.709 20.084M159.335 -3.88387C159.319 -3.93086 159.304 -3.97844 159.289 -4.02658M159.335 -3.88387L159.289 -4.02658M202.709 20.084C203.103 19.6146 203.443 19.1737 203.676 18.8516L209.843 9.97288L213.199 4.994M202.709 20.084C203.72 18.3189 204.978 13.3192 201.925 7.44077C201.581 6.62432 200.975 5.4588 200.098 4.07602M161.068 -12.3439C161.298 -12.644 161.509 -12.9006 161.676 -13.0914L167.308 -19.6345L168.622 -21.1604M161.068 -12.3439C160.324 -11.3718 159.383 -9.94226 159.11 -8.80587C158.96 -7.86863 158.795 -5.63919 159.289 -4.02658M161.068 -12.3439C164.079 -14.8783 167.906 -15.3081 169.442 -15.2062C171.23 -15.0674 173.027 -14.7383 174.771 -14.2891M213.199 4.994L215.157 2.08965C215.399 0.904153 214.68 -3.18734 214.526 -4.02066C213.119 -9.6139 209.24 -14.6718 205.464 -18.3933M213.199 4.994C211.366 5.01216 206.181 4.85398 200.098 4.07602M200.098 4.07602C197.892 0.598771 193.966 -4.25232 188.162 -8.3809C185.85 -9.93905 180.606 -12.7862 174.771 -14.2891M205.464 -18.3933C203.021 -20.8014 200.621 -22.65 198.963 -23.7219C197.004 -25.1418 191.486 -28.283 185.088 -29.4897C183.65 -29.7141 181.018 -29.8819 178.655 -29.4502M205.464 -18.3933C198.294 -18.4501 182.117 -17.7089 174.771 -14.2891M178.655 -29.4502C177.367 -29.2147 176.158 -28.8009 175.268 -28.1206C174.094 -27.0391 171.922 -25.3091 170.677 -23.7957L168.622 -21.1604M178.655 -29.4502C175.667 -27.1012 169.478 -22.1547 168.622 -21.1604M189.681 -0.268359C187.334 -2.33099 181.411 -6.72136 176.488 -7.78174C174.183 -8.25381 169.036 -8.78806 166.652 -5.70084C164.44 -2.83813 165.271 1.03778 168.289 5.94685C169.092 7.41164 172.194 11.1545 177.521 15.0544C180.117 16.9547 186.734 19.9452 192.662 19.3912C195.263 18.8403 199.35 16.6652 197.272 10.1935C196.572 8.01304 194.001 3.47727 189.681 -0.268359Z" stroke="black" stroke-width="0.7"/>
</g>
<path d="M136.211 73.674C131.841 69.3366 132.905 62.1003 138.346 59.1532C139.112 58.7383 139.815 58.2202 140.434 57.6138L163 35.528L184.037 13.8335C190.003 7.68149 199.997 7.68147 205.963 13.8335L227 35.528L252.5 60.028C257.434 63.6626 257.786 70.8063 253.232 74.8913L228 97.526L204 122.028C199.531 127.546 191.103 127.854 186.229 122.676L179.5 115.528L161.5 98.7762L136.211 73.674Z" fill="#F87B21"/>
<path d="M176.13 23.2707L176.13 23.2708L176.139 23.2617L179.768 19.5916L179.768 19.5917L179.776 19.5826L182.358 16.8365L186.852 12.383L186.854 12.3814L188.854 10.3814L190.319 8.91639L191.72 7.98178L193.142 7.51652L194.344 7.1958H194.522L194.582 7.52874L195.001 7.52783L195.499 7.52675H195.501L195.865 7.52755L195.866 7.52755L196.5 7.52724L196.5 7.52724L197.419 7.52724L198.73 7.96426L199.146 8.3808L199.166 8.39985L199.186 8.41675L199.996 9.06811L203.988 12.7215L208.182 16.8441L208.182 16.8441L208.186 16.848L211.814 20.3346L215.633 24.0047L215.633 24.0048L215.638 24.0088L219.739 27.8583L223.5 31.5609V94.5277H167.5V31.6531L171.834 27.3996L171.838 27.3959L176.13 23.2707Z" fill="white" stroke="black"/>
<rect x="1.07035" width="90.7288" height="90.7288" rx="9.25" transform="matrix(0.713564 -0.70059 0.713564 0.70059 129.583 67.8793)" stroke="black" stroke-width="1.5"/>
<path d="M195 8.02783V95.0278" stroke="black" stroke-width="0.8"/>
<path d="M160.823 70.1987C160.823 72.5815 160.765 74.271 160.647 75.2671C160.54 76.2534 160.188 77.1567 159.593 77.9771C159.007 78.7974 158.211 79.4272 157.205 79.8667C156.199 80.3062 155.027 80.5259 153.689 80.5259C152.42 80.5259 151.277 80.3208 150.262 79.9106C149.256 79.4907 148.445 78.8657 147.83 78.0356C147.215 77.2056 146.849 76.3022 146.731 75.3257C146.614 74.3491 146.556 72.6401 146.556 70.1987V66.1411C146.556 63.7583 146.609 62.0737 146.717 61.0874C146.834 60.0913 147.186 59.1831 147.771 58.3628C148.367 57.5425 149.168 56.9126 150.174 56.4731C151.18 56.0337 152.352 55.814 153.689 55.814C154.959 55.814 156.097 56.0239 157.103 56.4438C158.118 56.854 158.934 57.4741 159.549 58.3042C160.164 59.1343 160.53 60.0376 160.647 61.0142C160.765 61.9907 160.823 63.6997 160.823 66.1411V70.1987ZM154.656 62.4058C154.656 61.3022 154.593 60.5991 154.466 60.2964C154.349 59.9839 154.1 59.8276 153.719 59.8276C153.396 59.8276 153.147 59.9546 152.972 60.2085C152.806 60.4526 152.723 61.1851 152.723 62.4058V73.48C152.723 74.8569 152.776 75.7065 152.884 76.0288C153.001 76.3511 153.265 76.5122 153.675 76.5122C154.095 76.5122 154.363 76.3267 154.48 75.9556C154.598 75.5845 154.656 74.7007 154.656 73.3042V62.4058ZM177.332 80.0278H171.15V61.0435H169.319V80.0278H163.138V56.2974H177.332V80.0278ZM190.457 56.312L193.987 80.0278H187.674L187.366 75.7651H185.154L184.788 80.0278H178.401L181.536 56.312H190.457ZM187.19 71.561C186.878 68.8755 186.565 65.5601 186.253 61.6147C185.628 66.146 185.237 69.4614 185.081 71.561H187.19ZM209.441 66.6538H203.274V62.5229C203.274 61.3218 203.206 60.5747 203.069 60.2817C202.942 59.979 202.654 59.8276 202.205 59.8276C201.697 59.8276 201.375 60.0083 201.238 60.3696C201.102 60.731 201.033 61.5122 201.033 62.7134V73.729C201.033 74.8813 201.102 75.6333 201.238 75.9849C201.375 76.3364 201.683 76.5122 202.161 76.5122C202.62 76.5122 202.918 76.3364 203.055 75.9849C203.201 75.6333 203.274 74.8081 203.274 73.5093V70.5356H209.441V71.4585C209.441 73.9097 209.266 75.6479 208.914 76.6733C208.572 77.6987 207.806 78.5972 206.614 79.3687C205.433 80.1401 203.973 80.5259 202.234 80.5259C200.428 80.5259 198.938 80.1987 197.767 79.5444C196.595 78.8901 195.818 77.9868 195.438 76.8345C195.057 75.6724 194.866 73.9292 194.866 71.605V64.6763C194.866 62.9673 194.925 61.688 195.042 60.8384C195.159 59.979 195.506 59.1538 196.082 58.3628C196.668 57.5718 197.474 56.9517 198.499 56.5024C199.534 56.0435 200.721 55.814 202.059 55.814C203.875 55.814 205.374 56.1655 206.556 56.8687C207.737 57.5718 208.514 58.4507 208.885 59.5054C209.256 60.5503 209.441 62.1812 209.441 64.3979V66.6538ZM225.833 56.312V80.0278H219.666V70.0669H217.82V80.0278H211.653V56.312H217.82V64.7935H219.666V56.312H225.833ZM242.415 70.1987C242.415 72.5815 242.356 74.271 242.239 75.2671C242.132 76.2534 241.78 77.1567 241.185 77.9771C240.599 78.7974 239.803 79.4272 238.797 79.8667C237.791 80.3062 236.619 80.5259 235.281 80.5259C234.012 80.5259 232.869 80.3208 231.854 79.9106C230.848 79.4907 230.037 78.8657 229.422 78.0356C228.807 77.2056 228.44 76.3022 228.323 75.3257C228.206 74.3491 228.147 72.6401 228.147 70.1987V66.1411C228.147 63.7583 228.201 62.0737 228.309 61.0874C228.426 60.0913 228.777 59.1831 229.363 58.3628C229.959 57.5425 230.76 56.9126 231.766 56.4731C232.771 56.0337 233.943 55.814 235.281 55.814C236.551 55.814 237.688 56.0239 238.694 56.4438C239.71 56.854 240.525 57.4741 241.141 58.3042C241.756 59.1343 242.122 60.0376 242.239 61.0142C242.356 61.9907 242.415 63.6997 242.415 66.1411V70.1987ZM236.248 62.4058C236.248 61.3022 236.185 60.5991 236.058 60.2964C235.94 59.9839 235.691 59.8276 235.311 59.8276C234.988 59.8276 234.739 59.9546 234.563 60.2085C234.397 60.4526 234.314 61.1851 234.314 62.4058V73.48C234.314 74.8569 234.368 75.7065 234.476 76.0288C234.593 76.3511 234.856 76.5122 235.267 76.5122C235.687 76.5122 235.955 76.3267 236.072 75.9556C236.189 75.5845 236.248 74.7007 236.248 73.3042V62.4058Z" fill="black"/>
<defs>
<linearGradient id="paint0_linear_667_520" x1="38.7444" y1="113.985" x2="85.8929" y2="133.996" gradientUnits="userSpaceOnUse">
<stop offset="0.715" stop-color="white"/>
<stop offset="1" stop-color="#999999"/>
</linearGradient>
<linearGradient id="paint1_linear_667_520" x1="192.202" y1="-28.0364" x2="181.9" y2="22.1366" gradientUnits="userSpaceOnUse">
<stop offset="0.715" stop-color="white"/>
<stop offset="1" stop-color="#999999"/>
</linearGradient>
</defs>
</svg>
