<svg width="394" height="147" viewBox="0 0 394 147" fill="none" xmlns="http://www.w3.org/2000/svg">
<rect x="0.5" y="14.5278" width="393" height="131" rx="14.5" fill="#FFD527" stroke="black"/>
<mask id="mask0_667_520" style="mask-type:alpha" maskUnits="userSpaceOnUse" x="1" y="15" width="392" height="131">
<rect x="1.50488" y="15.5278" width="390.99" height="129" rx="14.5" fill="#D9D9D9" stroke="black"/>
</mask>
<g mask="url(#mask0_667_520)">
<path d="M85.7381 -51.9398L90.511 -26.8084L104.942 -17.0714L100.169 -42.2028L85.7381 -51.9398Z" fill="white"/>
<path d="M114.489 -32.5408L119.262 -7.40943L133.693 2.32749L128.921 -22.8039L114.489 -32.5408Z" fill="white"/>
<path d="M143.241 -13.1419L148.125 12.0644L162.334 21.6515L157.561 -3.47988L143.241 -13.1419Z" fill="white"/>
<path d="M172.436 6.55663L177.209 31.688L191.418 41.2751L186.645 16.1437L172.436 6.55663Z" fill="white"/>
<path d="M201.187 25.9556L206.071 51.1619L220.613 60.9737L215.729 35.7674L201.187 25.9556Z" fill="white"/>
<path d="M56.9868 -71.3387L61.7597 -46.2073L76.1137 -36.5224L71.307 -61.6767L56.9868 -71.3387Z" fill="white"/>
<path d="M71.307 -61.6767L76.1137 -36.5224L90.511 -26.8084L85.7381 -51.9398L71.307 -61.6767Z" fill="#F33332"/>
<path d="M56.9868 -71.3387L46.6625 -56.3936L61.7597 -46.2073L56.9868 -71.3387Z" fill="#F33332"/>
<path d="M100.169 -42.2028L104.942 -17.0714L119.262 -7.40943L114.489 -32.5408L100.169 -42.2028Z" fill="#F33332"/>
<path d="M128.921 -22.8039L133.693 2.32749L148.125 12.0644L143.241 -13.1419L128.921 -22.8039Z" fill="#F33332"/>
<path d="M157.561 -3.47988L162.334 21.6515L177.209 31.688L172.436 6.55663L157.561 -3.47988Z" fill="#F33332"/>
<path d="M186.645 16.1437L191.418 41.2751L206.071 51.1619L201.187 25.9556L186.645 16.1437Z" fill="#F33332"/>
<path d="M215.729 35.7674L220.613 60.9737L235.044 70.7106L230.161 45.5043L215.729 35.7674Z" fill="#F33332"/>
<path d="M56.9868 -71.3387L46.6625 -56.3936L61.7597 -46.2073M56.9868 -71.3387L61.7597 -46.2073M56.9868 -71.3387L71.307 -61.6767M61.7597 -46.2073L76.1137 -36.5224M71.307 -61.6767L76.1137 -36.5224M71.307 -61.6767L85.7381 -51.9398M76.1137 -36.5224L90.511 -26.8084M85.7381 -51.9398L90.511 -26.8084M85.7381 -51.9398L100.169 -42.2028M90.511 -26.8084L104.942 -17.0714M100.169 -42.2028L104.942 -17.0714M100.169 -42.2028L114.489 -32.5408M104.942 -17.0714L119.262 -7.40943M114.489 -32.5408L119.262 -7.40943M114.489 -32.5408L128.921 -22.8039M119.262 -7.40943L133.693 2.32749M128.921 -22.8039L133.693 2.32749M128.921 -22.8039L143.241 -13.1419M133.693 2.32749L148.125 12.0644M143.241 -13.1419L148.125 12.0644M143.241 -13.1419L157.561 -3.47988M148.125 12.0644L162.334 21.6515M157.561 -3.47988L162.334 21.6515M157.561 -3.47988L172.436 6.55663M162.334 21.6515L177.209 31.688M172.436 6.55663L177.209 31.688M172.436 6.55663L186.645 16.1437M177.209 31.688L191.418 41.2751M186.645 16.1437L191.418 41.2751M186.645 16.1437L201.187 25.9556M191.418 41.2751L206.071 51.1619M201.187 25.9556L206.071 51.1619M201.187 25.9556L215.729 35.7674M206.071 51.1619L220.613 60.9737M215.729 35.7674L220.613 60.9737M215.729 35.7674L230.161 45.5043M220.613 60.9737L235.044 70.7106L230.161 45.5043M230.161 45.5043L244.37 55.0914" stroke="black" stroke-width="0.7"/>
<path d="M-35.8017 247.547L-9.95371 246.412L1.83088 233.662L-24.0172 234.796L-35.8017 247.547Z" fill="white"/>
<path d="M-12.3232 222.144L13.5248 221.009L25.3094 208.259L-0.538623 209.393L-12.3232 222.144Z" fill="white"/>
<path d="M11.1553 196.741L37.094 195.509L48.6973 182.954L22.8493 184.089L11.1553 196.741Z" fill="white"/>
<path d="M34.9965 170.946L60.8445 169.812L72.4478 157.257L46.5997 158.392L34.9965 170.946Z" fill="white"/>
<path d="M58.475 145.544L84.4137 144.311L96.2889 131.462L70.3502 132.695L58.475 145.544Z" fill="white"/>
<path d="M82.1348 119.945L108.073 118.712L119.677 106.158L93.7381 107.39L82.1348 119.945Z" fill="white"/>
<path d="M-59.2803 272.949L-33.4322 271.815L-21.7107 259.132L-47.5863 260.297L-59.2803 272.949Z" fill="white"/>
<path d="M-47.5863 260.297L-21.7107 259.132L-9.95371 246.412L-35.8017 247.547L-47.5863 260.297Z" fill="#F33332"/>
<path d="M-59.2803 272.949L-45.7607 285.153L-33.4322 271.815L-59.2803 272.949Z" fill="#F33332"/>
<path d="M-24.0172 234.796L1.83088 233.662L13.5248 221.009L-12.3232 222.144L-24.0172 234.796Z" fill="#F33332"/>
<path d="M-0.538623 209.393L25.3094 208.259L37.094 195.509L11.1553 196.741L-0.538623 209.393Z" fill="#F33332"/>
<path d="M22.8493 184.089L48.6973 182.954L60.8445 169.812L34.9965 170.946L22.8493 184.089Z" fill="#F33332"/>
<path d="M46.5997 158.392L72.4478 157.257L84.4137 144.311L58.475 145.544L46.5997 158.392Z" fill="#F33332"/>
<path d="M70.3502 132.695L96.2889 131.462L108.073 118.712L82.1348 119.945L70.3502 132.695Z" fill="#F33332"/>
<path d="M-59.2803 272.949L-45.7607 285.153L-33.4322 271.815M-59.2803 272.949L-33.4322 271.815M-59.2803 272.949L-47.5863 260.297M-33.4322 271.815L-21.7107 259.132M-47.5863 260.297L-21.7107 259.132M-47.5863 260.297L-35.8017 247.547M-21.7107 259.132L-9.95371 246.412M-35.8017 247.547L-9.95371 246.412M-35.8017 247.547L-24.0172 234.796M-9.95371 246.412L1.83088 233.662M-24.0172 234.796L1.83088 233.662M-24.0172 234.796L-12.3232 222.144M1.83088 233.662L13.5248 221.009M-12.3232 222.144L13.5248 221.009M-12.3232 222.144L-0.538623 209.393M13.5248 221.009L25.3094 208.259M-0.538623 209.393L25.3094 208.259M-0.538623 209.393L11.1553 196.741M25.3094 208.259L37.094 195.509M11.1553 196.741L37.094 195.509M11.1553 196.741L22.8493 184.089M37.094 195.509L48.6973 182.954M22.8493 184.089L48.6973 182.954M22.8493 184.089L34.9965 170.946M48.6973 182.954L60.8445 169.812M34.9965 170.946L60.8445 169.812M34.9965 170.946L46.5997 158.392M60.8445 169.812L72.4478 157.257M46.5997 158.392L72.4478 157.257M46.5997 158.392L58.475 145.544M72.4478 157.257L84.4137 144.311M58.475 145.544L84.4137 144.311M58.475 145.544L70.3502 132.695M84.4137 144.311L96.2889 131.462M70.3502 132.695L96.2889 131.462M70.3502 132.695L82.1348 119.945M96.2889 131.462L108.073 118.712M82.1348 119.945L108.073 118.712M82.1348 119.945L93.7381 107.39M108.073 118.712L119.677 106.158L93.7381 107.39M93.7381 107.39L105.885 94.2478" stroke="black" stroke-width="0.7"/>
</g>
<path d="M280.701 59.3283C280.953 58.1209 280.237 53.9475 280.083 53.0975C278.672 47.3905 274.739 42.2192 270.905 38.4104C263.597 38.323 247.104 39.0123 239.603 42.4679C245.545 44.0238 250.878 46.9473 253.229 48.545C259.127 52.7771 263.109 57.7379 265.344 61.2913C271.541 62.1092 276.826 62.2917 278.693 62.2807L280.701 59.3283Z" fill="#F33332"/>
<path d="M240.166 28.3715C238.965 29.4691 236.744 31.2235 235.469 32.7611L233.363 35.4388C234.24 34.4288 240.569 29.4122 243.624 27.0301C242.31 27.2649 241.076 27.6817 240.166 28.3715Z" fill="#F33332"/>
<path fill-rule="evenodd" clip-rule="evenodd" d="M255.296 81.4094C260.018 82.1312 263.839 80.8737 265.159 80.1548C265.996 79.7543 267.091 78.6229 267.94 77.6189C268.977 75.8239 270.28 70.7329 267.192 64.7285C266.845 63.8949 266.232 62.7044 265.344 61.2913C263.109 57.7379 259.127 52.7771 253.229 48.545C250.878 46.9473 245.545 44.0238 239.603 42.4679C237.827 42.0029 235.996 41.6601 234.175 41.5113C232.609 41.4011 228.707 41.8235 225.628 44.3945C224.865 45.3823 223.9 46.8356 223.618 47.9928C223.461 48.9475 223.283 51.2193 223.78 52.865L223.827 53.0107C224.189 56.8535 228.121 63.0831 230.042 65.7175C232.05 68.4713 234.418 70.826 236.952 72.9345C238.739 74.4209 240.593 75.8405 242.524 76.9488C247.431 79.7652 252.708 80.9125 255.296 81.4094ZM241.326 49.1079C246.34 50.2089 252.36 54.7083 254.743 56.8204C259.132 60.656 261.734 65.2899 262.438 67.5153C264.529 74.1204 260.355 76.3208 257.702 76.8716C251.657 77.412 244.924 74.3367 242.286 72.389C236.871 68.392 233.726 64.5642 232.913 63.0679C229.857 58.0517 229.026 54.0975 231.291 51.1887C233.735 48.0516 238.979 48.6173 241.326 49.1079Z" fill="#F33332"/>
<path d="M264.3 32.9522C262.309 31.4969 256.698 28.2724 250.181 27.0163C248.717 26.7816 246.034 26.5997 243.624 27.0301C240.569 29.4122 234.24 34.4288 233.363 35.4388L232.018 36.9887L226.25 43.6351C226.079 43.8289 225.863 44.0895 225.628 44.3945C228.707 41.8235 232.609 41.4011 234.175 41.5113C235.996 41.6601 237.827 42.0029 239.603 42.4679C247.104 39.0123 263.597 38.323 270.905 38.4104C268.425 35.9457 265.987 34.0516 264.3 32.9522Z" fill="white"/>
<path d="M268.93 76.3668L275.252 67.3419L278.693 62.2807C276.826 62.2917 271.541 62.1092 265.344 61.2913C266.232 62.7044 266.845 63.8949 267.192 64.7285C270.28 70.7329 268.977 75.8239 267.94 77.6189C268.343 77.1421 268.691 76.6941 268.93 76.3668Z" fill="white"/>
<path d="M254.743 56.8204C252.36 54.7083 246.34 50.2089 241.326 49.1079C238.979 48.6173 233.735 48.0516 231.291 51.1887C229.026 54.0975 229.857 58.0517 232.913 63.0679C233.726 64.5642 236.871 68.392 242.286 72.389C244.924 74.3367 251.657 77.412 257.702 76.8716C260.355 76.3208 264.529 74.1204 262.438 67.5153C261.734 65.2899 259.132 60.656 254.743 56.8204Z" fill="url(#paint0_linear_667_520)"/>
<path d="M223.827 53.0107C224.189 56.8535 228.121 63.0831 230.042 65.7175C232.05 68.4713 234.418 70.826 236.952 72.9345C238.739 74.4209 240.593 75.8405 242.524 76.9488C247.431 79.7652 252.708 80.9125 255.296 81.4094C260.018 82.1312 263.839 80.8737 265.159 80.1548C265.996 79.7543 267.091 78.6229 267.94 77.6189M223.827 53.0107C223.811 52.9627 223.795 52.9142 223.78 52.865M223.827 53.0107L223.78 52.865M267.94 77.6189C268.343 77.1421 268.691 76.6941 268.93 76.3668L275.252 67.3419L278.693 62.2807M267.94 77.6189C268.977 75.8239 270.28 70.7329 267.192 64.7285C266.845 63.8949 266.232 62.7044 265.344 61.2913M225.628 44.3945C225.863 44.0895 226.079 43.8289 226.25 43.6351L232.018 36.9887L233.363 35.4388M225.628 44.3945C224.865 45.3823 223.9 46.8356 223.618 47.9928C223.461 48.9475 223.283 51.2193 223.78 52.865M225.628 44.3945C228.707 41.8235 232.609 41.4011 234.175 41.5113C235.996 41.6601 237.827 42.0029 239.603 42.4679M278.693 62.2807L280.701 59.3283C280.953 58.1209 280.237 53.9475 280.083 53.0975C278.672 47.3905 274.739 42.2192 270.905 38.4104M278.693 62.2807C276.826 62.2917 271.541 62.1092 265.344 61.2913M265.344 61.2913C263.109 57.7379 259.127 52.7771 253.229 48.545C250.878 46.9473 245.545 44.0238 239.603 42.4679M270.905 38.4104C268.425 35.9457 265.987 34.0516 264.3 32.9522C262.309 31.4969 256.698 28.2724 250.181 27.0163C248.717 26.7816 246.034 26.5997 243.624 27.0301M270.905 38.4104C263.597 38.323 247.104 39.0123 239.603 42.4679M243.624 27.0301C242.31 27.2649 241.076 27.6817 240.166 28.3715C238.965 29.4691 236.744 31.2235 235.469 32.7611L233.363 35.4388M243.624 27.0301C240.569 29.4122 234.24 34.4288 233.363 35.4388M254.743 56.8204C252.36 54.7083 246.34 50.2089 241.326 49.1079C238.979 48.6173 233.735 48.0516 231.291 51.1887C229.026 54.0975 229.857 58.0517 232.913 63.0679C233.726 64.5642 236.871 68.392 242.286 72.389C244.924 74.3367 251.657 77.412 257.702 76.8716C260.355 76.3208 264.529 74.1204 262.438 67.5153C261.734 65.2899 259.132 60.656 254.743 56.8204Z" stroke="black" stroke-width="0.7"/>
<path d="M91.0692 110.118C89.9583 109.658 86.992 106.786 86.3919 106.196C82.573 101.922 80.5714 95.9119 79.6119 90.7319C83.5594 84.7994 93.1809 71.8994 100.087 67.759C98.0733 73.3987 97.4953 79.2999 97.4895 82.0708C97.6543 89.1465 99.4597 95.0795 101.092 98.8322C98.3439 104.272 95.5855 108.627 94.5499 110.125L91.0692 110.118Z" fill="#F33332"/>
<path d="M88.4278 60.4632C89.9715 60.1 92.6053 59.276 94.544 59.0949L97.8578 58.8712C96.5626 59.0217 89.0441 61.3599 85.4467 62.5102C86.3583 61.581 87.3719 60.8171 88.4278 60.4632Z" fill="#F33332"/>
<path fill-rule="evenodd" clip-rule="evenodd" d="M122.813 101.803C120.799 106.001 117.686 108.386 116.382 109.053C115.599 109.508 114.086 109.767 112.811 109.898C110.796 109.747 105.981 107.997 102.844 102.21C102.363 101.472 101.741 100.325 101.092 98.8322C99.4597 95.0795 97.6543 89.1465 97.4895 82.0708C97.4953 79.2999 98.0733 73.3987 100.087 67.759C100.689 66.0735 101.419 64.4114 102.301 62.8631C103.073 61.5418 105.558 58.6325 109.321 57.5662C110.535 57.4954 112.236 57.5171 113.323 57.9259C114.178 58.3246 116.105 59.43 117.157 60.7353L117.248 60.8527C120.143 63.2567 122.997 69.8475 124.063 72.8425C125.176 75.973 125.77 79.1742 126.074 82.3736C126.289 84.6291 126.412 86.9029 126.243 89.0669C125.814 94.5655 123.836 99.4452 122.813 101.803ZM104.486 72.7971C102.616 77.4388 102.93 84.7592 103.32 87.8392C103.996 93.4814 106.296 98.1239 107.701 99.9144C111.869 105.229 115.936 103.078 117.838 101.244C121.596 96.6743 122.821 89.5631 122.703 86.3681C122.461 79.8115 121.109 75.1744 120.351 73.6975C117.992 68.4792 115.265 65.6364 111.678 65.8614C107.809 66.1041 105.381 70.6376 104.486 72.7971Z" fill="#F33332"/>
<path d="M78.8484 82.4132C78.7712 80.0102 79.2596 73.7198 81.8308 67.7822C82.447 66.4739 83.7753 64.2141 85.4467 62.5102C89.0441 61.3599 96.5626 59.0217 97.8578 58.8712L99.8451 58.6402L108.367 57.6497C108.617 57.6188 108.946 57.5881 109.321 57.5662C105.558 58.6325 103.073 61.5418 102.301 62.8631C101.419 64.4114 100.689 66.0735 100.087 67.759C93.1809 71.8994 83.5594 84.7994 79.6119 90.7319C78.9911 87.3799 78.8066 84.3753 78.8484 82.4132Z" fill="white"/>
<path d="M111.259 110.007L100.517 110.136L94.5499 110.125C95.5855 108.627 98.3439 104.272 101.092 98.8322C101.741 100.325 102.363 101.472 102.844 102.21C105.981 107.997 110.796 109.747 112.811 109.898C112.206 109.961 111.654 109.995 111.259 110.007Z" fill="white"/>
<path d="M103.32 87.8392C102.93 84.7592 102.616 77.4388 104.486 72.7971C105.381 70.6376 107.809 66.1041 111.678 65.8614C115.265 65.6364 117.992 68.4792 120.351 73.6975C121.109 75.1744 122.461 79.8115 122.703 86.3681C122.821 89.5631 121.596 96.6743 117.838 101.244C115.936 103.078 111.869 105.229 107.701 99.9144C106.296 98.1239 103.996 93.4814 103.32 87.8392Z" fill="url(#paint1_linear_667_520)"/>
<path d="M117.248 60.8527C120.143 63.2567 122.997 69.8475 124.063 72.8425C125.176 75.973 125.77 79.1742 126.074 82.3736C126.289 84.6291 126.412 86.9029 126.243 89.0669C125.814 94.5655 123.836 99.4452 122.813 101.803C120.799 106.001 117.686 108.386 116.382 109.053C115.599 109.508 114.086 109.767 112.811 109.898M117.248 60.8527C117.219 60.8134 117.188 60.7743 117.157 60.7353M117.248 60.8527L117.157 60.7353M112.811 109.898C112.206 109.961 111.654 109.995 111.259 110.007L100.517 110.136L94.5499 110.125M112.811 109.898C110.796 109.747 105.981 107.997 102.844 102.21C102.363 101.472 101.741 100.325 101.092 98.8322M109.321 57.5662C108.946 57.5881 108.617 57.6188 108.367 57.6497L99.8451 58.6402L97.8578 58.8712M109.321 57.5662C110.535 57.4954 112.236 57.5171 113.323 57.9259C114.178 58.3246 116.105 59.43 117.157 60.7353M109.321 57.5662C105.558 58.6325 103.073 61.5418 102.301 62.8631C101.419 64.4114 100.689 66.0735 100.087 67.759M94.5499 110.125L91.0692 110.118C89.9583 109.658 86.992 106.786 86.3919 106.196C82.573 101.922 80.5714 95.9119 79.6119 90.7319M94.5499 110.125C95.5855 108.627 98.3439 104.272 101.092 98.8322M101.092 98.8322C99.4597 95.0795 97.6543 89.1465 97.4895 82.0708C97.4953 79.2999 98.0733 73.3987 100.087 67.759M79.6119 90.7319C78.9911 87.3799 78.8066 84.3753 78.8484 82.4132C78.7712 80.0102 79.2596 73.7198 81.8308 67.7822C82.447 66.4739 83.7753 64.2141 85.4467 62.5102M79.6119 90.7319C83.5594 84.7994 93.1809 71.8994 100.087 67.759M85.4467 62.5102C86.3583 61.581 87.3719 60.8171 88.4278 60.4632C89.9715 60.1 92.6053 59.276 94.544 59.0949L97.8578 58.8712M85.4467 62.5102C89.0441 61.3599 96.5626 59.0217 97.8578 58.8712M103.32 87.8392C102.93 84.7592 102.616 77.4388 104.486 72.7971C105.381 70.6376 107.809 66.1041 111.678 65.8614C115.265 65.6364 117.992 68.4792 120.351 73.6975C121.109 75.1744 122.461 79.8115 122.703 86.3681C122.821 89.5631 121.596 96.6743 117.838 101.244C115.936 103.078 111.869 105.229 107.701 99.9144C106.296 98.1239 103.996 93.4814 103.32 87.8392Z" stroke="black" stroke-width="0.7"/>
<path d="M136.211 87.674C131.841 83.3366 132.905 76.1003 138.346 73.1532C139.112 72.7383 139.815 72.2202 140.434 71.6138L163 49.528L184.037 27.8335C190.003 21.6815 199.997 21.6815 205.963 27.8335L227 49.528L252.5 74.028C257.434 77.6626 257.786 84.8063 253.232 88.8913L228 111.526L204 136.028C199.531 141.546 191.103 141.854 186.229 136.676L179.5 129.528L161.5 112.776L136.211 87.674Z" fill="#F87B21"/>
<path d="M176.13 37.2707L176.13 37.2708L176.139 37.2617L179.768 33.5916L179.768 33.5917L179.776 33.5826L182.358 30.8365L186.852 26.383L186.854 26.3814L188.854 24.3814L190.319 22.9164L191.72 21.9818L193.142 21.5165L194.344 21.1958H194.522L194.582 21.5287L195.001 21.5278L195.499 21.5268H195.501L195.865 21.5276L195.866 21.5276L196.5 21.5272L196.5 21.5272L197.419 21.5272L198.73 21.9643L199.146 22.3808L199.166 22.3999L199.186 22.4167L199.996 23.0681L203.988 26.7215L208.182 30.8441L208.182 30.8441L208.186 30.848L211.814 34.3346L215.633 38.0047L215.633 38.0048L215.638 38.0088L219.739 41.8583L223.5 45.5609V108.528H167.5V45.6531L171.834 41.3996L171.838 41.3959L176.13 37.2707Z" fill="white" stroke="black"/>
<rect x="1.07035" width="90.7288" height="90.7288" rx="9.25" transform="matrix(0.713564 -0.70059 0.713564 0.70059 129.583 81.8793)" stroke="black" stroke-width="1.5"/>
<path d="M195 22.0278V109.028" stroke="black" stroke-width="0.8"/>
<path d="M160.823 84.1987C160.823 86.5815 160.765 88.271 160.647 89.2671C160.54 90.2534 160.188 91.1567 159.593 91.9771C159.007 92.7974 158.211 93.4272 157.205 93.8667C156.199 94.3062 155.027 94.5259 153.689 94.5259C152.42 94.5259 151.277 94.3208 150.262 93.9106C149.256 93.4907 148.445 92.8657 147.83 92.0356C147.215 91.2056 146.849 90.3022 146.731 89.3257C146.614 88.3491 146.556 86.6401 146.556 84.1987V80.1411C146.556 77.7583 146.609 76.0737 146.717 75.0874C146.834 74.0913 147.186 73.1831 147.771 72.3628C148.367 71.5425 149.168 70.9126 150.174 70.4731C151.18 70.0337 152.352 69.814 153.689 69.814C154.959 69.814 156.097 70.0239 157.103 70.4438C158.118 70.854 158.934 71.4741 159.549 72.3042C160.164 73.1343 160.53 74.0376 160.647 75.0142C160.765 75.9907 160.823 77.6997 160.823 80.1411V84.1987ZM154.656 76.4058C154.656 75.3022 154.593 74.5991 154.466 74.2964C154.349 73.9839 154.1 73.8276 153.719 73.8276C153.396 73.8276 153.147 73.9546 152.972 74.2085C152.806 74.4526 152.723 75.1851 152.723 76.4058V87.48C152.723 88.8569 152.776 89.7065 152.884 90.0288C153.001 90.3511 153.265 90.5122 153.675 90.5122C154.095 90.5122 154.363 90.3267 154.48 89.9556C154.598 89.5845 154.656 88.7007 154.656 87.3042V76.4058ZM177.332 94.0278H171.15V75.0435H169.319V94.0278H163.138V70.2974H177.332V94.0278ZM190.457 70.312L193.987 94.0278H187.674L187.366 89.7651H185.154L184.788 94.0278H178.401L181.536 70.312H190.457ZM187.19 85.561C186.878 82.8755 186.565 79.5601 186.253 75.6147C185.628 80.146 185.237 83.4614 185.081 85.561H187.19ZM209.441 80.6538H203.274V76.5229C203.274 75.3218 203.206 74.5747 203.069 74.2817C202.942 73.979 202.654 73.8276 202.205 73.8276C201.697 73.8276 201.375 74.0083 201.238 74.3696C201.102 74.731 201.033 75.5122 201.033 76.7134V87.729C201.033 88.8813 201.102 89.6333 201.238 89.9849C201.375 90.3364 201.683 90.5122 202.161 90.5122C202.62 90.5122 202.918 90.3364 203.055 89.9849C203.201 89.6333 203.274 88.8081 203.274 87.5093V84.5356H209.441V85.4585C209.441 87.9097 209.266 89.6479 208.914 90.6733C208.572 91.6987 207.806 92.5972 206.614 93.3687C205.433 94.1401 203.973 94.5259 202.234 94.5259C200.428 94.5259 198.938 94.1987 197.767 93.5444C196.595 92.8901 195.818 91.9868 195.438 90.8345C195.057 89.6724 194.866 87.9292 194.866 85.605V78.6763C194.866 76.9673 194.925 75.688 195.042 74.8384C195.159 73.979 195.506 73.1538 196.082 72.3628C196.668 71.5718 197.474 70.9517 198.499 70.5024C199.534 70.0435 200.721 69.814 202.059 69.814C203.875 69.814 205.374 70.1655 206.556 70.8687C207.737 71.5718 208.514 72.4507 208.885 73.5054C209.256 74.5503 209.441 76.1812 209.441 78.3979V80.6538ZM225.833 70.312V94.0278H219.666V84.0669H217.82V94.0278H211.653V70.312H217.82V78.7935H219.666V70.312H225.833ZM242.415 84.1987C242.415 86.5815 242.356 88.271 242.239 89.2671C242.132 90.2534 241.78 91.1567 241.185 91.9771C240.599 92.7974 239.803 93.4272 238.797 93.8667C237.791 94.3062 236.619 94.5259 235.281 94.5259C234.012 94.5259 232.869 94.3208 231.854 93.9106C230.848 93.4907 230.037 92.8657 229.422 92.0356C228.807 91.2056 228.44 90.3022 228.323 89.3257C228.206 88.3491 228.147 86.6401 228.147 84.1987V80.1411C228.147 77.7583 228.201 76.0737 228.309 75.0874C228.426 74.0913 228.777 73.1831 229.363 72.3628C229.959 71.5425 230.76 70.9126 231.766 70.4731C232.771 70.0337 233.943 69.814 235.281 69.814C236.551 69.814 237.688 70.0239 238.694 70.4438C239.71 70.854 240.525 71.4741 241.141 72.3042C241.756 73.1343 242.122 74.0376 242.239 75.0142C242.356 75.9907 242.415 77.6997 242.415 80.1411V84.1987ZM236.248 76.4058C236.248 75.3022 236.185 74.5991 236.058 74.2964C235.94 73.9839 235.691 73.8276 235.311 73.8276C234.988 73.8276 234.739 73.9546 234.563 74.2085C234.397 74.4526 234.314 75.1851 234.314 76.4058V87.48C234.314 88.8569 234.368 89.7065 234.476 90.0288C234.593 90.3511 234.856 90.5122 235.267 90.5122C235.687 90.5122 235.955 90.3267 236.072 89.9556C236.189 89.5845 236.248 88.7007 236.248 87.3042V76.4058Z" fill="black"/>
<defs>
<linearGradient id="paint0_linear_667_520" x1="257.426" y1="28.5268" x2="246.72" y2="79.6258" gradientUnits="userSpaceOnUse">
<stop offset="0.715" stop-color="white"/>
<stop offset="1" stop-color="#999999"/>
</linearGradient>
<linearGradient id="paint1_linear_667_520" x1="79.0641" y1="74.4459" x2="126.092" y2="93.9167" gradientUnits="userSpaceOnUse">
<stop offset="0.715" stop-color="white"/>
<stop offset="1" stop-color="#999999"/>
</linearGradient>
</defs>
</svg>
