<svg width="394" height="144" viewBox="0 0 394 144" fill="none" xmlns="http://www.w3.org/2000/svg">
<rect x="0.5" y="2.52783" width="393" height="131" rx="14.5" fill="#FFD527" stroke="black"/>
<mask id="mask0_667_520" style="mask-type:alpha" maskUnits="userSpaceOnUse" x="1" y="3" width="392" height="131">
<rect x="1.50488" y="3.52783" width="390.99" height="129" rx="14.5" fill="#D9D9D9" stroke="black"/>
</mask>
<g mask="url(#mask0_667_520)">
<path d="M85.7381 -63.9398L90.511 -38.8084L104.942 -29.0714L100.169 -54.2028L85.7381 -63.9398Z" fill="white"/>
<path d="M114.489 -44.5408L119.262 -19.4094L133.693 -9.67251L128.921 -34.8039L114.489 -44.5408Z" fill="white"/>
<path d="M143.241 -25.1419L148.125 0.0644039L162.334 9.65153L157.561 -15.4799L143.241 -25.1419Z" fill="white"/>
<path d="M172.436 -5.44337L177.209 19.688L191.418 29.2751L186.645 4.14374L172.436 -5.44337Z" fill="white"/>
<path d="M201.187 13.9556L206.071 39.1619L220.613 48.9737L215.729 23.7674L201.187 13.9556Z" fill="white"/>
<path d="M259.245 53.1279L264.018 78.2593L278.116 87.7715L273.343 62.6401L259.245 53.1279Z" fill="white"/>
<path d="M288.218 72.6767L293.102 97.883L307.089 107.32L302.316 82.1889L288.218 72.6767Z" fill="white"/>
<path d="M230.161 33.5043L235.044 58.7106L249.254 68.2977L244.37 43.0914L230.161 33.5043Z" fill="white"/>
<path d="M56.9868 -83.3387L61.7597 -58.2073L76.1137 -48.5224L71.307 -73.6767L56.9868 -83.3387Z" fill="white"/>
<path d="M71.307 -73.6767L76.1137 -48.5224L90.511 -38.8084L85.7381 -63.9398L71.307 -73.6767Z" fill="#F33332"/>
<path d="M56.9868 -83.3387L46.6625 -68.3936L61.7597 -58.2073L56.9868 -83.3387Z" fill="#F33332"/>
<path d="M100.169 -54.2028L104.942 -29.0714L119.262 -19.4094L114.489 -44.5408L100.169 -54.2028Z" fill="#F33332"/>
<path d="M128.921 -34.8039L133.693 -9.67251L148.125 0.0644039L143.241 -25.1419L128.921 -34.8039Z" fill="#F33332"/>
<path d="M157.561 -15.4799L162.334 9.65153L177.209 19.688L172.436 -5.44337L157.561 -15.4799Z" fill="#F33332"/>
<path d="M186.645 4.14374L191.418 29.2751L206.071 39.1619L201.187 13.9556L186.645 4.14374Z" fill="#F33332"/>
<path d="M215.729 23.7674L220.613 48.9737L235.044 58.7106L230.161 33.5043L215.729 23.7674Z" fill="#F33332"/>
<path d="M244.37 43.0914L249.254 68.2977L264.018 78.2593L259.245 53.1279L244.37 43.0914Z" fill="#F33332"/>
<path d="M273.343 62.6401L278.116 87.7715L293.102 97.883L288.218 72.6767L273.343 62.6401Z" fill="#F33332"/>
<path d="M56.9868 -83.3387L46.6625 -68.3936L61.7597 -58.2073M56.9868 -83.3387L61.7597 -58.2073M56.9868 -83.3387L71.307 -73.6767M61.7597 -58.2073L76.1137 -48.5224M71.307 -73.6767L76.1137 -48.5224M71.307 -73.6767L85.7381 -63.9398M76.1137 -48.5224L90.511 -38.8084M85.7381 -63.9398L90.511 -38.8084M85.7381 -63.9398L100.169 -54.2028M90.511 -38.8084L104.942 -29.0714M100.169 -54.2028L104.942 -29.0714M100.169 -54.2028L114.489 -44.5408M104.942 -29.0714L119.262 -19.4094M114.489 -44.5408L119.262 -19.4094M114.489 -44.5408L128.921 -34.8039M119.262 -19.4094L133.693 -9.67251M128.921 -34.8039L133.693 -9.67251M128.921 -34.8039L143.241 -25.1419M133.693 -9.67251L148.125 0.0644039M143.241 -25.1419L148.125 0.0644039M143.241 -25.1419L157.561 -15.4799M148.125 0.0644039L162.334 9.65153M157.561 -15.4799L162.334 9.65153M157.561 -15.4799L172.436 -5.44337M162.334 9.65153L177.209 19.688M172.436 -5.44337L177.209 19.688M172.436 -5.44337L186.645 4.14374M177.209 19.688L191.418 29.2751M186.645 4.14374L191.418 29.2751M186.645 4.14374L201.187 13.9556M191.418 29.2751L206.071 39.1619M201.187 13.9556L206.071 39.1619M201.187 13.9556L215.729 23.7674M206.071 39.1619L220.613 48.9737M215.729 23.7674L220.613 48.9737M215.729 23.7674L230.161 33.5043M220.613 48.9737L235.044 58.7106M230.161 33.5043L235.044 58.7106M230.161 33.5043L244.37 43.0914M235.044 58.7106L249.254 68.2977M244.37 43.0914L249.254 68.2977M244.37 43.0914L259.245 53.1279M249.254 68.2977L264.018 78.2593M259.245 53.1279L264.018 78.2593M259.245 53.1279L273.343 62.6401M264.018 78.2593L278.116 87.7715M273.343 62.6401L278.116 87.7715M273.343 62.6401L288.218 72.6767M278.116 87.7715L293.102 97.883M288.218 72.6767L293.102 97.883M288.218 72.6767L302.316 82.1889M293.102 97.883L307.089 107.32L302.316 82.1889M302.316 82.1889L316.858 92.0007" stroke="black" stroke-width="0.7"/>
<path d="M-35.8017 235.547L-9.95371 234.412L1.83088 221.662L-24.0172 222.796L-35.8017 235.547Z" fill="white"/>
<path d="M-12.3232 210.144L13.5248 209.009L25.3094 196.259L-0.538623 197.393L-12.3232 210.144Z" fill="white"/>
<path d="M11.1553 184.741L37.094 183.509L48.6973 170.954L22.8493 172.089L11.1553 184.741Z" fill="white"/>
<path d="M34.9965 158.946L60.8445 157.812L72.4478 145.257L46.5997 146.392L34.9965 158.946Z" fill="white"/>
<path d="M58.475 133.544L84.4137 132.311L96.2889 119.462L70.3502 120.695L58.475 133.544Z" fill="white"/>
<path d="M105.885 82.2478L131.733 81.1133L143.246 68.6571L117.398 69.7917L105.885 82.2478Z" fill="white"/>
<path d="M129.545 56.649L155.484 55.4163L166.906 43.0583L141.058 44.1928L129.545 56.649Z" fill="white"/>
<path d="M82.1348 107.945L108.073 106.712L119.677 94.1578L93.7381 95.3905L82.1348 107.945Z" fill="white"/>
<path d="M-59.2803 260.949L-33.4322 259.815L-21.7107 247.132L-47.5863 248.297L-59.2803 260.949Z" fill="white"/>
<path d="M-47.5863 248.297L-21.7107 247.132L-9.95371 234.412L-35.8017 235.547L-47.5863 248.297Z" fill="#F33332"/>
<path d="M-59.2803 260.949L-45.7607 273.153L-33.4322 259.815L-59.2803 260.949Z" fill="#F33332"/>
<path d="M-24.0172 222.796L1.83088 221.662L13.5248 209.009L-12.3232 210.144L-24.0172 222.796Z" fill="#F33332"/>
<path d="M-0.538623 197.393L25.3094 196.259L37.094 183.509L11.1553 184.741L-0.538623 197.393Z" fill="#F33332"/>
<path d="M22.8493 172.089L48.6973 170.954L60.8445 157.812L34.9965 158.946L22.8493 172.089Z" fill="#F33332"/>
<path d="M46.5997 146.392L72.4478 145.257L84.4137 132.311L58.475 133.544L46.5997 146.392Z" fill="#F33332"/>
<path d="M70.3502 120.695L96.2889 119.462L108.073 106.712L82.1348 107.945L70.3502 120.695Z" fill="#F33332"/>
<path d="M93.7381 95.3905L119.677 94.1578L131.733 81.1133L105.885 82.2478L93.7381 95.3905Z" fill="#F33332"/>
<path d="M117.398 69.7917L143.246 68.6571L155.484 55.4163L129.545 56.649L117.398 69.7917Z" fill="#F33332"/>
<path d="M-59.2803 260.949L-45.7607 273.153L-33.4322 259.815M-59.2803 260.949L-33.4322 259.815M-59.2803 260.949L-47.5863 248.297M-33.4322 259.815L-21.7107 247.132M-47.5863 248.297L-21.7107 247.132M-47.5863 248.297L-35.8017 235.547M-21.7107 247.132L-9.95371 234.412M-35.8017 235.547L-9.95371 234.412M-35.8017 235.547L-24.0172 222.796M-9.95371 234.412L1.83088 221.662M-24.0172 222.796L1.83088 221.662M-24.0172 222.796L-12.3232 210.144M1.83088 221.662L13.5248 209.009M-12.3232 210.144L13.5248 209.009M-12.3232 210.144L-0.538623 197.393M13.5248 209.009L25.3094 196.259M-0.538623 197.393L25.3094 196.259M-0.538623 197.393L11.1553 184.741M25.3094 196.259L37.094 183.509M11.1553 184.741L37.094 183.509M11.1553 184.741L22.8493 172.089M37.094 183.509L48.6973 170.954M22.8493 172.089L48.6973 170.954M22.8493 172.089L34.9965 158.946M48.6973 170.954L60.8445 157.812M34.9965 158.946L60.8445 157.812M34.9965 158.946L46.5997 146.392M60.8445 157.812L72.4478 145.257M46.5997 146.392L72.4478 145.257M46.5997 146.392L58.475 133.544M72.4478 145.257L84.4137 132.311M58.475 133.544L84.4137 132.311M58.475 133.544L70.3502 120.695M84.4137 132.311L96.2889 119.462M70.3502 120.695L96.2889 119.462M70.3502 120.695L82.1348 107.945M96.2889 119.462L108.073 106.712M82.1348 107.945L108.073 106.712M82.1348 107.945L93.7381 95.3905M108.073 106.712L119.677 94.1578M93.7381 95.3905L119.677 94.1578M93.7381 95.3905L105.885 82.2478M119.677 94.1578L131.733 81.1133M105.885 82.2478L131.733 81.1133M105.885 82.2478L117.398 69.7917M131.733 81.1133L143.246 68.6571M117.398 69.7917L143.246 68.6571M117.398 69.7917L129.545 56.649M143.246 68.6571L155.484 55.4163M129.545 56.649L155.484 55.4163M129.545 56.649L141.058 44.1928L166.906 43.0583L155.484 55.4163" stroke="black" stroke-width="0.7"/>
<path d="M-20.159 15.8694L-11.8312 40.0789L3.85029 47.6969L-4.47747 23.4873L-20.159 15.8694Z" fill="white"/>
<path d="M-51.4014 0.692047L-43.0736 24.9016L-27.476 32.4788L-35.8405 8.2514L-51.4014 0.692047Z" fill="white"/>
<path d="M-35.8405 8.2514L-27.476 32.4788L-11.8312 40.0789L-20.159 15.8694L-35.8405 8.2514Z" fill="#F33332"/>
<path d="M-51.4014 0.692047L-59.4789 16.932L-43.0736 24.9016L-51.4014 0.692047Z" fill="#F33332"/>
<path d="M-4.47747 23.4873L3.85029 47.6969L19.4112 55.2562L11.0834 31.0467L-4.47747 23.4873Z" fill="#F33332"/>
<path d="M-51.4014 0.692047L-59.4789 16.932L-43.0736 24.9016M-51.4014 0.692047L-43.0736 24.9016M-51.4014 0.692047L-35.8405 8.2514M-43.0736 24.9016L-27.476 32.4788M-35.8405 8.2514L-27.476 32.4788M-35.8405 8.2514L-20.159 15.8694M-27.476 32.4788L-11.8312 40.0789M-20.159 15.8694L-11.8312 40.0789M-20.159 15.8694L-4.47747 23.4873M-11.8312 40.0789L3.85029 47.6969M-4.47747 23.4873L3.85029 47.6969M-4.47747 23.4873L11.0834 31.0467L19.4112 55.2562L3.85029 47.6969" stroke="black" stroke-width="0.7"/>
<path d="M386.706 25.7658L409.472 38.1097L404.398 20.7226L386.706 25.7658Z" fill="white"/>
<path d="M369.657 30.6258L392.296 43.006L409.472 38.1097L386.706 25.7658L369.657 30.6258Z" fill="#F33332"/>
<path d="M386.372 25.5846L386.706 25.7658M409.472 38.1097L392.296 43.006L369.657 30.6258L386.706 25.7658M409.472 38.1097L404.398 20.7226L386.706 25.7658M409.472 38.1097L386.706 25.7658" stroke="black" stroke-width="0.7"/>
</g>
<path d="M351.701 94.3283C351.953 93.121 351.237 88.9475 351.083 88.0975C349.672 82.3905 345.739 77.2192 341.905 73.4104C334.597 73.323 318.104 74.0123 310.603 77.4679C316.545 79.0238 321.878 81.9473 324.229 83.545C330.127 87.7771 334.109 92.7379 336.344 96.2913C342.541 97.1092 347.826 97.2917 349.693 97.2807L351.701 94.3283Z" fill="#F33332"/>
<path d="M311.166 63.3715C309.965 64.4691 307.744 66.2235 306.469 67.7611L304.363 70.4388C305.24 69.4288 311.569 64.4122 314.624 62.0301C313.31 62.2649 312.076 62.6817 311.166 63.3715Z" fill="#F33332"/>
<path fill-rule="evenodd" clip-rule="evenodd" d="M326.296 116.409C331.018 117.131 334.839 115.874 336.159 115.155C336.996 114.754 338.091 113.623 338.94 112.619C339.977 110.824 341.28 105.733 338.192 99.7285C337.845 98.8949 337.232 97.7044 336.344 96.2913C334.109 92.7379 330.127 87.7771 324.229 83.545C321.878 81.9473 316.545 79.0238 310.603 77.4679C308.827 77.0029 306.996 76.6601 305.175 76.5113C303.609 76.4011 299.707 76.8235 296.628 79.3945C295.865 80.3823 294.9 81.8356 294.618 82.9928C294.461 83.9475 294.283 86.2193 294.78 87.865L294.827 88.0107C295.189 91.8535 299.121 98.0831 301.042 100.718C303.05 103.471 305.418 105.826 307.952 107.934C309.739 109.421 311.593 110.84 313.524 111.949C318.431 114.765 323.708 115.913 326.296 116.409ZM312.326 84.1079C317.34 85.2089 323.36 89.7083 325.743 91.8204C330.132 95.656 332.734 100.29 333.438 102.515C335.529 109.12 331.355 111.321 328.702 111.872C322.657 112.412 315.924 109.337 313.286 107.389C307.871 103.392 304.726 99.5642 303.913 98.0679C300.857 93.0517 300.026 89.0975 302.291 86.1887C304.735 83.0516 309.979 83.6173 312.326 84.1079Z" fill="#F33332"/>
<path d="M335.3 67.9522C333.309 66.4969 327.698 63.2724 321.181 62.0163C319.717 61.7816 317.034 61.5997 314.624 62.0301C311.569 64.4122 305.24 69.4288 304.363 70.4388L303.018 71.9887L297.25 78.6351C297.079 78.8289 296.863 79.0895 296.628 79.3945C299.707 76.8235 303.609 76.4011 305.175 76.5113C306.996 76.6601 308.827 77.0029 310.603 77.4679C318.104 74.0123 334.597 73.323 341.905 73.4104C339.425 70.9457 336.987 69.0516 335.3 67.9522Z" fill="white"/>
<path d="M339.93 111.367L346.252 102.342L349.693 97.2807C347.826 97.2917 342.541 97.1092 336.344 96.2913C337.232 97.7044 337.845 98.8949 338.192 99.7285C341.28 105.733 339.977 110.824 338.94 112.619C339.343 112.142 339.691 111.694 339.93 111.367Z" fill="white"/>
<path d="M325.743 91.8204C323.36 89.7083 317.34 85.2089 312.326 84.1079C309.979 83.6173 304.735 83.0516 302.291 86.1887C300.026 89.0975 300.857 93.0517 303.913 98.0679C304.726 99.5642 307.871 103.392 313.286 107.389C315.924 109.337 322.657 112.412 328.702 111.872C331.355 111.321 335.529 109.12 333.438 102.515C332.734 100.29 330.132 95.656 325.743 91.8204Z" fill="url(#paint0_linear_667_520)"/>
<path d="M294.827 88.0107C295.189 91.8535 299.121 98.0831 301.042 100.718C303.05 103.471 305.418 105.826 307.952 107.934C309.739 109.421 311.593 110.84 313.524 111.949C318.431 114.765 323.708 115.913 326.296 116.409C331.018 117.131 334.839 115.874 336.159 115.155C336.996 114.754 338.091 113.623 338.94 112.619M294.827 88.0107C294.811 87.9627 294.795 87.9142 294.78 87.865M294.827 88.0107L294.78 87.865M338.94 112.619C339.343 112.142 339.691 111.694 339.93 111.367L346.252 102.342L349.693 97.2807M338.94 112.619C339.977 110.824 341.28 105.733 338.192 99.7285C337.845 98.8949 337.232 97.7044 336.344 96.2913M296.628 79.3945C296.863 79.0895 297.079 78.8289 297.25 78.6351L303.018 71.9887L304.363 70.4388M296.628 79.3945C295.865 80.3823 294.9 81.8356 294.618 82.9928C294.461 83.9475 294.283 86.2193 294.78 87.865M296.628 79.3945C299.707 76.8235 303.609 76.4011 305.175 76.5113C306.996 76.6601 308.827 77.0029 310.603 77.4679M349.693 97.2807L351.701 94.3283C351.953 93.121 351.237 88.9475 351.083 88.0975C349.672 82.3905 345.739 77.2192 341.905 73.4104M349.693 97.2807C347.826 97.2917 342.541 97.1092 336.344 96.2913M336.344 96.2913C334.109 92.7379 330.127 87.7771 324.229 83.545C321.878 81.9473 316.545 79.0238 310.603 77.4679M341.905 73.4104C339.425 70.9457 336.987 69.0516 335.3 67.9522C333.309 66.4969 327.698 63.2724 321.181 62.0163C319.717 61.7816 317.034 61.5997 314.624 62.0301M341.905 73.4104C334.597 73.323 318.104 74.0123 310.603 77.4679M314.624 62.0301C313.31 62.2649 312.076 62.6817 311.166 63.3715C309.965 64.4691 307.744 66.2235 306.469 67.7611L304.363 70.4388M314.624 62.0301C311.569 64.4122 305.24 69.4288 304.363 70.4388M325.743 91.8204C323.36 89.7083 317.34 85.2089 312.326 84.1079C309.979 83.6173 304.735 83.0516 302.291 86.1887C300.026 89.0975 300.857 93.0517 303.913 98.0679C304.726 99.5642 307.871 103.392 313.286 107.389C315.924 109.337 322.657 112.412 328.702 111.872C331.355 111.321 335.529 109.12 333.438 102.515C332.734 100.29 330.132 95.656 325.743 91.8204Z" stroke="black" stroke-width="0.7"/>
<mask id="mask1_667_520" style="mask-type:alpha" maskUnits="userSpaceOnUse" x="1" y="3" width="58" height="56">
<path d="M1 16.3413L9 5L45.5 3L58.5 36L39 59H1V16.3413Z" fill="#D9D9D9"/>
</mask>
<g mask="url(#mask1_667_520)">
<path d="M53.3057 28.892C53.2531 27.6731 51.5479 23.8476 51.1935 23.0702C48.4479 17.9442 43.416 13.9469 38.8125 11.2312C31.7857 12.9307 16.145 17.6155 9.79734 22.7582C15.8728 22.7998 21.6983 24.3009 24.3412 25.2588C31.0279 27.8762 36.0549 31.6599 39.064 34.5207C45.2038 33.7927 50.3142 32.6781 52.1018 32.2118L53.3057 28.892Z" fill="#F33332"/>
<path d="M6.89781 9.10874C6.01493 10.4538 4.31375 12.6775 3.46698 14.4623L2.10156 17.5429C2.69538 16.3609 7.53824 10.0079 9.88544 6.97923C8.68281 7.52493 7.60231 8.22543 6.89781 9.10874Z" fill="#F33332"/>
<path fill-rule="evenodd" clip-rule="evenodd" d="M34.3421 56.2563C39.0444 55.796 42.3995 53.6586 43.4893 52.6474C44.1947 52.0591 44.9674 50.7076 45.5363 49.5381C46.0926 47.5644 46.099 42.3666 41.674 37.3645C41.1381 36.6501 40.2606 35.6584 39.064 34.5207C36.0549 31.6599 31.0279 27.8762 24.3412 25.2588C21.6983 24.3009 15.8728 22.7998 9.79734 22.7582C7.9816 22.7458 6.14353 22.8638 4.36141 23.1656C2.83353 23.4421 -0.803409 24.799 -3.12817 28.0148C-3.618 29.1477 -4.18865 30.7762 -4.17696 31.9543C-4.09423 32.9077 -3.71071 35.1288 -2.83229 36.585L-2.7523 36.7133C-2.21044 38.2298 -0.955946 39.9985 0.499998 41.691C1.1421 42.4375 1.82338 43.1691 2.5 43.8578C3.92621 45.3095 5.3317 46.5704 6.30582 47.3768C8.69887 49.358 11.3024 50.9395 14 52.2734C14.2295 52.3869 14.4597 52.4986 14.6904 52.6085C16.7655 53.5975 18.8898 54.5056 21.0111 55.0969C26.4012 56.5994 31.7397 56.4116 34.3421 56.2563ZM13.0697 28.7024C18.1438 28.5346 25.012 31.3787 27.8118 32.8217C32.9545 35.4275 36.5793 39.2343 37.7976 41.1956C41.4134 47.0168 37.949 50.1444 35.5403 51.3197C29.8778 53.3126 22.674 52.0075 19.6699 50.7843C13.5048 48.2741 9.55549 45.3725 8.41137 44.1365C4.25795 40.0739 2.49662 36.4865 3.95857 33.1454C5.53517 29.5422 10.7002 28.8048 13.0697 28.7024Z" fill="#F33332"/>
<path d="M31.1495 7.6109C28.886 6.70176 22.7207 4.97998 16.1675 5.36598C14.7063 5.49844 12.0906 5.97862 9.88544 6.97923C7.53824 10.0079 2.69538 16.3609 2.10156 17.5429L1.19038 19.3568L-2.71707 27.135C-2.83338 27.3625 -2.97692 27.665 -3.12817 28.0148C-0.803409 24.799 2.83353 23.4421 4.36141 23.1656C6.14353 22.8638 7.9816 22.7458 9.79734 22.7582C16.145 17.6155 31.7857 12.9307 38.8125 11.2312C35.8336 9.47392 33.0341 8.25333 31.1495 7.6109Z" fill="white"/>
<path d="M46.1798 48.0963L50.038 37.9029L52.1018 32.2118C50.3142 32.6781 45.2038 33.7927 39.064 34.5207C40.2606 35.6584 41.1381 36.6501 41.674 37.3645C46.099 42.3666 46.0926 47.5644 45.5363 49.5381C45.8064 48.9827 46.0306 48.4683 46.1798 48.0963Z" fill="white"/>
<path d="M27.8118 32.8217C25.012 31.3787 18.1438 28.5346 13.0697 28.7024C10.7002 28.8048 5.53517 29.5422 3.95857 33.1454C2.49662 36.4865 4.25795 40.0739 8.41137 44.1365C9.55549 45.3725 13.5048 48.2741 19.6699 50.7843C22.674 52.0075 29.8778 53.3126 35.5403 51.3197C37.949 50.1444 41.4134 47.0168 37.7976 41.1956C36.5793 39.2343 32.9545 35.4275 27.8118 32.8217Z" fill="url(#paint1_linear_667_520)"/>
<path d="M14 52.2734C11.3024 50.9395 8.69887 49.358 6.30582 47.3768C5.3317 46.5704 3.92621 45.3095 2.5 43.8578L3.72793 47.5L14 52.2734Z" fill="#F33332"/>
<path d="M0.499998 41.691L0.499998 46L3.72793 47.5L2.5 43.8578C1.82338 43.1691 1.1421 42.4375 0.499998 41.691Z" fill="white"/>
<path d="M-2.7523 36.7133C-2.77941 36.6712 -2.80607 36.6284 -2.83229 36.585M-2.7523 36.7133L-2.83229 36.585M-2.7523 36.7133C-2.21044 38.2298 -0.955948 39.9985 0.499998 41.691M45.5363 49.5381C45.8064 48.9827 46.0306 48.4683 46.1798 48.0963L50.038 37.9029L52.1018 32.2118M45.5363 49.5381C44.9674 50.7076 44.1947 52.0591 43.4893 52.6474C42.3995 53.6586 39.0444 55.796 34.3421 56.2563C31.7397 56.4116 26.4012 56.5994 21.0111 55.0969C18.8898 54.5056 16.7655 53.5975 14.6904 52.6085C14.4597 52.4986 14.2295 52.3869 14 52.2734M45.5363 49.5381C46.0926 47.5644 46.099 42.3666 41.674 37.3645C41.1381 36.6501 40.2606 35.6584 39.064 34.5207M-3.12817 28.0148C-2.97692 27.665 -2.83338 27.3625 -2.71707 27.135L1.19038 19.3568L2.10156 17.5429M-3.12817 28.0148C-3.618 29.1477 -4.18865 30.7762 -4.17696 31.9543C-4.09423 32.9077 -3.71071 35.1288 -2.83229 36.585M-3.12817 28.0148C-0.803408 24.799 2.83353 23.4421 4.36141 23.1656C6.14353 22.8638 7.9816 22.7458 9.79734 22.7582M52.1018 32.2118L53.3057 28.892C53.2531 27.6731 51.5479 23.8476 51.1935 23.0702C48.4479 17.9442 43.416 13.9469 38.8125 11.2312M52.1018 32.2118C50.3142 32.6781 45.2038 33.7927 39.064 34.5207M39.064 34.5207C36.0549 31.6599 31.0279 27.8762 24.3412 25.2588C21.6983 24.3009 15.8728 22.7998 9.79734 22.7582M38.8125 11.2312C35.8336 9.47392 33.0341 8.25333 31.1495 7.6109C28.886 6.70176 22.7207 4.97998 16.1675 5.36598C14.7063 5.49844 12.0906 5.97862 9.88544 6.97923M38.8125 11.2312C31.7857 12.9307 16.145 17.6155 9.79734 22.7582M9.88544 6.97923C8.68281 7.52493 7.60231 8.22543 6.89781 9.10874C6.01493 10.4538 4.31375 12.6775 3.46698 14.4623L2.10156 17.5429M9.88544 6.97923C7.53823 10.0079 2.69538 16.3609 2.10156 17.5429M-21.8096 34.6086L-13.3096 18.6086L-1.30957 24.6086M14 52.2734C11.3024 50.9395 8.69887 49.358 6.30582 47.3768C5.3317 46.5704 3.92621 45.3095 2.5 43.8578M14 52.2734L3.72793 47.5M0.499998 41.691L0.499998 46L3.72793 47.5M0.499998 41.691C1.1421 42.4375 1.82338 43.1691 2.5 43.8578M2.5 43.8578L3.72793 47.5M27.8118 32.8217C25.012 31.3787 18.1438 28.5346 13.0697 28.7024C10.7002 28.8048 5.53517 29.5422 3.95857 33.1454C2.49662 36.4865 4.25795 40.0739 8.41137 44.1365C9.55549 45.3725 13.5048 48.2741 19.6699 50.7843C22.674 52.0075 29.8778 53.3126 35.5403 51.3197C37.949 50.1444 41.4134 47.0168 37.7976 41.1956C36.5793 39.2343 32.9545 35.4275 27.8118 32.8217Z" stroke="black" stroke-width="0.7"/>
</g>
<path d="M125.069 62.1181C123.958 61.6575 120.992 58.7863 120.392 58.1956C116.573 53.9216 114.571 47.9119 113.612 42.7319C117.559 36.7994 127.181 23.8994 134.087 19.759C132.073 25.3987 131.495 31.2999 131.49 34.0708C131.654 41.1465 133.46 47.0795 135.092 50.8322C132.344 56.2715 129.586 60.627 128.55 62.1248L125.069 62.1181Z" fill="#F33332"/>
<path d="M122.428 12.4632C123.972 12.1 126.605 11.276 128.544 11.0949L131.858 10.8712C130.563 11.0217 123.044 13.3599 119.447 14.5102C120.358 13.581 121.372 12.8171 122.428 12.4632Z" fill="#F33332"/>
<path fill-rule="evenodd" clip-rule="evenodd" d="M156.813 53.8025C154.799 58.0011 151.686 60.3858 150.382 61.0533C149.599 61.5077 148.086 61.7666 146.811 61.8983C144.796 61.7468 139.981 59.9968 136.844 54.2097C136.363 53.4721 135.741 52.3246 135.092 50.8322C133.46 47.0795 131.654 41.1465 131.49 34.0708C131.495 31.2999 132.073 25.3987 134.087 19.759C134.689 18.0735 135.419 16.4114 136.301 14.8631C137.073 13.5418 139.558 10.6325 143.321 9.56622C144.535 9.49535 146.236 9.5171 147.323 9.92591C148.178 10.3246 150.105 11.43 151.157 12.7353L151.248 12.8527C154.143 15.2567 156.997 21.8475 158.063 24.8425C159.176 27.973 159.77 31.1742 160.074 34.3736C160.289 36.6291 160.412 38.9029 160.243 41.0669C159.814 46.5655 157.836 51.4452 156.813 53.8025ZM138.486 24.7971C136.616 29.4388 136.93 36.7592 137.32 39.8392C137.996 45.4814 140.296 50.1239 141.701 51.9144C145.869 57.229 149.936 55.0777 151.838 53.2444C155.596 48.6743 156.821 41.5631 156.703 38.3681C156.461 31.8115 155.109 27.1744 154.351 25.6975C151.992 20.4792 149.265 17.6364 145.678 17.8614C141.809 18.1041 139.381 22.6376 138.486 24.7971Z" fill="#F33332"/>
<path d="M112.848 34.4132C112.771 32.0102 113.26 25.7198 115.831 19.7822C116.447 18.4739 117.775 16.2141 119.447 14.5102C123.044 13.3599 130.563 11.0217 131.858 10.8712L133.845 10.6402L142.367 9.64969C142.617 9.61881 142.946 9.5881 143.321 9.56622C139.558 10.6325 137.073 13.5418 136.301 14.8631C135.419 16.4114 134.689 18.0735 134.087 19.759C127.181 23.8994 117.559 36.7994 113.612 42.7319C112.991 39.3799 112.807 36.3753 112.848 34.4132Z" fill="white"/>
<path d="M145.259 62.0072L134.517 62.1363L128.55 62.1248C129.586 60.627 132.344 56.2715 135.092 50.8322C135.741 52.3246 136.363 53.4721 136.844 54.2097C139.981 59.9968 144.796 61.7468 146.811 61.8983C146.206 61.9609 145.654 61.9947 145.259 62.0072Z" fill="white"/>
<path d="M137.32 39.8392C136.93 36.7592 136.616 29.4388 138.486 24.7971C139.381 22.6376 141.809 18.1041 145.678 17.8614C149.265 17.6364 151.992 20.4792 154.351 25.6975C155.109 27.1744 156.461 31.8115 156.703 38.3681C156.821 41.5631 155.596 48.6743 151.838 53.2444C149.936 55.0777 145.869 57.229 141.701 51.9144C140.296 50.1239 137.996 45.4814 137.32 39.8392Z" fill="url(#paint2_linear_667_520)"/>
<path d="M151.248 12.8527C154.143 15.2567 156.997 21.8475 158.063 24.8425C159.176 27.973 159.77 31.1742 160.074 34.3736C160.289 36.6291 160.412 38.9029 160.243 41.0669C159.814 46.5655 157.836 51.4452 156.813 53.8025C154.799 58.0011 151.686 60.3858 150.382 61.0533C149.599 61.5077 148.086 61.7666 146.811 61.8983M151.248 12.8527C151.219 12.8134 151.188 12.7743 151.157 12.7353M151.248 12.8527L151.157 12.7353M146.811 61.8983C146.206 61.9609 145.654 61.9947 145.259 62.0072L134.517 62.1363L128.55 62.1248M146.811 61.8983C144.796 61.7468 139.981 59.9968 136.844 54.2097C136.363 53.4721 135.741 52.3246 135.092 50.8322M143.321 9.56622C142.946 9.5881 142.617 9.61881 142.367 9.64969L133.845 10.6402L131.858 10.8712M143.321 9.56622C144.535 9.49535 146.236 9.5171 147.323 9.92591C148.178 10.3246 150.105 11.43 151.157 12.7353M143.321 9.56622C139.558 10.6325 137.073 13.5418 136.301 14.8631C135.419 16.4114 134.689 18.0735 134.087 19.759M128.55 62.1248L125.069 62.1181C123.958 61.6575 120.992 58.7863 120.392 58.1956C116.573 53.9216 114.571 47.9119 113.612 42.7319M128.55 62.1248C129.586 60.627 132.344 56.2715 135.092 50.8322M135.092 50.8322C133.46 47.0795 131.654 41.1465 131.49 34.0708C131.495 31.2999 132.073 25.3987 134.087 19.759M113.612 42.7319C112.991 39.3799 112.807 36.3753 112.848 34.4132C112.771 32.0102 113.26 25.7198 115.831 19.7822C116.447 18.4739 117.775 16.2141 119.447 14.5102M113.612 42.7319C117.559 36.7994 127.181 23.8994 134.087 19.759M119.447 14.5102C120.358 13.581 121.372 12.8171 122.428 12.4632C123.972 12.1 126.605 11.276 128.544 11.0949L131.858 10.8712M119.447 14.5102C123.044 13.3599 130.563 11.0217 131.858 10.8712M137.32 39.8392C136.93 36.7592 136.616 29.4388 138.486 24.7971C139.381 22.6376 141.809 18.1041 145.678 17.8614C149.265 17.6364 151.992 20.4792 154.351 25.6975C155.109 27.1744 156.461 31.8115 156.703 38.3681C156.821 41.5631 155.596 48.6743 151.838 53.2444C149.936 55.0777 145.869 57.229 141.701 51.9144C140.296 50.1239 137.996 45.4814 137.32 39.8392Z" stroke="black" stroke-width="0.7"/>
<mask id="mask2_667_520" style="mask-type:alpha" maskUnits="userSpaceOnUse" x="321" y="3" width="72" height="81">
<rect x="321" y="3" width="72" height="81" rx="14" fill="#D9D9D9"/>
</mask>
<g mask="url(#mask2_667_520)">
<path d="M391.939 -8.9504C390.769 -9.24432 386.664 -8.70814 385.828 -8.59171C380.197 -7.43664 374.991 -3.79749 371.12 -0.20261C370.748 6.93329 370.774 23.071 373.856 30.5348C375.609 24.7912 378.674 19.6962 380.327 17.4628C384.692 11.8668 389.695 8.17204 393.253 6.12846C394.296 0.106822 394.681 -5.04855 394.744 -6.87353L391.939 -8.9504Z" fill="#F33332"/>
<path d="M360.108 29.4314C361.133 30.6472 362.759 32.8859 364.211 34.1915L366.744 36.3539C365.792 35.458 361.14 29.0784 358.933 26.0006C359.111 27.2937 359.47 28.5149 360.108 29.4314Z" fill="#F33332"/>
<path fill-rule="evenodd" clip-rule="evenodd" d="M412.512 16.7324C413.402 12.1482 412.324 8.36694 411.673 7.04936C411.315 6.21521 410.252 5.10202 409.305 4.23324C407.592 3.14951 402.67 1.67726 396.684 4.4581C395.856 4.76425 394.669 5.3158 393.253 6.12846C389.695 8.17204 384.692 11.8668 380.327 17.4628C378.674 19.6962 375.609 24.7912 373.856 30.5348C373.332 32.2514 372.925 34.0258 372.708 35.7992C372.539 37.3245 372.799 41.1525 375.189 44.2618C376.124 45.0454 377.506 46.0453 378.625 46.3666C379.552 46.5571 381.764 46.8203 383.391 46.3989L383.535 46.3594C387.303 46.1566 393.543 42.5596 396.192 40.7865C400.913 37.6265 404.851 33.4905 407.653 29.0339C410.597 24.3516 411.925 19.2415 412.512 16.7324ZM380.41 29.1116C381.682 24.2575 386.313 18.5536 388.47 16.3083C392.389 12.1717 397.018 9.81173 399.219 9.21092C405.754 7.42766 407.739 11.5917 408.173 14.2049C408.464 20.1312 405.196 26.5871 403.189 29.0879C399.072 34.2201 395.21 37.1427 393.716 37.8779C388.696 40.6665 384.801 41.3231 382.048 38.9958C379.08 36.4859 379.838 31.3851 380.41 29.1116Z" fill="#F33332"/>
<path d="M365.529 6.03541C364.03 7.92315 360.66 13.2778 359.177 19.5946C358.89 21.0161 358.607 23.6294 358.933 26.0006C361.14 29.0784 365.792 35.458 366.744 36.3539L374.472 43.6242C374.654 43.7986 374.901 44.0199 375.189 44.2618C372.799 41.1525 372.539 37.3245 372.708 35.7992C372.925 34.0258 373.332 32.2514 373.856 30.5348C370.774 23.071 370.748 6.93329 371.12 -0.20261C368.615 2.12362 366.67 4.43132 365.529 6.03541Z" fill="white"/>
<path d="M408.121 3.21692L399.553 -3.31319L394.744 -6.87353C394.681 -5.04855 394.296 0.106822 393.253 6.12846C394.669 5.3158 395.856 4.76425 396.684 4.4581C402.67 1.67726 407.592 3.14951 409.305 4.23324C408.855 3.82066 408.431 3.46319 408.121 3.21692Z" fill="white"/>
<path d="M388.47 16.3083C386.313 18.5536 381.682 24.2575 380.41 29.1116C379.838 31.3851 379.08 36.4859 382.048 38.9958C384.801 41.3231 388.696 40.6665 393.716 37.8779C395.21 37.1427 399.072 34.2201 403.189 29.0879C405.196 26.5871 408.464 20.1312 408.173 14.2049C407.739 11.5917 405.754 7.42766 399.219 9.21092C397.018 9.81173 392.389 12.1717 388.47 16.3083Z" fill="url(#paint3_linear_667_520)"/>
<path d="M383.535 46.3594C387.303 46.1566 393.543 42.5596 396.192 40.7865C400.913 37.6265 404.851 33.4905 407.653 29.0339C410.597 24.3516 411.925 19.2415 412.512 16.7324C413.402 12.1482 412.324 8.36694 411.673 7.04936C411.315 6.21521 410.252 5.10202 409.305 4.23324M383.535 46.3594C383.488 46.3732 383.44 46.3864 383.391 46.3989M383.535 46.3594L383.391 46.3989M409.305 4.23324C408.855 3.82066 408.431 3.46319 408.121 3.21692L399.553 -3.31319L394.744 -6.87353M409.305 4.23324C407.592 3.14951 402.67 1.67726 396.684 4.4581C395.856 4.76425 394.669 5.3158 393.253 6.12846M375.189 44.2618C374.901 44.0199 374.654 43.7986 374.472 43.6242L366.744 36.3539M375.189 44.2618C376.124 45.0454 377.506 46.0453 378.625 46.3666C379.552 46.5571 381.764 46.8203 383.391 46.3989M375.189 44.2618C372.799 41.1525 372.539 37.3245 372.708 35.7992C372.925 34.0258 373.332 32.2514 373.856 30.5348M394.744 -6.87353L391.939 -8.9504C390.769 -9.24432 386.664 -8.70814 385.828 -8.59171C380.197 -7.43664 374.991 -3.79749 371.12 -0.20261M394.744 -6.87353C394.681 -5.04855 394.296 0.106822 393.253 6.12846M393.253 6.12846C389.695 8.17204 384.692 11.8668 380.327 17.4628C378.674 19.6962 375.609 24.7912 373.856 30.5348M371.12 -0.20261C368.615 2.12362 366.67 4.43133 365.529 6.03541C364.03 7.92315 360.66 13.2778 359.177 19.5946C358.89 21.0161 358.607 23.6294 358.933 26.0006M371.12 -0.20261C370.748 6.93329 370.774 23.071 373.856 30.5348M358.933 26.0006C359.111 27.2937 359.47 28.5149 360.108 29.4314C361.133 30.6472 362.759 32.8859 364.211 34.1915L366.744 36.3539M358.933 26.0006C361.14 29.0784 365.792 35.458 366.744 36.3539M388.47 16.3083C386.313 18.5536 381.682 24.2575 380.41 29.1116C379.838 31.3851 379.08 36.4859 382.048 38.9958C384.801 41.3231 388.696 40.6665 393.716 37.8779C395.21 37.1427 399.072 34.2201 403.189 29.0879C405.196 26.5871 408.464 20.1312 408.173 14.2049C407.739 11.5917 405.754 7.42766 399.219 9.21092C397.018 9.81173 392.389 12.1717 388.47 16.3083Z" stroke="black" stroke-width="0.7"/>
</g>
<path d="M136.211 74.674C131.841 70.3366 132.905 63.1003 138.346 60.1532C139.112 59.7383 139.815 59.2202 140.434 58.6138L163 36.528L184.037 14.8335C190.003 8.68149 199.997 8.68147 205.963 14.8335L227 36.528L252.5 61.028C257.434 64.6626 257.786 71.8063 253.232 75.8913L228 98.526L204 123.028C199.531 128.546 191.103 128.854 186.229 123.676L179.5 116.528L161.5 99.7762L136.211 74.674Z" fill="#F87B21"/>
<path d="M176.13 24.2707L176.13 24.2708L176.139 24.2617L179.768 20.5916L179.768 20.5917L179.776 20.5826L182.358 17.8365L186.852 13.383L186.854 13.3814L188.854 11.3814L190.319 9.91639L191.72 8.98178L193.142 8.51652L194.344 8.1958H194.522L194.582 8.52874L195.001 8.52783L195.499 8.52675H195.501L195.865 8.52755L195.866 8.52755L196.5 8.52724L196.5 8.52724L197.419 8.52724L198.73 8.96426L199.146 9.3808L199.166 9.39985L199.186 9.41675L199.996 10.0681L203.988 13.7215L208.182 17.8441L208.182 17.8441L208.186 17.848L211.814 21.3346L215.633 25.0047L215.633 25.0048L215.638 25.0088L219.739 28.8583L223.5 32.5609V95.5277H167.5V32.6531L171.834 28.3996L171.838 28.3959L176.13 24.2707Z" fill="white" stroke="black"/>
<rect x="1.07035" width="90.7288" height="90.7288" rx="9.25" transform="matrix(0.713564 -0.70059 0.713564 0.70059 129.583 68.8793)" stroke="black" stroke-width="1.5"/>
<path d="M195 9.02783V96.0278" stroke="black" stroke-width="0.8"/>
<path d="M160.823 71.1987C160.823 73.5815 160.765 75.271 160.647 76.2671C160.54 77.2534 160.188 78.1567 159.593 78.9771C159.007 79.7974 158.211 80.4272 157.205 80.8667C156.199 81.3062 155.027 81.5259 153.689 81.5259C152.42 81.5259 151.277 81.3208 150.262 80.9106C149.256 80.4907 148.445 79.8657 147.83 79.0356C147.215 78.2056 146.849 77.3022 146.731 76.3257C146.614 75.3491 146.556 73.6401 146.556 71.1987V67.1411C146.556 64.7583 146.609 63.0737 146.717 62.0874C146.834 61.0913 147.186 60.1831 147.771 59.3628C148.367 58.5425 149.168 57.9126 150.174 57.4731C151.18 57.0337 152.352 56.814 153.689 56.814C154.959 56.814 156.097 57.0239 157.103 57.4438C158.118 57.854 158.934 58.4741 159.549 59.3042C160.164 60.1343 160.53 61.0376 160.647 62.0142C160.765 62.9907 160.823 64.6997 160.823 67.1411V71.1987ZM154.656 63.4058C154.656 62.3022 154.593 61.5991 154.466 61.2964C154.349 60.9839 154.1 60.8276 153.719 60.8276C153.396 60.8276 153.147 60.9546 152.972 61.2085C152.806 61.4526 152.723 62.1851 152.723 63.4058V74.48C152.723 75.8569 152.776 76.7065 152.884 77.0288C153.001 77.3511 153.265 77.5122 153.675 77.5122C154.095 77.5122 154.363 77.3267 154.48 76.9556C154.598 76.5845 154.656 75.7007 154.656 74.3042V63.4058ZM177.332 81.0278H171.15V62.0435H169.319V81.0278H163.138V57.2974H177.332V81.0278ZM190.457 57.312L193.987 81.0278H187.674L187.366 76.7651H185.154L184.788 81.0278H178.401L181.536 57.312H190.457ZM187.19 72.561C186.878 69.8755 186.565 66.5601 186.253 62.6147C185.628 67.146 185.237 70.4614 185.081 72.561H187.19ZM209.441 67.6538H203.274V63.5229C203.274 62.3218 203.206 61.5747 203.069 61.2817C202.942 60.979 202.654 60.8276 202.205 60.8276C201.697 60.8276 201.375 61.0083 201.238 61.3696C201.102 61.731 201.033 62.5122 201.033 63.7134V74.729C201.033 75.8813 201.102 76.6333 201.238 76.9849C201.375 77.3364 201.683 77.5122 202.161 77.5122C202.62 77.5122 202.918 77.3364 203.055 76.9849C203.201 76.6333 203.274 75.8081 203.274 74.5093V71.5356H209.441V72.4585C209.441 74.9097 209.266 76.6479 208.914 77.6733C208.572 78.6987 207.806 79.5972 206.614 80.3687C205.433 81.1401 203.973 81.5259 202.234 81.5259C200.428 81.5259 198.938 81.1987 197.767 80.5444C196.595 79.8901 195.818 78.9868 195.438 77.8345C195.057 76.6724 194.866 74.9292 194.866 72.605V65.6763C194.866 63.9673 194.925 62.688 195.042 61.8384C195.159 60.979 195.506 60.1538 196.082 59.3628C196.668 58.5718 197.474 57.9517 198.499 57.5024C199.534 57.0435 200.721 56.814 202.059 56.814C203.875 56.814 205.374 57.1655 206.556 57.8687C207.737 58.5718 208.514 59.4507 208.885 60.5054C209.256 61.5503 209.441 63.1812 209.441 65.3979V67.6538ZM225.833 57.312V81.0278H219.666V71.0669H217.82V81.0278H211.653V57.312H217.82V65.7935H219.666V57.312H225.833ZM242.415 71.1987C242.415 73.5815 242.356 75.271 242.239 76.2671C242.132 77.2534 241.78 78.1567 241.185 78.9771C240.599 79.7974 239.803 80.4272 238.797 80.8667C237.791 81.3062 236.619 81.5259 235.281 81.5259C234.012 81.5259 232.869 81.3208 231.854 80.9106C230.848 80.4907 230.037 79.8657 229.422 79.0356C228.807 78.2056 228.44 77.3022 228.323 76.3257C228.206 75.3491 228.147 73.6401 228.147 71.1987V67.1411C228.147 64.7583 228.201 63.0737 228.309 62.0874C228.426 61.0913 228.777 60.1831 229.363 59.3628C229.959 58.5425 230.76 57.9126 231.766 57.4731C232.771 57.0337 233.943 56.814 235.281 56.814C236.551 56.814 237.688 57.0239 238.694 57.4438C239.71 57.854 240.525 58.4741 241.141 59.3042C241.756 60.1343 242.122 61.0376 242.239 62.0142C242.356 62.9907 242.415 64.6997 242.415 67.1411V71.1987ZM236.248 63.4058C236.248 62.3022 236.185 61.5991 236.058 61.2964C235.94 60.9839 235.691 60.8276 235.311 60.8276C234.988 60.8276 234.739 60.9546 234.563 61.2085C234.397 61.4526 234.314 62.1851 234.314 63.4058V74.48C234.314 75.8569 234.368 76.7065 234.476 77.0288C234.593 77.3511 234.856 77.5122 235.267 77.5122C235.687 77.5122 235.955 77.3267 236.072 76.9556C236.189 76.5845 236.248 75.7007 236.248 74.3042V63.4058Z" fill="black"/>
<defs>
<linearGradient id="paint0_linear_667_520" x1="328.426" y1="63.5268" x2="317.72" y2="114.626" gradientUnits="userSpaceOnUse">
<stop offset="0.715" stop-color="white"/>
<stop offset="1" stop-color="#999999"/>
</linearGradient>
<linearGradient id="paint1_linear_667_520" x1="14.6276" y1="5.42868" x2="16.8385" y2="57.0216" gradientUnits="userSpaceOnUse">
<stop offset="0.715" stop-color="white"/>
<stop offset="1" stop-color="#999999"/>
</linearGradient>
<linearGradient id="paint2_linear_667_520" x1="113.064" y1="26.4459" x2="160.092" y2="45.9167" gradientUnits="userSpaceOnUse">
<stop offset="0.715" stop-color="white"/>
<stop offset="1" stop-color="#999999"/>
</linearGradient>
<linearGradient id="paint3_linear_667_520" x1="360.937" y1="12.5765" x2="410.433" y2="25.0404" gradientUnits="userSpaceOnUse">
<stop offset="0.715" stop-color="white"/>
<stop offset="1" stop-color="#999999"/>
</linearGradient>
</defs>
</svg>
