<svg width="394" height="133" viewBox="0 0 394 133" fill="none" xmlns="http://www.w3.org/2000/svg">
<rect x="0.5" y="0.527832" width="393" height="131" rx="14.5" fill="#FFD527" stroke="black"/>
<mask id="mask0_667_520" style="mask-type:alpha" maskUnits="userSpaceOnUse" x="1" y="1" width="392" height="131">
<rect x="1.50488" y="1.52783" width="390.99" height="129" rx="14.5" fill="#D9D9D9" stroke="black"/>
</mask>
<g mask="url(#mask0_667_520)">
<path d="M85.7379 -65.9398L90.5108 -40.8084L104.942 -31.0714L100.169 -56.2028L85.7379 -65.9398Z" fill="white"/>
<path d="M114.489 -46.5408L119.262 -21.4094L133.693 -11.6725L128.92 -36.8039L114.489 -46.5408Z" fill="white"/>
<path d="M143.24 -27.1419L148.124 -1.9356L162.334 7.65153L157.561 -17.4799L143.24 -27.1419Z" fill="white"/>
<path d="M172.436 -7.44337L177.209 17.688L191.418 27.2751L186.645 2.14374L172.436 -7.44337Z" fill="white"/>
<path d="M201.187 11.9556L206.071 37.1619L220.613 46.9737L215.729 21.7674L201.187 11.9556Z" fill="white"/>
<path d="M404.001 148.798L408.884 174.003L419.208 159.058L404.001 148.798Z" fill="white"/>
<path d="M374.694 129.023L379.578 154.23L394.12 164.041L389.347 138.91L374.694 129.023Z" fill="white"/>
<path d="M345.832 109.549L350.715 134.756L365.147 144.493L360.263 119.286L345.832 109.549Z" fill="white"/>
<path d="M259.245 51.1279L264.018 76.2593L278.116 85.7715L273.343 60.6401L259.245 51.1279Z" fill="white"/>
<path d="M316.858 90.0007L321.742 115.207L336.173 124.944L331.289 99.7376L316.858 90.0007Z" fill="white"/>
<path d="M288.218 70.6767L293.102 95.883L307.089 105.32L302.316 80.1889L288.218 70.6767Z" fill="white"/>
<path d="M230.16 31.5043L235.044 56.7106L249.253 66.2977L244.369 41.0914L230.16 31.5043Z" fill="white"/>
<path d="M56.9866 -85.3387L61.7595 -60.2073L76.1135 -50.5224L71.3067 -75.6767L56.9866 -85.3387Z" fill="white"/>
<path d="M71.3067 -75.6767L76.1135 -50.5224L90.5108 -40.8084L85.7379 -65.9398L71.3067 -75.6767Z" fill="#F33332"/>
<path d="M56.9866 -85.3387L46.6623 -70.3936L61.7595 -60.2073L56.9866 -85.3387Z" fill="#F33332"/>
<path d="M100.169 -56.2028L104.942 -31.0714L119.262 -21.4094L114.489 -46.5408L100.169 -56.2028Z" fill="#F33332"/>
<path d="M360.263 119.286L365.147 144.493L379.578 154.23L374.694 129.023L360.263 119.286Z" fill="#F33332"/>
<path d="M128.92 -36.8039L133.693 -11.6725L148.124 -1.9356L143.24 -27.1419L128.92 -36.8039Z" fill="#F33332"/>
<path d="M157.561 -17.4799L162.334 7.65153L177.209 17.688L172.436 -7.44337L157.561 -17.4799Z" fill="#F33332"/>
<path d="M186.645 2.14374L191.418 27.2751L206.071 37.1619L201.187 11.9556L186.645 2.14374Z" fill="#F33332"/>
<path d="M215.729 21.7674L220.613 46.9737L235.044 56.7106L230.16 31.5043L215.729 21.7674Z" fill="#F33332"/>
<path d="M244.369 41.0914L249.253 66.2977L264.018 76.2593L259.245 51.1279L244.369 41.0914Z" fill="#F33332"/>
<path d="M273.343 60.6401L278.116 85.7715L293.102 95.883L288.218 70.6767L273.343 60.6401Z" fill="#F33332"/>
<path d="M302.316 80.1889L307.089 105.32L321.742 115.207L316.858 90.0007L302.316 80.1889Z" fill="#F33332"/>
<path d="M331.289 99.7376L336.173 124.944L350.715 134.756L345.832 109.549L331.289 99.7376Z" fill="#F33332"/>
<path d="M389.347 138.91L394.12 164.041L408.884 174.003L404.001 148.798L389.347 138.91Z" fill="#F33332"/>
<path d="M56.9866 -85.3387L46.6623 -70.3936L61.7595 -60.2073M56.9866 -85.3387L61.7595 -60.2073M56.9866 -85.3387L71.3067 -75.6767M61.7595 -60.2073L76.1135 -50.5224M71.3067 -75.6767L76.1135 -50.5224M71.3067 -75.6767L85.7379 -65.9398M76.1135 -50.5224L90.5108 -40.8084M85.7379 -65.9398L90.5108 -40.8084M85.7379 -65.9398L100.169 -56.2028M90.5108 -40.8084L104.942 -31.0714M100.169 -56.2028L104.942 -31.0714M100.169 -56.2028L114.489 -46.5408M104.942 -31.0714L119.262 -21.4094M114.489 -46.5408L119.262 -21.4094M114.489 -46.5408L128.92 -36.8039M119.262 -21.4094L133.693 -11.6725M128.92 -36.8039L133.693 -11.6725M128.92 -36.8039L143.24 -27.1419M133.693 -11.6725L148.124 -1.93559M143.24 -27.1419L148.124 -1.93559M143.24 -27.1419L157.561 -17.4799M148.124 -1.93559L162.333 7.65152M157.561 -17.4799L162.333 7.65152M157.561 -17.4799L172.436 -7.44337M162.333 7.65152L177.209 17.688M172.436 -7.44337L177.209 17.688M172.436 -7.44337L186.645 2.14374M177.209 17.688L191.418 27.2751M186.645 2.14374L191.418 27.2751M186.645 2.14374L201.187 11.9556M191.418 27.2751L206.071 37.1619M201.187 11.9556L206.071 37.1619M201.187 11.9556L215.729 21.7674M206.071 37.1619L220.613 46.9737M215.729 21.7674L220.613 46.9737M215.729 21.7674L230.16 31.5043M220.613 46.9737L235.044 56.7106M230.16 31.5043L235.044 56.7106M230.16 31.5043L244.369 41.0914M235.044 56.7106L249.253 66.2977M244.369 41.0914L249.253 66.2977M244.369 41.0914L259.245 51.1279M249.253 66.2977L264.018 76.2593M259.245 51.1279L264.018 76.2593M259.245 51.1279L273.343 60.6401M264.018 76.2593L278.116 85.7715M273.343 60.6401L278.116 85.7715M273.343 60.6401L288.218 70.6767M278.116 85.7715L293.102 95.883M288.218 70.6767L293.102 95.883M288.218 70.6767L302.316 80.1889M293.102 95.883L307.089 105.32M302.316 80.1889L307.089 105.32M302.316 80.1889L316.858 90.0007M307.089 105.32L321.742 115.207M316.858 90.0007L321.742 115.207M316.858 90.0007L331.289 99.7376M321.742 115.207L336.173 124.944M331.289 99.7376L336.173 124.944M331.289 99.7376L345.832 109.549M336.173 124.944L350.715 134.756M345.832 109.549L350.715 134.756M345.832 109.549L360.263 119.286M350.715 134.756L365.147 144.493M360.263 119.286L365.147 144.493M360.263 119.286L374.694 129.023M365.147 144.493L379.578 154.23M374.694 129.023L379.578 154.23M374.694 129.023L389.347 138.91M379.578 154.23L394.12 164.041M389.347 138.91L394.12 164.041M389.347 138.91L404.001 148.798M394.12 164.041L408.884 174.003M403.93 148.427L404.001 148.798M408.884 174.003L419.208 159.058L404.001 148.798M408.884 174.003L404.001 148.798" stroke="black" stroke-width="0.7"/>
<path d="M-35.8017 233.547L-9.95371 232.412L1.83088 219.662L-24.0172 220.796L-35.8017 233.547Z" fill="white"/>
<path d="M-12.3232 208.144L13.5248 207.009L25.3094 194.259L-0.538623 195.394L-12.3232 208.144Z" fill="white"/>
<path d="M11.1553 182.741L37.094 181.509L48.6973 168.954L22.8493 170.089L11.1553 182.741Z" fill="white"/>
<path d="M34.9965 156.946L60.8445 155.812L72.4478 143.257L46.5997 144.392L34.9965 156.946Z" fill="white"/>
<path d="M58.475 131.544L84.4137 130.311L96.2889 117.462L70.3502 118.695L58.475 131.544Z" fill="white"/>
<path d="M105.885 80.2478L131.733 79.1133L143.246 66.6571L117.398 67.7917L105.885 80.2478Z" fill="white"/>
<path d="M152.933 29.3444L178.872 28.1118L190.656 15.3614L164.718 16.5941L152.933 29.3444Z" fill="white"/>
<path d="M129.545 54.649L155.484 53.4164L166.906 41.0583L141.058 42.1929L129.545 54.649Z" fill="white"/>
<path d="M82.1348 105.945L108.073 104.712L119.677 92.1579L93.7381 93.3905L82.1348 105.945Z" fill="white"/>
<path d="M-59.2803 258.949L-33.4322 257.815L-21.7107 245.132L-47.5863 246.297L-59.2803 258.949Z" fill="white"/>
<path d="M-47.5863 246.297L-21.7107 245.132L-9.95371 232.412L-35.8017 233.547L-47.5863 246.297Z" fill="#F33332"/>
<path d="M-59.2803 258.949L-45.7607 271.154L-33.4322 257.815L-59.2803 258.949Z" fill="#F33332"/>
<path d="M-24.0172 220.796L1.83088 219.662L13.5248 207.009L-12.3232 208.144L-24.0172 220.796Z" fill="#F33332"/>
<path d="M-0.538623 195.394L25.3094 194.259L37.094 181.509L11.1553 182.741L-0.538623 195.394Z" fill="#F33332"/>
<path d="M22.8493 170.089L48.6973 168.954L60.8445 155.812L34.9965 156.946L22.8493 170.089Z" fill="#F33332"/>
<path d="M46.5997 144.392L72.4478 143.257L84.4137 130.311L58.475 131.544L46.5997 144.392Z" fill="#F33332"/>
<path d="M70.3502 118.695L96.2889 117.462L108.073 104.712L82.1348 105.945L70.3502 118.695Z" fill="#F33332"/>
<path d="M93.7381 93.3905L119.677 92.1579L131.733 79.1133L105.885 80.2478L93.7381 93.3905Z" fill="#F33332"/>
<path d="M117.398 67.7917L143.246 66.6571L155.484 53.4164L129.545 54.649L117.398 67.7917Z" fill="#F33332"/>
<path d="M141.058 42.1929L166.906 41.0583L178.872 28.1118L152.933 29.3444L141.058 42.1929Z" fill="#F33332"/>
<path d="M164.718 16.5941L190.656 15.3614L196.594 8.93718L196.594 3.00001L176.593 3.7456L164.718 16.5941Z" fill="#F33332"/>
<path d="M-59.2803 258.949L-45.7607 271.154L-33.4322 257.815M-59.2803 258.949L-33.4322 257.815M-59.2803 258.949L-47.5863 246.297M-33.4322 257.815L-21.7107 245.132M-47.5863 246.297L-21.7107 245.132M-47.5863 246.297L-35.8017 233.547M-21.7107 245.132L-9.95371 232.412M-35.8017 233.547L-9.95371 232.412M-35.8017 233.547L-24.0172 220.796M-9.95371 232.412L1.83088 219.662M-24.0172 220.796L1.83088 219.662M-24.0172 220.796L-12.3232 208.144M1.83088 219.662L13.5248 207.009M-12.3232 208.144L13.5248 207.009M-12.3232 208.144L-0.538623 195.394M13.5248 207.009L25.3094 194.259M-0.538623 195.394L25.3094 194.259M-0.538623 195.394L11.1553 182.741M25.3094 194.259L37.094 181.509M11.1553 182.741L37.094 181.509M11.1553 182.741L22.8493 170.089M37.094 181.509L48.6973 168.954M22.8493 170.089L48.6973 168.954M22.8493 170.089L34.9965 156.946M48.6973 168.954L60.8445 155.812M34.9965 156.946L60.8445 155.812M34.9965 156.946L46.5997 144.392M60.8445 155.812L72.4478 143.257M46.5997 144.392L72.4478 143.257M46.5997 144.392L58.475 131.544M72.4478 143.257L84.4137 130.311M58.475 131.544L84.4137 130.311M58.475 131.544L70.3502 118.695M84.4137 130.311L96.2889 117.462M70.3502 118.695L96.2889 117.462M70.3502 118.695L82.1348 105.945M96.2889 117.462L108.073 104.712M82.1348 105.945L108.073 104.712M82.1348 105.945L93.7381 93.3905M108.073 104.712L119.677 92.1579M93.7381 93.3905L119.677 92.1579M93.7381 93.3905L105.885 80.2478M119.677 92.1579L131.733 79.1133M105.885 80.2478L131.733 79.1133M105.885 80.2478L117.398 67.7917M131.733 79.1133L143.246 66.6571M117.398 67.7917L143.246 66.6571M117.398 67.7917L129.545 54.649M143.246 66.6571L155.484 53.4164M129.545 54.649L155.484 53.4164M129.545 54.649L141.058 42.1929M155.484 53.4164L166.906 41.0583M141.058 42.1929L166.906 41.0583M141.058 42.1929L152.933 29.3444M166.906 41.0583L178.872 28.1118M152.933 29.3444L178.872 28.1118M152.933 29.3444L164.718 16.5941M178.872 28.1118L190.656 15.3614M164.718 16.5941L190.656 15.3614M164.718 16.5941L176.593 3.7456L196.594 3.00001L196.594 8.93718L190.656 15.3614" stroke="black" stroke-width="0.7"/>
<path d="M-20.159 13.8694L-11.8312 38.0789L3.85029 45.6969L-4.47747 21.4873L-20.159 13.8694Z" fill="white"/>
<path d="M11.0834 29.0467L19.4112 53.2562L35.0927 60.8742L26.7649 36.6646L11.0834 29.0467Z" fill="white"/>
<path d="M42.3258 44.224L50.7742 68.4921L66.2145 75.9929L57.8867 51.7833L42.3258 44.224Z" fill="white"/>
<path d="M-51.4014 -1.30795L-43.0736 22.9016L-27.476 30.4788L-35.8405 6.2514L-51.4014 -1.30795Z" fill="white"/>
<path d="M-35.8405 6.2514L-27.476 30.4788L-11.8312 38.0789L-20.159 13.8694L-35.8405 6.2514Z" fill="#F33332"/>
<path d="M-51.4014 -1.30795L-59.4789 14.932L-43.0736 22.9016L-51.4014 -1.30795Z" fill="#F33332"/>
<path d="M-4.47747 21.4873L3.85029 45.6969L19.4112 53.2562L11.0834 29.0467L-4.47747 21.4873Z" fill="#F33332"/>
<path d="M26.7649 36.6646L35.0927 60.8742L50.7742 68.4921L42.3258 44.224L26.7649 36.6646Z" fill="#F33332"/>
<path d="M57.8867 51.7833L66.2145 75.9929L82.3785 83.8452L74.0507 59.6357L57.8867 51.7833Z" fill="#F33332"/>
<path d="M-51.4014 -1.30795L-59.4789 14.932L-43.0736 22.9016M-51.4014 -1.30795L-43.0736 22.9016M-51.4014 -1.30795L-35.8405 6.2514M-43.0736 22.9016L-27.476 30.4788M-35.8405 6.2514L-27.476 30.4788M-35.8405 6.2514L-20.159 13.8694M-27.476 30.4788L-11.8312 38.0789M-20.159 13.8694L-11.8312 38.0789M-20.159 13.8694L-4.47747 21.4873M-11.8312 38.0789L3.85029 45.6969M-4.47747 21.4873L3.85029 45.6969M-4.47747 21.4873L11.0834 29.0467M3.85029 45.6969L19.4112 53.2562M11.0834 29.0467L19.4112 53.2562M11.0834 29.0467L26.7649 36.6646M19.4112 53.2562L35.0927 60.8742M26.7649 36.6646L35.0927 60.8742M26.7649 36.6646L42.3258 44.224M35.0927 60.8742L50.7742 68.4921M42.3258 44.224L50.7742 68.4921M42.3258 44.224L57.8867 51.7833M50.7742 68.4921L66.2145 75.9929M57.8867 51.7833L66.2145 75.9929M57.8867 51.7833L74.0507 59.6357L82.3785 83.8452L66.2145 75.9929" stroke="black" stroke-width="0.7"/>
<path d="M386.706 23.7658L409.472 36.1097L404.398 18.7226L386.706 23.7658Z" fill="white"/>
<path d="M352.61 33.4853L375.378 45.8288L392.296 41.006L369.657 28.6258L352.61 33.4853Z" fill="white"/>
<path d="M319.031 43.0572L341.799 55.4007L358.588 50.6147L335.821 38.2713L319.031 43.0572Z" fill="white"/>
<path d="M335.821 38.2713L358.588 50.6147L375.378 45.8288L352.61 33.4853L335.821 38.2713Z" fill="#F33332"/>
<path d="M308 43.0573L324.881 60.2234L341.799 55.4007L319.031 43.0572L310.572 45.4686L308 43.0573Z" fill="#F33332"/>
<path d="M369.657 28.6258L392.296 41.006L409.472 36.1097L386.706 23.7658L369.657 28.6258Z" fill="#F33332"/>
<path d="M319.031 43.0572L341.799 55.4007M319.031 43.0572L335.821 38.2713M319.031 43.0572L310.572 45.4686L308 43.0573L324.881 60.2234L341.799 55.4007M341.799 55.4007L358.588 50.6147M335.821 38.2713L358.588 50.6147M335.821 38.2713L352.61 33.4853M358.588 50.6147L375.378 45.8288M352.61 33.4853L375.378 45.8288M352.61 33.4853L369.657 28.6258M375.378 45.8288L392.296 41.006M369.657 28.6258L392.296 41.006M369.657 28.6258L386.706 23.7658M392.296 41.006L409.472 36.1097M386.372 23.5846L386.706 23.7658M409.472 36.1097L404.398 18.7226L386.706 23.7658M409.472 36.1097L386.706 23.7658" stroke="black" stroke-width="0.7"/>
</g>
<mask id="mask1_667_520" style="mask-type:alpha" maskUnits="userSpaceOnUse" x="136" y="1" width="93" height="28">
<rect x="136" y="1" width="93" height="28" fill="#D9D9D9"/>
</mask>
<g mask="url(#mask1_667_520)">
<path d="M167.07 15.118C165.959 14.6575 162.992 11.7863 162.392 11.1955C158.573 6.92159 156.572 0.91192 155.612 -4.26813C159.56 -10.2006 169.181 -23.1006 176.088 -27.241C174.074 -21.6014 173.496 -15.7001 173.49 -12.9292C173.655 -5.85349 175.46 0.079456 177.093 3.83222C174.344 9.27153 171.586 13.627 170.55 15.1248L167.07 15.118Z" fill="#F33332"/>
<path d="M164.428 -34.5369C165.972 -34.9 168.606 -35.724 170.544 -35.9052L173.858 -36.1288C172.563 -35.9783 165.045 -33.6401 161.447 -32.4898C162.359 -33.419 163.372 -34.1829 164.428 -34.5369Z" fill="#F33332"/>
<path fill-rule="evenodd" clip-rule="evenodd" d="M198.814 6.80252C196.799 11.0011 193.687 13.3858 192.382 14.0533C191.599 14.5077 190.087 14.7666 188.812 14.8983C186.796 14.7467 181.981 12.9968 178.844 7.2097C178.364 6.47212 177.742 5.32455 177.093 3.83222C175.46 0.079456 173.655 -5.85349 173.49 -12.9292C173.496 -15.7001 174.074 -21.6014 176.088 -27.241C176.69 -28.9265 177.42 -30.5887 178.301 -32.1369C179.073 -33.4582 181.558 -36.3675 185.321 -37.4338C186.536 -37.5047 188.237 -37.4829 189.324 -37.0741C190.178 -36.6754 192.106 -35.57 193.157 -34.2647L193.249 -34.1473C196.144 -31.7434 198.998 -25.1525 200.063 -22.1576C201.176 -19.027 201.77 -15.8258 202.075 -12.6264C202.29 -10.3709 202.413 -8.09714 202.244 -5.93314C201.814 -0.434541 199.837 4.44523 198.814 6.80252ZM180.486 -22.2029C178.617 -17.5612 178.93 -10.2408 179.32 -7.1608C179.996 -1.51861 182.297 3.12384 183.701 4.9144C187.87 10.229 191.936 8.07766 193.838 6.24437C197.596 1.67431 198.821 -5.43696 198.704 -8.63191C198.462 -15.1885 197.109 -19.8256 196.351 -21.3025C193.993 -26.5208 191.266 -29.3636 187.678 -29.1386C183.809 -28.8959 181.382 -24.3624 180.486 -22.2029Z" fill="#F33332"/>
<path d="M154.849 -12.5868C154.772 -14.9898 155.26 -21.2802 157.831 -27.2178C158.448 -28.5261 159.776 -30.786 161.447 -32.4898C165.045 -33.6401 172.563 -35.9783 173.858 -36.1288L175.846 -36.3598L184.368 -37.3503C184.618 -37.3812 184.946 -37.4119 185.321 -37.4338C181.558 -36.3675 179.073 -33.4582 178.301 -32.1369C177.42 -30.5887 176.69 -28.9265 176.088 -27.241C169.181 -23.1006 159.56 -10.2006 155.612 -4.26813C154.992 -7.62011 154.807 -10.6247 154.849 -12.5868Z" fill="white"/>
<path d="M187.259 15.0072L176.517 15.1363L170.55 15.1248C171.586 13.627 174.344 9.27153 177.093 3.83222C177.742 5.32455 178.364 6.47212 178.844 7.2097C181.981 12.9968 186.796 14.7467 188.812 14.8983C188.206 14.9609 187.654 14.9947 187.259 15.0072Z" fill="white"/>
<path d="M179.32 -7.1608C178.93 -10.2408 178.617 -17.5612 180.486 -22.2029C181.382 -24.3624 183.809 -28.8959 187.678 -29.1386C191.266 -29.3636 193.993 -26.5208 196.351 -21.3025C197.109 -19.8256 198.462 -15.1885 198.704 -8.63191C198.821 -5.43696 197.596 1.67431 193.838 6.24437C191.936 8.07766 187.87 10.229 183.701 4.9144C182.297 3.12384 179.996 -1.51861 179.32 -7.1608Z" fill="url(#paint0_linear_667_520)"/>
<path d="M193.249 -34.1473C196.144 -31.7434 198.998 -25.1525 200.063 -22.1576C201.176 -19.027 201.77 -15.8258 202.075 -12.6264C202.29 -10.3709 202.413 -8.09714 202.244 -5.93314C201.814 -0.434541 199.837 4.44523 198.814 6.80252C196.799 11.0011 193.687 13.3858 192.382 14.0533C191.599 14.5077 190.087 14.7666 188.812 14.8983M193.249 -34.1473C193.219 -34.1866 193.189 -34.2258 193.157 -34.2647M193.249 -34.1473L193.157 -34.2647M188.812 14.8983C188.206 14.9609 187.654 14.9947 187.259 15.0072L176.517 15.1363L170.55 15.1248M188.812 14.8983C186.796 14.7467 181.981 12.9968 178.844 7.2097C178.364 6.47212 177.742 5.32455 177.093 3.83222M185.321 -37.4338C184.946 -37.4119 184.618 -37.3812 184.368 -37.3503L175.846 -36.3598L173.858 -36.1288M185.321 -37.4338C186.536 -37.5047 188.237 -37.4829 189.324 -37.0741C190.178 -36.6754 192.106 -35.57 193.157 -34.2647M185.321 -37.4338C181.558 -36.3675 179.073 -33.4582 178.301 -32.1369C177.42 -30.5887 176.69 -28.9265 176.088 -27.241M170.55 15.1248L167.07 15.118C165.959 14.6575 162.992 11.7863 162.392 11.1955C158.573 6.92159 156.572 0.91192 155.612 -4.26813M170.55 15.1248C171.586 13.627 174.344 9.27153 177.093 3.83222M177.093 3.83222C175.46 0.0794572 173.655 -5.85349 173.49 -12.9292C173.496 -15.7001 174.074 -21.6014 176.088 -27.241M155.612 -4.26813C154.992 -7.62011 154.807 -10.6247 154.849 -12.5868C154.772 -14.9898 155.26 -21.2802 157.831 -27.2178C158.448 -28.5261 159.776 -30.786 161.447 -32.4898M155.612 -4.26813C159.56 -10.2006 169.181 -23.1006 176.088 -27.241M161.447 -32.4898C162.359 -33.419 163.372 -34.1829 164.428 -34.5369C165.972 -34.9 168.606 -35.724 170.544 -35.9052L173.858 -36.1288M161.447 -32.4898C165.045 -33.6401 172.563 -35.9783 173.858 -36.1288M179.32 -7.1608C178.93 -10.2408 178.617 -17.5612 180.486 -22.2029C181.382 -24.3624 183.809 -28.8959 187.678 -29.1386C191.266 -29.3636 193.993 -26.5208 196.351 -21.3025C197.109 -19.8256 198.462 -15.1885 198.704 -8.63191C198.821 -5.43695 197.596 1.67431 193.838 6.24437C191.936 8.07766 187.87 10.229 183.701 4.9144C182.297 3.12384 179.996 -1.51861 179.32 -7.1608Z" stroke="black" stroke-width="0.7"/>
</g>
<path d="M136.211 72.674C131.841 68.3366 132.905 61.1003 138.346 58.1532C139.112 57.7383 139.815 57.2202 140.434 56.6138L163 34.528L184.037 12.8335C190.003 6.68149 199.997 6.68147 205.963 12.8335L227 34.528L252.5 59.028C257.434 62.6626 257.786 69.8063 253.232 73.8913L228 96.526L204 121.028C199.531 126.546 191.103 126.854 186.229 121.676L179.5 114.528L161.5 97.7762L136.211 72.674Z" fill="#F87B21"/>
<path d="M176.13 22.2707L176.13 22.2708L176.139 22.2617L179.768 18.5916L179.768 18.5917L179.776 18.5826L182.358 15.8365L186.852 11.383L186.854 11.3814L188.854 9.38139L190.319 7.91639L191.72 6.98178L193.142 6.51652L194.344 6.1958H194.522L194.582 6.52874L195.001 6.52783L195.499 6.52675H195.501L195.865 6.52755L195.866 6.52755L196.5 6.52724L196.5 6.52724L197.419 6.52724L198.73 6.96426L199.146 7.3808L199.166 7.39985L199.186 7.41675L199.996 8.06811L203.988 11.7215L208.182 15.8441L208.182 15.8441L208.186 15.848L211.814 19.3346L215.633 23.0047L215.633 23.0048L215.638 23.0088L219.739 26.8583L223.5 30.5609V93.5277H167.5V30.6531L171.834 26.3996L171.838 26.3959L176.13 22.2707Z" fill="white" stroke="black"/>
<rect x="1.07035" width="90.7288" height="90.7288" rx="9.25" transform="matrix(0.713564 -0.70059 0.713564 0.70059 129.583 66.8793)" stroke="black" stroke-width="1.5"/>
<path d="M195 7.02783V94.0278" stroke="black" stroke-width="0.8"/>
<path d="M160.823 69.1987C160.823 71.5815 160.765 73.271 160.647 74.2671C160.54 75.2534 160.188 76.1567 159.593 76.9771C159.007 77.7974 158.211 78.4272 157.205 78.8667C156.199 79.3062 155.027 79.5259 153.689 79.5259C152.42 79.5259 151.277 79.3208 150.262 78.9106C149.256 78.4907 148.445 77.8657 147.83 77.0356C147.215 76.2056 146.849 75.3022 146.731 74.3257C146.614 73.3491 146.556 71.6401 146.556 69.1987V65.1411C146.556 62.7583 146.609 61.0737 146.717 60.0874C146.834 59.0913 147.186 58.1831 147.771 57.3628C148.367 56.5425 149.168 55.9126 150.174 55.4731C151.18 55.0337 152.352 54.814 153.689 54.814C154.959 54.814 156.097 55.0239 157.103 55.4438C158.118 55.854 158.934 56.4741 159.549 57.3042C160.164 58.1343 160.53 59.0376 160.647 60.0142C160.765 60.9907 160.823 62.6997 160.823 65.1411V69.1987ZM154.656 61.4058C154.656 60.3022 154.593 59.5991 154.466 59.2964C154.349 58.9839 154.1 58.8276 153.719 58.8276C153.396 58.8276 153.147 58.9546 152.972 59.2085C152.806 59.4526 152.723 60.1851 152.723 61.4058V72.48C152.723 73.8569 152.776 74.7065 152.884 75.0288C153.001 75.3511 153.265 75.5122 153.675 75.5122C154.095 75.5122 154.363 75.3267 154.48 74.9556C154.598 74.5845 154.656 73.7007 154.656 72.3042V61.4058ZM177.332 79.0278H171.15V60.0435H169.319V79.0278H163.138V55.2974H177.332V79.0278ZM190.457 55.312L193.987 79.0278H187.674L187.366 74.7651H185.154L184.788 79.0278H178.401L181.536 55.312H190.457ZM187.19 70.561C186.878 67.8755 186.565 64.5601 186.253 60.6147C185.628 65.146 185.237 68.4614 185.081 70.561H187.19ZM209.441 65.6538H203.274V61.5229C203.274 60.3218 203.206 59.5747 203.069 59.2817C202.942 58.979 202.654 58.8276 202.205 58.8276C201.697 58.8276 201.375 59.0083 201.238 59.3696C201.102 59.731 201.033 60.5122 201.033 61.7134V72.729C201.033 73.8813 201.102 74.6333 201.238 74.9849C201.375 75.3364 201.683 75.5122 202.161 75.5122C202.62 75.5122 202.918 75.3364 203.055 74.9849C203.201 74.6333 203.274 73.8081 203.274 72.5093V69.5356H209.441V70.4585C209.441 72.9097 209.266 74.6479 208.914 75.6733C208.572 76.6987 207.806 77.5972 206.614 78.3687C205.433 79.1401 203.973 79.5259 202.234 79.5259C200.428 79.5259 198.938 79.1987 197.767 78.5444C196.595 77.8901 195.818 76.9868 195.438 75.8345C195.057 74.6724 194.866 72.9292 194.866 70.605V63.6763C194.866 61.9673 194.925 60.688 195.042 59.8384C195.159 58.979 195.506 58.1538 196.082 57.3628C196.668 56.5718 197.474 55.9517 198.499 55.5024C199.534 55.0435 200.721 54.814 202.059 54.814C203.875 54.814 205.374 55.1655 206.556 55.8687C207.737 56.5718 208.514 57.4507 208.885 58.5054C209.256 59.5503 209.441 61.1812 209.441 63.3979V65.6538ZM225.833 55.312V79.0278H219.666V69.0669H217.82V79.0278H211.653V55.312H217.82V63.7935H219.666V55.312H225.833ZM242.415 69.1987C242.415 71.5815 242.356 73.271 242.239 74.2671C242.132 75.2534 241.78 76.1567 241.185 76.9771C240.599 77.7974 239.803 78.4272 238.797 78.8667C237.791 79.3062 236.619 79.5259 235.281 79.5259C234.012 79.5259 232.869 79.3208 231.854 78.9106C230.848 78.4907 230.037 77.8657 229.422 77.0356C228.807 76.2056 228.44 75.3022 228.323 74.3257C228.206 73.3491 228.147 71.6401 228.147 69.1987V65.1411C228.147 62.7583 228.201 61.0737 228.309 60.0874C228.426 59.0913 228.777 58.1831 229.363 57.3628C229.959 56.5425 230.76 55.9126 231.766 55.4731C232.771 55.0337 233.943 54.814 235.281 54.814C236.551 54.814 237.688 55.0239 238.694 55.4438C239.71 55.854 240.525 56.4741 241.141 57.3042C241.756 58.1343 242.122 59.0376 242.239 60.0142C242.356 60.9907 242.415 62.6997 242.415 65.1411V69.1987ZM236.248 61.4058C236.248 60.3022 236.185 59.5991 236.058 59.2964C235.94 58.9839 235.691 58.8276 235.311 58.8276C234.988 58.8276 234.739 58.9546 234.563 59.2085C234.397 59.4526 234.314 60.1851 234.314 61.4058V72.48C234.314 73.8569 234.368 74.7065 234.476 75.0288C234.593 75.3511 234.856 75.5122 235.267 75.5122C235.687 75.5122 235.955 75.3267 236.072 74.9556C236.189 74.5845 236.248 73.7007 236.248 72.3042V61.4058Z" fill="black"/>
<path d="M332.939 5.0496C331.769 4.75568 327.664 5.29186 326.828 5.40829C321.197 6.56336 315.991 10.2025 312.12 13.7974C311.748 20.9333 311.774 37.071 314.856 44.5348C316.609 38.7912 319.674 33.6962 321.327 31.4628C325.692 25.8668 330.695 22.172 334.253 20.1285C335.296 14.1068 335.681 8.95145 335.744 7.12647L332.939 5.0496Z" fill="#F33332"/>
<path d="M301.108 43.4314C302.133 44.6472 303.759 46.8859 305.211 48.1915L307.744 50.3539C306.792 49.458 302.14 43.0784 299.933 40.0006C300.111 41.2937 300.47 42.5149 301.108 43.4314Z" fill="#F33332"/>
<path fill-rule="evenodd" clip-rule="evenodd" d="M353.512 30.7324C354.402 26.1482 353.324 22.3669 352.673 21.0494C352.315 20.2152 351.252 19.102 350.305 18.2332C348.592 17.1495 343.67 15.6773 337.684 18.4581C336.856 18.7643 335.669 19.3158 334.253 20.1285C330.695 22.172 325.692 25.8668 321.327 31.4628C319.674 33.6962 316.609 38.7912 314.856 44.5348C314.332 46.2514 313.925 48.0258 313.708 49.7992C313.539 51.3245 313.799 55.1525 316.189 58.2618C317.124 59.0454 318.506 60.0453 319.625 60.3666C320.552 60.5571 322.764 60.8203 324.391 60.3989L324.535 60.3594C328.303 60.1566 334.543 56.5596 337.192 54.7865C341.913 51.6265 345.851 47.4905 348.653 43.0339C351.597 38.3516 352.925 33.2415 353.512 30.7324ZM321.41 43.1116C322.682 38.2575 327.313 32.5536 329.47 30.3083C333.389 26.1717 338.018 23.8117 340.219 23.2109C346.754 21.4277 348.739 25.5917 349.173 28.2049C349.464 34.1312 346.196 40.5871 344.189 43.0879C340.072 48.2201 336.21 51.1427 334.716 51.8779C329.696 54.6665 325.801 55.3231 323.048 52.9958C320.08 50.4859 320.838 45.3851 321.41 43.1116Z" fill="#F33332"/>
<path d="M306.529 20.0354C305.03 21.9232 301.66 27.2778 300.177 33.5946C299.89 35.0161 299.607 37.6294 299.933 40.0006C302.14 43.0784 306.792 49.458 307.744 50.3539L315.472 57.6242C315.654 57.7986 315.901 58.0199 316.189 58.2618C313.799 55.1525 313.539 51.3245 313.708 49.7992C313.925 48.0258 314.332 46.2514 314.856 44.5348C311.774 37.071 311.748 20.9333 312.12 13.7974C309.615 16.1236 307.67 18.4313 306.529 20.0354Z" fill="white"/>
<path d="M349.121 17.2169L340.553 10.6868L335.744 7.12647C335.681 8.95145 335.296 14.1068 334.253 20.1285C335.669 19.3158 336.856 18.7643 337.684 18.4581C343.67 15.6773 348.592 17.1495 350.305 18.2332C349.855 17.8207 349.431 17.4632 349.121 17.2169Z" fill="white"/>
<path d="M329.47 30.3083C327.313 32.5536 322.682 38.2575 321.41 43.1116C320.838 45.3851 320.08 50.4859 323.048 52.9958C325.801 55.3231 329.696 54.6665 334.716 51.8779C336.21 51.1427 340.072 48.2201 344.189 43.0879C346.196 40.5871 349.464 34.1312 349.173 28.2049C348.739 25.5917 346.754 21.4277 340.219 23.2109C338.018 23.8117 333.389 26.1717 329.47 30.3083Z" fill="url(#paint1_linear_667_520)"/>
<path d="M324.535 60.3594C328.303 60.1566 334.543 56.5596 337.192 54.7865C341.913 51.6265 345.851 47.4905 348.653 43.0339C351.597 38.3516 352.925 33.2415 353.512 30.7324C354.402 26.1482 353.324 22.3669 352.673 21.0494C352.315 20.2152 351.252 19.102 350.305 18.2332M324.535 60.3594C324.488 60.3732 324.44 60.3864 324.391 60.3989M324.535 60.3594L324.391 60.3989M350.305 18.2332C349.855 17.8207 349.431 17.4632 349.121 17.2169L340.553 10.6868L335.744 7.12647M350.305 18.2332C348.592 17.1495 343.67 15.6773 337.684 18.4581C336.856 18.7643 335.669 19.3158 334.253 20.1285M316.189 58.2618C315.901 58.0199 315.654 57.7986 315.472 57.6242L307.744 50.3539M316.189 58.2618C317.124 59.0454 318.506 60.0453 319.625 60.3666C320.552 60.5571 322.764 60.8203 324.391 60.3989M316.189 58.2618C313.799 55.1525 313.539 51.3245 313.708 49.7992C313.925 48.0258 314.332 46.2514 314.856 44.5348M335.744 7.12647L332.939 5.0496C331.769 4.75568 327.664 5.29186 326.828 5.40829C321.197 6.56336 315.991 10.2025 312.12 13.7974M335.744 7.12647C335.681 8.95145 335.296 14.1068 334.253 20.1285M334.253 20.1285C330.695 22.172 325.692 25.8668 321.327 31.4628C319.674 33.6962 316.609 38.7912 314.856 44.5348M312.12 13.7974C309.615 16.1236 307.67 18.4313 306.529 20.0354C305.03 21.9232 301.66 27.2778 300.177 33.5946C299.89 35.0161 299.607 37.6294 299.933 40.0006M312.12 13.7974C311.748 20.9333 311.774 37.071 314.856 44.5348M299.933 40.0006C300.111 41.2937 300.47 42.5149 301.108 43.4314C302.133 44.6472 303.759 46.8859 305.211 48.1915L307.744 50.3539M299.933 40.0006C302.14 43.0784 306.792 49.458 307.744 50.3539M329.47 30.3083C327.313 32.5536 322.682 38.2575 321.41 43.1116C320.838 45.3851 320.08 50.4859 323.048 52.9958C325.801 55.3231 329.696 54.6665 334.716 51.8779C336.21 51.1427 340.072 48.2201 344.189 43.0879C346.196 40.5871 349.464 34.1312 349.173 28.2049C348.739 25.5917 346.754 21.4277 340.219 23.2109C338.018 23.8117 333.389 26.1717 329.47 30.3083Z" stroke="black" stroke-width="0.7"/>
<path d="M117.749 58.7846C117.696 57.5657 115.991 53.7401 115.636 52.9627C112.891 47.8368 107.859 43.8394 103.255 41.1238C96.2285 42.8233 80.5879 47.5081 74.2402 52.6508C80.3157 52.6923 86.1412 54.1935 88.7841 55.1514C95.4708 57.7688 100.498 61.5525 103.507 64.4133C109.647 63.6852 114.757 62.5707 116.545 62.1044L117.749 58.7846Z" fill="#F33332"/>
<path d="M71.3407 39.0013C70.4578 40.3464 68.7566 42.5701 67.9098 44.3549L66.5444 47.4355C67.1382 46.2535 71.9811 39.9005 74.3283 36.8718C73.1257 37.4175 72.0452 38.118 71.3407 39.0013Z" fill="#F33332"/>
<path fill-rule="evenodd" clip-rule="evenodd" d="M98.785 86.1488C103.487 85.6886 106.842 83.5511 107.932 82.5399C108.638 81.9517 109.41 80.6002 109.979 79.4307C110.535 77.457 110.542 72.2592 106.117 67.2571C105.581 66.5427 104.703 65.551 103.507 64.4133C100.498 61.5525 95.4708 57.7688 88.7841 55.1514C86.1412 54.1935 80.3157 52.6923 74.2402 52.6508C72.4245 52.6384 70.5864 52.7564 68.8043 53.0582C67.2764 53.3346 63.6395 54.6915 61.3147 57.9074C60.8249 59.0402 60.2542 60.6688 60.2659 61.8469C60.3486 62.8003 60.7322 65.0214 61.6106 66.4775L61.6906 66.6058C62.9751 70.2011 68.2645 75.2129 70.7487 77.2694C73.3453 79.4191 76.1898 81.0983 79.1333 82.5011C81.2084 83.4901 83.3326 84.3982 85.4539 84.9895C90.8441 86.492 96.1826 86.3041 98.785 86.1488ZM77.5126 58.595C82.5867 58.4272 89.4549 61.2712 92.2547 62.7142C97.3974 65.32 101.022 69.1269 102.24 71.0882C105.856 76.9093 102.392 80.037 99.9832 81.2123C94.3207 83.2052 87.1169 81.9001 84.1127 80.6769C77.9476 78.1667 73.9984 75.2651 72.8542 74.0291C68.7008 69.9665 66.9395 66.379 68.4014 63.0379C69.978 59.4348 75.1431 58.6974 77.5126 58.595Z" fill="#F33332"/>
<path d="M95.5923 37.5035C93.3288 36.5943 87.1636 34.8726 80.6104 35.2586C79.1492 35.391 76.5334 35.8712 74.3283 36.8718C71.9811 39.9005 67.1382 46.2535 66.5444 47.4355L65.6332 49.2493L61.7258 57.0276C61.6095 57.255 61.466 57.5576 61.3147 57.9074C63.6395 54.6915 67.2764 53.3346 68.8043 53.0582C70.5864 52.7564 72.4245 52.6384 74.2402 52.6508C80.5879 47.5081 96.2285 42.8233 103.255 41.1238C100.276 39.3665 97.4769 38.1459 95.5923 37.5035Z" fill="white"/>
<path d="M110.623 77.9888L114.481 67.7955L116.545 62.1044C114.757 62.5707 109.647 63.6852 103.507 64.4133C104.703 65.551 105.581 66.5427 106.117 67.2571C110.542 72.2592 110.535 77.457 109.979 79.4307C110.249 78.8753 110.473 78.3609 110.623 77.9888Z" fill="white"/>
<path d="M92.2547 62.7142C89.4549 61.2712 82.5867 58.4272 77.5126 58.595C75.1431 58.6974 69.978 59.4348 68.4014 63.0379C66.9395 66.379 68.7008 69.9665 72.8542 74.0291C73.9984 75.2651 77.9476 78.1667 84.1127 80.6769C87.1169 81.9001 94.3207 83.2052 99.9832 81.2123C102.392 80.037 105.856 76.9093 102.24 71.0882C101.022 69.1269 97.3974 65.32 92.2547 62.7142Z" fill="url(#paint2_linear_667_520)"/>
<path d="M61.6906 66.6058C62.9751 70.2011 68.2645 75.2129 70.7487 77.2694C73.3453 79.4191 76.1898 81.0983 79.1333 82.5011C81.2084 83.4901 83.3326 84.3982 85.4539 84.9895C90.8441 86.492 96.1826 86.3041 98.785 86.1488C103.487 85.6886 106.842 83.5511 107.932 82.5399C108.638 81.9517 109.41 80.6002 109.979 79.4307M61.6906 66.6058C61.6635 66.5638 61.6368 66.521 61.6106 66.4775M61.6906 66.6058L61.6106 66.4775M109.979 79.4307C110.249 78.8753 110.473 78.3609 110.623 77.9888L114.481 67.7955L116.545 62.1044M109.979 79.4307C110.535 77.457 110.542 72.2592 106.117 67.2571C105.581 66.5427 104.703 65.551 103.507 64.4133M61.3147 57.9074C61.466 57.5576 61.6095 57.255 61.7258 57.0276L65.6332 49.2493L66.5444 47.4355M61.3147 57.9074C60.8249 59.0402 60.2542 60.6688 60.2659 61.8469C60.3486 62.8003 60.7322 65.0214 61.6106 66.4775M61.3147 57.9074C63.6395 54.6915 67.2764 53.3346 68.8043 53.0582C70.5864 52.7564 72.4245 52.6384 74.2402 52.6508M116.545 62.1044L117.749 58.7846C117.696 57.5657 115.991 53.7401 115.636 52.9627C112.891 47.8368 107.859 43.8394 103.255 41.1238M116.545 62.1044C114.757 62.5707 109.647 63.6852 103.507 64.4133M103.507 64.4133C100.498 61.5525 95.4708 57.7688 88.7841 55.1514C86.1412 54.1935 80.3157 52.6923 74.2402 52.6508M103.255 41.1238C100.276 39.3665 97.4769 38.1459 95.5923 37.5035C93.3288 36.5943 87.1636 34.8726 80.6104 35.2586C79.1492 35.391 76.5334 35.8712 74.3283 36.8718M103.255 41.1238C96.2285 42.8233 80.5879 47.5081 74.2402 52.6508M74.3283 36.8718C73.1257 37.4175 72.0452 38.118 71.3407 39.0013C70.4578 40.3464 68.7566 42.5701 67.9098 44.3549L66.5444 47.4355M74.3283 36.8718C71.9811 39.9005 67.1382 46.2535 66.5444 47.4355M92.2547 62.7142C89.4549 61.2712 82.5867 58.4272 77.5126 58.595C75.1431 58.6974 69.978 59.4348 68.4014 63.0379C66.9395 66.379 68.7008 69.9665 72.8542 74.0291C73.9984 75.2651 77.9476 78.1667 84.1127 80.6769C87.1169 81.9001 94.3207 83.2052 99.9832 81.2123C102.392 80.037 105.856 76.9093 102.24 71.0882C101.022 69.1269 97.3974 65.32 92.2547 62.7142Z" stroke="black" stroke-width="0.7"/>
<mask id="mask2_667_520" style="mask-type:alpha" maskUnits="userSpaceOnUse" x="308" y="79" width="85" height="52">
<rect x="308" y="79" width="85" height="52" rx="14" fill="#D9D9D9"/>
</mask>
<g mask="url(#mask2_667_520)">
<path d="M392.7 128.328C392.953 127.121 392.236 122.948 392.083 122.098C390.671 116.391 386.738 111.219 382.905 107.41C375.596 107.323 359.104 108.012 351.602 111.468C357.544 113.024 362.878 115.947 365.228 117.545C371.127 121.777 375.108 126.738 377.343 130.291C383.54 131.109 388.825 131.292 390.693 131.281L392.7 128.328Z" fill="#F33332"/>
<path d="M352.165 97.3715C350.965 98.4691 348.744 100.224 347.469 101.761L345.363 104.439C346.239 103.429 352.569 98.4122 355.624 96.0301C354.309 96.2649 353.076 96.6817 352.165 97.3715Z" fill="#F33332"/>
<path fill-rule="evenodd" clip-rule="evenodd" d="M367.296 150.409C372.018 151.131 375.838 149.874 377.158 149.155C377.996 148.754 379.09 147.623 379.939 146.619C380.976 144.824 382.279 139.733 379.191 133.728C378.844 132.895 378.232 131.704 377.343 130.291C375.108 126.738 371.127 121.777 365.228 117.545C362.878 115.947 357.544 113.024 351.602 111.468C349.826 111.003 347.996 110.66 346.175 110.511C344.609 110.401 340.707 110.824 337.627 113.395C336.865 114.382 335.9 115.836 335.617 116.993C335.46 117.947 335.282 120.219 335.78 121.865L335.826 122.011C336.188 125.854 340.121 132.083 342.042 134.718C344.049 137.471 346.418 139.826 348.952 141.934C350.738 143.421 352.593 144.84 354.524 145.949C359.43 148.765 364.708 149.913 367.296 150.409ZM353.326 118.108C358.339 119.209 364.359 123.708 366.742 125.82C371.131 129.656 373.733 134.29 374.438 136.515C376.528 143.12 372.354 145.321 369.701 145.872C363.656 146.412 356.924 143.337 354.285 141.389C348.871 137.392 345.725 133.564 344.913 132.068C341.856 127.052 341.025 123.098 343.291 120.189C345.734 117.052 350.979 117.617 353.326 118.108Z" fill="#F33332"/>
<path d="M376.3 101.952C374.309 100.497 368.698 97.2724 362.181 96.0163C360.716 95.7816 358.034 95.5997 355.624 96.0301C352.569 98.4122 346.239 103.429 345.363 104.439L344.018 105.989L338.249 112.635C338.079 112.829 337.863 113.09 337.627 113.395C340.707 110.824 344.609 110.401 346.175 110.511C347.996 110.66 349.826 111.003 351.602 111.468C359.104 108.012 375.596 107.323 382.905 107.41C380.425 104.946 377.986 103.052 376.3 101.952Z" fill="white"/>
<path d="M380.929 145.367L387.252 136.342L390.693 131.281C388.825 131.292 383.54 131.109 377.343 130.291C378.232 131.704 378.844 132.895 379.191 133.728C382.279 139.733 380.976 144.824 379.939 146.619C380.342 146.142 380.69 145.694 380.929 145.367Z" fill="white"/>
<path d="M366.742 125.82C364.359 123.708 358.339 119.209 353.326 118.108C350.979 117.617 345.734 117.052 343.291 120.189C341.025 123.098 341.856 127.052 344.913 132.068C345.725 133.564 348.871 137.392 354.285 141.389C356.924 143.337 363.656 146.412 369.701 145.872C372.354 145.321 376.528 143.12 374.438 136.515C373.733 134.29 371.131 129.656 366.742 125.82Z" fill="url(#paint3_linear_667_520)"/>
<path d="M335.826 122.011C336.188 125.854 340.121 132.083 342.042 134.718C344.049 137.471 346.418 139.826 348.952 141.934C350.738 143.421 352.593 144.84 354.524 145.949C359.43 148.765 364.708 149.913 367.296 150.409C372.018 151.131 375.838 149.874 377.158 149.155C377.996 148.754 379.09 147.623 379.939 146.619M335.826 122.011C335.81 121.963 335.795 121.914 335.78 121.865M335.826 122.011L335.78 121.865M379.939 146.619C380.342 146.142 380.69 145.694 380.929 145.367L387.252 136.342L390.693 131.281M379.939 146.619C380.976 144.824 382.279 139.733 379.191 133.728C378.844 132.895 378.232 131.704 377.343 130.291M337.627 113.395C337.863 113.09 338.079 112.829 338.249 112.635L344.018 105.989L345.363 104.439M337.627 113.395C336.865 114.382 335.9 115.836 335.617 116.993C335.46 117.947 335.282 120.219 335.78 121.865M337.627 113.395C340.707 110.824 344.609 110.401 346.175 110.511C347.996 110.66 349.826 111.003 351.602 111.468M390.693 131.281L392.7 128.328C392.953 127.121 392.236 122.948 392.083 122.098C390.671 116.391 386.738 111.219 382.905 107.41M390.693 131.281C388.825 131.292 383.54 131.109 377.343 130.291M377.343 130.291C375.108 126.738 371.127 121.777 365.228 117.545C362.878 115.947 357.544 113.024 351.602 111.468M382.905 107.41C380.425 104.946 377.986 103.052 376.3 101.952C374.309 100.497 368.698 97.2724 362.181 96.0163C360.716 95.7816 358.034 95.5997 355.624 96.0301M382.905 107.41C375.596 107.323 359.104 108.012 351.602 111.468M355.624 96.0301C354.309 96.2649 353.076 96.6817 352.165 97.3715C350.965 98.4691 348.744 100.224 347.469 101.761L345.363 104.439M355.624 96.0301C352.569 98.4122 346.239 103.429 345.363 104.439M366.742 125.82C364.359 123.708 358.339 119.209 353.326 118.108C350.979 117.617 345.734 117.052 343.291 120.189C341.025 123.098 341.856 127.052 344.913 132.068C345.725 133.564 348.871 137.392 354.285 141.389C356.924 143.337 363.656 146.412 369.701 145.872C372.354 145.321 376.528 143.12 374.438 136.515C373.733 134.29 371.131 129.656 366.742 125.82Z" stroke="black" stroke-width="0.7"/>
</g>
<defs>
<linearGradient id="paint0_linear_667_520" x1="155.065" y1="-20.5541" x2="202.093" y2="-1.08336" gradientUnits="userSpaceOnUse">
<stop offset="0.715" stop-color="white"/>
<stop offset="1" stop-color="#999999"/>
</linearGradient>
<linearGradient id="paint1_linear_667_520" x1="301.937" y1="26.5765" x2="351.433" y2="39.0404" gradientUnits="userSpaceOnUse">
<stop offset="0.715" stop-color="white"/>
<stop offset="1" stop-color="#999999"/>
</linearGradient>
<linearGradient id="paint2_linear_667_520" x1="87.9236" y1="34.9387" x2="90.1288" y2="86.5318" gradientUnits="userSpaceOnUse">
<stop offset="0.715" stop-color="white"/>
<stop offset="1" stop-color="#999999"/>
</linearGradient>
<linearGradient id="paint3_linear_667_520" x1="369.426" y1="97.5268" x2="358.719" y2="148.626" gradientUnits="userSpaceOnUse">
<stop offset="0.715" stop-color="white"/>
<stop offset="1" stop-color="#999999"/>
</linearGradient>
</defs>
</svg>
