<svg width="394" height="139" viewBox="0 0 394 139" fill="none" xmlns="http://www.w3.org/2000/svg">
<rect x="0.5" y="0.527832" width="393" height="131" rx="14.5" fill="#FFD527" stroke="black"/>
<mask id="mask0_667_520" style="mask-type:alpha" maskUnits="userSpaceOnUse" x="1" y="1" width="392" height="131">
<rect x="1.50488" y="1.52783" width="390.99" height="129" rx="14.5" fill="#D9D9D9" stroke="black"/>
</mask>
<g mask="url(#mask0_667_520)">
<path d="M85.7379 -65.9398L90.5108 -40.8084L104.942 -31.0714L100.169 -56.2028L85.7379 -65.9398Z" fill="white"/>
<path d="M114.489 -46.5408L119.262 -21.4094L133.693 -11.6725L128.92 -36.8039L114.489 -46.5408Z" fill="white"/>
<path d="M143.24 -27.1419L148.124 -1.9356L162.334 7.65153L157.561 -17.4799L143.24 -27.1419Z" fill="white"/>
<path d="M172.436 -7.44337L177.209 17.688L191.418 27.2751L186.645 2.14374L172.436 -7.44337Z" fill="white"/>
<path d="M201.187 11.9556L206.071 37.1619L220.613 46.9737L215.729 21.7674L201.187 11.9556Z" fill="white"/>
<path d="M404.001 148.798L408.884 174.003L419.208 159.058L404.001 148.798Z" fill="white"/>
<path d="M374.694 129.023L379.578 154.23L394.12 164.041L389.347 138.91L374.694 129.023Z" fill="white"/>
<path d="M345.832 109.549L350.715 134.756L365.147 144.493L360.263 119.286L345.832 109.549Z" fill="white"/>
<path d="M259.245 51.1279L264.018 76.2593L278.116 85.7715L273.343 60.6401L259.245 51.1279Z" fill="white"/>
<path d="M316.858 90.0007L321.742 115.207L336.173 124.944L331.289 99.7376L316.858 90.0007Z" fill="white"/>
<path d="M288.218 70.6767L293.102 95.883L307.089 105.32L302.316 80.1889L288.218 70.6767Z" fill="white"/>
<path d="M230.16 31.5043L235.044 56.7106L249.253 66.2977L244.369 41.0914L230.16 31.5043Z" fill="white"/>
<path d="M56.9866 -85.3387L61.7595 -60.2073L76.1135 -50.5224L71.3067 -75.6767L56.9866 -85.3387Z" fill="white"/>
<path d="M71.3067 -75.6767L76.1135 -50.5224L90.5108 -40.8084L85.7379 -65.9398L71.3067 -75.6767Z" fill="#F33332"/>
<path d="M56.9866 -85.3387L46.6623 -70.3936L61.7595 -60.2073L56.9866 -85.3387Z" fill="#F33332"/>
<path d="M100.169 -56.2028L104.942 -31.0714L119.262 -21.4094L114.489 -46.5408L100.169 -56.2028Z" fill="#F33332"/>
<path d="M360.263 119.286L365.147 144.493L379.578 154.23L374.694 129.023L360.263 119.286Z" fill="#F33332"/>
<path d="M128.92 -36.8039L133.693 -11.6725L148.124 -1.9356L143.24 -27.1419L128.92 -36.8039Z" fill="#F33332"/>
<path d="M157.561 -17.4799L162.334 7.65153L177.209 17.688L172.436 -7.44337L157.561 -17.4799Z" fill="#F33332"/>
<path d="M186.645 2.14374L191.418 27.2751L206.071 37.1619L201.187 11.9556L186.645 2.14374Z" fill="#F33332"/>
<path d="M215.729 21.7674L220.613 46.9737L235.044 56.7106L230.16 31.5043L215.729 21.7674Z" fill="#F33332"/>
<path d="M244.369 41.0914L249.253 66.2977L264.018 76.2593L259.245 51.1279L244.369 41.0914Z" fill="#F33332"/>
<path d="M273.343 60.6401L278.116 85.7715L293.102 95.883L288.218 70.6767L273.343 60.6401Z" fill="#F33332"/>
<path d="M302.316 80.1889L307.089 105.32L321.742 115.207L316.858 90.0007L302.316 80.1889Z" fill="#F33332"/>
<path d="M331.289 99.7376L336.173 124.944L350.715 134.756L345.832 109.549L331.289 99.7376Z" fill="#F33332"/>
<path d="M389.347 138.91L394.12 164.041L408.884 174.003L404.001 148.798L389.347 138.91Z" fill="#F33332"/>
<path d="M56.9866 -85.3387L46.6623 -70.3936L61.7595 -60.2073M56.9866 -85.3387L61.7595 -60.2073M56.9866 -85.3387L71.3067 -75.6767M61.7595 -60.2073L76.1135 -50.5224M71.3067 -75.6767L76.1135 -50.5224M71.3067 -75.6767L85.7379 -65.9398M76.1135 -50.5224L90.5108 -40.8084M85.7379 -65.9398L90.5108 -40.8084M85.7379 -65.9398L100.169 -56.2028M90.5108 -40.8084L104.942 -31.0714M100.169 -56.2028L104.942 -31.0714M100.169 -56.2028L114.489 -46.5408M104.942 -31.0714L119.262 -21.4094M114.489 -46.5408L119.262 -21.4094M114.489 -46.5408L128.92 -36.8039M119.262 -21.4094L133.693 -11.6725M128.92 -36.8039L133.693 -11.6725M128.92 -36.8039L143.24 -27.1419M133.693 -11.6725L148.124 -1.93559M143.24 -27.1419L148.124 -1.93559M143.24 -27.1419L157.561 -17.4799M148.124 -1.93559L162.333 7.65152M157.561 -17.4799L162.333 7.65152M157.561 -17.4799L172.436 -7.44337M162.333 7.65152L177.209 17.688M172.436 -7.44337L177.209 17.688M172.436 -7.44337L186.645 2.14374M177.209 17.688L191.418 27.2751M186.645 2.14374L191.418 27.2751M186.645 2.14374L201.187 11.9556M191.418 27.2751L206.071 37.1619M201.187 11.9556L206.071 37.1619M201.187 11.9556L215.729 21.7674M206.071 37.1619L220.613 46.9737M215.729 21.7674L220.613 46.9737M215.729 21.7674L230.16 31.5043M220.613 46.9737L235.044 56.7106M230.16 31.5043L235.044 56.7106M230.16 31.5043L244.369 41.0914M235.044 56.7106L249.253 66.2977M244.369 41.0914L249.253 66.2977M244.369 41.0914L259.245 51.1279M249.253 66.2977L264.018 76.2593M259.245 51.1279L264.018 76.2593M259.245 51.1279L273.343 60.6401M264.018 76.2593L278.116 85.7715M273.343 60.6401L278.116 85.7715M273.343 60.6401L288.218 70.6767M278.116 85.7715L293.102 95.883M288.218 70.6767L293.102 95.883M288.218 70.6767L302.316 80.1889M293.102 95.883L307.089 105.32M302.316 80.1889L307.089 105.32M302.316 80.1889L316.858 90.0007M307.089 105.32L321.742 115.207M316.858 90.0007L321.742 115.207M316.858 90.0007L331.289 99.7376M321.742 115.207L336.173 124.944M331.289 99.7376L336.173 124.944M331.289 99.7376L345.832 109.549M336.173 124.944L350.715 134.756M345.832 109.549L350.715 134.756M345.832 109.549L360.263 119.286M350.715 134.756L365.147 144.493M360.263 119.286L365.147 144.493M360.263 119.286L374.694 129.023M365.147 144.493L379.578 154.23M374.694 129.023L379.578 154.23M374.694 129.023L389.347 138.91M379.578 154.23L394.12 164.041M389.347 138.91L394.12 164.041M389.347 138.91L404.001 148.798M394.12 164.041L408.884 174.003M403.93 148.427L404.001 148.798M408.884 174.003L419.208 159.058L404.001 148.798M408.884 174.003L404.001 148.798" stroke="black" stroke-width="0.7"/>
<path d="M-35.802 233.547L-9.95395 232.412L1.83064 219.662L-24.0174 220.796L-35.802 233.547Z" fill="white"/>
<path d="M-12.3235 208.144L13.5246 207.009L25.3092 194.259L-0.538862 195.393L-12.3235 208.144Z" fill="white"/>
<path d="M11.1551 182.741L37.0938 181.509L48.6971 168.954L22.849 170.089L11.1551 182.741Z" fill="white"/>
<path d="M34.9962 156.946L60.8442 155.812L72.4475 143.257L46.5995 144.392L34.9962 156.946Z" fill="white"/>
<path d="M58.4747 131.544L84.4134 130.311L96.2887 117.462L70.35 118.695L58.4747 131.544Z" fill="white"/>
<path d="M224.095 -47.6494L250.032 -48.8809L236.513 -61.0852L224.095 -47.6494Z" fill="white"/>
<path d="M200.162 -21.7552L226.1 -22.9878L237.976 -35.8363L212.128 -34.7017L200.162 -21.7552Z" fill="white"/>
<path d="M176.593 3.74556L202.531 2.5129L214.316 -10.2375L188.377 -9.00481L176.593 3.74556Z" fill="white"/>
<path d="M105.885 80.2478L131.733 79.1132L143.246 66.6571L117.398 67.7917L105.885 80.2478Z" fill="white"/>
<path d="M152.933 29.3444L178.871 28.1117L190.656 15.3613L164.717 16.594L152.933 29.3444Z" fill="white"/>
<path d="M129.545 54.649L155.484 53.4163L166.906 41.0583L141.058 42.1928L129.545 54.649Z" fill="white"/>
<path d="M82.1346 105.945L108.073 104.712L119.677 92.1578L93.7379 93.3905L82.1346 105.945Z" fill="white"/>
<path d="M-59.2805 258.949L-33.4325 257.815L-21.7109 245.132L-47.5866 246.297L-59.2805 258.949Z" fill="white"/>
<path d="M-47.5866 246.297L-21.7109 245.132L-9.95395 232.412L-35.802 233.547L-47.5866 246.297Z" fill="#F33332"/>
<path d="M-59.2805 258.949L-45.761 271.153L-33.4325 257.815L-59.2805 258.949Z" fill="#F33332"/>
<path d="M-24.0174 220.796L1.83064 219.662L13.5246 207.009L-12.3235 208.144L-24.0174 220.796Z" fill="#F33332"/>
<path d="M188.377 -9.00481L214.316 -10.2375L226.1 -22.9878L200.162 -21.7552L188.377 -9.00481Z" fill="#F33332"/>
<path d="M-0.538862 195.393L25.3092 194.259L37.0938 181.509L11.1551 182.741L-0.538862 195.393Z" fill="#F33332"/>
<path d="M22.849 170.089L48.6971 168.954L60.8442 155.812L34.9962 156.946L22.849 170.089Z" fill="#F33332"/>
<path d="M46.5995 144.392L72.4475 143.257L84.4134 130.311L58.4747 131.544L46.5995 144.392Z" fill="#F33332"/>
<path d="M70.35 118.695L96.2887 117.462L108.073 104.712L82.1346 105.945L70.35 118.695Z" fill="#F33332"/>
<path d="M93.7379 93.3905L119.677 92.1578L131.733 79.1132L105.885 80.2478L93.7379 93.3905Z" fill="#F33332"/>
<path d="M117.398 67.7917L143.246 66.6571L155.484 53.4163L129.545 54.649L117.398 67.7917Z" fill="#F33332"/>
<path d="M141.058 42.1928L166.906 41.0583L178.871 28.1117L152.933 29.3444L141.058 42.1928Z" fill="#F33332"/>
<path d="M164.717 16.594L190.656 15.3613L202.531 2.5129L176.593 3.74556L164.717 16.594Z" fill="#F33332"/>
<path d="M212.128 -34.7017L237.976 -35.8363L250.032 -48.8809L224.095 -47.6494L212.128 -34.7017Z" fill="#F33332"/>
<path d="M-59.2805 258.949L-45.761 271.153L-33.4325 257.815M-59.2805 258.949L-33.4325 257.815M-59.2805 258.949L-47.5866 246.297M-33.4325 257.815L-21.7109 245.132M-47.5866 246.297L-21.7109 245.132M-47.5866 246.297L-35.802 233.547M-21.7109 245.132L-9.95395 232.412M-35.802 233.547L-9.95395 232.412M-35.802 233.547L-24.0174 220.796M-9.95395 232.412L1.83064 219.662M-24.0174 220.796L1.83064 219.662M-24.0174 220.796L-12.3235 208.144M1.83064 219.662L13.5246 207.009M-12.3235 208.144L13.5246 207.009M-12.3235 208.144L-0.538863 195.393M13.5246 207.009L25.3092 194.259M-0.538863 195.393L25.3092 194.259M-0.538863 195.393L11.1551 182.741M25.3092 194.259L37.0938 181.509M11.1551 182.741L37.0938 181.509M11.1551 182.741L22.849 170.089M37.0938 181.509L48.6971 168.954M22.849 170.089L48.6971 168.954M22.849 170.089L34.9962 156.946M48.6971 168.954L60.8442 155.812M34.9962 156.946L60.8442 155.812M34.9962 156.946L46.5995 144.392M60.8442 155.812L72.4475 143.257M46.5995 144.392L72.4475 143.257M46.5995 144.392L58.4747 131.544M72.4475 143.257L84.4134 130.311M58.4747 131.544L84.4134 130.311M58.4747 131.544L70.35 118.695M84.4134 130.311L96.2887 117.462M70.35 118.695L96.2887 117.462M70.35 118.695L82.1346 105.945M96.2887 117.462L108.073 104.712M82.1346 105.945L108.073 104.712M82.1346 105.945L93.7379 93.3905M108.073 104.712L119.677 92.1578M93.7379 93.3905L119.677 92.1578M93.7379 93.3905L105.885 80.2478M119.677 92.1578L131.733 79.1132M105.885 80.2478L131.733 79.1132M105.885 80.2478L117.398 67.7917M131.733 79.1132L143.246 66.6571M117.398 67.7917L143.246 66.6571M117.398 67.7917L129.545 54.649M143.246 66.6571L155.484 53.4163M129.545 54.649L155.484 53.4163M129.545 54.649L141.058 42.1928M155.484 53.4163L166.906 41.0583M141.058 42.1928L166.906 41.0583M141.058 42.1928L152.933 29.3444M166.906 41.0583L178.871 28.1117M152.933 29.3444L178.871 28.1117M152.933 29.3444L164.717 16.594M178.871 28.1117L190.656 15.3614M164.717 16.594L190.656 15.3614M164.717 16.594L176.593 3.74555M190.656 15.3614L202.531 2.5129M176.593 3.74555L202.531 2.5129M176.593 3.74555L188.377 -9.00482M202.531 2.5129L214.316 -10.2375M188.377 -9.00482L214.316 -10.2375M188.377 -9.00482L200.162 -21.7552M214.316 -10.2375L226.1 -22.9878M200.162 -21.7552L226.1 -22.9878M200.162 -21.7552L212.128 -34.7017M226.1 -22.9878L237.976 -35.8363M212.128 -34.7017L237.976 -35.8363M212.128 -34.7017L224.095 -47.6494M237.976 -35.8363L250.032 -48.8809M223.714 -47.6313L224.095 -47.6494M250.032 -48.8809L236.513 -61.0852L224.095 -47.6494M250.032 -48.8809L224.095 -47.6494" stroke="black" stroke-width="0.7"/>
<path d="M-20.159 13.8694L-11.8312 38.0789L3.85029 45.6969L-4.47747 21.4873L-20.159 13.8694Z" fill="white"/>
<path d="M11.0834 29.0467L19.4112 53.2562L35.0927 60.8742L26.7649 36.6646L11.0834 29.0467Z" fill="white"/>
<path d="M42.3258 44.224L50.7742 68.4921L66.2145 75.9929L57.8867 51.7833L42.3258 44.224Z" fill="white"/>
<path d="M74.0507 59.6357L82.3785 83.8452L97.8187 91.346L89.491 67.1364L74.0507 59.6357Z" fill="white"/>
<path d="M105.293 74.813L113.741 99.0811L129.544 106.758L121.095 82.4895L105.293 74.813Z" fill="white"/>
<path d="M-51.4014 -1.30795L-43.0736 22.9016L-27.476 30.4788L-35.8405 6.2514L-51.4014 -1.30795Z" fill="white"/>
<path d="M-35.8405 6.2514L-27.476 30.4788L-11.8312 38.0789L-20.159 13.8694L-35.8405 6.2514Z" fill="#F33332"/>
<path d="M-51.4014 -1.30795L-59.4789 14.932L-43.0736 22.9016L-51.4014 -1.30795Z" fill="#F33332"/>
<path d="M-4.47747 21.4873L3.85029 45.6969L19.4112 53.2562L11.0834 29.0467L-4.47747 21.4873Z" fill="#F33332"/>
<path d="M26.7649 36.6646L35.0927 60.8742L50.7742 68.4921L42.3258 44.224L26.7649 36.6646Z" fill="#F33332"/>
<path d="M57.8867 51.7833L66.2145 75.9929L82.3785 83.8452L74.0507 59.6357L57.8867 51.7833Z" fill="#F33332"/>
<path d="M89.491 67.1364L97.8187 91.346L113.741 99.0811L105.293 74.813L89.491 67.1364Z" fill="#F33332"/>
<path d="M-51.4014 -1.30795L-59.4789 14.932L-43.0736 22.9016M-51.4014 -1.30795L-43.0736 22.9016M-51.4014 -1.30795L-35.8405 6.2514M-43.0736 22.9016L-27.476 30.4788M-35.8405 6.2514L-27.476 30.4788M-35.8405 6.2514L-20.159 13.8694M-27.476 30.4788L-11.8312 38.0789M-20.159 13.8694L-11.8312 38.0789M-20.159 13.8694L-4.47747 21.4873M-11.8312 38.0789L3.85029 45.6969M-4.47747 21.4873L3.85029 45.6969M-4.47747 21.4873L11.0834 29.0467M3.85029 45.6969L19.4112 53.2562M11.0834 29.0467L19.4112 53.2562M11.0834 29.0467L26.7649 36.6646M19.4112 53.2562L35.0927 60.8742M26.7649 36.6646L35.0927 60.8742M26.7649 36.6646L42.3258 44.224M35.0927 60.8742L50.7742 68.4921M42.3258 44.224L50.7742 68.4921M42.3258 44.224L57.8867 51.7833M50.7742 68.4921L66.2145 75.9929M57.8867 51.7833L66.2145 75.9929M57.8867 51.7833L74.0507 59.6357M66.2145 75.9929L82.3785 83.8452M74.0507 59.6357L82.3785 83.8452M74.0507 59.6357L89.491 67.1364M82.3785 83.8452L97.8187 91.346M89.491 67.1364L97.8187 91.346M89.491 67.1364L105.293 74.813M97.8187 91.346L113.741 99.0811M105.293 74.813L113.741 99.0811M105.293 74.813L121.095 82.4895L129.544 106.758L113.741 99.0811" stroke="black" stroke-width="0.7"/>
<path d="M386.706 23.7658L409.472 36.1097L404.398 18.7226L386.706 23.7658Z" fill="white"/>
<path d="M352.61 33.4854L375.377 45.8288L392.296 41.0061L369.657 28.6258L352.61 33.4854Z" fill="white"/>
<path d="M319.031 43.0572L341.799 55.4007L358.588 50.6147L335.82 38.2713L319.031 43.0572Z" fill="white"/>
<path d="M285.324 52.6659L308.092 65.0094L324.881 60.2234L302.113 47.88L285.324 52.6659Z" fill="white"/>
<path d="M257 57.9999L274.772 74.5076L291.044 69.8689L268.405 57.4887L257 57.9999Z" fill="white"/>
<path d="M335.82 38.2713L358.588 50.6147L375.377 45.8288L352.61 33.4854L335.82 38.2713Z" fill="#F33332"/>
<path d="M268.405 57.4887L291.044 69.8689L308.092 65.0094L285.324 52.6659L268.405 57.4887Z" fill="#F33332"/>
<path d="M302.113 47.88L324.881 60.2234L341.799 55.4007L319.031 43.0572L302.113 47.88Z" fill="#F33332"/>
<path d="M369.657 28.6258L392.296 41.0061L409.472 36.1097L386.706 23.7658L369.657 28.6258Z" fill="#F33332"/>
<path d="M268.405 57.4887L257 57.9999L274.772 74.5076L291.044 69.8689M268.405 57.4887L291.044 69.8689M268.405 57.4887L285.324 52.6659M291.044 69.8689L308.092 65.0094M285.324 52.6659L308.092 65.0094M285.324 52.6659L302.113 47.88M308.092 65.0094L324.881 60.2234M302.113 47.88L324.881 60.2234M302.113 47.88L319.031 43.0572M324.881 60.2234L341.799 55.4007M319.031 43.0572L341.799 55.4007M319.031 43.0572L335.82 38.2713M341.799 55.4007L358.588 50.6147M335.82 38.2713L358.588 50.6147M335.82 38.2713L352.61 33.4854M358.588 50.6147L375.377 45.8288M352.61 33.4854L375.377 45.8288M352.61 33.4854L369.657 28.6258M375.377 45.8288L392.296 41.0061M369.657 28.6258L392.296 41.0061M369.657 28.6258L386.706 23.7658M392.296 41.0061L409.472 36.1097M386.372 23.5846L386.706 23.7658M409.472 36.1097L404.398 18.7226L386.706 23.7658M409.472 36.1097L386.706 23.7658" stroke="black" stroke-width="0.7"/>
</g>
<path d="M284.939 19.0496C283.769 18.7557 279.664 19.2919 278.828 19.4083C273.197 20.5634 267.991 24.2025 264.12 27.7974C263.748 34.9333 263.774 51.071 266.856 58.5348C268.609 52.7912 271.674 47.6962 273.327 45.4628C277.692 39.8668 282.695 36.172 286.253 34.1285C287.296 28.1068 287.681 22.9515 287.744 21.1265L284.939 19.0496Z" fill="#F33332"/>
<path d="M253.108 57.4314C254.133 58.6472 255.759 60.8859 257.211 62.1915L259.744 64.3539C258.792 63.458 254.14 57.0784 251.933 54.0006C252.111 55.2937 252.47 56.5149 253.108 57.4314Z" fill="#F33332"/>
<path fill-rule="evenodd" clip-rule="evenodd" d="M305.512 44.7324C306.402 40.1482 305.324 36.3669 304.673 35.0494C304.315 34.2152 303.252 33.102 302.305 32.2332C300.592 31.1495 295.67 29.6773 289.684 32.4581C288.856 32.7643 287.669 33.3158 286.253 34.1285C282.695 36.172 277.692 39.8668 273.327 45.4628C271.674 47.6962 268.609 52.7912 266.856 58.5348C266.332 60.2514 265.925 62.0258 265.708 63.7992C265.539 65.3245 265.799 69.1525 268.189 72.2618C269.124 73.0454 270.506 74.0453 271.625 74.3666C272.552 74.5571 274.764 74.8203 276.391 74.3989L276.535 74.3594C280.303 74.1566 286.543 70.5596 289.192 68.7865C293.913 65.6265 297.851 61.4905 300.653 57.0339C303.597 52.3516 304.925 47.2415 305.512 44.7324ZM273.41 57.1116C274.682 52.2575 279.313 46.5536 281.47 44.3083C285.389 40.1717 290.018 37.8117 292.219 37.2109C298.754 35.4277 300.739 39.5917 301.173 42.2049C301.464 48.1312 298.196 54.5871 296.189 57.0879C292.072 62.2201 288.21 65.1427 286.716 65.8779C281.696 68.6665 277.801 69.3231 275.048 66.9958C272.08 64.4859 272.838 59.3851 273.41 57.1116Z" fill="#F33332"/>
<path d="M258.529 34.0354C257.03 35.9232 253.66 41.2778 252.177 47.5946C251.89 49.0161 251.607 51.6294 251.933 54.0006C254.14 57.0784 258.792 63.458 259.744 64.3539L267.472 71.6242C267.654 71.7986 267.901 72.0199 268.189 72.2618C265.799 69.1525 265.539 65.3245 265.708 63.7992C265.925 62.0258 266.332 60.2514 266.856 58.5348C263.774 51.071 263.748 34.9333 264.12 27.7974C261.615 30.1236 259.67 32.4313 258.529 34.0354Z" fill="white"/>
<path d="M301.121 31.2169L292.553 24.6868L287.744 21.1265C287.681 22.9515 287.296 28.1068 286.253 34.1285C287.669 33.3158 288.856 32.7643 289.684 32.4581C295.67 29.6773 300.592 31.1495 302.305 32.2332C301.855 31.8207 301.431 31.4632 301.121 31.2169Z" fill="white"/>
<path d="M281.47 44.3083C279.313 46.5536 274.682 52.2575 273.41 57.1116C272.838 59.3851 272.08 64.4859 275.048 66.9958C277.801 69.3231 281.696 68.6665 286.716 65.8779C288.21 65.1427 292.072 62.2201 296.189 57.0879C298.196 54.5871 301.464 48.1312 301.173 42.2049C300.739 39.5917 298.754 35.4277 292.219 37.2109C290.018 37.8117 285.389 40.1717 281.47 44.3083Z" fill="url(#paint0_linear_667_520)"/>
<path d="M276.535 74.3594C280.303 74.1566 286.543 70.5596 289.192 68.7865C293.913 65.6265 297.851 61.4905 300.653 57.0339C303.597 52.3516 304.925 47.2415 305.512 44.7324C306.402 40.1482 305.324 36.3669 304.673 35.0494C304.315 34.2152 303.252 33.102 302.305 32.2332M276.535 74.3594C276.488 74.3732 276.44 74.3864 276.391 74.3989M276.535 74.3594L276.391 74.3989M302.305 32.2332C301.855 31.8207 301.431 31.4632 301.121 31.2169L292.553 24.6868L287.744 21.1265M302.305 32.2332C300.592 31.1495 295.67 29.6773 289.684 32.4581C288.856 32.7643 287.669 33.3158 286.253 34.1285M268.189 72.2618C267.901 72.0199 267.654 71.7986 267.472 71.6242L259.744 64.3539M268.189 72.2618C269.124 73.0454 270.506 74.0453 271.625 74.3666C272.552 74.5571 274.764 74.8203 276.391 74.3989M268.189 72.2618C265.799 69.1525 265.539 65.3245 265.708 63.7992C265.925 62.0258 266.332 60.2514 266.856 58.5348M287.744 21.1265L284.939 19.0496C283.769 18.7557 279.664 19.2919 278.828 19.4083C273.197 20.5634 267.991 24.2025 264.12 27.7974M287.744 21.1265C287.681 22.9515 287.296 28.1068 286.253 34.1285M286.253 34.1285C282.695 36.172 277.692 39.8668 273.327 45.4628C271.674 47.6962 268.609 52.7912 266.856 58.5348M264.12 27.7974C261.615 30.1236 259.67 32.4313 258.529 34.0354C257.03 35.9232 253.66 41.2778 252.177 47.5946C251.89 49.0161 251.607 51.6294 251.933 54.0006M264.12 27.7974C263.748 34.9333 263.774 51.071 266.856 58.5348M251.933 54.0006C252.111 55.2937 252.47 56.5149 253.108 57.4314C254.133 58.6472 255.759 60.8859 257.211 62.1915L259.744 64.3539M251.933 54.0006C254.14 57.0784 258.792 63.458 259.744 64.3539M281.47 44.3083C279.313 46.5536 274.682 52.2575 273.41 57.1116C272.838 59.3851 272.08 64.4859 275.048 66.9958C277.801 69.3231 281.696 68.6665 286.716 65.8779C288.21 65.1427 292.072 62.2201 296.189 57.0879C298.196 54.5871 301.464 48.1312 301.173 42.2049C300.739 39.5917 298.754 35.4277 292.219 37.2109C290.018 37.8117 285.389 40.1717 281.47 44.3083Z" stroke="black" stroke-width="0.7"/>
<path d="M168.749 84.7846C168.696 83.5657 166.991 79.7402 166.636 78.9628C163.891 73.8368 158.859 69.8395 154.255 67.1238C147.229 68.8233 131.588 73.5081 125.24 78.6508C131.316 78.6924 137.141 80.1935 139.784 81.1514C146.471 83.7688 151.498 87.5525 154.507 90.4133C160.647 89.6853 165.757 88.5707 167.545 88.1045L168.749 84.7846Z" fill="#F33332"/>
<path d="M122.341 65.0013C121.458 66.3464 119.757 68.5701 118.91 70.3549L117.544 73.4355C118.138 72.2535 122.981 65.9005 125.328 62.8718C124.126 63.4175 123.045 64.118 122.341 65.0013Z" fill="#F33332"/>
<path fill-rule="evenodd" clip-rule="evenodd" d="M149.785 112.149C154.487 111.689 157.842 109.551 158.932 108.54C159.638 107.952 160.41 106.6 160.979 105.431C161.535 103.457 161.542 98.2592 157.117 93.2571C156.581 92.5427 155.703 91.551 154.507 90.4133C151.498 87.5525 146.471 83.7688 139.784 81.1514C137.141 80.1935 131.316 78.6924 125.24 78.6508C123.424 78.6384 121.586 78.7564 119.804 79.0582C118.276 79.3347 114.639 80.6916 112.315 83.9074C111.825 85.0403 111.254 86.6688 111.266 87.8469C111.349 88.8003 111.732 91.0214 112.611 92.4776L112.691 92.6059C113.975 96.2011 119.265 101.213 121.749 103.269C124.345 105.419 127.19 107.098 130.133 108.501C132.208 109.49 134.333 110.398 136.454 110.99C141.844 112.492 147.183 112.304 149.785 112.149ZM128.513 84.595C133.587 84.4272 140.455 87.2713 143.255 88.7143C148.397 91.3201 152.022 95.1269 153.24 97.0882C156.856 102.909 153.392 106.037 150.983 107.212C145.321 109.205 138.117 107.9 135.113 106.677C128.948 104.167 124.998 101.265 123.854 100.029C119.701 95.9665 117.939 92.3791 119.401 89.038C120.978 85.4348 126.143 84.6974 128.513 84.595Z" fill="#F33332"/>
<path d="M146.592 63.5035C144.329 62.5944 138.164 60.8726 131.61 61.2586C130.149 61.391 127.533 61.8712 125.328 62.8718C122.981 65.9005 118.138 72.2535 117.544 73.4355L116.633 75.2494L112.726 83.0276C112.609 83.2551 112.466 83.5576 112.315 83.9074C114.639 80.6916 118.276 79.3347 119.804 79.0582C121.586 78.7564 123.424 78.6384 125.24 78.6508C131.588 73.5081 147.229 68.8233 154.255 67.1238C151.276 65.3665 148.477 64.1459 146.592 63.5035Z" fill="white"/>
<path d="M161.623 103.989L165.481 93.7955L167.545 88.1045C165.757 88.5707 160.647 89.6853 154.507 90.4133C155.703 91.551 156.581 92.5427 157.117 93.2571C161.542 98.2592 161.535 103.457 160.979 105.431C161.249 104.875 161.473 104.361 161.623 103.989Z" fill="white"/>
<path d="M143.255 88.7143C140.455 87.2713 133.587 84.4272 128.513 84.595C126.143 84.6974 120.978 85.4348 119.401 89.038C117.939 92.3791 119.701 95.9665 123.854 100.029C124.998 101.265 128.948 104.167 135.113 106.677C138.117 107.9 145.321 109.205 150.983 107.212C153.392 106.037 156.856 102.909 153.24 97.0882C152.022 95.1269 148.397 91.3201 143.255 88.7143Z" fill="url(#paint1_linear_667_520)"/>
<path d="M112.691 92.6059C113.975 96.2011 119.265 101.213 121.749 103.269C124.345 105.419 127.19 107.098 130.133 108.501C132.208 109.49 134.333 110.398 136.454 110.99C141.844 112.492 147.183 112.304 149.785 112.149C154.487 111.689 157.842 109.551 158.932 108.54C159.638 107.952 160.41 106.6 160.979 105.431M112.691 92.6059C112.663 92.5638 112.637 92.521 112.611 92.4776M112.691 92.6059L112.611 92.4776M160.979 105.431C161.249 104.875 161.473 104.361 161.623 103.989L165.481 93.7955L167.545 88.1045M160.979 105.431C161.535 103.457 161.542 98.2592 157.117 93.2571C156.581 92.5427 155.703 91.551 154.507 90.4133M112.315 83.9074C112.466 83.5576 112.609 83.2551 112.726 83.0276L116.633 75.2494L117.544 73.4355M112.315 83.9074C111.825 85.0403 111.254 86.6688 111.266 87.8469C111.349 88.8003 111.732 91.0214 112.611 92.4776M112.315 83.9074C114.639 80.6916 118.276 79.3347 119.804 79.0582C121.586 78.7564 123.424 78.6384 125.24 78.6508M167.545 88.1045L168.749 84.7846C168.696 83.5657 166.991 79.7402 166.636 78.9628C163.891 73.8368 158.859 69.8395 154.255 67.1238M167.545 88.1045C165.757 88.5707 160.647 89.6853 154.507 90.4133M154.507 90.4133C151.498 87.5525 146.471 83.7688 139.784 81.1514C137.141 80.1935 131.316 78.6924 125.24 78.6508M154.255 67.1238C151.276 65.3665 148.477 64.1459 146.592 63.5035C144.329 62.5944 138.164 60.8726 131.61 61.2586C130.149 61.391 127.533 61.8712 125.328 62.8718M154.255 67.1238C147.229 68.8233 131.588 73.5081 125.24 78.6508M125.328 62.8718C124.126 63.4175 123.045 64.118 122.341 65.0013C121.458 66.3464 119.757 68.5701 118.91 70.3549L117.544 73.4355M125.328 62.8718C122.981 65.9005 118.138 72.2535 117.544 73.4355M143.255 88.7143C140.455 87.2713 133.587 84.4272 128.513 84.595C126.143 84.6974 120.978 85.4348 119.401 89.038C117.939 92.3791 119.701 95.9665 123.854 100.029C124.998 101.265 128.948 104.167 135.113 106.677C138.117 107.9 145.321 109.205 150.983 107.212C153.392 106.037 156.856 102.909 153.24 97.0882C152.022 95.1269 148.397 91.3201 143.255 88.7143Z" stroke="black" stroke-width="0.7"/>
<path d="M136.211 72.674C131.841 68.3366 132.905 61.1003 138.346 58.1532C139.112 57.7383 139.815 57.2202 140.434 56.6138L163 34.528L184.037 12.8335C190.003 6.68149 199.997 6.68147 205.963 12.8335L227 34.528L252.5 59.028C257.434 62.6626 257.786 69.8063 253.232 73.8913L228 96.526L204 121.028C199.531 126.546 191.103 126.854 186.229 121.676L179.5 114.528L161.5 97.7762L136.211 72.674Z" fill="#F87B21"/>
<path d="M176.13 22.2707L176.13 22.2708L176.139 22.2617L179.768 18.5916L179.768 18.5917L179.776 18.5826L182.358 15.8365L186.852 11.383L186.854 11.3814L188.854 9.38139L190.319 7.91639L191.72 6.98178L193.142 6.51652L194.344 6.1958H194.522L194.582 6.52874L195.001 6.52783L195.499 6.52675H195.501L195.865 6.52755L195.866 6.52755L196.5 6.52724L196.5 6.52724L197.419 6.52724L198.73 6.96426L199.146 7.3808L199.166 7.39985L199.186 7.41675L199.996 8.06811L203.988 11.7215L208.182 15.8441L208.182 15.8441L208.186 15.848L211.814 19.3346L215.633 23.0047L215.633 23.0048L215.638 23.0088L219.739 26.8583L223.5 30.5609V93.5277H167.5V30.6531L171.834 26.3996L171.838 26.3959L176.13 22.2707Z" fill="white" stroke="black"/>
<rect x="1.07035" width="90.7288" height="90.7288" rx="9.25" transform="matrix(0.713564 -0.70059 0.713564 0.70059 129.583 66.8793)" stroke="black" stroke-width="1.5"/>
<path d="M195 7.02783V94.0278" stroke="black" stroke-width="0.8"/>
<path d="M160.823 69.1987C160.823 71.5815 160.765 73.271 160.647 74.2671C160.54 75.2534 160.188 76.1567 159.593 76.9771C159.007 77.7974 158.211 78.4272 157.205 78.8667C156.199 79.3062 155.027 79.5259 153.689 79.5259C152.42 79.5259 151.277 79.3208 150.262 78.9106C149.256 78.4907 148.445 77.8657 147.83 77.0356C147.215 76.2056 146.849 75.3022 146.731 74.3257C146.614 73.3491 146.556 71.6401 146.556 69.1987V65.1411C146.556 62.7583 146.609 61.0737 146.717 60.0874C146.834 59.0913 147.186 58.1831 147.771 57.3628C148.367 56.5425 149.168 55.9126 150.174 55.4731C151.18 55.0337 152.352 54.814 153.689 54.814C154.959 54.814 156.097 55.0239 157.103 55.4438C158.118 55.854 158.934 56.4741 159.549 57.3042C160.164 58.1343 160.53 59.0376 160.647 60.0142C160.765 60.9907 160.823 62.6997 160.823 65.1411V69.1987ZM154.656 61.4058C154.656 60.3022 154.593 59.5991 154.466 59.2964C154.349 58.9839 154.1 58.8276 153.719 58.8276C153.396 58.8276 153.147 58.9546 152.972 59.2085C152.806 59.4526 152.723 60.1851 152.723 61.4058V72.48C152.723 73.8569 152.776 74.7065 152.884 75.0288C153.001 75.3511 153.265 75.5122 153.675 75.5122C154.095 75.5122 154.363 75.3267 154.48 74.9556C154.598 74.5845 154.656 73.7007 154.656 72.3042V61.4058ZM177.332 79.0278H171.15V60.0435H169.319V79.0278H163.138V55.2974H177.332V79.0278ZM190.457 55.312L193.987 79.0278H187.674L187.366 74.7651H185.154L184.788 79.0278H178.401L181.536 55.312H190.457ZM187.19 70.561C186.878 67.8755 186.565 64.5601 186.253 60.6147C185.628 65.146 185.237 68.4614 185.081 70.561H187.19ZM209.441 65.6538H203.274V61.5229C203.274 60.3218 203.206 59.5747 203.069 59.2817C202.942 58.979 202.654 58.8276 202.205 58.8276C201.697 58.8276 201.375 59.0083 201.238 59.3696C201.102 59.731 201.033 60.5122 201.033 61.7134V72.729C201.033 73.8813 201.102 74.6333 201.238 74.9849C201.375 75.3364 201.683 75.5122 202.161 75.5122C202.62 75.5122 202.918 75.3364 203.055 74.9849C203.201 74.6333 203.274 73.8081 203.274 72.5093V69.5356H209.441V70.4585C209.441 72.9097 209.266 74.6479 208.914 75.6733C208.572 76.6987 207.806 77.5972 206.614 78.3687C205.433 79.1401 203.973 79.5259 202.234 79.5259C200.428 79.5259 198.938 79.1987 197.767 78.5444C196.595 77.8901 195.818 76.9868 195.438 75.8345C195.057 74.6724 194.866 72.9292 194.866 70.605V63.6763C194.866 61.9673 194.925 60.688 195.042 59.8384C195.159 58.979 195.506 58.1538 196.082 57.3628C196.668 56.5718 197.474 55.9517 198.499 55.5024C199.534 55.0435 200.721 54.814 202.059 54.814C203.875 54.814 205.374 55.1655 206.556 55.8687C207.737 56.5718 208.514 57.4507 208.885 58.5054C209.256 59.5503 209.441 61.1812 209.441 63.3979V65.6538ZM225.833 55.312V79.0278H219.666V69.0669H217.82V79.0278H211.653V55.312H217.82V63.7935H219.666V55.312H225.833ZM242.415 69.1987C242.415 71.5815 242.356 73.271 242.239 74.2671C242.132 75.2534 241.78 76.1567 241.185 76.9771C240.599 77.7974 239.803 78.4272 238.797 78.8667C237.791 79.3062 236.619 79.5259 235.281 79.5259C234.012 79.5259 232.869 79.3208 231.854 78.9106C230.848 78.4907 230.037 77.8657 229.422 77.0356C228.807 76.2056 228.44 75.3022 228.323 74.3257C228.206 73.3491 228.147 71.6401 228.147 69.1987V65.1411C228.147 62.7583 228.201 61.0737 228.309 60.0874C228.426 59.0913 228.777 58.1831 229.363 57.3628C229.959 56.5425 230.76 55.9126 231.766 55.4731C232.771 55.0337 233.943 54.814 235.281 54.814C236.551 54.814 237.688 55.0239 238.694 55.4438C239.71 55.854 240.525 56.4741 241.141 57.3042C241.756 58.1343 242.122 59.0376 242.239 60.0142C242.356 60.9907 242.415 62.6997 242.415 65.1411V69.1987ZM236.248 61.4058C236.248 60.3022 236.185 59.5991 236.058 59.2964C235.94 58.9839 235.691 58.8276 235.311 58.8276C234.988 58.8276 234.739 58.9546 234.563 59.2085C234.397 59.4526 234.314 60.1851 234.314 61.4058V72.48C234.314 73.8569 234.368 74.7065 234.476 75.0288C234.593 75.3511 234.856 75.5122 235.267 75.5122C235.687 75.5122 235.955 75.3267 236.072 74.9556C236.189 74.5845 236.248 73.7007 236.248 72.3042V61.4058Z" fill="black"/>
<defs>
<linearGradient id="paint0_linear_667_520" x1="253.937" y1="40.5765" x2="303.433" y2="53.0404" gradientUnits="userSpaceOnUse">
<stop offset="0.715" stop-color="white"/>
<stop offset="1" stop-color="#999999"/>
</linearGradient>
<linearGradient id="paint1_linear_667_520" x1="138.924" y1="60.9387" x2="141.129" y2="112.532" gradientUnits="userSpaceOnUse">
<stop offset="0.715" stop-color="white"/>
<stop offset="1" stop-color="#999999"/>
</linearGradient>
</defs>
</svg>
