<svg width="394" height="133" viewBox="0 0 394 133" fill="none" xmlns="http://www.w3.org/2000/svg">
<rect x="0.5" y="0.555664" width="393" height="131" rx="14.5" fill="#FFD527" stroke="black"/>
<mask id="mask0_667_520" style="mask-type:alpha" maskUnits="userSpaceOnUse" x="1" y="1" width="392" height="131">
<rect x="1.50488" y="1.55566" width="390.99" height="129" rx="14.5" fill="#D9D9D9" stroke="black"/>
</mask>
<g mask="url(#mask0_667_520)">
<path d="M85.7379 -65.9119L90.5108 -40.7805L104.942 -31.0436L100.169 -56.175L85.7379 -65.9119Z" fill="white"/>
<path d="M114.489 -46.513L119.262 -21.3816L133.693 -11.6447L128.92 -36.7761L114.489 -46.513Z" fill="white"/>
<path d="M143.24 -27.1141L148.124 -1.90776L162.334 7.67936L157.561 -17.452L143.24 -27.1141Z" fill="white"/>
<path d="M172.436 -7.41554L177.209 17.7159L191.418 27.303L186.645 2.17158L172.436 -7.41554Z" fill="white"/>
<path d="M201.187 11.9834L206.071 37.1897L220.613 47.0015L215.729 21.7952L201.187 11.9834Z" fill="white"/>
<path d="M404.001 148.825L408.884 174.031L419.208 159.086L404.001 148.825Z" fill="white"/>
<path d="M374.694 129.051L379.578 154.257L394.12 164.069L389.347 138.938L374.694 129.051Z" fill="white"/>
<path d="M345.832 109.577L350.715 134.784L365.147 144.52L360.263 119.314L345.832 109.577Z" fill="white"/>
<path d="M259.245 51.1557L264.018 76.2872L278.116 85.7994L273.343 60.668L259.245 51.1557Z" fill="white"/>
<path d="M316.858 90.0285L321.742 115.235L336.173 124.972L331.289 99.7654L316.858 90.0285Z" fill="white"/>
<path d="M288.218 70.7045L293.102 95.9108L307.089 105.348L302.316 80.2167L288.218 70.7045Z" fill="white"/>
<path d="M230.16 31.5321L235.044 56.7384L249.253 66.3255L244.369 41.1192L230.16 31.5321Z" fill="white"/>
<path d="M56.9866 -85.3109L61.7595 -60.1795L76.1135 -50.4946L71.3067 -75.6488L56.9866 -85.3109Z" fill="white"/>
<path d="M71.3067 -75.6488L76.1135 -50.4946L90.5108 -40.7805L85.7379 -65.9119L71.3067 -75.6488Z" fill="#F33332"/>
<path d="M56.9866 -85.3109L46.6623 -70.3658L61.7595 -60.1795L56.9866 -85.3109Z" fill="#F33332"/>
<path d="M100.169 -56.175L104.942 -31.0436L119.262 -21.3816L114.489 -46.513L100.169 -56.175Z" fill="#F33332"/>
<path d="M360.263 119.314L365.147 144.52L379.578 154.257L374.694 129.051L360.263 119.314Z" fill="#F33332"/>
<path d="M128.92 -36.7761L133.693 -11.6447L148.124 -1.90776L143.24 -27.1141L128.92 -36.7761Z" fill="#F33332"/>
<path d="M157.561 -17.452L162.334 7.67936L177.209 17.7159L172.436 -7.41554L157.561 -17.452Z" fill="#F33332"/>
<path d="M186.645 2.17158L191.418 27.303L206.071 37.1897L201.187 11.9834L186.645 2.17158Z" fill="#F33332"/>
<path d="M215.729 21.7952L220.613 47.0015L235.044 56.7384L230.16 31.5321L215.729 21.7952Z" fill="#F33332"/>
<path d="M244.369 41.1192L249.253 66.3255L264.018 76.2872L259.245 51.1557L244.369 41.1192Z" fill="#F33332"/>
<path d="M273.343 60.668L278.116 85.7994L293.102 95.9108L288.218 70.7045L273.343 60.668Z" fill="#F33332"/>
<path d="M302.316 80.2167L307.089 105.348L321.742 115.235L316.858 90.0285L302.316 80.2167Z" fill="#F33332"/>
<path d="M331.289 99.7654L336.173 124.972L350.715 134.784L345.832 109.577L331.289 99.7654Z" fill="#F33332"/>
<path d="M389.347 138.938L394.12 164.069L408.884 174.031L404.001 148.825L389.347 138.938Z" fill="#F33332"/>
<path d="M56.9866 -85.3109L46.6623 -70.3658L61.7595 -60.1795M56.9866 -85.3109L61.7595 -60.1795M56.9866 -85.3109L71.3067 -75.6488M61.7595 -60.1795L76.1135 -50.4946M71.3067 -75.6488L76.1135 -50.4946M71.3067 -75.6488L85.7379 -65.9119M76.1135 -50.4946L90.5108 -40.7805M85.7379 -65.9119L90.5108 -40.7805M85.7379 -65.9119L100.169 -56.175M90.5108 -40.7805L104.942 -31.0436M100.169 -56.175L104.942 -31.0436M100.169 -56.175L114.489 -46.513M104.942 -31.0436L119.262 -21.3816M114.489 -46.513L119.262 -21.3816M114.489 -46.513L128.92 -36.7761M119.262 -21.3816L133.693 -11.6447M128.92 -36.7761L133.693 -11.6447M128.92 -36.7761L143.24 -27.1141M133.693 -11.6447L148.124 -1.90776M143.24 -27.1141L148.124 -1.90776M143.24 -27.1141L157.561 -17.4521M148.124 -1.90776L162.333 7.67936M157.561 -17.4521L162.333 7.67936M157.561 -17.4521L172.436 -7.41554M162.333 7.67936L177.209 17.7159M172.436 -7.41554L177.209 17.7159M172.436 -7.41554L186.645 2.17157M177.209 17.7159L191.418 27.303M186.645 2.17157L191.418 27.303M186.645 2.17157L201.187 11.9834M191.418 27.303L206.071 37.1897M201.187 11.9834L206.071 37.1897M201.187 11.9834L215.729 21.7952M206.071 37.1897L220.613 47.0015M215.729 21.7952L220.613 47.0015M215.729 21.7952L230.16 31.5321M220.613 47.0015L235.044 56.7384M230.16 31.5321L235.044 56.7384M230.16 31.5321L244.369 41.1192M235.044 56.7384L249.253 66.3255M244.369 41.1192L249.253 66.3255M244.369 41.1192L259.245 51.1557M249.253 66.3255L264.018 76.2872M259.245 51.1557L264.018 76.2872M259.245 51.1557L273.343 60.668M264.018 76.2872L278.116 85.7994M273.343 60.668L278.116 85.7994M273.343 60.668L288.218 70.7045M278.116 85.7994L293.102 95.9108M288.218 70.7045L293.102 95.9108M288.218 70.7045L302.316 80.2167M293.102 95.9108L307.089 105.348M302.316 80.2167L307.089 105.348M302.316 80.2167L316.858 90.0285M307.089 105.348L321.742 115.235M316.858 90.0285L321.742 115.235M316.858 90.0285L331.289 99.7654M321.742 115.235L336.173 124.972M331.289 99.7654L336.173 124.972M331.289 99.7654L345.832 109.577M336.173 124.972L350.715 134.784M345.832 109.577L350.715 134.784M345.832 109.577L360.263 119.314M350.715 134.784L365.147 144.52M360.263 119.314L365.147 144.52M360.263 119.314L374.694 129.051M365.147 144.52L379.578 154.257M374.694 129.051L379.578 154.257M374.694 129.051L389.347 138.938M379.578 154.257L394.12 164.069M389.347 138.938L394.12 164.069M389.347 138.938L404.001 148.825M394.12 164.069L408.884 174.031M403.93 148.455L404.001 148.825M408.884 174.031L419.208 159.086L404.001 148.825M408.884 174.031L404.001 148.825" stroke="black" stroke-width="0.7"/>
<path d="M-35.802 233.574L-9.95395 232.44L1.83064 219.689L-24.0174 220.824L-35.802 233.574Z" fill="white"/>
<path d="M-12.3235 208.172L13.5246 207.037L25.3092 194.287L-0.538862 195.421L-12.3235 208.172Z" fill="white"/>
<path d="M11.1551 182.769L37.0938 181.536L48.6971 168.982L22.849 170.117L11.1551 182.769Z" fill="white"/>
<path d="M34.9962 156.974L60.8442 155.839L72.4475 143.285L46.5995 144.42L34.9962 156.974Z" fill="white"/>
<path d="M58.4747 131.571L84.4134 130.339L96.2887 117.49L70.35 118.723L58.4747 131.571Z" fill="white"/>
<path d="M224.095 -47.6215L250.032 -48.8531L236.513 -61.0574L224.095 -47.6215Z" fill="white"/>
<path d="M200.162 -21.7274L226.1 -22.96L237.976 -35.8085L212.128 -34.6739L200.162 -21.7274Z" fill="white"/>
<path d="M176.593 3.77339L202.531 2.54074L214.316 -10.2096L188.377 -8.97698L176.593 3.77339Z" fill="white"/>
<path d="M105.885 80.2756L131.733 79.1411L143.246 66.6849L117.398 67.8195L105.885 80.2756Z" fill="white"/>
<path d="M152.933 29.3722L178.871 28.1396L190.656 15.3892L164.717 16.6218L152.933 29.3722Z" fill="white"/>
<path d="M129.545 54.6768L155.484 53.4442L166.906 41.0861L141.058 42.2207L129.545 54.6768Z" fill="white"/>
<path d="M82.1346 105.973L108.073 104.74L119.677 92.1857L93.7379 93.4183L82.1346 105.973Z" fill="white"/>
<path d="M-59.2805 258.977L-33.4325 257.842L-21.7109 245.16L-47.5866 246.325L-59.2805 258.977Z" fill="white"/>
<path d="M-47.5866 246.325L-21.7109 245.16L-9.95395 232.44L-35.802 233.574L-47.5866 246.325Z" fill="#F33332"/>
<path d="M-59.2805 258.977L-45.761 271.181L-33.4325 257.842L-59.2805 258.977Z" fill="#F33332"/>
<path d="M-24.0174 220.824L1.83064 219.689L13.5246 207.037L-12.3235 208.172L-24.0174 220.824Z" fill="#F33332"/>
<path d="M188.377 -8.97698L214.316 -10.2096L226.1 -22.96L200.162 -21.7274L188.377 -8.97698Z" fill="#F33332"/>
<path d="M-0.538862 195.421L25.3092 194.287L37.0938 181.536L11.1551 182.769L-0.538862 195.421Z" fill="#F33332"/>
<path d="M22.849 170.117L48.6971 168.982L60.8442 155.839L34.9962 156.974L22.849 170.117Z" fill="#F33332"/>
<path d="M46.5995 144.42L72.4475 143.285L84.4134 130.339L58.4747 131.571L46.5995 144.42Z" fill="#F33332"/>
<path d="M70.35 118.723L96.2887 117.49L108.073 104.74L82.1346 105.973L70.35 118.723Z" fill="#F33332"/>
<path d="M93.7379 93.4183L119.677 92.1857L131.733 79.1411L105.885 80.2756L93.7379 93.4183Z" fill="#F33332"/>
<path d="M117.398 67.8195L143.246 66.6849L155.484 53.4442L129.545 54.6768L117.398 67.8195Z" fill="#F33332"/>
<path d="M141.058 42.2207L166.906 41.0861L178.871 28.1396L152.933 29.3722L141.058 42.2207Z" fill="#F33332"/>
<path d="M164.717 16.6218L190.656 15.3892L202.531 2.54074L176.593 3.77339L164.717 16.6218Z" fill="#F33332"/>
<path d="M212.128 -34.6739L237.976 -35.8085L250.032 -48.8531L224.095 -47.6215L212.128 -34.6739Z" fill="#F33332"/>
<path d="M-59.2805 258.977L-45.761 271.181L-33.4325 257.842M-59.2805 258.977L-33.4325 257.842M-59.2805 258.977L-47.5866 246.325M-33.4325 257.842L-21.7109 245.16M-47.5866 246.325L-21.7109 245.16M-47.5866 246.325L-35.802 233.574M-21.7109 245.16L-9.95395 232.44M-35.802 233.574L-9.95395 232.44M-35.802 233.574L-24.0174 220.824M-9.95395 232.44L1.83064 219.689M-24.0174 220.824L1.83064 219.689M-24.0174 220.824L-12.3235 208.172M1.83064 219.689L13.5246 207.037M-12.3235 208.172L13.5246 207.037M-12.3235 208.172L-0.538863 195.421M13.5246 207.037L25.3092 194.287M-0.538863 195.421L25.3092 194.287M-0.538863 195.421L11.1551 182.769M25.3092 194.287L37.0938 181.536M11.1551 182.769L37.0938 181.536M11.1551 182.769L22.849 170.117M37.0938 181.536L48.6971 168.982M22.849 170.117L48.6971 168.982M22.849 170.117L34.9962 156.974M48.6971 168.982L60.8442 155.839M34.9962 156.974L60.8442 155.839M34.9962 156.974L46.5995 144.42M60.8442 155.839L72.4475 143.285M46.5995 144.42L72.4475 143.285M46.5995 144.42L58.4747 131.571M72.4475 143.285L84.4134 130.339M58.4747 131.571L84.4134 130.339M58.4747 131.571L70.35 118.723M84.4134 130.339L96.2887 117.49M70.35 118.723L96.2887 117.49M70.35 118.723L82.1346 105.973M96.2887 117.49L108.073 104.74M82.1346 105.973L108.073 104.74M82.1346 105.973L93.7379 93.4183M108.073 104.74L119.677 92.1857M93.7379 93.4183L119.677 92.1857M93.7379 93.4183L105.885 80.2756M119.677 92.1857L131.733 79.1411M105.885 80.2756L131.733 79.1411M105.885 80.2756L117.398 67.8195M131.733 79.1411L143.246 66.6849M117.398 67.8195L143.246 66.6849M117.398 67.8195L129.545 54.6768M143.246 66.6849L155.484 53.4442M129.545 54.6768L155.484 53.4442M129.545 54.6768L141.058 42.2207M155.484 53.4442L166.906 41.0861M141.058 42.2207L166.906 41.0861M141.058 42.2207L152.933 29.3722M166.906 41.0861L178.871 28.1396M152.933 29.3722L178.871 28.1396M152.933 29.3722L164.717 16.6218M178.871 28.1396L190.656 15.3892M164.717 16.6218L190.656 15.3892M164.717 16.6218L176.593 3.77338M190.656 15.3892L202.531 2.54074M176.593 3.77338L202.531 2.54074M176.593 3.77338L188.377 -8.97699M202.531 2.54074L214.316 -10.2096M188.377 -8.97699L214.316 -10.2096M188.377 -8.97699L200.162 -21.7274M214.316 -10.2096L226.1 -22.96M200.162 -21.7274L226.1 -22.96M200.162 -21.7274L212.128 -34.6739M226.1 -22.96L237.976 -35.8085M212.128 -34.6739L237.976 -35.8085M212.128 -34.6739L224.095 -47.6215M237.976 -35.8085L250.032 -48.8531M223.714 -47.6035L224.095 -47.6215M250.032 -48.8531L236.513 -61.0574L224.095 -47.6215M250.032 -48.8531L224.095 -47.6215" stroke="black" stroke-width="0.7"/>
<path d="M-20.1589 13.8972L-11.8312 38.1067L3.85035 45.7247L-4.4774 21.5151L-20.1589 13.8972Z" fill="white"/>
<path d="M11.0835 29.0745L19.4112 53.284L35.0927 60.902L26.765 36.6924L11.0835 29.0745Z" fill="white"/>
<path d="M42.3259 44.2518L50.7743 68.5199L66.2145 76.0207L57.8867 51.8112L42.3259 44.2518Z" fill="white"/>
<path d="M74.0508 59.6635L82.3785 83.8731L97.8188 91.3738L89.491 67.1643L74.0508 59.6635Z" fill="white"/>
<path d="M105.293 74.8408L113.742 99.109L129.544 106.786L121.095 82.5174L105.293 74.8408Z" fill="white"/>
<path d="M325.68 181.903L334.127 206.171L342.205 189.931L325.68 181.903Z" fill="white"/>
<path d="M293.833 166.432L302.282 190.7L318.084 198.377L309.756 174.167L293.833 166.432Z" fill="white"/>
<path d="M262.47 151.196L270.918 175.464L286.6 183.082L278.152 158.814L262.47 151.196Z" fill="white"/>
<path d="M168.381 105.488L176.709 129.698L192.028 137.14L183.701 112.931L168.381 105.488Z" fill="white"/>
<path d="M230.986 135.902L239.435 160.17L255.116 167.788L246.668 143.52L230.986 135.902Z" fill="white"/>
<path d="M199.865 120.783L208.313 145.051L223.512 152.435L215.184 128.225L199.865 120.783Z" fill="white"/>
<path d="M136.777 90.1353L145.225 114.403L160.665 121.904L152.217 97.6361L136.777 90.1353Z" fill="white"/>
<path d="M-51.4013 -1.28013L-43.0735 22.9294L-27.4759 30.5066L-35.8404 6.27923L-51.4013 -1.28013Z" fill="white"/>
<path d="M-35.8404 6.27923L-27.4759 30.5066L-11.8312 38.1067L-20.1589 13.8972L-35.8404 6.27923Z" fill="#F33332"/>
<path d="M-51.4013 -1.28013L-59.4788 14.9599L-43.0735 22.9294L-51.4013 -1.28013Z" fill="#F33332"/>
<path d="M-4.4774 21.5151L3.85035 45.7247L19.4112 53.284L11.0835 29.0745L-4.4774 21.5151Z" fill="#F33332"/>
<path d="M278.152 158.814L286.6 183.082L302.282 190.7L293.833 166.432L278.152 158.814Z" fill="#F33332"/>
<path d="M26.765 36.6924L35.0927 60.902L50.7743 68.5199L42.3259 44.2518L26.765 36.6924Z" fill="#F33332"/>
<path d="M57.8867 51.8112L66.2145 76.0207L82.3785 83.8731L74.0508 59.6635L57.8867 51.8112Z" fill="#F33332"/>
<path d="M89.491 67.1643L97.8188 91.3738L113.742 99.109L105.293 74.8408L89.491 67.1643Z" fill="#F33332"/>
<path d="M121.095 82.5174L129.544 106.786L145.225 114.403L136.777 90.1353L121.095 82.5174Z" fill="#F33332"/>
<path d="M152.217 97.6361L160.665 121.904L176.709 129.698L168.381 105.488L152.217 97.6361Z" fill="#F33332"/>
<path d="M183.701 112.931L192.028 137.14L208.313 145.051L199.865 120.783L183.701 112.931Z" fill="#F33332"/>
<path d="M215.184 128.225L223.512 152.435L239.435 160.17L230.986 135.902L215.184 128.225Z" fill="#F33332"/>
<path d="M246.668 143.52L255.116 167.788L270.918 175.464L262.47 151.196L246.668 143.52Z" fill="#F33332"/>
<path d="M309.756 174.167L318.084 198.377L334.127 206.171L325.68 181.903L309.756 174.167Z" fill="#F33332"/>
<path d="M-51.4013 -1.28013L-59.4788 14.9599L-43.0735 22.9294M-51.4013 -1.28013L-43.0735 22.9294M-51.4013 -1.28013L-35.8404 6.27923M-43.0735 22.9294L-27.4759 30.5066M-35.8404 6.27923L-27.4759 30.5066M-35.8404 6.27923L-20.1589 13.8972M-27.4759 30.5066L-11.8312 38.1067M-20.1589 13.8972L-11.8312 38.1067M-20.1589 13.8972L-4.47741 21.5151M-11.8312 38.1067L3.85036 45.7247M-4.47741 21.5151L3.85036 45.7247M-4.47741 21.5151L11.0835 29.0745M3.85036 45.7247L19.4112 53.284M11.0835 29.0745L19.4112 53.284M11.0835 29.0745L26.765 36.6924M19.4112 53.284L35.0927 60.902M26.765 36.6924L35.0927 60.902M26.765 36.6924L42.3259 44.2518M35.0927 60.902L50.7743 68.5199M42.3259 44.2518L50.7743 68.5199M42.3259 44.2518L57.8867 51.8112M50.7743 68.5199L66.2145 76.0207M57.8867 51.8112L66.2145 76.0207M57.8867 51.8112L74.0508 59.6635M66.2145 76.0207L82.3785 83.8731M74.0508 59.6635L82.3785 83.8731M74.0508 59.6635L89.491 67.1643M82.3785 83.8731L97.8188 91.3738M89.491 67.1643L97.8188 91.3738M89.491 67.1643L105.293 74.8408M97.8188 91.3738L113.742 99.109M105.293 74.8408L113.742 99.109M105.293 74.8408L121.095 82.5174M113.742 99.109L129.544 106.786M121.095 82.5174L129.544 106.786M121.095 82.5174L136.777 90.1353M129.544 106.786L145.225 114.403M136.777 90.1353L145.225 114.403M136.777 90.1353L152.217 97.6361M145.225 114.403L160.665 121.904M152.217 97.6361L160.665 121.904M152.217 97.6361L168.381 105.488M160.665 121.904L176.709 129.698M168.381 105.488L176.709 129.698M168.381 105.488L183.701 112.931M176.709 129.698L192.028 137.14M183.701 112.931L192.028 137.14M183.701 112.931L199.865 120.783M192.028 137.14L208.313 145.051M199.865 120.783L208.313 145.051M199.865 120.783L215.184 128.225M208.313 145.051L223.512 152.435M215.184 128.225L223.512 152.435M215.184 128.225L230.986 135.902M223.512 152.435L239.435 160.17M230.986 135.902L239.435 160.17M230.986 135.902L246.668 143.52M239.435 160.17L255.116 167.788M246.668 143.52L255.116 167.788M246.668 143.52L262.47 151.196M255.116 167.788L270.919 175.464M262.47 151.196L270.919 175.464M262.47 151.196L278.152 158.814M270.919 175.464L286.6 183.082M278.152 158.814L286.6 183.082M278.152 158.814L293.833 166.432M286.6 183.082L302.282 190.7M293.833 166.432L302.282 190.7M293.833 166.432L309.756 174.167M302.282 190.7L318.084 198.377M309.756 174.167L318.084 198.377M309.756 174.167L325.68 181.903M318.084 198.377L334.127 206.171M325.556 181.547L325.68 181.903M334.127 206.171L342.205 189.931L325.68 181.903M334.127 206.171L325.68 181.903" stroke="black" stroke-width="0.7"/>
<path d="M83.3374 110.272L106.105 122.616L122.636 117.903L99.9974 105.523L83.3374 110.272Z" fill="white"/>
<path d="M117.303 100.59L139.942 112.97L156.473 108.258L133.834 95.8776L117.303 100.59Z" fill="white"/>
<path d="M150.752 91.0548L173.52 103.398L190.438 98.5755L167.671 86.2321L150.752 91.0548Z" fill="white"/>
<path d="M386.706 23.7936L409.473 36.1375L404.398 18.7504L386.706 23.7936Z" fill="white"/>
<path d="M352.61 33.5131L375.378 45.8566L392.296 41.0338L369.657 28.6536L352.61 33.5131Z" fill="white"/>
<path d="M319.031 43.085L341.799 55.4285L358.588 50.6425L335.821 38.2991L319.031 43.085Z" fill="white"/>
<path d="M218.296 71.8006L240.935 84.1809L257.337 79.5054L234.698 67.1251L218.296 71.8006Z" fill="white"/>
<path d="M285.324 52.6937L308.092 65.0371L324.881 60.2512L302.113 47.9077L285.324 52.6937Z" fill="white"/>
<path d="M252.004 62.1919L274.772 74.5354L291.044 69.8967L268.406 57.5164L252.004 62.1919Z" fill="white"/>
<path d="M184.46 81.4461L207.228 93.7896L223.759 89.0772L200.991 76.7338L184.46 81.4461Z" fill="white"/>
<path d="M335.821 38.2991L358.588 50.6425L375.378 45.8566L352.61 33.5131L335.821 38.2991Z" fill="#F33332"/>
<path d="M76 112L84.5 119L92 122.616L97.7106 125.009L106.105 122.616L83.3374 110.272L76 112Z" fill="#F33332"/>
<path d="M99.9974 105.523L122.636 117.903L139.942 112.97L117.303 100.59L99.9974 105.523Z" fill="#F33332"/>
<path d="M133.834 95.8776L156.473 108.258L173.52 103.398L150.752 91.0548L133.834 95.8776Z" fill="#F33332"/>
<path d="M167.671 86.2321L190.438 98.5755L207.228 93.7896L184.46 81.4461L167.671 86.2321Z" fill="#F33332"/>
<path d="M200.991 76.7338L223.759 89.0772L240.935 84.1809L218.296 71.8006L200.991 76.7338Z" fill="#F33332"/>
<path d="M234.698 67.1251L257.337 79.5054L274.772 74.5354L252.004 62.1919L234.698 67.1251Z" fill="#F33332"/>
<path d="M268.406 57.5164L291.044 69.8967L308.092 65.0371L285.324 52.6937L268.406 57.5164Z" fill="#F33332"/>
<path d="M302.113 47.9077L324.881 60.2512L341.799 55.4285L319.031 43.085L302.113 47.9077Z" fill="#F33332"/>
<path d="M369.657 28.6536L392.296 41.0338L409.473 36.1375L386.706 23.7936L369.657 28.6536Z" fill="#F33332"/>
<path d="M83.3374 110.272L76 112L84.5 119L92 122.616L97.7106 125.009L106.105 122.616M83.3374 110.272L106.105 122.616M83.3374 110.272L99.9974 105.523M106.105 122.616L122.636 117.903M99.9974 105.523L122.636 117.903M99.9974 105.523L117.303 100.59M122.636 117.903L139.942 112.97M117.303 100.59L139.942 112.97M117.303 100.59L133.834 95.8776M139.942 112.97L156.473 108.258M133.834 95.8776L156.473 108.258M133.834 95.8776L150.752 91.0548M156.473 108.258L173.52 103.398M150.752 91.0548L173.52 103.398M150.752 91.0548L167.671 86.2321M173.52 103.398L190.438 98.5755M167.671 86.2321L190.438 98.5755M167.671 86.2321L184.46 81.4461M190.438 98.5755L207.228 93.7896M184.46 81.4461L207.228 93.7896M184.46 81.4461L200.991 76.7338M207.228 93.7896L223.759 89.0772M200.991 76.7338L223.759 89.0772M200.991 76.7338L218.296 71.8006M223.759 89.0772L240.935 84.1809M218.296 71.8006L240.935 84.1809M218.296 71.8006L234.698 67.1251M240.935 84.1809L257.337 79.5054M234.698 67.1251L257.337 79.5054M234.698 67.1251L252.004 62.1919M257.337 79.5054L274.772 74.5354M252.004 62.1919L274.772 74.5354M252.004 62.1919L268.406 57.5164M274.772 74.5354L291.044 69.8967M268.406 57.5164L291.044 69.8967M268.406 57.5164L285.324 52.6937M291.044 69.8967L308.092 65.0371M285.324 52.6937L308.092 65.0371M285.324 52.6937L302.113 47.9077M308.092 65.0371L324.881 60.2512M302.113 47.9077L324.881 60.2512M302.113 47.9077L319.031 43.085M324.881 60.2512L341.799 55.4285M319.031 43.085L341.799 55.4285M319.031 43.085L335.821 38.2991M341.799 55.4285L358.588 50.6425M335.821 38.2991L358.588 50.6425M335.821 38.2991L352.61 33.5131M358.588 50.6425L375.378 45.8566M352.61 33.5131L375.378 45.8566M352.61 33.5131L369.657 28.6536M375.378 45.8566L392.296 41.0338M369.657 28.6536L392.296 41.0338M369.657 28.6536L386.706 23.7936M392.296 41.0338L409.473 36.1375M386.372 23.6124L386.706 23.7936M409.473 36.1375L404.398 18.7504L386.706 23.7936M409.473 36.1375L386.706 23.7936" stroke="black" stroke-width="0.7"/>
</g>
<path d="M136.211 72.7019C131.841 68.3644 132.905 61.1281 138.346 58.181C139.112 57.7662 139.815 57.248 140.434 56.6417L163 34.5558L184.037 12.8614C190.003 6.70932 199.997 6.7093 205.963 12.8614L227 34.5558L252.5 59.0558C257.434 62.6904 257.786 69.8341 253.232 73.9191L228 96.5538L204 121.056C199.531 126.574 191.103 126.882 186.229 121.704L179.5 114.556L161.5 97.804L136.211 72.7019Z" fill="#F87B21"/>
<path d="M176.13 22.2986L176.13 22.2987L176.139 22.2896L179.768 18.6195L179.768 18.6196L179.776 18.6104L182.358 15.8643L186.852 11.4108L186.854 11.4092L188.854 9.40922L190.319 7.94422L191.72 7.00961L193.142 6.54436L194.344 6.22363H194.522L194.582 6.55657L195.001 6.55566L195.499 6.55458H195.501L195.865 6.55538L195.866 6.55538L196.5 6.55508L196.5 6.55508L197.419 6.55508L198.73 6.99209L199.146 7.40863L199.166 7.42768L199.186 7.44458L199.996 8.09594L203.988 11.7493L208.182 15.872L208.182 15.872L208.186 15.8759L211.814 19.3625L215.633 23.0326L215.633 23.0326L215.638 23.0366L219.739 26.8861L223.5 30.5887V93.5556H167.5V30.6809L171.834 26.4274L171.838 26.4238L176.13 22.2986Z" fill="white" stroke="black"/>
<rect x="1.07035" width="90.7288" height="90.7288" rx="9.25" transform="matrix(0.713564 -0.70059 0.713564 0.70059 129.583 66.9071)" stroke="black" stroke-width="1.5"/>
<path d="M195 7.05566V94.0557" stroke="black" stroke-width="0.8"/>
<path d="M160.823 69.2266C160.823 71.6094 160.765 73.2988 160.647 74.2949C160.54 75.2812 160.188 76.1846 159.593 77.0049C159.007 77.8252 158.211 78.4551 157.205 78.8945C156.199 79.334 155.027 79.5537 153.689 79.5537C152.42 79.5537 151.277 79.3486 150.262 78.9385C149.256 78.5186 148.445 77.8936 147.83 77.0635C147.215 76.2334 146.849 75.3301 146.731 74.3535C146.614 73.377 146.556 71.668 146.556 69.2266V65.1689C146.556 62.7861 146.609 61.1016 146.717 60.1152C146.834 59.1191 147.186 58.2109 147.771 57.3906C148.367 56.5703 149.168 55.9404 150.174 55.501C151.18 55.0615 152.352 54.8418 153.689 54.8418C154.959 54.8418 156.097 55.0518 157.103 55.4717C158.118 55.8818 158.934 56.502 159.549 57.332C160.164 58.1621 160.53 59.0654 160.647 60.042C160.765 61.0186 160.823 62.7275 160.823 65.1689V69.2266ZM154.656 61.4336C154.656 60.3301 154.593 59.627 154.466 59.3242C154.349 59.0117 154.1 58.8555 153.719 58.8555C153.396 58.8555 153.147 58.9824 152.972 59.2363C152.806 59.4805 152.723 60.2129 152.723 61.4336V72.5078C152.723 73.8848 152.776 74.7344 152.884 75.0566C153.001 75.3789 153.265 75.54 153.675 75.54C154.095 75.54 154.363 75.3545 154.48 74.9834C154.598 74.6123 154.656 73.7285 154.656 72.332V61.4336ZM177.332 79.0557H171.15V60.0713H169.319V79.0557H163.138V55.3252H177.332V79.0557ZM190.457 55.3398L193.987 79.0557H187.674L187.366 74.793H185.154L184.788 79.0557H178.401L181.536 55.3398H190.457ZM187.19 70.5889C186.878 67.9033 186.565 64.5879 186.253 60.6426C185.628 65.1738 185.237 68.4893 185.081 70.5889H187.19ZM209.441 65.6816H203.274V61.5508C203.274 60.3496 203.206 59.6025 203.069 59.3096C202.942 59.0068 202.654 58.8555 202.205 58.8555C201.697 58.8555 201.375 59.0361 201.238 59.3975C201.102 59.7588 201.033 60.54 201.033 61.7412V72.7568C201.033 73.9092 201.102 74.6611 201.238 75.0127C201.375 75.3643 201.683 75.54 202.161 75.54C202.62 75.54 202.918 75.3643 203.055 75.0127C203.201 74.6611 203.274 73.8359 203.274 72.5371V69.5635H209.441V70.4863C209.441 72.9375 209.266 74.6758 208.914 75.7012C208.572 76.7266 207.806 77.625 206.614 78.3965C205.433 79.168 203.973 79.5537 202.234 79.5537C200.428 79.5537 198.938 79.2266 197.767 78.5723C196.595 77.918 195.818 77.0146 195.438 75.8623C195.057 74.7002 194.866 72.957 194.866 70.6328V63.7041C194.866 61.9951 194.925 60.7158 195.042 59.8662C195.159 59.0068 195.506 58.1816 196.082 57.3906C196.668 56.5996 197.474 55.9795 198.499 55.5303C199.534 55.0713 200.721 54.8418 202.059 54.8418C203.875 54.8418 205.374 55.1934 206.556 55.8965C207.737 56.5996 208.514 57.4785 208.885 58.5332C209.256 59.5781 209.441 61.209 209.441 63.4258V65.6816ZM225.833 55.3398V79.0557H219.666V69.0947H217.82V79.0557H211.653V55.3398H217.82V63.8213H219.666V55.3398H225.833ZM242.415 69.2266C242.415 71.6094 242.356 73.2988 242.239 74.2949C242.132 75.2812 241.78 76.1846 241.185 77.0049C240.599 77.8252 239.803 78.4551 238.797 78.8945C237.791 79.334 236.619 79.5537 235.281 79.5537C234.012 79.5537 232.869 79.3486 231.854 78.9385C230.848 78.5186 230.037 77.8936 229.422 77.0635C228.807 76.2334 228.44 75.3301 228.323 74.3535C228.206 73.377 228.147 71.668 228.147 69.2266V65.1689C228.147 62.7861 228.201 61.1016 228.309 60.1152C228.426 59.1191 228.777 58.2109 229.363 57.3906C229.959 56.5703 230.76 55.9404 231.766 55.501C232.771 55.0615 233.943 54.8418 235.281 54.8418C236.551 54.8418 237.688 55.0518 238.694 55.4717C239.71 55.8818 240.525 56.502 241.141 57.332C241.756 58.1621 242.122 59.0654 242.239 60.042C242.356 61.0186 242.415 62.7275 242.415 65.1689V69.2266ZM236.248 61.4336C236.248 60.3301 236.185 59.627 236.058 59.3242C235.94 59.0117 235.691 58.8555 235.311 58.8555C234.988 58.8555 234.739 58.9824 234.563 59.2363C234.397 59.4805 234.314 60.2129 234.314 61.4336V72.5078C234.314 73.8848 234.368 74.7344 234.476 75.0566C234.593 75.3789 234.856 75.54 235.267 75.54C235.687 75.54 235.955 75.3545 236.072 74.9834C236.189 74.6123 236.248 73.7285 236.248 72.332V61.4336Z" fill="black"/>
<path d="M103.939 70.0496C102.769 69.7557 98.6641 70.2919 97.8277 70.4083C92.1975 71.5634 86.9915 75.2025 83.1204 78.7974C82.7483 85.9333 82.7744 102.071 85.8556 109.535C87.6087 103.791 90.6739 98.6962 92.3268 96.4628C96.6924 90.8668 101.695 87.172 105.253 85.1285C106.296 79.1068 106.681 73.9515 106.744 72.1265L103.939 70.0496Z" fill="#F33332"/>
<path d="M72.1076 108.431C73.1327 109.647 74.7594 111.886 76.2113 113.192L78.7444 115.354C77.7922 114.458 73.1401 108.078 70.9331 105.001C71.1108 106.294 71.4696 107.515 72.1076 108.431Z" fill="#F33332"/>
<path fill-rule="evenodd" clip-rule="evenodd" d="M124.512 95.7324C125.402 91.1482 124.324 87.3669 123.673 86.0494C123.315 85.2152 122.252 84.102 121.305 83.2332C119.592 82.1495 114.67 80.6773 108.684 83.4581C107.856 83.7643 106.669 84.3158 105.253 85.1285C101.695 87.172 96.6924 90.8668 92.3268 96.4628C90.6739 98.6962 87.6087 103.791 85.8556 109.535C85.3317 111.251 84.925 113.026 84.7082 114.799C84.5391 116.325 84.7986 120.153 87.1892 123.262C88.1242 124.045 89.506 125.045 90.6253 125.367C91.5518 125.557 93.764 125.82 95.3912 125.399L95.5353 125.359C99.3034 125.157 105.543 121.56 108.192 119.787C112.913 116.626 116.851 112.49 119.653 108.034C122.597 103.352 123.925 98.2415 124.512 95.7324ZM92.4096 108.112C93.6819 103.258 98.3133 97.5536 100.47 95.3083C104.389 91.1717 109.018 88.8117 111.219 88.2109C117.754 86.4277 119.739 90.5917 120.173 93.2049C120.464 99.1312 117.196 105.587 115.189 108.088C111.072 113.22 107.21 116.143 105.716 116.878C100.696 119.667 96.801 120.323 94.0484 117.996C91.0798 115.486 91.8382 110.385 92.4096 108.112Z" fill="#F33332"/>
<path d="M77.5294 85.0354C76.0297 86.9232 72.6596 92.2778 71.1768 98.5946C70.8901 100.016 70.6072 102.629 70.9331 105.001C73.1401 108.078 77.7922 114.458 78.7444 115.354L86.4718 122.624C86.6544 122.799 86.9005 123.02 87.1892 123.262C84.7986 120.153 84.5391 116.325 84.7082 114.799C84.925 113.026 85.3317 111.251 85.8556 109.535C82.7744 102.071 82.7483 85.9333 83.1204 78.7974C80.6155 81.1236 78.6696 83.4313 77.5294 85.0354Z" fill="white"/>
<path d="M120.121 82.2169L111.553 75.6868L106.744 72.1265C106.681 73.9515 106.296 79.1068 105.253 85.1285C106.669 84.3158 107.856 83.7643 108.684 83.4581C114.67 80.6773 119.592 82.1495 121.305 83.2332C120.855 82.8207 120.431 82.4632 120.121 82.2169Z" fill="white"/>
<path d="M100.47 95.3083C98.3133 97.5536 93.6819 103.258 92.4096 108.112C91.8382 110.385 91.0798 115.486 94.0484 117.996C96.801 120.323 100.696 119.667 105.716 116.878C107.21 116.143 111.072 113.22 115.189 108.088C117.196 105.587 120.464 99.1312 120.173 93.2049C119.739 90.5917 117.754 86.4277 111.219 88.2109C109.018 88.8117 104.389 91.1717 100.47 95.3083Z" fill="url(#paint0_linear_667_520)"/>
<path d="M95.5353 125.359C99.3034 125.157 105.543 121.56 108.192 119.787C112.913 116.626 116.851 112.49 119.653 108.034C122.597 103.352 123.925 98.2415 124.512 95.7324C125.402 91.1482 124.324 87.3669 123.673 86.0494C123.315 85.2152 122.252 84.102 121.305 83.2332M95.5353 125.359C95.4878 125.373 95.4398 125.386 95.3912 125.399M95.5353 125.359L95.3912 125.399M121.305 83.2332C120.855 82.8207 120.431 82.4632 120.121 82.2169L111.553 75.6868L106.744 72.1265M121.305 83.2332C119.592 82.1495 114.67 80.6773 108.684 83.4581C107.856 83.7643 106.669 84.3158 105.253 85.1285M87.1892 123.262C86.9005 123.02 86.6544 122.799 86.4718 122.624L78.7444 115.354M87.1892 123.262C88.1242 124.045 89.506 125.045 90.6253 125.367C91.5518 125.557 93.764 125.82 95.3912 125.399M87.1892 123.262C84.7986 120.153 84.5391 116.325 84.7082 114.799C84.925 113.026 85.3317 111.251 85.8556 109.535M106.744 72.1265L103.939 70.0496C102.769 69.7557 98.6641 70.2919 97.8277 70.4083C92.1975 71.5634 86.9915 75.2025 83.1204 78.7974M106.744 72.1265C106.681 73.9515 106.296 79.1068 105.253 85.1285M105.253 85.1285C101.695 87.172 96.6924 90.8668 92.3268 96.4628C90.6739 98.6962 87.6087 103.791 85.8556 109.535M83.1204 78.7974C80.6155 81.1236 78.6696 83.4313 77.5294 85.0354C76.0297 86.9232 72.6596 92.2778 71.1768 98.5946C70.8901 100.016 70.6072 102.629 70.9331 105.001M83.1204 78.7974C82.7483 85.9333 82.7744 102.071 85.8556 109.535M70.9331 105.001C71.1108 106.294 71.4696 107.515 72.1076 108.431C73.1327 109.647 74.7594 111.886 76.2113 113.192L78.7444 115.354M70.9331 105.001C73.1401 108.078 77.7922 114.458 78.7444 115.354M100.47 95.3083C98.3133 97.5536 93.6819 103.258 92.4096 108.112C91.8382 110.385 91.0798 115.486 94.0484 117.996C96.801 120.323 100.696 119.667 105.716 116.878C107.21 116.143 111.072 113.22 115.189 108.088C117.196 105.587 120.464 99.1312 120.173 93.2049C119.739 90.5917 117.754 86.4277 111.219 88.2109C109.018 88.8117 104.389 91.1717 100.47 95.3083Z" stroke="black" stroke-width="0.7"/>
<defs>
<linearGradient id="paint0_linear_667_520" x1="72.9367" y1="91.5765" x2="122.433" y2="104.04" gradientUnits="userSpaceOnUse">
<stop offset="0.715" stop-color="white"/>
<stop offset="1" stop-color="#999999"/>
</linearGradient>
</defs>
</svg>
