<svg width="286" height="135" viewBox="0 0 286 135" fill="none" xmlns="http://www.w3.org/2000/svg">
<path fill-rule="evenodd" clip-rule="evenodd" d="M169.319 4.55861C182.571 9.47739 199.924 19.9837 206.943 24.6221C216.18 30.3177 226.516 32.3885 230.529 32.7119C240.637 33.4886 246.72 34.9772 248.499 35.6244L260.291 42.4201C273.769 49.6688 279.01 52.9911 279.946 53.7462C283.54 55.8173 284.813 58.7081 285 59.8947L284.438 64.7487C283.315 74.3274 276.483 80.8211 273.207 82.8706C263.998 87.7893 250.09 86.4302 244.287 85.1358C245.185 86.6891 247.656 90.7449 248.779 92.5787C254.17 99.5685 258.513 101.963 260.011 102.287C262.481 103.322 266.843 102.287 268.715 101.64C271.186 100.604 275.547 99.9137 277.419 99.698C279.665 100.216 279.478 101.64 279.104 102.287C278.43 104.099 273.02 107.572 270.399 109.082C268.378 110.118 265.181 113.659 262.448 115.224C257.664 115.224 254.582 113.289 252.991 111.995C250.296 110.183 245.316 109.298 243.164 109.082C227.889 108.565 219.391 109.945 217.051 110.7V112.642C217.276 117.043 220.14 119.654 221.544 120.409C224.913 120.409 227.253 120.624 228.002 120.732C232.494 122.286 233.056 123.971 232.775 125.911C232.775 125.911 232.415 126.397 232.213 126.558C232.012 126.719 231.652 126.882 231.652 126.882H211.997C207.954 126.105 206.85 122.242 206.662 120.732L205.259 113.289C190.658 111.736 175.964 108.975 170.442 107.788H140.118L123.271 106.739V111.024C123.85 113.613 125.009 115.339 125.517 115.878L132.256 116.525C135.176 117.302 137.216 118.359 137.871 118.791C140.118 121.638 138.058 123.645 136.748 124.292H122.547C122.636 124.539 122.687 124.763 122.709 124.939C122.035 126.233 118.685 126.989 117.094 127.204H104.458L97.1582 126.558L92.1042 124.939C87.3309 119.647 81.9961 109.406 80.5922 105.846L75.2574 103.258C57.5121 114.648 43.3421 122.89 38.4752 125.586C30.3887 131.541 21.4412 133.676 17.9783 134H-14.3114H-24.981C-29.4735 132.964 -27.976 131.411 -26.6657 130.764L-22.454 130.117C-2.46249 127.787 8.71252 123.968 11.8011 122.35C23.4815 117.431 37.4457 107.141 42.9677 102.61C52.3305 95.7952 57.3691 88.7308 58.8423 86.6651C59.048 86.3768 59.1841 86.1859 59.2529 86.1066C59.7022 85.5888 71.2329 60.434 76.9421 47.9213C82.3331 34.9772 93.2273 20.9543 98.0006 15.5609C109.365 4.55861 127.295 2.40117 133.66 1.32257C151.405 0.028152 164.826 2.94059 169.319 4.55861ZM101.651 113.937C103.897 117.043 107.453 118.467 108.951 118.791C110.642 118.96 112.259 119.273 113.724 119.647L110.916 105.969L108.951 105.846C102.437 106.364 99.3109 108.435 98.5621 109.406C99.236 110.442 100.902 112.858 101.651 113.937Z" fill="black"/>
<path d="M110.916 105.969L108.951 105.846C102.437 106.364 99.3109 108.435 98.5621 109.406C99.236 110.442 100.902 112.858 101.651 113.937C103.897 117.043 107.453 118.467 108.951 118.791C110.642 118.96 112.259 119.273 113.724 119.647M110.916 105.969L113.724 119.647M110.916 105.969L123.271 106.739M113.724 119.647C116.737 120.417 119.112 120.8 120.182 121.381C121.56 121.778 122.256 123.48 122.547 124.292M122.547 124.292C122.636 124.539 122.687 124.763 122.709 124.939C122.035 126.233 118.685 126.989 117.094 127.204H104.458L97.1582 126.558L92.1042 124.939C87.3309 119.647 81.9961 109.406 80.5922 105.846L75.2574 103.258C57.5121 114.648 43.3421 122.89 38.4752 125.586C30.3887 131.541 21.4412 133.676 17.9783 134H-14.3114H-24.981C-29.4735 132.964 -27.976 131.411 -26.6657 130.764L-22.454 130.117C-2.4625 127.787 8.71252 123.968 11.8011 122.35C23.4815 117.431 37.4457 107.141 42.9677 102.61C52.3305 95.7952 57.3691 88.7307 58.8423 86.6651C59.048 86.3768 59.1841 86.1859 59.2529 86.1066C59.7022 85.5888 71.2329 60.434 76.9421 47.9213C82.333 34.9772 93.2273 20.9543 98.0006 15.5609C109.365 4.55861 127.295 2.40117 133.66 1.32257C151.405 0.028152 164.826 2.94059 169.319 4.55861C182.571 9.47739 199.924 19.9837 206.943 24.6221C216.18 30.3177 226.516 32.3885 230.529 32.7119C240.637 33.4886 246.72 34.9772 248.499 35.6244L260.291 42.4201C273.769 49.6688 279.01 52.9911 279.946 53.7462C283.54 55.8173 284.813 58.7081 285 59.8947L284.438 64.7487C283.315 74.3274 276.483 80.8211 273.207 82.8706C263.998 87.7893 250.09 86.4302 244.287 85.1358C245.185 86.6891 247.656 90.7449 248.779 92.5787C254.17 99.5685 258.513 101.963 260.011 102.287C262.481 103.322 266.843 102.287 268.715 101.64C271.186 100.604 275.547 99.9137 277.419 99.698C279.665 100.216 279.478 101.64 279.104 102.287C278.43 104.099 273.02 107.572 270.399 109.082C268.378 110.118 265.181 113.659 262.448 115.224C257.664 115.224 254.582 113.289 252.991 111.995C250.296 110.183 245.316 109.298 243.164 109.082C227.889 108.565 219.391 109.945 217.051 110.7V112.642C217.276 117.043 220.14 119.654 221.544 120.409C224.913 120.409 227.253 120.624 228.002 120.732C232.494 122.286 233.056 123.971 232.775 125.911C232.775 125.911 232.415 126.397 232.213 126.558C232.012 126.719 231.652 126.882 231.652 126.882H211.997C207.954 126.105 206.85 122.242 206.662 120.732L205.259 113.289C190.658 111.736 175.964 108.975 170.442 107.788H140.118L123.271 106.739M122.547 124.292H136.748C138.058 123.645 140.118 121.638 137.871 118.791C137.216 118.359 135.176 117.302 132.256 116.525L125.517 115.878C125.009 115.339 123.85 113.613 123.271 111.024V106.739" stroke="black"/>
</svg>
