<svg width="257" height="186" viewBox="0 0 257 186" fill="none" xmlns="http://www.w3.org/2000/svg">
<path d="M53.9101 103.531C49.246 96.8305 44.1933 84.547 42.2499 79.2427C39.9856 73.5479 35.1988 71.8446 33.0885 71.7048C28.4244 71.7048 21.4283 70.3089 18.5133 69.611C7.85252 67.2659 2.68867 61.9337 1.43934 59.5608C-0.226402 57.5507 3.24389 57.0482 5.18726 57.0482C9.51818 59.728 18.652 61.5149 22.6775 62.0733C27.3416 62.0733 25.4538 60.3983 23.9268 59.5608C16.2644 56.2107 9.62923 48.3939 7.26943 44.9043C3.6048 39.8792 7.40825 38.6229 9.76805 38.6229L20.1789 44.9043C24.1767 45.9093 25.1762 44.7647 25.1762 44.0668C21.4282 40.4375 13.7658 32.9278 13.0995 31.9228C12.4332 30.9178 8.37988 23.1289 6.43649 19.3601C3.7713 12.995 7.79146 6.43286 10.5677 5.037C13.8992 3.36197 20.873 1.96264 22.6775 1.54399C34.3377 -0.131036 47.4592 2.46893 52.3177 3.86479C67.9756 10.5649 83.6158 24.9438 90.5564 30.2481C99.8846 37.2832 111.933 48.813 116.792 53.6985C123.455 60.3986 138.824 71.7051 144.515 79.2427C154.083 89.7771 164.238 107.249 168 115.112C171.761 122.974 177.314 137.416 181.339 144.814C183.671 150.174 190.031 157.467 193.224 160.538L220.187 166.653L247.151 173.044C258.811 175.724 256.714 178.628 253.383 179.326H222.983C200.995 178.991 179.674 176.115 171.761 174.719C169.096 174.719 160.379 175.836 156.353 176.394C155.385 176.719 150.992 176.664 145.804 176.457L141.036 181.419C139.568 182.751 135.246 185.285 129.701 184.77L118.422 183.252L115.727 182.378C113.882 183.398 111.4 184.344 110.129 184.77C105.798 185.44 93.055 184.49 87.2249 183.932C84.8929 182.592 85.9756 180.024 86.8085 178.907C87.808 177.902 90.0012 176.813 90.9729 176.394C95.6369 175.389 99.8568 174.859 101.384 174.719C103.049 174.719 107.908 173.603 110.129 173.044L98.0523 165.088L88.0578 147.919C86.7252 141.554 81.3948 134.1 78.8962 131.169C75.2316 126.814 60.7119 110.929 53.9101 103.531Z" fill="black"/>
<path d="M145.804 176.457C140.279 176.237 133.853 175.845 129.701 175.557L117.208 181.419C116.813 181.737 116.301 182.061 115.727 182.378M145.804 176.457C150.992 176.664 155.385 176.719 156.353 176.394C160.379 175.836 169.096 174.719 171.761 174.719C179.674 176.115 200.995 178.991 222.983 179.326H253.383C256.714 178.628 258.811 175.724 247.151 173.044L220.187 166.653L193.224 160.538C190.031 157.467 183.671 150.174 181.339 144.814C177.314 137.416 171.761 122.974 168 115.112C164.238 107.249 154.083 89.7771 144.515 79.2427C138.824 71.7051 123.455 60.3986 116.792 53.6985C111.933 48.813 99.8846 37.2832 90.5564 30.2481C83.6158 24.9438 67.9756 10.5649 52.3177 3.86479C47.4592 2.46893 34.3377 -0.131036 22.6775 1.54399C20.873 1.96264 13.8992 3.36197 10.5677 5.037C7.79146 6.43286 3.7713 12.995 6.43649 19.3601C8.37988 23.1289 12.4332 30.9178 13.0995 31.9228C13.7658 32.9278 21.4282 40.4375 25.1762 44.0668C25.1762 44.7647 24.1767 45.9093 20.1789 44.9043L9.76805 38.6229C7.40825 38.6229 3.6048 39.8792 7.26943 44.9043C9.62923 48.3939 16.2644 56.2107 23.9268 59.5608C25.4538 60.3983 27.3416 62.0733 22.6775 62.0733C18.652 61.5149 9.51818 59.728 5.18726 57.0482C3.24389 57.0482 -0.226402 57.5507 1.43934 59.5608C2.68867 61.9337 7.85252 67.2659 18.5133 69.611C21.4283 70.3089 28.4244 71.7047 33.0885 71.7047C35.1988 71.8445 39.9856 73.5479 42.2499 79.2427C44.1933 84.547 49.246 96.8305 53.9101 103.531C60.7119 110.929 75.2316 126.814 78.8962 131.169C81.3948 134.1 86.7252 141.554 88.0578 147.919L98.0523 165.088L110.129 173.044C107.908 173.603 103.049 174.719 101.384 174.719C99.8568 174.859 95.6369 175.389 90.9729 176.394C90.0012 176.813 87.808 177.902 86.8085 178.907C85.9756 180.024 84.8929 182.592 87.2249 183.932C93.055 184.49 105.798 185.44 110.129 184.77C111.4 184.344 113.882 183.398 115.727 182.378M145.804 176.457L141.036 181.419C139.568 182.751 135.246 185.285 129.701 184.77L118.422 183.252L115.727 182.378" stroke="black"/>
</svg>
