<svg width="315" height="135" viewBox="0 0 315 135" fill="none" xmlns="http://www.w3.org/2000/svg">
<path d="M105.574 96.7106C107.046 93.6339 110.601 84.9368 113.047 74.7613C115.085 67.1446 117.541 60.7758 122.345 50.7852C126.346 42.4645 133.642 29.5278 144.083 21.0691C147.14 18.5928 156.058 13.0144 162.425 11.2763C168.792 9.53826 172.108 8.22121 190.014 7.56268C195.751 7.71277 216.376 9.40553 227.154 14.8085C230.47 15.467 240.418 8.88174 249.04 5.58711C251.03 4.82681 254.445 3.29668 258.325 2.29484C262.304 0.979435 270.263 -0.429451 279.592 4.07299C282.347 5.08604 288.989 8.23775 297.821 14.316C301.67 17.918 304.974 19.3813 307.918 27.148C308.371 30.2997 308.35 34.6896 307.105 38.6292L306.312 40.8804C305.293 42.9065 304.863 44.0771 301.783 48.3094C300.991 49.285 297.549 52.0915 294.65 53.7124C294.575 55.4758 296.394 60.6011 299.745 62.9424C300.198 63.0549 301.818 62.6047 303.148 62.6047C304.351 62.6047 305.833 62.6047 308.066 62.8808C310.132 63.5393 312.045 64.8563 313.371 67.4904C313.918 68.5753 314.237 71.1593 313.784 73.4105C313.747 74.1609 313.558 76.7648 312.652 78.4758C312.464 78.2882 311.973 77.125 311.973 76.6748C311.746 76.975 311.294 77.5753 310.841 77.913C310.451 78.2039 309.633 78.4758 309.482 78.4758L310.048 77.125C310.275 76.5622 310.259 76.1162 310.275 75.7743L309.256 75.7213C309.185 75.9981 309.182 76.7277 308.916 77.125C308.735 77.3952 308.182 77.8004 307.918 77.913C307.918 77.4871 308.174 76.1213 308.123 75.7213C307.437 75.9265 304.688 74.6037 303.148 74.8738C301.83 74.8208 300.107 74.7342 297.723 73.0729C296.742 72.36 295.257 72.4885 292.812 72.7586C291.642 72.7586 288.65 73.433 287.291 74.8738L286.612 75.5492L272.007 90.2946C270.308 90.6698 266.074 91.848 262.723 93.5589C261.138 94.4969 257.243 97.3184 254.344 101.1C253.665 102.001 250.721 104.86 244.381 109.092L230.883 118.097C232.694 117.985 238.267 116.634 242.864 116.815C242.864 116.815 246.095 117.078 248.105 117.562C249.903 117.995 252.598 119.056 252.598 119.056L254.845 120.551C251.65 123.92 245.291 120.01 245.11 120.551L246.608 118.309L244.381 117.961C248.471 117.929 251.297 118.907 252.598 119.056C253.466 119.394 255.593 120.551 256.342 121.298C257.091 122.045 257.091 124.287 257.091 124.287C254.845 125.034 257.091 123.539 257.091 124.287C254.917 122.215 257.091 122.792 257.091 124.287C256.919 124.916 256.744 125.266 256.342 125.781C256.089 126.105 256.342 125.781 255.593 126.528C254.845 127.275 254.224 127.439 253.347 128.022C254.224 127.147 255.593 125.781 255.593 125.781L251.849 127.275L249.603 128.022H248.105H238.267L237.622 124.288L241.098 125.526H238.267L235.324 125.751C236.229 125.826 240.328 125.628 242.864 126.528C243.43 126.791 243.068 128.025 243.702 128.565C243.702 128.565 249.58 128.234 253.347 128.022C243.434 129.026 227.964 130.591 227.964 130.591C223.36 130.967 213.11 132.01 208.944 133.18C205.924 133.518 197.78 134.148 189.357 133.968C184.677 133.518 171.581 132.212 156.636 130.591C148.598 130.141 129.826 129.443 119.048 130.254C115.311 130.441 106.956 129.804 103.423 125.751C100.404 127.365 89.2709 130.591 68.8915 130.591C58.664 131.492 34.5634 132.055 19.9808 127.102C15.2256 125.601 5.05851 122.149 2.43183 120.348C0.6958 119.148 -0.874171 116.341 6.73415 114.72C17.1126 113.557 38.4129 111.141 40.5867 110.781L100.593 103.464L105.574 96.7106Z" fill="black"/>
<path d="M278.221 89.8796C274.947 89.4524 270.193 90.8407 268.936 91.1966L285.448 77.3676C287.71 78.1739 290.439 78.649 291.372 79.183C293.612 80.6353 295.034 82.6357 295.465 83.4544L294.065 82.9205C292.858 82.4934 289.326 82.173 287.71 82.0662L289.757 82.6002C292.686 83.2836 294.639 84.8071 295.249 85.4835C293.871 85.3126 292.88 85.4123 292.557 85.4835L291.48 86.4445C290.877 86.7863 288.428 87.2988 287.279 87.5124C288.313 87.6833 291.731 87.8684 293.311 87.9396L292.234 88.6871C290.683 89.4559 288.715 89.5948 287.71 89.8796C286.59 90.2213 284.853 90.5738 284.19 90.5381C280.211 90.5381 279.478 89.9507 278.221 89.8796Z" fill="black"/>
<path d="M311.973 76.6748C311.973 77.125 312.464 78.2882 312.652 78.4758C313.558 76.7648 313.747 74.1609 313.784 73.4105C314.237 71.1593 313.918 68.5753 313.371 67.4905C312.045 64.8564 310.132 63.5393 308.066 62.8808C305.833 62.6047 304.351 62.6047 303.148 62.6047C301.818 62.6047 300.198 63.0549 299.745 62.9424C296.394 60.6011 294.575 55.4758 294.65 53.7124C297.549 52.0915 300.991 49.285 301.783 48.3094C304.863 44.0771 305.293 42.9065 306.312 40.8804L307.105 38.6292C308.35 34.6896 308.371 30.2997 307.918 27.148C304.974 19.3813 301.67 17.918 297.821 14.316C288.989 8.23775 282.347 5.08604 279.592 4.07299C270.263 -0.429451 262.304 0.979435 258.325 2.29484C254.445 3.29668 251.03 4.82681 249.04 5.58711C240.418 8.88174 230.47 15.467 227.154 14.8085C216.376 9.40553 195.751 7.71277 190.014 7.56268C172.108 8.22121 168.792 9.53826 162.425 11.2763C156.058 13.0144 147.14 18.5928 144.083 21.0691C133.642 29.5278 126.346 42.4645 122.345 50.7852C117.541 60.7758 115.085 67.1446 113.047 74.7613C110.601 84.9368 107.046 93.6339 105.574 96.7106L100.593 103.464M311.973 76.6748C312.237 76.112 312.743 74.4236 312.652 72.1724C312.275 71.5345 311.226 70.6866 310.048 72.3975C310.078 72.7795 310.112 73.3526 310.132 73.9733M311.973 76.6748C311.746 76.975 311.294 77.5753 310.841 77.913C310.451 78.2039 309.633 78.4758 309.482 78.4758L310.048 77.125C310.275 76.5622 310.259 76.1163 310.275 75.7743M310.132 73.9733C309.915 73.8233 309.437 73.433 309.256 73.0729M310.132 73.9733C310.151 74.5716 310.299 75.2157 310.275 75.7743M309.256 73.0729C309.142 72.6226 308.69 71.5195 307.784 70.7091C307.406 70.6716 306.652 70.7991 306.652 71.6096C307.029 72.2474 307.784 73.7932 307.784 74.8738C307.82 75.0519 308.078 75.36 308.123 75.7213M309.256 73.0729C309.504 74.1858 309.412 75.1147 309.256 75.7213M309.256 75.7213C309.184 75.9981 309.182 76.7277 308.916 77.125C308.735 77.3952 308.182 77.8004 307.918 77.913C307.918 77.4871 308.174 76.1213 308.123 75.7213M309.256 75.7213L310.275 75.7743M308.123 75.7213C307.437 75.9265 304.688 74.6037 303.148 74.8738C301.83 74.8208 300.107 74.7342 297.723 73.0729C296.742 72.36 295.257 72.4885 292.812 72.7586C291.642 72.7586 288.65 73.433 287.291 74.8738L286.612 75.5492L272.007 90.2946C270.308 90.6698 266.074 91.848 262.723 93.5589C261.138 94.4969 257.243 97.3184 254.344 101.1C253.665 102.001 250.721 104.86 244.381 109.092L230.883 118.097C232.694 117.985 238.267 116.634 242.864 116.815C242.864 116.815 246.095 117.078 248.105 117.562C249.903 117.995 252.598 119.056 252.598 119.056M244.381 117.961L235.324 118.097C237.621 118.047 241.066 117.987 244.381 117.961ZM244.381 117.961C248.471 117.929 251.297 118.907 252.598 119.056M244.381 117.961L246.608 118.309L245.11 120.551C245.291 120.01 251.65 123.92 254.845 120.551L252.598 119.056M252.598 119.056C253.466 119.394 255.593 120.551 256.342 121.298C257.091 122.045 257.091 124.287 257.091 124.287M257.091 124.287C254.845 125.034 257.091 123.539 257.091 124.287ZM257.091 124.287C257.091 122.792 254.917 122.215 257.091 124.287ZM257.091 124.287C256.919 124.916 256.744 125.266 256.342 125.781C256.089 126.105 256.342 125.781 255.593 126.528C254.845 127.275 254.224 127.439 253.347 128.022M253.347 128.022C249.58 128.234 243.702 128.565 243.702 128.565C243.068 128.025 243.43 126.791 242.864 126.528C240.328 125.628 236.229 125.826 235.324 125.751L238.267 125.526H241.098L237.622 124.288L238.267 128.022H248.105H249.603L251.849 127.275L255.593 125.781C255.593 125.781 254.224 127.147 253.347 128.022ZM253.347 128.022C243.434 129.026 227.964 130.591 227.964 130.591C223.36 130.967 213.11 132.01 208.944 133.18C205.924 133.518 197.78 134.148 189.357 133.968C184.677 133.518 171.581 132.212 156.636 130.591C148.598 130.141 129.826 129.443 119.048 130.254C115.311 130.441 106.956 129.804 103.423 125.751M103.423 125.751C100.404 127.365 89.2709 130.591 68.8915 130.591C58.664 131.492 34.5634 132.055 19.9808 127.102C15.2256 125.601 5.05851 122.149 2.43183 120.348C0.6958 119.148 -0.874171 116.341 6.73415 114.72C17.1126 113.557 38.4129 111.141 40.5867 110.781L100.593 103.464M103.423 125.751C97.1736 120.979 98.9323 108.905 100.593 103.464M268.936 91.1966C270.193 90.8407 274.947 89.4524 278.221 89.8796C279.478 89.9507 280.211 90.5381 284.19 90.5381C284.853 90.5738 286.59 90.2213 287.71 89.8796C288.715 89.5948 290.683 89.4559 292.234 88.6871L293.311 87.9396C291.731 87.8684 288.313 87.6833 287.279 87.5124C288.428 87.2988 290.877 86.7863 291.48 86.4445L292.557 85.4835C292.88 85.4123 293.871 85.3126 295.249 85.4835C294.639 84.8071 292.686 83.2836 289.757 82.6002L287.71 82.0662C289.326 82.173 292.858 82.4934 294.065 82.9205L295.465 83.4544C295.034 82.6357 293.612 80.6353 291.372 79.183C290.439 78.649 287.71 78.1739 285.448 77.3676L268.936 91.1966Z" stroke="black"/>
</svg>
