<svg width="204" height="218" viewBox="0 0 204 218" fill="none" xmlns="http://www.w3.org/2000/svg">
<path d="M74.9645 139.455L63.936 101.066C62.91 96.8009 59.4731 87.1441 53.9332 82.6398C48.3933 78.1355 32.1328 66.6019 24.695 61.3981C19.1551 59.146 8.70789 49.3697 4.17677 44.763C0.483501 41.0777 0.757077 34.6967 1.35552 31.9668C4.63843 28.2815 9.3918 31.7962 11.3581 34.0142C11.5633 35.8569 18.625 41.9479 22.1302 44.763C25.2079 47.8341 33.1587 49.1137 36.7494 49.3697L31.6198 40.9242C29.3628 37.4436 24.8659 29.7488 22.8996 26.3365C17.9753 17.9422 22.0447 9.87204 24.695 6.88626C29.8245 3.81517 38.9722 1.68246 42.9048 1L66.2443 2.27962C84.9158 3.91754 95.0552 12.6872 97.7909 16.8673C100.869 22.6 112.239 34.4408 117.54 39.6446C128.209 48.6531 137.032 60.8009 140.11 65.7488C141.136 70.6626 153.019 89.2938 158.832 97.9953C167.86 107.209 169.434 121.967 169.092 128.194C167.655 144.164 164.731 155.152 163.449 158.649L172.426 155.066C181.454 152.2 191.405 150.63 195.252 150.204C197.219 149.863 201.408 149.692 202.434 151.739C203.459 153.787 202.861 158.735 202.434 160.953C201.202 167.709 192.174 174.517 187.814 177.076C178.376 182.399 164.389 182.365 158.576 181.682C154.678 184.754 147.035 187.057 143.7 187.825L135.75 201.645C133.287 204.101 128.91 207.957 127.029 209.578C123.336 213.468 114.547 216.147 110.615 217C103.639 216.795 98.9878 216.403 97.5344 216.232C92.6101 216.027 92.0629 212.735 92.4049 211.114C95.4826 207.224 105.827 204.374 110.615 203.436C121.079 199.341 124.379 191.322 124.721 187.825C122.464 187.21 119.164 185.692 117.796 185.009C114.513 178.867 109.589 175.626 107.537 174.773C99.9453 177.229 97.7054 180.403 97.5344 181.682C97.1241 184.344 99.0733 190.81 100.099 193.711C100.304 197.601 98.1329 201.815 97.0215 203.436C95.1749 204.255 83.4282 205.483 77.7857 205.995C73.0665 206.2 65.5603 205.227 62.3971 204.716C61.166 204.101 60.8582 202.924 60.8582 202.412L63.1665 198.573C66.0391 195.912 71.8867 195.076 74.4515 194.991C78.9655 192.534 81.4619 189.19 82.1458 187.825L81.3764 181.938C73.9899 165.764 74.024 146.877 74.9645 139.455Z" fill="black" stroke="black"/>
</svg>
