<svg width="303" height="161" viewBox="0 0 303 161" fill="none" xmlns="http://www.w3.org/2000/svg">
<path fill-rule="evenodd" clip-rule="evenodd" d="M76.2044 119.052C67.4559 118.136 46.9314 116.303 34.8207 116.303C27.5257 116.327 10.9777 116.642 3.14529 117.713C1.08845 118.159 -1.31395 119.94 5.53123 123.492C14.17 125.771 33.7182 131.048 42.8012 133.923C51.5771 135.849 72.9134 139.124 88.0518 136.813L109.361 133.923C112.295 133.735 118.361 135.135 119.151 142.239C118.959 145.482 122.278 151.867 137.087 151.472C147.453 151.196 154.94 147.596 144.327 141.182C154.693 141.182 166.623 136.813 191.799 141.182C196.9 142.733 196.571 143.085 208.665 148.582C210.064 149.146 213.733 151.232 217.222 155.067C219.032 156.523 225.597 159.549 237.379 160C242.699 159.624 253.932 158.492 256.302 156.969C256.623 155.945 256.559 154.611 255.69 153.305C260.721 153.164 271.506 152.6 274.402 151.472C275.938 149.005 274.846 143.705 258.194 142.239C257.234 139.397 257.536 128.214 266.421 106.225L268.149 100.798C275.06 99.3651 290.577 94.427 297.356 86.1387C300.62 84.1183 307.015 78.2733 306.489 71.0563C309.478 67.133 312.248 58.2433 299.413 54.071L282.629 43.7804L274.237 41.9487C267.134 39.5994 250.444 35.0841 240.505 35.817C235.925 34.2665 218.209 30.5587 208.665 26.1608C199.121 21.7629 189.797 13.1929 182.913 9.59844C176.03 6.00402 159.465 0.999953 143.34 1C132.973 1 117.523 1.20186 104.013 11.7134C86.0772 25.6683 85.3532 30.4043 77.1916 51.6042C74.9154 59.3099 72.5185 78.4706 79.8244 88.394C80.1809 97.2978 79.9561 115.895 76.2044 119.052ZM236.145 148.582L214.013 129.271C215.082 127.65 218.538 124.127 223.803 122.999C228.411 123.265 238.892 126.4 243.96 136.813C242.918 139.554 241.459 145.764 243.96 148.677C241.739 148.491 239.151 148.445 236.145 148.582Z" fill="black"/>
<path d="M243.961 148.677C241.739 148.491 239.151 148.445 236.144 148.582L214.013 129.271C215.082 127.65 218.538 124.127 223.803 122.999C228.411 123.265 238.892 126.4 243.961 136.813C242.918 139.554 241.459 145.764 243.961 148.677ZM243.961 148.677C250.959 149.264 254.322 151.249 255.69 153.305M255.69 153.305C256.559 154.61 256.623 155.945 256.302 156.969C253.932 158.492 242.699 159.624 237.379 160C225.597 159.549 219.032 156.523 217.222 155.067C213.733 151.232 210.064 149.146 208.665 148.582C196.571 143.085 196.9 142.733 191.799 141.182C166.623 136.813 154.694 141.182 144.327 141.182C154.94 147.596 147.453 151.196 137.087 151.472C122.278 151.867 118.959 145.482 119.151 142.239C118.361 135.135 112.295 133.735 109.361 133.923L88.0518 136.813C72.9134 139.124 51.5771 135.849 42.8012 133.923C33.7182 131.048 14.17 125.771 5.53123 123.492C-1.31395 119.94 1.08845 118.159 3.14529 117.713C10.9777 116.642 27.5257 116.327 34.8207 116.303C46.9314 116.303 67.4559 118.136 76.2044 119.052C79.9561 115.895 80.1809 97.2978 79.8244 88.394C72.5185 78.4706 74.9154 59.3099 77.1916 51.6042C85.3532 30.4043 86.0772 25.6683 104.013 11.7134C117.523 1.20186 132.973 1 143.34 1C159.465 0.999953 176.03 6.00402 182.913 9.59844C189.797 13.1929 199.121 21.7629 208.665 26.1608C218.209 30.5587 235.925 34.2665 240.505 35.817C250.444 35.0841 267.134 39.5994 274.237 41.9487L282.629 43.7804L299.413 54.071C312.248 58.2433 309.478 67.133 306.489 71.0563C307.015 78.2733 300.62 84.1183 297.356 86.1387C290.577 94.427 275.06 99.3651 268.149 100.798L266.421 106.225C257.536 128.214 257.234 139.397 258.194 142.239C274.846 143.705 275.938 149.005 274.402 151.472C271.506 152.6 260.721 153.164 255.69 153.305Z" stroke="black"/>
</svg>
