<svg width="476" height="231" viewBox="0 0 476 231" fill="none" xmlns="http://www.w3.org/2000/svg">
<path d="M185.926 104.605C187.247 102.5 188.975 94.7957 185.312 80.8202C183.593 74.4586 178.063 62.1678 169.701 63.8971C169.667 63.9025 169.633 63.9086 169.599 63.9154C168.155 64.175 151.679 67.1452 141.019 69.4428C122.698 73.3914 104.996 78.8528 94.4543 81.1936C86.6643 82.9233 70.8163 85.9859 63.0733 87.467C60.3381 87.9902 58.6143 88.316 58.6143 88.316C58.6143 88.316 34.4639 92.0247 24.496 93.8289C19.7641 95.0318 17.0958 101.439 16.6877 109.122C16.5192 112.294 16.7358 115.683 17.3515 119.012C17.6848 120.815 18.135 122.601 18.7044 124.325C19.6387 127.154 20.8938 129.819 22.4794 132.126C24.7183 135.382 27.616 137.924 31.2 139.206C31.2 139.206 56.5433 132.872 62.9874 131.089C69.4315 129.307 97.2503 124.39 97.2503 124.39L123.305 121.508L154.329 114.225C154.329 114.225 174.365 110.952 179.974 108.677C181.889 109.062 183.965 108.101 185.926 104.605Z" fill="#A46C43"/>
<path d="M60.0067 110.77C68.9658 108.3 68.7931 104.646 67.5869 103.128C66.3825 101.88 60.6676 102.744 55.5806 103.393C51.4922 103.915 48.4963 103.894 48.4963 103.894C48.4963 103.894 37.2698 103.902 36.14 109.631C33.7917 113.974 37.9632 114.589 40.3425 114.355C41.6191 113.705 53.9839 111.694 60.0067 110.77Z" fill="#A46C43"/>
<path d="M169.701 63.8971C178.063 62.1678 183.593 74.4586 185.312 80.8202C188.975 94.7957 187.247 102.5 185.926 104.605C183.965 108.101 181.889 109.062 179.974 108.677M169.701 63.8971C169.701 63.8971 169.666 63.9033 169.599 63.9154M169.701 63.8971C169.667 63.9025 169.633 63.9086 169.599 63.9154M169.599 63.9154C168.155 64.175 151.679 67.1452 141.019 69.4428C122.698 73.3914 104.996 78.8528 94.4543 81.1936C86.6643 82.9233 70.8163 85.9859 63.0733 87.467M169.599 63.9154C168.158 64.2015 166.548 65.6798 165.824 69.1212M179.974 108.677C174.365 110.952 154.329 114.225 154.329 114.225L123.305 121.508L97.2503 124.39C97.2503 124.39 69.4315 129.307 62.9874 131.089C56.5433 132.872 31.2 139.206 31.2 139.206C27.616 137.924 24.7183 135.382 22.4794 132.126M179.974 108.677C178.538 108.388 177.192 107.343 176.052 106.043M170.963 97.4792L172.83 93.8983M170.963 97.4792C170.202 95.4078 169.534 93.4551 168.95 91.6153M170.963 97.4792L77.134 116.195L173.501 102.161M172.83 93.8983C169.817 87.5792 165.44 74.0215 172.037 70.3433C174.387 69.4672 179.996 71.753 183.626 87.9052C184.642 92.4518 185.466 101.718 180.634 102.408C179.358 102.415 176.344 101.502 174.499 97.7956M172.83 93.8983L174.295 91.0884M174.499 97.7956L173.501 102.161M174.499 97.7956L175.368 93.9912M173.501 102.161C174.111 103.407 174.993 104.835 176.052 106.043M174.295 91.0884L177.386 85.1591L175.368 93.9912M174.295 91.0884C172.667 87.1827 170.362 78.7503 174.164 76.2669C175.847 76.2404 179.679 78.8675 181.55 89.588C181.785 94.2858 180.877 101.743 175.368 93.9912M165.824 69.1212C159.458 70.502 144.035 74.032 133.276 77.1055C122.516 80.1791 108.889 83.145 103.421 84.2437C98.0701 85.4788 85.9129 88.0379 80.0898 88.3936C76.1028 88.8577 67.1177 89.322 63.0733 87.467M165.824 69.1212C165.434 70.9722 165.3 73.3912 165.586 76.4981M63.0733 87.467C60.3381 87.9902 58.6143 88.316 58.6143 88.316C58.6143 88.316 34.4639 92.0247 24.496 93.8289C19.7641 95.0318 17.0958 101.439 16.6877 109.122M165.586 76.4981C160.584 76.2149 146.918 77.1191 132.269 83.0024C127.46 84.8325 114.519 88.8329 101.228 90.1931C96.6345 90.7252 83.0907 92.1119 65.6634 93.4018C60.162 93.511 46.4516 94.5015 35.6211 97.5897C24.7906 100.678 18.4861 106.565 16.6877 109.122M165.586 76.4981C165.775 78.5493 166.147 80.9002 166.749 83.5855M16.6877 109.122C16.5192 112.294 16.7359 115.683 17.3515 119.012M166.749 83.5855C161.528 84.4403 148.658 86.3625 138.952 87.2126C133.65 87.8592 120.039 90.4104 108.014 95.4425C95.9901 100.475 82.2574 99.7727 76.8941 98.7928C71.584 97.9625 58.7209 96.708 49.7498 98.3318C40.7787 99.9556 33.7359 103.218 31.336 104.647C28.4349 107.111 21.5766 113.433 17.3515 119.012M166.749 83.5855C167.287 85.9865 168.01 88.6549 168.95 91.6153M17.3515 119.012C17.6848 120.815 18.135 122.601 18.7044 124.325M168.95 91.6153L134.873 96.8303C130.444 97.5855 118.936 99.8754 108.332 102.994C104.369 103.942 94.0138 105.839 84.2959 105.843C81.0079 105.977 72.8415 107.769 66.4799 113.867C62.7038 115.644 53.6967 118.901 47.8775 117.714C43.1554 117.726 32.9848 117.997 30.0783 118.984C27.1718 119.971 21.2847 122.956 18.7044 124.325M18.7044 124.325C19.6387 127.154 20.8938 129.819 22.4794 132.126M176.052 106.043C166.631 108.565 143.031 114.25 124.002 116.807C118.69 117.597 102.093 119.715 78.2023 121.869C76.5267 121.93 69.3087 123.024 53.842 126.906C45.003 128.826 26.3558 132.558 22.4794 132.126M67.5869 103.128C68.7931 104.646 68.9658 108.3 60.0067 110.77C53.9839 111.694 41.6191 113.705 40.3425 114.355C37.9632 114.589 33.7917 113.974 36.14 109.631C37.2698 103.902 48.4963 103.894 48.4963 103.894C48.4963 103.894 51.4922 103.915 55.5806 103.393C60.6676 102.744 66.3825 101.88 67.5869 103.128ZM63.2626 104.601C64.5187 105.08 65.6873 106.529 60.3135 108.489C56.7344 109.358 47.7913 111.098 40.6517 111.109C38.9111 110.826 36.802 109.726 42.2896 107.588C43.0299 107.342 45.143 106.894 48.0113 106.694C50.0635 106.551 52.6684 106.701 54.6701 106.378C58.0506 105.832 62.4877 104.005 63.2626 104.601Z" stroke="black" stroke-linecap="round"/>
<path d="M257.386 190.967C259.225 188.732 262.364 180.093 260.211 163.411C259.171 155.81 254.612 140.796 244.699 141.551C244.659 141.552 244.619 141.554 244.578 141.557C242.872 141.642 223.406 142.624 210.755 143.694C189.013 145.531 167.761 149.208 155.241 150.345C145.989 151.185 127.234 152.367 118.073 152.927C114.837 153.125 112.798 153.245 112.798 153.245C112.798 153.245 84.3606 153.94 72.5826 154.543C66.94 155.229 62.907 162.231 61.2944 171.042C60.6287 174.679 60.3754 178.624 60.5916 182.561C60.7087 184.692 60.9634 186.821 61.3647 188.896C62.0232 192.302 63.0766 195.566 64.5649 198.465C66.6664 202.557 69.6348 205.923 73.5828 207.935C73.5828 207.935 103.788 204.387 111.494 203.286C119.2 202.185 152.053 200.639 152.053 200.639L182.567 201.183L219.472 197.381C219.472 197.381 243.094 196.578 249.909 194.784C252.063 195.513 254.603 194.712 257.386 190.967Z" fill="#A46C43"/>
<path d="M111.07 179.38C121.782 177.859 122.126 173.614 120.959 171.682C119.753 170.062 113.026 170.21 107.055 170.204C102.257 170.199 98.8008 169.73 98.8008 169.73C98.8008 169.73 85.8363 168.071 83.6805 174.52C80.3239 179.185 85.0493 180.516 87.8316 180.598C89.4021 180.037 103.979 179.552 111.07 179.38Z" fill="#A46C43"/>
<path d="M244.699 141.551C254.612 140.796 259.171 155.81 260.211 163.411C262.364 180.093 259.225 188.732 257.386 190.967C254.603 194.712 252.063 195.513 249.909 194.784M244.699 141.551C244.699 141.551 244.658 141.553 244.578 141.557M244.699 141.551C244.659 141.552 244.619 141.554 244.578 141.557M244.578 141.557C242.872 141.642 223.406 142.624 210.755 143.694C189.013 145.531 167.761 149.208 155.241 150.345C145.989 151.185 127.234 152.367 118.073 152.927M244.578 141.557C242.871 141.673 240.793 143.141 239.445 147.007M249.909 194.784C243.094 196.578 219.472 197.381 219.472 197.381L182.567 201.183L152.053 200.639C152.053 200.639 119.2 202.185 111.494 203.286C103.788 204.387 73.5828 207.935 73.5828 207.935C69.6348 205.923 66.6664 202.557 64.5649 198.465M249.909 194.784C248.293 194.237 246.894 192.831 245.771 191.16M241.167 180.516L243.855 176.658M241.167 180.516C240.597 178.011 240.115 175.657 239.714 173.446M241.167 180.516L130.042 188.188L243.402 186.299M243.855 176.658C241.314 168.914 238.275 152.608 246.438 149.341C249.282 148.679 255.419 152.151 257.212 171.342C257.709 176.743 257.284 187.564 251.602 187.644C250.127 187.462 246.783 185.96 245.203 181.406M243.855 176.658L245.964 173.631M245.203 181.406L243.402 186.299M245.203 181.406L246.772 177.142M243.402 186.299C243.922 187.829 244.727 189.608 245.771 191.16M245.964 173.631L250.414 167.244L246.772 177.142M245.964 173.631C244.664 168.879 243.255 158.8 248.015 156.497C249.961 156.717 253.996 160.319 254.565 172.976C254.138 178.436 251.982 186.912 246.772 177.142M239.445 147.007C231.889 147.656 213.557 149.441 200.676 151.392C187.795 153.342 171.619 154.743 165.142 155.199C158.78 155.83 144.361 156.979 137.585 156.525C132.912 156.469 122.468 155.67 118.073 152.927M239.445 147.007C238.72 149.087 238.207 151.86 238.075 155.49M118.073 152.927C114.837 153.125 112.798 153.245 112.798 153.245C112.798 153.245 84.3606 153.94 72.5826 154.543C66.94 155.229 62.907 162.231 61.2944 171.042M238.075 155.49C232.341 154.42 216.426 153.434 198.638 158.051C192.813 159.45 177.275 162.147 161.726 161.743C156.343 161.675 140.498 161.264 120.182 160.165C113.814 159.474 97.835 158.581 84.8701 160.538C71.9053 162.495 63.7509 168.356 61.2944 171.042M238.075 155.49C237.989 157.886 238.069 160.656 238.365 163.847M61.2944 171.042C60.6287 174.679 60.3754 178.624 60.5916 182.561M238.365 163.847C232.209 164.058 217.063 164.366 205.729 163.906C199.51 163.864 183.415 164.788 168.782 168.813C154.15 172.837 138.397 169.987 132.35 168.058C126.341 166.311 111.675 162.951 101.074 163.494C90.4742 164.036 81.8572 166.757 78.8737 168.05C75.1579 170.464 66.2993 176.746 60.5916 182.561M238.365 163.847C238.63 166.699 239.068 169.888 239.714 173.446M60.5916 182.561C60.7087 184.692 60.9634 186.821 61.3647 188.896M239.714 173.446L199.59 174.405C194.364 174.619 180.735 175.554 168.027 177.58C163.31 178.086 151.071 178.738 139.849 177.299C136.033 176.965 126.337 177.821 118.085 183.917C113.461 185.408 102.576 187.832 96.0332 185.596C90.5789 184.908 78.7944 183.711 75.2917 184.419C71.7889 185.126 64.5475 187.699 61.3647 188.896M61.3647 188.896C62.0232 192.302 63.0766 195.566 64.5649 198.465M245.771 191.16C234.517 192.673 206.423 195.731 184.069 195.857C177.818 195.98 158.34 195.961 130.432 194.898C128.488 194.721 119.991 194.911 101.555 197.097C91.0632 198.001 68.9768 199.54 64.5649 198.465M120.959 171.682C122.126 173.614 121.782 177.859 111.07 179.38C103.979 179.552 89.4021 180.037 87.8316 180.598C85.0493 180.516 80.3239 179.185 83.6805 174.52C85.8363 168.071 98.8008 169.73 98.8008 169.73C98.8008 169.73 102.257 170.199 107.055 170.204C113.026 170.21 119.753 170.062 120.959 171.682ZM115.747 172.74C117.126 173.48 118.26 175.327 111.764 176.792C107.502 177.263 96.9166 177.944 88.6707 176.896C86.7029 176.311 84.4309 174.727 91.085 173.074C91.9765 172.899 94.483 172.696 97.8247 172.891C100.216 173.031 103.201 173.591 105.561 173.515C109.545 173.388 114.94 171.936 115.747 172.74Z" stroke="black" stroke-linecap="round"/>
<path d="M396.193 137.337C398.71 135.908 404.732 128.963 408.688 112.615C410.436 105.145 411.549 89.4938 402.022 86.6525C401.985 86.6394 401.946 86.6269 401.908 86.6151C400.284 86.0843 381.755 80.0384 369.558 76.5115C348.598 70.4503 327.437 66.2816 315.338 62.8645C306.398 60.3394 288.461 54.7345 279.706 51.9804C276.613 51.0075 274.666 50.3903 274.666 50.3903C274.666 50.3903 247.862 40.8666 236.648 37.2162C231.133 35.8384 224.862 40.9347 220.204 48.5858C218.282 51.7442 216.634 55.3379 215.428 59.0912C214.774 61.1233 214.251 63.2021 213.883 65.2839C213.28 68.7001 213.096 72.1245 213.449 75.3638C213.947 79.9376 215.515 84.1424 218.482 87.4339C218.482 87.4339 247.958 94.9248 255.548 96.653C263.138 98.3813 294.37 108.69 294.37 108.69L322.67 120.113L358.494 129.765C358.494 129.765 380.84 137.465 387.845 138.227C389.596 139.679 392.255 139.839 396.193 137.337Z" fill="#A46C43"/>
<path d="M263.704 74.1778C274.251 76.5893 276.091 72.7481 275.692 70.5261C275.145 68.5823 268.81 66.3143 263.237 64.1729C258.758 62.4519 255.698 60.7775 255.698 60.7775C255.698 60.7775 244.185 54.5906 239.865 59.8411C235.062 62.9971 238.998 65.9301 241.567 67.0021C243.234 67.0405 257.02 71.8019 263.704 74.1778Z" fill="#A46C43"/>
<path d="M402.022 86.6525C411.549 89.4938 410.436 105.145 408.688 112.615C404.732 128.963 398.71 135.908 396.193 137.337C392.255 139.839 389.596 139.679 387.845 138.227M402.022 86.6525C402.022 86.6525 401.983 86.6398 401.908 86.6151M402.022 86.6525C401.985 86.6394 401.946 86.6269 401.908 86.6151M401.908 86.6151C400.284 86.0843 381.755 80.0384 369.558 76.5115C348.598 70.4503 327.437 66.2816 315.338 62.8645C306.398 60.3394 288.461 54.7345 279.706 51.9804M401.908 86.6151C400.272 86.1131 397.807 86.7405 395.165 89.8686M387.845 138.227C380.84 137.465 358.494 129.765 358.494 129.765L322.67 120.113L294.37 108.69C294.37 108.69 263.138 98.3813 255.548 96.653C247.958 94.9248 218.482 87.4339 218.482 87.4339C215.515 84.1424 213.947 79.9376 213.449 75.3638M387.845 138.227C386.532 137.139 385.729 135.325 385.277 133.363M384.786 121.776L388.676 119.135M384.786 121.776C385.149 119.233 385.542 116.862 385.958 114.654M384.786 121.776L278.269 89.1897L384.805 127.976M388.676 119.135C389.074 110.994 392.068 94.6806 400.86 94.5496C403.753 94.9484 408.241 100.387 403.051 118.948C401.583 124.17 397.315 134.123 391.981 132.165C390.669 131.468 388.082 128.869 388.236 124.051M388.676 119.135L391.728 117.063M388.236 124.051L384.805 127.976M388.236 124.051L391.226 120.631M384.805 127.976C384.743 129.59 384.858 131.54 385.277 133.363M391.728 117.063L398.169 112.69L391.226 120.631M391.728 117.063C392.214 112.16 394.504 102.244 399.772 101.796C401.512 102.697 403.991 107.505 399.994 119.528C397.642 124.474 392.597 131.618 391.226 120.631M395.165 89.8686C387.877 87.7714 370.119 82.8806 357.392 80.0945C344.666 77.3085 329.06 72.83 322.847 70.9389C316.681 69.2527 302.805 65.168 296.639 62.3197C292.296 60.5955 282.829 56.1137 279.706 51.9804M395.165 89.8686C393.744 91.5512 392.272 93.9572 390.851 97.3002M279.706 51.9804C276.613 51.0075 274.666 50.3903 274.666 50.3903C274.666 50.3903 247.862 40.8666 236.648 37.2162C231.133 35.8384 224.862 40.9347 220.204 48.5858M390.851 97.3002C385.879 94.2496 371.37 87.6357 353.107 85.5845C347.167 84.8071 331.693 81.7674 317.317 75.828C312.314 73.8389 297.664 67.7873 279.087 59.4936C273.386 56.57 258.785 50.0203 245.977 47.2102C233.17 44.4001 223.459 46.9564 220.204 48.5858M390.851 97.3002C389.913 99.5072 388.997 102.122 388.132 105.208M220.204 48.5858C218.282 51.7442 216.634 55.3379 215.427 59.0912M388.132 105.208C382.308 103.203 368.054 98.0721 357.635 93.5882C351.842 91.3252 336.481 86.4304 321.377 84.9543C306.274 83.4781 292.583 75.1812 287.625 71.2172C282.64 67.436 270.145 59.0523 260.052 55.7669C249.959 52.4815 240.939 51.9402 237.691 52.0803C233.357 53.0056 222.837 55.7032 215.427 59.0912M388.132 105.208C387.359 107.966 386.628 111.1 385.958 114.654M215.427 59.0912C214.774 61.1233 214.251 63.2021 213.883 65.2839M385.958 114.654L348.146 101.197C343.189 99.5276 330.128 95.525 317.536 92.8709C312.95 91.6562 301.288 87.8873 291.323 82.5294C287.878 80.8521 278.518 78.1827 268.632 80.9239C263.78 80.6623 252.749 79.0318 247.438 74.6032C242.591 72.0103 232.014 66.6765 228.49 66.0843C224.966 65.4922 217.284 65.304 213.883 65.2839M213.883 65.2839C213.28 68.7001 213.096 72.1245 213.449 75.3638M385.277 133.363C374.227 130.751 346.898 123.556 325.978 115.678C320.097 113.556 301.914 106.571 276.234 95.5955C274.482 94.734 266.479 91.8726 248.481 87.3184C238.36 84.4095 217.184 77.9462 213.449 75.3638M275.692 70.5261C276.091 72.7481 274.251 76.5893 263.704 74.1778C257.02 71.8019 243.234 67.0405 241.567 67.0021C238.998 65.9301 235.062 62.9971 239.865 59.8411C244.185 54.5906 255.698 60.7775 255.698 60.7775C255.698 60.7775 258.758 62.4519 263.237 64.1729C268.81 66.3143 275.145 68.5823 275.692 70.5261ZM270.446 69.65C271.469 70.8346 271.868 72.9647 265.277 72.0087C261.129 70.9244 251 67.7737 243.675 63.8453C242.047 62.595 240.492 60.3034 247.297 61.14C248.192 61.2955 250.605 62.0026 253.656 63.3803C255.839 64.3661 258.426 65.957 260.657 66.7304C264.423 68.0365 269.981 68.6109 270.446 69.65Z" stroke="black" stroke-linecap="round"/>
<path d="M203.7 227.795C206.43 226.245 212.885 218.558 216.869 200.218C218.623 191.837 219.503 174.215 208.989 170.782C208.947 170.766 208.905 170.751 208.862 170.737C207.069 170.1 186.608 162.837 173.15 158.567C150.021 151.229 126.713 146.02 113.365 141.876C103.501 138.814 83.6997 132.063 74.0341 128.747C70.6198 127.576 68.4702 126.833 68.4702 126.833C68.4702 126.833 38.8541 115.45 26.4708 111.065C20.3904 109.379 13.6216 114.975 8.67857 123.491C6.63808 127.006 4.90869 131.019 3.66728 135.222C2.99518 137.498 2.46611 139.829 2.10813 142.168C1.5207 146.006 1.39396 149.863 1.85188 153.524C2.49846 158.693 4.31072 163.472 7.63772 167.255C7.63772 167.255 40.1404 176.41 48.5051 178.541C56.8699 180.672 91.3609 193.047 91.3609 193.047L122.66 206.607L162.174 218.351C162.174 218.351 186.858 227.57 194.561 228.598C196.514 230.277 199.434 230.522 203.7 227.795Z" fill="#A46C43"/>
<path d="M56.9626 153.393C68.5871 156.366 70.521 152.079 70.0349 149.564C69.3932 147.358 62.3931 144.649 56.2317 142.1C51.2799 140.052 47.8864 138.091 47.8864 138.091C47.8864 138.091 35.1197 130.838 30.4949 136.654C25.2939 140.098 29.6771 143.5 32.5188 144.77C34.3488 144.854 49.5772 150.554 56.9626 153.393Z" fill="#A46C43"/>
<path d="M208.989 170.782C219.503 174.215 218.623 191.837 216.869 200.218C212.885 218.558 206.43 226.245 203.7 227.795C199.434 230.522 196.514 230.277 194.561 228.598M208.989 170.782C208.989 170.782 208.946 170.767 208.862 170.737M208.989 170.782C208.947 170.766 208.905 170.751 208.862 170.737M208.862 170.737C207.069 170.1 186.608 162.837 173.15 158.567C150.021 151.229 126.713 146.02 113.365 141.876C103.501 138.814 83.6997 132.063 74.0341 128.747M208.862 170.737C207.057 170.132 204.365 170.78 201.535 174.244M194.561 228.598C186.858 227.57 162.174 218.351 162.174 218.351L122.66 206.607L91.3609 193.047C91.3609 193.047 56.8699 180.672 48.5051 178.541C40.1404 176.41 7.63772 167.255 7.63772 167.255C4.31072 163.472 2.49846 158.693 1.85188 153.524M194.561 228.598C193.096 227.339 192.175 225.275 191.637 223.052M190.845 209.974L195.055 207.09M190.845 209.974C191.188 207.115 191.567 204.451 191.975 201.971M190.845 209.974L73.2701 170.671L191.001 216.966M195.055 207.09C195.314 197.92 198.243 179.596 207.886 179.659C211.068 180.178 216.112 186.418 210.822 207.224C209.326 213.077 204.861 224.198 198.966 221.862C197.511 221.045 194.617 218.052 194.68 212.623M195.055 207.09L198.359 204.826M194.68 212.623L191.001 216.966M194.68 212.623L197.886 208.837M191.001 216.966C190.968 218.785 191.138 220.986 191.637 223.052M198.359 204.826L205.329 200.05L197.886 208.837M198.359 204.826C198.785 199.31 201.08 188.183 206.851 187.805C208.779 188.862 211.604 194.343 207.482 207.805C205.009 213.325 199.63 221.26 197.886 208.837M201.535 174.244C193.493 171.704 173.904 165.763 159.88 162.315C145.857 158.868 128.637 153.443 121.78 151.162C114.977 149.112 99.6651 144.173 92.8381 140.813C88.0352 138.764 77.5503 133.483 74.0341 128.747M201.535 174.244C200.013 176.107 198.451 178.785 196.965 182.52M74.0341 128.747C70.6198 127.576 68.4702 126.833 68.4702 126.833C68.4702 126.833 38.8541 115.45 26.4708 111.065C20.3904 109.379 13.6216 114.975 8.67857 123.491M196.965 182.52C191.443 178.961 175.38 171.155 155.298 168.403C148.764 167.384 131.721 163.584 115.819 156.542C110.287 154.179 94.0819 147.003 73.5186 137.205C67.201 133.771 51.0377 126.035 36.9252 122.558C22.8128 119.082 12.2139 121.731 8.67857 123.491M196.965 182.52C195.984 184.986 195.036 187.913 194.155 191.371M8.67857 123.491C6.63808 127.006 4.90869 131.019 3.66727 135.222M194.155 191.371C187.721 188.971 171.97 182.843 160.441 177.537C154.036 174.846 137.076 168.957 120.473 166.93C103.87 164.903 88.6684 155.218 83.1427 150.629C77.5902 146.246 63.6989 136.492 52.554 132.545C41.409 128.598 31.5008 127.771 27.9398 127.851C23.2055 128.79 11.7229 131.58 3.66727 135.222M194.155 191.371C193.367 194.463 192.633 197.98 191.975 201.971M3.66727 135.222C2.99518 137.498 2.46611 139.829 2.10813 142.168M191.975 201.971L150.197 185.889C144.722 183.887 130.304 179.06 116.432 175.765C111.374 174.285 98.4962 169.755 87.4466 163.474C83.631 161.5 73.3029 158.265 62.5161 161.119C57.1873 160.707 45.0491 158.604 39.1263 153.482C33.7511 150.442 22.031 144.174 18.1517 143.421C14.2724 142.669 5.8396 142.272 2.10813 142.168M2.10813 142.168C1.5207 146.006 1.39395 149.863 1.85188 153.524M191.637 223.052C179.457 219.84 149.316 211.071 126.192 201.685C119.693 199.152 99.5916 190.838 71.177 177.845C69.2362 176.832 60.3932 173.413 40.5474 167.845C29.38 164.322 6.00641 156.525 1.85188 153.524M70.0349 149.564C70.521 152.079 68.5871 156.366 56.9626 153.393C49.5772 150.554 34.3488 144.854 32.5188 144.77C29.6771 143.5 25.2939 140.098 30.4949 136.654C35.1197 130.838 47.8864 138.091 47.8864 138.091C47.8864 138.091 51.2799 140.052 56.2317 142.1C62.3931 144.649 69.3932 147.358 70.0349 149.564ZM64.2604 148.45C65.4088 149.81 65.8926 152.222 58.6411 150.985C54.066 149.663 42.8851 145.867 34.7624 141.261C32.9487 139.812 31.1924 137.191 38.6768 138.298C39.6623 138.494 42.3254 139.35 45.7025 140.977C48.1189 142.141 50.9927 143.997 53.4566 144.922C57.6174 146.486 63.7272 147.267 64.2604 148.45Z" stroke="black" stroke-linecap="round"/>
<path d="M393.662 176.076C396.425 173.762 402.131 163.75 402.85 142.217C403.103 132.389 400.464 112.306 387.882 110.596C387.831 110.587 387.781 110.579 387.729 110.571C385.573 110.221 360.968 106.237 344.888 104.189C317.254 100.669 289.857 99.5906 273.927 97.6623C262.156 96.2374 238.401 92.6948 226.801 90.9424C222.704 90.3234 220.123 89.9277 220.123 89.9277C220.123 89.9277 184.329 83.1771 169.439 80.7767C162.225 80.1259 155.734 87.8414 151.907 98.4778C150.327 102.869 149.201 107.757 148.665 112.76C148.375 115.469 148.258 118.211 148.336 120.926C148.464 125.381 149.116 129.764 150.388 133.804C152.184 139.509 155.215 144.533 159.753 148.119C159.753 148.119 198.348 151.758 208.234 152.441C218.12 153.124 259.625 159.989 259.625 159.989L297.768 168.852L344.815 173.97C344.815 173.97 374.594 179.294 383.505 178.867C386.057 180.36 389.405 180.035 393.662 176.076Z" fill="#A46C43"/>
<path d="M212.602 122.296C226.343 123.257 227.643 118.017 226.576 115.276C225.397 112.918 216.932 111.301 209.448 109.693C203.434 108.4 199.197 106.885 199.197 106.885C199.197 106.885 183.283 101.325 179.259 108.848C174.095 113.809 179.747 116.747 183.218 117.596C185.302 117.313 203.675 120.612 212.602 122.296Z" fill="#A46C43"/>
<path d="M387.882 110.596C400.464 112.306 403.103 132.389 402.85 142.217C402.131 163.75 396.425 173.762 393.662 176.076C389.405 180.035 386.057 180.36 383.505 178.867M387.882 110.596C387.882 110.596 387.83 110.588 387.729 110.571M387.882 110.596C387.831 110.587 387.781 110.579 387.729 110.571M387.729 110.571C385.573 110.221 360.968 106.237 344.888 104.189C317.254 100.669 289.857 99.5906 273.927 97.6623C262.156 96.2374 238.401 92.6948 226.801 90.9424M387.729 110.571C385.566 110.26 382.66 111.547 380.177 116.042M383.505 178.867C374.594 179.294 344.815 173.97 344.815 173.97L297.768 168.852L259.625 159.989C259.625 159.989 218.12 153.124 208.234 152.441C198.348 151.758 159.753 148.119 159.753 148.119C155.215 144.533 152.184 139.509 150.388 133.804M383.505 178.867C381.592 177.747 380.126 175.605 379.06 173.205M375.47 158.599L379.63 154.473M375.47 158.599C375.268 155.299 375.146 152.213 375.096 149.327M375.47 158.599L234.581 138.448L377.087 166.463M379.63 154.473C378.032 144.064 377.562 122.765 388.466 120.849C392.167 120.779 399.15 126.787 397.465 151.375C396.982 158.294 394.231 171.774 387.092 170.351C385.28 169.728 381.394 166.944 380.347 160.8M379.63 154.473L382.894 151.236M380.347 160.8L377.087 166.463M380.347 160.8L383.187 155.864M377.087 166.463C377.425 168.524 378.07 170.976 379.06 173.205M382.894 151.236L389.782 144.405L383.187 155.864M382.894 151.236C382.238 144.918 382.537 131.878 388.976 130.262C391.372 131.059 395.692 136.667 393.811 152.719C392.157 159.463 387.717 169.534 383.187 155.864M380.177 116.042C370.571 114.832 347.222 112.16 330.674 111.157C314.126 110.155 293.56 107.578 285.345 106.414C277.24 105.502 258.928 103.08 250.525 100.693C244.679 99.3692 231.749 95.5662 226.801 90.9424M380.177 116.042C378.842 118.46 377.63 121.807 376.722 126.332M226.801 90.9424C222.704 90.3234 220.123 89.9277 220.123 89.9277C220.123 89.9277 184.329 83.1771 169.439 80.7767C162.225 80.126 155.734 87.8414 151.907 98.4778M376.722 126.332C369.752 123.45 350.002 117.945 326.754 118.977C319.165 119.173 299.133 118.395 279.722 113.719C272.987 112.191 253.206 107.427 227.963 100.6C220.12 98.0246 200.271 92.6193 183.616 91.6023C166.961 90.5853 155.537 95.7622 151.907 98.4778M376.722 126.332C376.122 129.319 375.655 132.82 375.373 136.907M151.907 98.4778C150.327 102.869 149.201 107.757 148.665 112.76M375.373 136.907C367.611 135.523 348.56 131.849 334.445 128.232C326.657 126.514 306.289 123.36 287.12 124.492C267.951 125.625 248.786 117.822 241.599 113.778C234.425 109.972 216.726 101.82 203.325 99.6595C189.925 97.4991 178.564 98.6076 174.559 99.4319C169.405 101.469 157.012 106.986 148.665 112.76M375.373 136.907C375.12 140.562 375.016 144.685 375.096 149.327M148.665 112.76C148.375 115.469 148.258 118.211 148.336 120.926M375.096 149.327L324.597 139.777C318.002 138.645 300.724 136.165 284.377 135.303C278.36 134.675 262.882 132.213 249.108 127.397C244.392 125.954 232.06 124.43 220.466 129.876C214.363 130.51 200.221 130.637 192.476 126.074C185.779 123.748 171.25 119.084 166.714 119.034C162.178 118.984 152.572 120.275 148.336 120.926M148.336 120.926C148.464 125.381 149.116 129.764 150.388 133.804M379.06 173.205C364.642 172.089 328.793 168.399 300.743 162.565C292.881 161.044 268.465 155.798 233.696 146.982C231.295 146.237 220.603 144.199 197.042 142.002C183.703 140.325 155.698 136.338 150.388 133.804M226.576 115.276C227.643 118.017 226.343 123.257 212.602 122.296C203.675 120.612 185.302 117.313 183.218 117.596C179.747 116.747 174.095 113.809 179.259 108.848C183.283 101.325 199.197 106.885 199.197 106.885C199.197 106.885 203.434 108.4 209.448 109.693C216.932 111.301 225.397 112.918 226.576 115.276ZM219.825 115.209C221.402 116.508 222.446 119.132 214.001 119.23C208.561 118.68 195.151 116.698 185.028 113.171C182.681 111.908 180.157 109.31 188.838 109.017C189.992 109.036 193.176 109.453 197.325 110.594C200.294 111.411 203.922 112.914 206.896 113.452C211.917 114.36 218.979 113.983 219.825 115.209Z" stroke="black" stroke-linecap="round"/>
<path d="M239.784 90.1007C240.45 86.5586 238.504 75.2003 225.392 58.1042C219.35 50.3492 204.563 36.5053 193.755 43.1707C193.711 43.1956 193.666 43.2214 193.622 43.2482C191.733 44.3463 170.191 56.8851 156.465 65.5087C132.877 80.3291 111.023 96.8852 97.4895 105.506C87.4888 111.877 66.884 124.217 56.8082 130.226C53.2489 132.348 51.0035 133.68 51.0035 133.68C51.0035 133.68 19.0592 151.184 6.02995 158.78C0.0418564 162.856 -0.0766845 172.938 3.71714 183.586C5.28323 187.982 7.51602 192.474 10.2778 196.68C11.773 198.957 13.4233 201.15 15.2067 203.199C18.1333 206.561 21.4186 209.533 24.966 211.848C29.9749 215.117 35.5064 217.074 41.2889 216.966C41.2889 216.966 73.4226 195.281 81.4953 189.533C89.568 183.785 125.998 162.747 125.998 162.747L161.098 145.385L200.702 119.477C200.702 119.477 227.092 104.69 233.707 98.7037C236.627 98.2381 239.008 95.8616 239.784 90.1007Z" fill="#A46C43"/>
<path d="M65.7367 163.467C76.9649 155.487 74.6435 150.612 72.0792 149.172C69.6712 148.099 62.1041 152.222 55.3002 155.729C49.8321 158.548 45.596 160.066 45.596 160.066C45.596 160.066 29.7701 165.871 31.4355 174.238C30.5939 181.349 36.8262 180.033 40.0475 178.486C41.4781 176.944 57.7697 167.831 65.7367 163.467Z" fill="#A46C43"/>
<path d="M193.755 43.1707C204.563 36.5053 219.35 50.3492 225.392 58.1042C238.504 75.2003 240.45 86.5586 239.784 90.1007C239.008 95.8616 236.627 98.2381 233.707 98.7037M193.755 43.1707C193.755 43.1707 193.71 43.197 193.622 43.2482M193.755 43.1707C193.711 43.1956 193.666 43.2214 193.622 43.2482M193.622 43.2482C191.733 44.3463 170.191 56.8851 156.465 65.5087C132.877 80.3291 111.023 96.8851 97.4895 105.506C87.4888 111.877 66.884 124.217 56.8082 130.226M193.622 43.2482C191.752 44.3808 190.324 47.2199 191.259 52.2692M233.707 98.7037C227.092 104.69 200.702 119.477 200.702 119.477L161.098 145.385L125.998 162.747C125.998 162.747 89.5681 183.785 81.4953 189.533C73.4226 195.281 41.2889 216.966 41.2889 216.966C35.5064 217.074 29.9749 215.117 24.966 211.848M233.707 98.7037C231.518 99.0528 229.025 98.328 226.678 97.1501M214.633 88.1423L215.229 82.3139M214.633 88.1423C212.382 85.7208 210.33 83.4129 208.459 81.2149M214.633 88.1423L92.9723 161.997L220.874 93.1926M215.229 82.3139C207.387 75.2842 193.505 59.1244 200.714 50.7228C203.531 48.3194 212.739 48.5299 227.044 68.5996C231.062 74.2521 237.493 86.4153 231.073 89.8471C229.277 90.5152 224.508 90.8305 219.798 86.7473M215.229 82.3139L215.697 77.7405M219.798 86.7473L220.874 93.1926M219.798 86.7473L218.86 81.1301M220.874 93.1926C222.444 94.5708 224.498 96.0559 226.678 97.1501M215.697 77.7405L216.683 68.0897L218.86 81.1301M215.697 77.7405C211.18 73.2746 203.134 63.0085 207.083 57.6721C209.441 56.7678 216.339 58.3588 225.074 71.9572C228.077 78.2183 231.038 88.8185 218.86 81.1301M191.259 52.2692C183.068 57.4308 163.329 70.1863 149.905 79.9153C136.481 89.6443 118.953 100.707 111.867 105.022C105.025 109.462 89.338 119.213 81.3293 122.702C75.9714 125.39 63.566 130.658 56.8082 130.226M191.259 52.2692C191.762 54.9851 192.949 58.3404 195.119 62.4136M56.8082 130.226C53.2489 132.348 51.0035 133.68 51.0035 133.68C51.0035 133.68 19.0592 151.184 6.02994 158.78C0.041858 162.856 -0.0766898 172.938 3.71714 183.586M195.119 62.4136C187.905 64.6106 169.149 72.8928 151.84 88.4458C146.099 93.4144 130.126 105.528 112.159 114.236C105.984 117.33 87.6755 126.204 63.8355 136.951C56.1403 139.939 37.3711 148.361 23.8558 158.147C10.3404 167.932 4.79861 179.184 3.71714 183.586M195.119 62.4136C196.552 65.1027 198.414 68.1046 200.79 71.4419M3.71714 183.586C5.28323 187.982 7.51601 192.474 10.2778 196.68M200.79 71.4419C193.913 75.2983 176.86 84.552 163.657 90.7165C156.548 94.3316 138.807 104.823 124.714 117.865C110.62 130.908 90.8572 137.042 82.7374 138.479C74.7776 140.092 55.9264 145.026 44.2001 151.863C32.4738 158.699 24.3986 166.766 21.8268 169.946C19.1375 174.79 13.0627 186.92 10.2778 196.68M200.79 71.4419C202.914 74.4261 205.45 77.6783 208.459 81.2149M10.2778 196.68C11.773 198.957 13.4233 201.15 15.2067 203.199M208.459 81.2149L163.375 105.888C157.56 109.2 142.635 118.25 129.456 127.96C124.407 131.294 110.884 139.216 97.1841 144.237C92.6237 146.116 82.1275 152.765 76.6252 164.332C72.3114 168.696 61.4635 177.77 52.5825 179.16C45.9312 181.614 31.7443 187.232 28.2071 190.073C24.67 192.913 18.0664 200.007 15.2067 203.199M15.2067 203.199C18.1333 206.561 21.4186 209.533 24.966 211.848M226.678 97.1501C214.829 105.44 184.785 125.342 159.406 138.638C152.366 142.453 130.169 153.897 97.7053 169.153C95.3776 170.102 85.8218 175.313 66.2208 188.57C54.8492 195.741 30.6779 210.435 24.966 211.848M72.0792 149.172C74.6435 150.612 76.9649 155.487 65.7367 163.467C57.7697 167.831 41.4781 176.944 40.0475 178.486C36.8262 180.033 30.5939 181.349 31.4355 174.238C29.7701 165.871 45.596 160.066 45.596 160.066C45.596 160.066 49.8321 158.548 55.3002 155.729C62.1041 152.222 69.6712 148.099 72.0792 149.172ZM66.8193 153.405C68.8631 153.408 71.3349 154.774 64.8721 160.21C60.3194 163.237 48.6988 170.217 38.6376 173.917C36.0225 174.431 32.4228 174.025 38.945 168.289C39.8486 167.571 42.5736 165.873 46.5043 164.121C49.3168 162.867 53.075 161.726 55.7139 160.254C60.1704 157.768 65.3874 152.995 66.8193 153.405Z" stroke="black" stroke-linecap="round"/>
<path d="M427.312 160.31C429.082 162.964 431.785 173.04 428.437 192.114C426.849 200.802 421.101 217.846 410.812 216.518C410.77 216.515 410.728 216.511 410.686 216.506C408.912 216.329 366.178 212.219 353.241 209.286C341.429 206.607 341.378 205.988 336.227 203.726C335.593 203.448 335.931 202.355 335.624 201.193C335.042 200.447 334.388 200.285 333.153 199.378C332.562 198.498 333.123 197.113 333.047 195.862C332.374 195.426 330.105 194.836 329.628 194.214C329.165 193.611 328.976 192.782 328.594 191.941C327.911 191.414 327.279 190.866 326.045 190.353C325.367 189.706 324.994 188.854 324.224 188.269C323.794 187.942 323.25 187.383 322.239 187.772C322.398 187.118 321.935 186.732 321.434 186.459C321.034 186.363 320.701 186.258 320.426 186.152C319.385 185.752 319.153 185.338 319.153 185.338C315.833 185.411 310.107 187.324 307.751 188.732C307.014 189.01 305.6 188.956 304.851 189.252C304.299 189.47 303.771 190.035 303.1 190.522C300.872 191.014 298.963 192.776 297.267 193.759C295.759 194.38 294.305 193.905 292.867 194.459C291.773 194.881 290.437 194.837 289.407 195.191C288.427 195.842 287.472 196.535 286.737 197.213C284.438 197.847 282.048 197.32 280.466 197.142C277.104 196.764 274.005 196.947 274.005 196.947C274.005 196.947 244.389 194.827 232.143 193.587C226.303 192.536 222.559 184.3 221.46 174.098C221.006 169.887 221.002 165.34 221.488 160.826C221.751 158.382 222.157 155.947 222.713 153.58C223.625 149.696 224.94 145.994 226.684 142.731C229.146 138.125 232.465 134.394 236.716 132.265C236.716 132.265 278.123 139.784 286.088 141.408C290.679 142.344 297.491 147.96 302.082 152.854C303.308 154.16 304.068 154.954 304.787 155.765C306.843 158.085 307.599 159.227 307.599 159.227L309.055 160.399L309.861 161.715L313.682 162.023L316.062 163.28L319.735 163.645L322.649 165.273L327.05 163.201L331.957 164.079L335.368 162.767L338.783 162.836L342.582 160.781L346.669 161.447L348.853 160.836L351.072 158.502L353.318 158.888L356.086 158.053L358.411 156.515L359.518 155.776L361.558 154.991C361.558 154.991 412.775 153.197 419.765 155.575C422.06 154.837 424.656 155.876 427.312 160.31Z" fill="#A46C43"/>
<path d="M277.672 168.358C288.745 170.604 288.822 175.499 287.477 177.665C286.113 179.471 279.106 178.988 272.878 178.717C267.872 178.5 264.236 178.879 264.236 178.879C264.236 178.879 250.604 180.183 248.781 172.671C245.589 167.153 250.606 165.843 253.513 165.878C255.114 166.595 270.286 167.83 277.672 168.358Z" fill="#A46C43"/>
<path d="M410.812 216.518C421.101 217.846 426.849 200.802 428.437 192.114C431.785 173.04 429.082 162.964 427.312 160.31C424.656 155.876 422.06 154.837 419.765 155.575M410.812 216.518C410.812 216.518 410.769 216.514 410.686 216.506M410.812 216.518C410.77 216.515 410.728 216.511 410.686 216.506M410.686 216.506C408.912 216.329 366.178 212.219 353.241 209.286C341.429 206.607 341.378 205.988 336.227 203.726C335.593 203.448 335.931 202.355 335.624 201.193M410.686 216.506C408.914 216.293 410.585 216.039 409.435 211.532M321.434 186.459C334.981 188.834 352.544 202.141 365.851 204.982C379.157 207.823 401.596 210.436 409.435 211.532M321.434 186.459C321.935 186.732 322.398 187.118 322.239 187.772M321.434 186.459C321.034 186.363 320.701 186.258 320.426 186.152M307.599 159.227C299.655 157.963 288.003 150.921 268.918 147.552C258.034 146.026 231.357 141.701 226.684 142.731M307.599 159.227L309.055 160.399L309.861 161.715L313.682 162.023L316.062 163.28L319.735 163.645L322.649 165.273M307.599 159.227C307.599 159.227 306.843 158.085 304.787 155.765M307.599 159.227L304.787 155.765M348.853 160.836C363.353 159.725 407.313 158.816 418.951 161.078M348.853 160.836L346.669 161.447L342.582 160.781L338.783 162.836L335.368 162.767L331.957 164.079L327.05 163.201L322.649 165.273M348.853 160.836L351.072 158.502L353.318 158.888L356.086 158.053L358.411 156.515L359.518 155.776L361.558 154.991C361.558 154.991 412.775 153.197 419.765 155.575M419.765 155.575C418.043 156.129 420.233 159.21 418.951 161.078M413.619 173.647L415.994 177.657M413.619 173.647C412.858 176.5 412.027 178.634 411.462 181.157M413.619 173.647L322.649 165.273M415.994 177.657C412.832 186.44 408.584 205.04 416.883 209.175C419.806 210.068 426.436 206.362 429.575 184.388C430.451 178.204 430.722 165.746 424.801 165.39C423.251 165.53 419.663 167.101 417.714 172.262M415.994 177.657L417.994 181.234M417.714 172.262L416.159 166.555C416.802 164.821 417.76 162.813 418.951 161.078M417.714 172.262L419.068 177.236M417.994 181.234L422.213 188.783L419.068 177.236M417.994 181.234C416.324 186.635 414.188 198.155 419 201.023C421.045 200.861 425.492 196.908 426.922 182.386C426.837 176.092 425.148 166.249 419.068 177.236M409.435 211.532C408.816 209.109 408.463 205.897 408.566 201.719M408.566 201.719C402.515 202.682 385.849 203.076 367.6 196.942C361.617 195.063 335.399 185.596 319.153 185.338M408.566 201.719C408.635 198.96 408.901 195.78 409.421 192.127M319.153 185.338C319.153 185.338 319.385 185.752 320.426 186.152M319.153 185.338C318.534 185.319 318.031 185.486 317.375 185.589M319.153 185.338C315.833 185.411 310.107 187.324 307.751 188.732M221.46 174.098C222.559 184.3 226.303 192.536 232.143 193.587C244.389 194.827 274.005 196.947 274.005 196.947C274.005 196.947 277.104 196.764 280.466 197.142C282.048 197.32 284.438 197.847 286.737 197.213C287.472 196.535 288.427 195.842 289.407 195.191M221.46 174.098C223.845 177.3 235.704 185.945 249.098 188.797C262.492 191.649 279.218 191.365 285.906 190.866C297.726 190.689 304.669 188.849 309.71 187.339M221.46 174.098C221.006 169.887 221.002 165.34 221.488 160.826M409.421 192.127C403.014 191.598 387.236 190.54 375.384 190.543C368.894 190.301 352.167 188.491 337.171 183.185C322.174 177.88 305.555 180.424 299.119 182.359C292.737 184.089 277.216 187.268 266.196 186.152C255.175 185.036 246.367 181.508 243.34 179.884C239.624 176.936 227.057 167.774 221.488 160.826M409.421 192.127C409.886 188.861 410.553 185.217 411.462 181.157M221.488 160.826C221.751 158.382 222.157 155.947 222.713 153.58M411.462 181.157L369.675 178.189C364.238 177.7 350.083 175.993 336.962 173.074C332.076 172.273 319.353 170.954 307.553 172.087C303.55 172.293 293.493 170.859 285.289 163.469C280.564 161.54 269.371 158.249 262.398 160.515C256.664 161.051 244.293 161.88 240.686 160.904C237.079 159.928 225.954 155.105 222.713 153.58M222.713 153.58C223.625 149.696 224.94 145.994 226.684 142.731M226.684 142.731C229.146 138.125 232.465 134.394 236.716 132.265C236.716 132.265 278.123 139.784 286.088 141.408C290.679 142.344 297.491 147.96 302.082 152.854C303.308 154.16 304.068 154.954 304.787 155.765M335.624 201.193C335.042 200.447 334.388 200.285 333.153 199.378M335.624 201.193L333.153 199.378M333.153 199.378C332.562 198.498 333.123 197.113 333.047 195.862C332.374 195.426 330.105 194.836 329.628 194.214M329.628 194.214C329.165 193.611 328.976 192.782 328.594 191.941M329.628 194.214L328.594 191.941M328.594 191.941C327.911 191.414 327.279 190.866 326.045 190.353M326.045 190.353C325.367 189.706 324.994 188.854 324.224 188.269M326.045 190.353L324.224 188.269M324.224 188.269C323.794 187.942 323.25 187.383 322.239 187.772M322.239 187.772L320.426 186.152M317.375 185.589C316.559 185.719 315.617 186.472 314.562 187.002M317.375 185.589L314.562 187.002M314.562 187.002C313.213 187.388 311.495 186.805 309.71 187.339M309.71 187.339L307.751 188.732M307.751 188.732C307.014 189.01 305.6 188.956 304.851 189.252M304.851 189.252C304.299 189.47 303.771 190.035 303.1 190.522M304.851 189.252L303.1 190.522M303.1 190.522C300.872 191.014 298.963 192.776 297.267 193.759M300.776 190.395L297.267 193.759M297.267 193.759C295.759 194.38 294.305 193.905 292.867 194.459M292.867 194.459C291.773 194.881 290.437 194.837 289.407 195.191M292.867 194.459L289.407 195.191M287.477 177.665C288.822 175.499 288.745 170.604 277.672 168.358C270.286 167.83 255.114 166.595 253.513 165.878C250.606 165.843 245.589 167.153 248.781 172.671C250.604 180.183 264.236 178.879 264.236 178.879C264.236 178.879 267.872 178.5 272.878 178.717C279.106 178.988 286.113 179.471 287.477 177.665ZM282.111 176.207C283.598 175.42 284.903 173.35 278.224 171.365C273.81 170.625 262.814 169.35 254.144 170.172C252.052 170.753 249.578 172.467 256.409 174.677C257.328 174.919 259.929 175.269 263.427 175.2C265.93 175.15 269.081 174.646 271.537 174.842C275.685 175.174 281.217 177.093 282.111 176.207Z" stroke="black" stroke-linecap="round"/>
<path d="M241.502 2.73156C244.379 4.10907 251.849 11.3911 258.713 29.4992C261.785 37.7797 265.549 55.369 256.024 59.4828C255.987 59.5012 255.949 59.5189 255.91 59.536C254.295 60.2897 215.456 78.5835 202.835 82.6689C191.312 86.3991 190.952 85.8927 185.369 86.5788C184.681 86.6634 184.413 85.5506 183.556 84.7085C182.675 84.3652 182.03 84.5596 180.504 84.4106C179.547 83.9556 179.322 82.4785 178.617 81.4426C177.816 81.4109 175.564 82.0628 174.837 81.7717C174.131 81.4893 173.545 80.873 172.786 80.3456C171.93 80.2408 171.107 80.093 169.784 80.2823C168.871 80.0723 168.115 79.5302 167.155 79.4206C166.617 79.3592 165.864 79.1563 165.194 80.0069C164.996 79.3638 164.401 79.2678 163.831 79.2892C163.438 79.411 163.098 79.4905 162.807 79.5402C161.709 79.7277 161.298 79.4904 161.298 79.4904C158.48 81.2487 154.535 85.8181 153.229 88.2321C152.736 88.8472 151.493 89.5232 151 90.1603C150.637 90.6297 150.472 91.3848 150.144 92.1464C148.48 93.7071 147.739 96.1971 146.782 97.9088C145.803 99.2123 144.31 99.5469 143.357 100.758C142.632 101.679 141.46 102.324 140.756 103.154C140.246 104.215 139.779 105.298 139.493 106.256C137.841 107.975 135.517 108.743 134.066 109.398C130.982 110.79 128.411 112.531 128.411 112.531C128.411 112.531 101.867 125.834 90.7056 131.022C85.1479 133.102 77.7229 127.933 71.5668 119.724C69.0256 116.335 66.7006 112.428 64.8125 108.299C63.7902 106.063 62.896 103.763 62.1649 101.444C60.9652 97.6386 60.2045 93.7845 60.0375 90.0889C59.8017 84.8707 60.7496 79.9685 63.3167 75.9665C63.3167 75.9665 102.756 61.2824 110.433 58.6102C114.858 57.0699 123.583 58.4199 130.03 60.2818C131.751 60.7788 132.81 61.0733 133.842 61.4031C136.794 62.3475 138.027 62.9432 138.027 62.9432L139.878 63.207L141.244 63.9265L144.685 62.2403L147.374 62.1055L150.718 60.5434L154.055 60.4548L156.781 56.4251L161.448 54.6736L163.71 51.8033L166.681 50.1185L168.898 46.4118L172.751 44.8965L174.317 43.256L175.033 40.1162L177.161 39.3015L179.114 37.1697L180.328 34.6595L180.902 33.4586L182.254 31.7426C182.254 31.7426 225.371 4.04035 232.595 2.5156C234.192 0.708611 236.954 0.27558 241.502 2.73156Z" fill="#A46C43"/>
<path d="M116.962 86.0782C127.629 82.3539 130.196 86.5225 130.146 89.0724C129.895 91.3218 123.624 94.4853 118.132 97.4337C113.717 99.8032 110.785 101.986 110.785 101.986C110.785 101.986 99.7307 110.07 94.3272 104.543C88.7639 101.429 92.408 97.7406 94.9255 96.2855C96.6684 96.0844 110.343 89.3969 116.962 86.0782Z" fill="#A46C43"/>
<path d="M256.024 59.4828C265.549 55.369 261.785 37.7797 258.713 29.4992C251.849 11.3911 244.379 4.10907 241.502 2.73156C236.954 0.275579 234.192 0.708611 232.595 2.5156M256.024 59.4828C256.024 59.4828 255.986 59.5009 255.91 59.536M256.024 59.4828C255.987 59.5012 255.949 59.5189 255.91 59.536M255.91 59.536C254.295 60.2897 215.456 78.5835 202.835 82.6689C191.312 86.3991 190.952 85.8927 185.369 86.5788C184.681 86.6634 184.413 85.5506 183.556 84.7085M255.91 59.536C254.278 60.2583 255.585 59.1861 252.294 55.8995M163.831 79.2892C176.691 74.4117 198.587 76.8824 211.478 72.5283C224.369 68.1743 244.995 58.9601 252.294 55.8995M163.831 79.2892C164.401 79.2678 164.996 79.3638 165.194 80.0069M163.831 79.2892C163.438 79.411 163.098 79.4905 162.807 79.5402M138.027 62.9432C130.552 65.9144 116.939 65.8105 98.8097 72.6624C88.6729 76.9087 63.5284 86.8159 60.0375 90.0889M138.027 62.9432L139.878 63.207L141.244 63.9265L144.685 62.2403L147.374 62.1055L150.718 60.5434L154.055 60.4548M138.027 62.9432C138.027 62.9432 136.794 62.3475 133.842 61.4031M138.027 62.9432L133.842 61.4031M174.317 43.256C186.216 34.8957 223.545 11.6608 234.706 7.66171M174.317 43.256L172.751 44.8965L168.898 46.4118L166.681 50.1185L163.71 51.8033L161.448 54.6736L156.781 56.4251L154.055 60.4548M174.317 43.256L175.033 40.1162L177.161 39.3015L179.114 37.1697L180.328 34.6595L180.902 33.4586L182.254 31.7426C182.254 31.7426 225.371 4.04035 232.595 2.5156M232.595 2.5156C231.398 3.87028 234.854 5.40098 234.706 7.66171M236.542 21.1914L240.631 23.4258M236.542 21.1914C237.345 24.0322 237.72 26.2919 238.523 28.7495M236.542 21.1914L154.055 60.4548M240.631 23.4258C242.399 32.5916 248.246 50.7523 257.493 50.0684C260.462 49.3437 264.27 42.7707 255.745 22.2764C253.339 16.512 247.21 5.66287 241.938 8.38117C240.677 9.29364 238.394 12.4767 239.355 17.9093M240.631 23.4258L244.178 25.4797M239.355 17.9093L235.103 13.7968C234.77 11.9774 234.568 9.76183 234.706 7.66171M239.355 17.9093L243.06 21.4934M244.178 25.4797L251.661 29.8141L243.06 21.4934M244.178 25.4797C245.501 30.9761 249.548 41.9708 255.15 41.9784C256.826 40.795 258.63 35.1248 252.442 21.9103C249.154 16.5416 242.675 8.94195 243.06 21.4934M252.294 55.8995C250.524 54.1317 248.581 51.5507 246.535 47.9057M246.535 47.9057C241.824 51.825 227.698 60.6754 208.876 64.7227C202.772 66.1636 175.396 71.4152 161.298 79.4904M246.535 47.9057C245.185 45.4994 243.79 42.6293 242.371 39.2232M161.298 79.4904C161.298 79.4904 161.709 79.7277 162.807 79.5402M161.298 79.4904C160.756 79.7904 160.408 80.1906 159.897 80.6149M161.298 79.4904C158.48 81.2487 154.535 85.8181 153.229 88.2321M71.5668 119.724C77.7229 127.933 85.1479 133.102 90.7056 131.022C101.867 125.834 128.411 112.531 128.411 112.531C128.411 112.531 130.982 110.79 134.066 109.398C135.517 108.743 137.841 107.975 139.493 106.256C139.779 105.298 140.246 104.215 140.756 103.154M71.5668 119.724C75.2522 121.258 89.8639 122.633 102.836 118.244C115.807 113.855 130.042 105.069 135.538 101.224C145.609 95.0346 150.638 89.9071 154.201 86.0342M71.5668 119.724C69.0256 116.335 66.7006 112.428 64.8125 108.299M242.371 39.2232C236.592 42.0409 222.487 49.1901 212.299 55.2454C206.596 58.352 191.291 65.3395 175.688 68.4375C160.086 71.5355 147.097 82.2113 142.552 87.1619C137.948 91.9085 126.229 102.569 116.184 107.239C106.139 111.908 96.7647 113.373 93.3329 113.522C88.6325 112.886 73.1491 111.428 64.8125 108.299M242.371 39.2232C241.103 36.1776 239.815 32.7036 238.523 28.7495M64.8125 108.299C63.7902 106.063 62.896 103.763 62.1649 101.444M238.523 28.7495L201.081 47.5409C196.157 49.8974 183.116 55.6585 170.345 59.8506C165.735 61.6578 154.123 67.0224 144.556 74.0228C141.22 76.2451 131.841 80.1486 121.014 77.985C115.966 78.7399 104.662 81.627 99.825 87.1364C95.1687 90.5265 84.9563 97.5575 81.3569 98.5605C77.7575 99.5634 65.7298 101.099 62.1649 101.444M62.1649 101.444C60.9652 97.6386 60.2045 93.7845 60.0375 90.0889M60.0375 90.0889C59.8017 84.8707 60.7496 79.9685 63.3167 75.9665C63.3167 75.9665 102.756 61.2824 110.433 58.6102C114.858 57.0699 123.583 58.4199 130.03 60.2817C131.751 60.7788 132.81 61.0732 133.842 61.4031M183.556 84.7085C182.675 84.3652 182.03 84.5596 180.504 84.4106M183.556 84.7085L180.504 84.4106M180.504 84.4106C179.547 83.9556 179.322 82.4785 178.617 81.4426C177.816 81.4109 175.564 82.0628 174.837 81.7717M174.837 81.7717C174.131 81.4893 173.545 80.873 172.786 80.3456M174.837 81.7717L172.786 80.3456M172.786 80.3456C171.93 80.2408 171.107 80.093 169.784 80.2823M169.784 80.2823C168.871 80.0723 168.115 79.5302 167.155 79.4206M169.784 80.2823L167.155 79.4206M167.155 79.4206C166.617 79.3592 165.864 79.1563 165.194 80.0069M165.194 80.0069L162.807 79.5402M159.897 80.6149C159.261 81.1428 158.836 82.2719 158.2 83.266M159.897 80.6149L158.2 83.266M158.2 83.266C157.238 84.2868 155.463 84.6628 154.201 86.0342M154.201 86.0342L153.229 88.2321M153.229 88.2321C152.736 88.8472 151.493 89.5232 151 90.1603M151 90.1603C150.637 90.6297 150.472 91.3848 150.144 92.1464M151 90.1603L150.144 92.1464M150.144 92.1464C148.48 93.7071 147.739 96.1971 146.782 97.9088M148.081 93.2244L146.782 97.9088M146.782 97.9088C145.803 99.2123 144.31 99.5469 143.357 100.758M143.357 100.758C142.632 101.679 141.46 102.324 140.756 103.154M143.357 100.758L140.756 103.154M130.146 89.0724C130.196 86.5225 127.629 82.3539 116.962 86.0782C110.343 89.3969 96.6684 96.0844 94.9255 96.2855C92.408 97.7406 88.7639 101.429 94.3272 104.543C99.7307 110.07 110.785 101.986 110.785 101.986C110.785 101.986 113.717 99.8032 118.132 97.4337C123.624 94.4853 129.895 91.3218 130.146 89.0724ZM124.787 90.5593C125.664 89.1232 125.729 86.6773 118.973 88.3818C114.8 90.0002 104.695 94.5206 97.6607 99.655C96.1596 101.223 94.9079 103.961 101.909 102.371C102.823 102.11 105.238 101.083 108.21 99.2363C110.337 97.9153 112.788 95.8718 115 94.7864C118.735 92.9533 124.471 91.7781 124.787 90.5593Z" stroke="black" stroke-linecap="round"/>
<path d="M447.571 216.769C450.434 216.35 458.564 212.06 468.179 198.259C472.516 191.93 479.228 177.748 471.379 171.646C471.349 171.62 471.317 171.594 471.286 171.569C469.965 170.486 454.888 158.134 444.8 150.425C427.463 137.177 409.253 125.62 399.216 118.049C391.8 112.455 377.115 100.728 369.954 94.9875C367.425 92.9596 365.834 91.6786 365.834 91.6786C365.834 91.6786 344.306 73.085 335.178 65.6173C330.538 62.3339 322.846 64.8101 315.731 70.252C312.794 72.4984 309.956 75.2502 307.471 78.3109C306.126 79.968 304.884 81.7155 303.786 83.5224C301.985 86.4874 300.573 89.6123 299.727 92.7591C298.534 97.2024 298.471 101.69 300.042 105.833C300.042 105.833 324.797 123.5 331.244 127.863C337.691 132.225 363.061 153.156 363.061 153.156L385.295 174.061L415.182 196.044C415.182 196.044 433.216 211.321 439.468 214.572C440.574 216.56 442.993 217.673 447.571 216.769Z" fill="#A46C43"/>
<path d="M346.993 109.873C355.949 115.945 359.056 113.032 359.489 110.816C359.685 108.807 354.603 104.396 350.185 100.38C346.635 97.1521 344.39 94.4823 344.39 94.4823C344.39 94.4823 335.903 84.5423 329.974 87.8695C324.353 89.0693 326.959 93.23 328.964 95.1604C330.504 95.8005 341.625 105.236 346.993 109.873Z" fill="#A46C43"/>
<path d="M471.379 171.646C479.228 177.748 472.516 191.93 468.179 198.259C458.564 212.06 450.434 216.35 447.571 216.769C442.993 217.673 440.574 216.56 439.468 214.572M471.379 171.646C471.379 171.646 471.347 171.62 471.286 171.569M471.379 171.646C471.349 171.62 471.317 171.594 471.286 171.569M471.286 171.569C469.965 170.486 454.888 158.134 444.8 150.425C427.463 137.177 409.253 125.62 399.216 118.049C391.8 112.455 377.115 100.728 369.954 94.9875M471.286 171.569C469.943 170.508 467.418 170.199 463.822 172.157M439.468 214.572C433.216 211.321 415.182 196.044 415.182 196.044L385.295 174.061L363.061 153.156C363.061 153.156 337.691 132.225 331.244 127.863C324.797 123.5 300.042 105.833 300.042 105.833C298.471 101.69 298.533 97.2024 299.727 92.7591M439.468 214.572C438.639 213.081 438.548 211.1 438.839 209.107M442.581 198.131L447.164 197.08M442.581 198.131C443.842 195.892 445.067 193.825 446.256 191.918M442.581 198.131L355.125 129.144L440.351 203.916M447.164 197.08C450.486 189.637 459.191 175.519 467.432 178.584C469.984 180.005 472.196 186.7 460.629 202.117C457.368 206.452 449.782 214.18 445.52 210.422C444.55 209.296 443.082 205.936 444.972 201.502M447.164 197.08L450.76 196.255M444.972 201.502L440.351 203.916M444.972 201.502L448.999 199.398M440.351 203.916C439.708 205.398 439.109 207.257 438.839 209.107M450.76 196.255L458.348 194.515L448.999 199.398M450.76 196.255C452.99 191.862 458.719 183.451 463.792 184.944C465.086 186.414 465.654 191.794 457.57 201.549C453.585 205.306 446.293 210.135 448.999 199.398M463.822 172.157C457.79 167.56 443.013 156.564 432.163 149.354C421.312 142.143 408.391 132.311 403.287 128.297C398.151 124.49 386.701 115.652 381.987 110.762C378.564 107.581 371.366 99.9718 369.954 94.9875M463.822 172.157C461.888 173.21 459.644 174.919 457.107 177.519M369.954 94.9875C367.425 92.9596 365.834 91.6786 365.834 91.6786C365.834 91.6786 344.306 73.085 335.178 65.6173C330.538 62.3339 322.846 64.8101 315.731 70.252M457.107 177.519C453.58 172.873 442.455 161.449 426.178 152.916C420.924 150.038 407.605 141.595 396.36 130.848C392.419 127.181 380.96 116.23 366.653 101.765C362.401 96.9739 351.167 85.5759 340.25 78.3139C329.333 71.0518 319.355 69.9134 315.731 70.252M457.107 177.519C455.433 179.236 453.631 181.341 451.707 183.903M315.731 70.252C312.794 72.4984 309.956 75.2502 307.471 78.3109M451.707 183.903C447.005 179.923 435.581 169.973 427.497 162.017C422.919 157.808 410.377 147.677 396.836 140.826C383.295 133.974 373.544 121.278 370.361 115.787C367.085 110.455 358.48 98.1121 350.265 91.3911C342.05 84.6702 333.839 80.8955 330.761 79.8483C326.387 79.1395 315.605 77.8398 307.471 78.3109M451.707 183.903C449.987 186.193 448.168 188.849 446.256 191.918M307.471 78.3109C306.126 79.968 304.884 81.7155 303.786 83.5224M446.256 191.918L415.895 165.668C411.881 162.315 401.159 153.85 390.386 146.811C386.553 144.017 377.05 136.276 369.706 127.67C367.104 124.858 359.348 118.977 349.14 117.947C344.713 115.944 335.024 110.425 331.68 104.373C328.102 100.199 320.179 91.3936 317.11 89.5641C314.04 87.7346 306.948 84.774 303.786 83.5224M303.786 83.5224C301.985 86.4874 300.573 89.6123 299.727 92.7591M438.839 209.107C429.488 202.667 406.625 186.054 389.986 171.127C385.273 167.018 370.86 153.915 350.906 134.377C349.585 132.939 343.164 127.37 328.042 116.601C319.664 110.221 302.272 96.52 299.727 92.7591M359.489 110.816C359.056 113.032 355.949 115.945 346.993 109.873C341.625 105.236 330.504 95.8005 328.964 95.1604C326.959 93.23 324.353 89.0693 329.974 87.8695C335.903 84.5423 344.39 94.4823 344.39 94.4823C344.39 94.4823 346.635 97.1521 350.185 100.38C354.603 104.396 359.685 108.807 359.489 110.816ZM354.918 108.098C355.442 109.573 355.041 111.702 349.246 108.422C345.773 105.908 337.476 99.2994 332.073 92.9825C331.009 91.2269 330.39 88.5274 336.429 91.7742C337.207 92.2437 339.2 93.7776 341.543 96.1676C343.22 97.8777 345.055 100.299 346.853 101.828C349.89 104.411 354.861 106.961 354.918 108.098Z" stroke="black" stroke-linecap="round"/>
</svg>
