<svg width="657.000000" height="388.000000" viewBox="0 0 657 388" fill="none" xmlns="http://www.w3.org/2000/svg" xmlns:xlink="http://www.w3.org/1999/xlink">
	<desc>
			Created with Pixso.
	</desc>
	<defs/>
	<rect id="Rectangle 297" rx="20.000000" width="657.000000" height="388.000000" fill="#F87B21" fill-opacity="1.000000"/>
	<rect id="Rectangle 297" x="0.500000" y="0.500000" rx="20.000000" width="656.000000" height="387.000000" stroke="#000000" stroke-opacity="1.000000" stroke-width="1.000000"/>
	<ellipse id="Ellipse 119" cx="329.000000" cy="194.000000" rx="199.000000" ry="194.000000" fill="#000000" fill-opacity="1.000000"/>
	<path id="Vector" d="M50.83 344.61C42.96 338.8 24.66 312.55 14.44 254.03C9.96 227.31 8.78 172.15 39.85 165.26C39.97 165.22 40.09 165.19 40.22 165.16C40.45 165.1 40.92 164.98 41.61 164.81C56.55 161.01 174.87 130.92 213.47 126.12C250.34 121.53 251.13 123.27 268.35 124.42C270.47 124.57 270.63 128.07 272.73 131.1C275.19 132.65 277.24 132.43 281.75 133.76C283.42 134.99 283.96 137.29 284.52 139.71L284.52 139.71C284.84 141.09 285.17 142.51 285.72 143.79C288.12 144.35 295.28 143.69 297.3 144.99C299.27 146.24 300.68 148.44 302.66 150.47C305.18 151.28 307.57 152.2 311.66 152.39C314.29 153.55 316.26 155.62 319.09 156.5C319.24 156.55 319.4 156.61 319.57 156.66C321.1 157.17 323.07 157.83 325.34 155.87C325.56 157.92 327.3 158.55 329.03 158.82C330.28 158.68 331.35 158.64 332.26 158.65C335.67 158.72 336.77 159.67 336.77 159.67C346.28 156 360.8 144.52 366.13 138C367.97 136.43 372.1 135.11 373.96 133.48C375.32 132.27 376.25 130.09 377.68 127.99C383.6 124.25 387.27 117.17 391.14 112.57C394.84 109.21 399.53 109.06 403.1 105.96C405.82 103.61 409.72 102.34 412.32 100.25C414.47 97.34 416.5 94.35 417.92 91.63C422.86 88.13 428.82 86.86 433.42 85.89C434.37 85.68 435.27 85.49 436.08 85.3C446.17 82.88 454.92 79.13 454.92 79.13C454.92 79.13 542.58 54.37 579.19 45.19C597.14 42.13 616.52 61.99 630.33 90.28C636.03 101.95 640.78 115.07 644.08 128.6C645.87 135.92 647.23 143.37 648.1 150.78C649.52 162.93 649.58 174.98 647.95 186.21C645.65 202.07 639.96 216.29 629.92 226.87C629.92 226.87 502.62 248.33 477.95 251.95C463.73 254.03 438.23 244.93 419.88 235.6C414.98 233.11 411.96 231.61 409.04 230.02C400.69 225.47 397.32 222.96 397.32 222.96L391.9 221.1L388.2 218.14L376.86 221.24L368.68 220.09L357.71 222.86L347.6 221.2L337.06 231.77L321.99 234.35L313.52 241.69L303.6 245.05L294.78 254.94L282.29 257.28L276.63 261.32L272.66 270.36L265.78 271.59L258.66 276.88L253.56 283.75L251.14 287.03L246.07 291.42C246.07 291.42 100.18 349.98 77.54 350.4C71.68 354.93 63.11 354.64 50.83 344.61Z" fill="#A46C43" fill-opacity="1.000000" fill-rule="evenodd"/>
	<path id="Vector" d="M409.04 230.02L397.32 222.96L391.9 221.1L388.2 218.14L376.86 221.24L368.68 220.09L357.71 222.86L347.6 221.2L76.43 291.86L65.4 282.77L55.9 274.53L35.86 257.16L56.97 287.19L66.06 300.13L76.49 314.97C76.45 320.64 75.78 327.44 74.15 333.68C72.4 340.41 81.93 347.01 77.54 350.4C71.68 354.93 63.11 354.64 50.83 344.61C42.96 338.8 24.66 312.55 14.44 254.03C9.96 227.31 8.78 172.15 39.85 165.26C39.85 165.26 39.97 165.22 40.22 165.16C45.52 163.82 173.09 131.14 213.47 126.12C250.34 121.53 251.13 123.27 268.35 124.42C270.47 124.57 270.63 128.07 272.73 131.1C275.19 132.65 277.24 132.43 281.75 133.76C284.37 135.69 284.2 140.27 285.72 143.79C288.12 144.35 295.28 143.69 297.3 144.99C299.27 146.24 300.68 148.44 302.66 150.47M336.77 159.67C346.28 156 360.8 144.52 366.13 138C367.97 136.43 372.1 135.11 373.96 133.48C375.32 132.27 376.25 130.09 377.68 127.99C383.6 124.25 387.27 117.17 391.14 112.57C394.84 109.21 399.53 109.06 403.1 105.96C405.82 103.61 409.72 102.34 412.32 100.25C414.47 97.34 416.5 94.35 417.92 91.63C423.89 87.4 431.33 86.43 436.08 85.3C446.17 82.88 454.92 79.13 454.92 79.13C454.92 79.13 542.58 54.37 579.19 45.19C597.14 42.13 616.52 61.99 630.33 90.28C636.03 101.95 640.78 115.07 644.08 128.6C645.87 135.92 647.23 143.37 648.1 150.78C649.52 162.93 649.58 174.98 647.95 186.21C645.65 202.07 639.96 216.29 629.92 226.87C629.92 226.87 502.62 248.33 477.95 251.95C463.73 254.03 438.23 244.93 419.88 235.6C414.98 233.11 411.96 231.61 409.04 230.02C400.69 225.47 397.32 222.96 397.32 222.96M276.63 261.32L272.66 270.36L265.78 271.59L258.66 276.88L253.56 283.75L251.14 287.03L246.07 291.42C246.07 291.42 100.18 349.98 77.54 350.4M65.4 282.77C65.37 254.14 58.24 196.05 29.99 192.77C20.62 193.24 5.36 210.84 19.2 277.51C23.12 296.26 35.33 332.48 52.78 327.34C57.1 325.32 65.82 317.05 66.06 300.13M55.9 274.53C55.09 257.21 49.25 221.75 32.37 218.5C26.64 221.09 17.93 237.13 28.94 280.52C35.75 298.59 50.88 325.22 56.97 287.19M39.85 165.26C39.97 165.22 40.09 165.19 40.22 165.16M40.22 165.16C45.56 163.93 41 166.4 49.02 178.21C53.33 184.55 57.69 193.45 61.75 205.61C64.43 213.64 66.97 223.09 69.28 234.17C71.34 244.08 73.22 255.29 74.83 267.95C75.83 275.82 75.65 282.84 76.43 291.86M49.02 178.21C72.77 173.2 140.23 157.35 181.58 151.67C222.93 146 287.47 166.09 329.03 158.82C330.28 158.68 331.35 158.64 332.26 158.65C335.67 158.72 336.77 159.67 336.77 159.67M61.75 205.61C78.2 196.53 125.87 178.02 184.91 176.69C204.13 175.88 289.64 175.86 336.77 159.67C338.58 159.09 339.86 158.08 341.64 157.1C343.86 155.87 345.8 152.72 348.29 150.09M341.64 157.1L348.29 150.09C351.77 147.57 357.34 147.46 361.93 144.06C374.9 134.45 393.01 121.91 426.93 109.07C445.7 100.66 493.66 82.41 535.27 76.68C576.89 70.95 620.11 83.53 630.33 90.28M69.28 234.17C88.32 229.02 134.94 215.63 169.13 203.27C188.1 197.2 238.25 184.99 287.04 184.66C335.83 184.34 381.13 159.68 397.68 147.39C414.29 135.75 455.75 110.4 488.7 102.13C521.66 93.86 550.75 94.86 561.18 96.39C574.97 101.02 620.77 114.36 644.08 128.6M74.83 267.95L198.47 232.96C214.67 228.7 257.28 218.87 298.18 213.62C313.11 210.84 351.19 201.38 384.05 185.81C395.39 181.05 425.89 174.7 457.27 187.47C472.91 188.11 508.63 185.94 526.38 172.14C542.37 164.61 577.19 149.33 588.62 148.38C600.04 147.44 637.16 149.76 648.1 150.78M74.15 333.68C110.08 328.08 235.96 279.63 276.63 261.32L282.29 257.28L294.78 254.94L303.6 245.05L313.52 241.69L321.99 234.35L337.06 231.77L347.6 221.2M397.32 222.96C421.56 218.33 462.51 226.5 521.08 216.33C554.07 209.39 635.54 194.06 647.95 186.21M474.14 165.43C496 159.25 541.06 147 546.43 147.4C554.85 144.47 567.96 135.46 552.99 122.87C539.91 103.1 501.94 121.07 501.94 121.07C501.94 121.07 491.84 125.95 477.18 130.54C458.93 136.25 438.21 142.16 436.15 148.8C434.53 156.45 439.86 170.49 474.14 165.43ZM469.42 157.33C482.92 154.86 515.97 147.08 540.13 135.67C545.56 131.81 550.91 124.29 528.9 125.04C526 125.29 518.13 127 508.11 130.84C500.94 133.59 492.37 138.33 485.08 140.33C472.77 143.69 454.81 143.92 453.16 147.41C449.69 151.23 448.08 158.56 469.42 157.33ZM272.73 131.1L281.75 133.76M297.3 144.99L302.66 150.47C305.18 151.28 307.57 152.2 311.66 152.39C314.29 153.55 316.26 155.62 319.09 156.5C320.67 157 322.82 158.05 325.34 155.87L332.26 158.65M311.66 152.39L319.09 156.5M325.34 155.87C325.56 157.92 327.3 158.55 329.03 158.82M361.93 144.06L366.13 138M373.96 133.48L377.68 127.99M384.52 125.93L391.14 112.57M403.1 105.96L412.32 100.25" stroke="#000000" stroke-opacity="1.000000" stroke-width="1.000000" stroke-linecap="round"/>
	<mask id="mask_667_1274" fill="white">
		<path id="Subtract" d="M242 1L247.25 192.778C247.519 198.512 251.784 202.999 256.622 202.999L308.961 202.999C313.886 202.999 318.012 198.621 318.165 192.778L324.939 1L242 1Z" clip-rule="evenodd" fill="" fill-opacity="1.000000" fill-rule="evenodd"/>
	</mask>
	<path id="Subtract" d="M242 1L247.25 192.778C247.519 198.512 251.784 202.999 256.622 202.999L308.961 202.999C313.886 202.999 318.012 198.621 318.165 192.778L324.939 1L242 1Z" clip-rule="evenodd" fill="#FFFFFF" fill-opacity="1.000000" fill-rule="evenodd" mask="url(#mask_667_1274)"/>
	<path id="Subtract" d="M242.055 3L242 1L324.939 1L324.869 3L318.165 192.778C318.012 198.621 313.886 202.999 308.961 202.999L256.622 202.999C251.784 202.999 247.519 198.512 247.25 192.778L242.055 3ZM244.055 3L249.249 192.723Q249.347 194.818 250.201 196.538Q250.774 197.693 251.688 198.679Q253.187 200.295 254.991 200.785Q255.777 200.999 256.622 200.999L308.961 200.999Q310.05 200.999 311.026 200.667Q312.598 200.131 313.875 198.731Q314.529 198.015 314.997 197.192Q316.1 195.254 316.166 192.726L322.867 3L244.055 3Z" clip-rule="evenodd" fill="#000000" fill-opacity="1.000000" fill-rule="evenodd"/>
	<mask id="mask_667_1280" fill="white">
		<path id="Subtract" d="M332 0.999939L337.249 192.76C337.518 198.494 341.783 202.981 346.622 202.981L398.96 202.981C403.885 202.981 408.012 198.603 408.165 192.76L414.938 0.999939L332 0.999939Z" clip-rule="evenodd" fill="" fill-opacity="1.000000" fill-rule="evenodd"/>
	</mask>
	<path id="Subtract" d="M332 0.999939L337.249 192.76C337.518 198.494 341.783 202.981 346.622 202.981L398.96 202.981C403.885 202.981 408.012 198.603 408.165 192.76L414.938 0.999939L332 0.999939Z" clip-rule="evenodd" fill="#FFFFFF" fill-opacity="1.000000" fill-rule="evenodd" mask="url(#mask_667_1280)"/>
	<path id="Subtract" d="M332.055 2.99994L332 0.999939L414.938 0.999939L414.868 2.99994L408.165 192.76C408.012 198.603 403.885 202.981 398.96 202.981L346.622 202.981C341.783 202.981 337.518 198.494 337.249 192.76L332.055 2.99994ZM334.055 2.99994L339.248 192.705Q339.347 194.8 340.201 196.52Q340.774 197.675 341.688 198.661Q343.187 200.277 344.991 200.767Q345.777 200.981 346.622 200.981L398.96 200.981Q400.048 200.981 401.023 200.649Q402.596 200.113 403.875 198.713Q404.53 197.996 404.997 197.173Q406.099 195.235 406.165 192.707L412.866 2.99994L334.055 2.99994Z" clip-rule="evenodd" fill="#000000" fill-opacity="1.000000" fill-rule="evenodd"/>
	<mask id="mask_667_1283" fill="white">
		<path id="Subtract" d="M323.938 387.981L318.689 208.564C318.421 203.198 314.155 199 309.316 199L256.979 199C252.054 199 247.927 203.097 247.774 208.564L241 387.981L323.938 387.981Z" clip-rule="evenodd" fill="" fill-opacity="1.000000" fill-rule="evenodd"/>
	</mask>
	<path id="Subtract" d="M323.938 387.981L318.689 208.564C318.421 203.198 314.155 199 309.316 199L256.979 199C252.054 199 247.927 203.097 247.774 208.564L241 387.981L323.938 387.981Z" clip-rule="evenodd" fill="#FFFFFF" fill-opacity="1.000000" fill-rule="evenodd" mask="url(#mask_667_1283)"/>
	<path id="Subtract" d="M323.88 385.981L323.938 387.981L241 387.981L241.076 385.981L247.774 208.564C247.927 203.097 252.054 199 256.979 199L309.316 199C314.155 199 318.421 203.198 318.689 208.564L323.88 385.981ZM321.879 385.981L316.69 208.622Q316.66 208.026 316.547 207.445Q316.364 206.513 315.966 205.622Q315.589 204.779 315.051 204.055Q314.707 203.592 314.296 203.178Q313.462 202.336 312.463 201.805Q312.226 201.679 311.979 201.57Q311.071 201.17 310.128 201.051Q309.725 201 309.316 201L256.979 201Q256.275 201 255.601 201.14Q254.926 201.28 254.28 201.56Q253.882 201.733 253.511 201.952Q252.7 202.43 252.019 203.129Q251.707 203.448 251.436 203.799Q250.828 204.589 250.428 205.539Q250.31 205.818 250.214 206.105Q249.81 207.3 249.773 208.62L243.077 385.981L321.879 385.981Z" clip-rule="evenodd" fill="#000000" fill-opacity="1.000000" fill-rule="evenodd"/>
	<mask id="mask_667_1277" fill="white">
		<path id="Subtract" d="M414.939 387.999L409.689 208.564C409.421 203.198 405.155 199 400.317 199L347.979 199C343.054 199 338.928 203.097 338.774 208.564L332 387.999L414.939 387.999Z" clip-rule="evenodd" fill="" fill-opacity="1.000000" fill-rule="evenodd"/>
	</mask>
	<path id="Subtract" d="M414.939 387.999L409.689 208.564C409.421 203.198 405.155 199 400.317 199L347.979 199C343.054 199 338.928 203.097 338.774 208.564L332 387.999L414.939 387.999Z" clip-rule="evenodd" fill="#FFFFFF" fill-opacity="1.000000" fill-rule="evenodd" mask="url(#mask_667_1277)"/>
	<path id="Subtract" d="M414.881 385.999L414.939 387.999L332 387.999L332.076 385.999L338.774 208.564C338.928 203.097 343.054 199 347.979 199L400.317 199C405.155 199 409.421 203.198 409.689 208.564L414.881 385.999ZM412.88 385.999L407.69 208.622Q407.66 208.023 407.546 207.441Q407.364 206.511 406.967 205.622Q406.59 204.779 406.052 204.055Q405.708 203.592 405.297 203.178Q404.463 202.336 403.464 201.805Q403.227 201.679 402.979 201.57Q402.061 201.166 401.106 201.048Q400.715 201 400.317 201L347.979 201Q347.275 201 346.601 201.14Q345.926 201.28 345.28 201.56Q344.882 201.733 344.511 201.952Q343.7 202.43 343.019 203.129Q342.707 203.448 342.436 203.799Q341.828 204.589 341.428 205.539Q341.31 205.819 341.213 206.105Q340.81 207.301 340.773 208.62L334.076 385.999L412.88 385.999Z" clip-rule="evenodd" fill="#000000" fill-opacity="1.000000" fill-rule="evenodd"/>
</svg>
