<svg width="657.000000" height="388.000244" viewBox="0 0 657 388" fill="none" xmlns="http://www.w3.org/2000/svg" xmlns:xlink="http://www.w3.org/1999/xlink">
	<desc>
			Created with Pixso.
	</desc>
	<defs/>
	<rect id="Rectangle 297" y="0.000244" rx="20.000000" width="657.000000" height="388.000000" fill="#F87B21" fill-opacity="1.000000"/>
	<rect id="Rectangle 297" x="0.500000" y="0.500244" rx="20.000000" width="656.000000" height="387.000000" stroke="#000000" stroke-opacity="1.000000" stroke-width="1.000000"/>
	<ellipse id="Ellipse 119" cx="329.000000" cy="194.000244" rx="199.000000" ry="194.000000" fill="#000000" fill-opacity="1.000000"/>
	<path id="Vector" d="M12.53 256.55C25.21 312.4 44.71 337.33 52.88 342.81C65.66 352.28 74.31 352.48 80.02 348.1C102.82 347.48 175.59 327.87 175.59 327.87L292.22 305.44L384.41 275C384.41 275 486.12 249.1 510.82 245.41C535.53 241.72 631.49 224.77 631.49 224.77C641.18 214.57 646.33 200.92 648.01 185.73C649.19 174.98 648.64 163.46 646.71 151.85C645.54 144.78 643.86 137.67 641.76 130.68C637.89 117.78 632.57 105.28 626.35 94.17C611.29 67.26 590.96 48.45 573 51.54C536.48 60.67 449.19 85.16 449.19 85.16C449.19 85.16 442.85 86.69 432.78 89.1C404.27 95.9 345.86 109.72 316.75 115.71C277.36 123.81 208.48 131.92 140.23 146.43C100.52 154.88 40.18 170.01 34.89 171.34C34.77 171.36 34.64 171.4 34.52 171.43C3.5 178.31 6.93 231.05 12.53 256.55Z" fill="#A46C43" fill-opacity="1.000000" fill-rule="evenodd"/>
	<path id="Vector" d="M90.03 314.6L437.01 214.13L90.17 293.84L77.54 283.92L67.64 276.14L46.74 259.71L69.23 288.23L78.92 300.51L90.03 314.6C90.21 320.03 89.82 326.53 88.43 332.52C86.94 338.96 84.3 344.82 80.02 348.1C74.31 352.48 65.66 352.28 52.88 342.81C44.71 337.33 25.21 312.4 12.53 256.55C6.93 231.05 3.5 178.31 34.52 171.43C34.52 171.43 34.65 171.4 34.89 171.34C40.18 170.01 100.52 154.88 140.23 146.43C208.48 131.92 277.36 123.81 316.75 115.71C345.86 109.72 404.27 95.9 432.78 89.1C442.85 86.69 449.19 85.16 449.19 85.16C449.19 85.16 536.48 60.67 573 51.54C590.96 48.45 611.29 67.26 626.35 94.17C632.57 105.28 637.89 117.78 641.76 130.68C643.86 137.67 645.54 144.78 646.71 151.85C648.64 163.46 649.19 174.98 648.01 185.73C646.33 200.92 641.18 214.57 631.49 224.77C631.49 224.77 535.53 241.72 510.82 245.41C486.12 249.1 384.41 275 384.41 275L292.22 305.44L175.59 327.87C175.59 327.87 102.82 347.48 80.02 348.1M77.54 283.92C76.35 256.54 66.8 201.07 38.21 198.2C28.79 198.74 14.13 215.71 30.79 279.32C35.5 297.22 49.27 331.74 66.64 326.65C70.92 324.68 79.36 316.69 78.92 300.51M67.64 276.14C66.12 259.58 58.79 225.73 41.66 222.78C35.99 225.31 27.87 240.73 40.73 282.11C48.32 299.32 64.64 324.65 69.23 288.23M34.52 171.43C34.64 171.4 34.77 171.36 34.89 171.34M34.89 171.34C40.22 170.11 48.23 172.89 56.79 184.1C61.39 190.13 66.15 198.59 70.73 210.18C73.75 217.83 76.7 226.85 79.48 237.42C81.96 246.87 84.3 257.57 86.44 269.66C87.77 277.17 89.01 285.22 90.17 293.84M56.79 184.1C80.52 179.09 138.33 167.61 179.76 161.8C221.19 155.98 272 145.29 292.23 140.68C312.31 136.73 357.49 126.89 377.58 119.05C391.72 114.47 422.57 102.08 432.78 89.1M70.73 210.18C86.94 201.34 134.21 183.19 193.63 181.37C212.96 180.41 263.33 174.5 310.16 158.58C326.46 153.3 374.18 137.08 434.7 114.43C453.28 106.22 500.85 88.31 542.54 82.44C584.23 76.57 615.78 87.81 626.35 94.17M79.48 237.42C98.45 232.31 144.87 219.07 178.81 206.93C197.68 200.95 247.7 188.8 296.85 188.03C345.99 187.26 390.62 163.25 406.79 151.34C423.05 140.06 463.79 115.43 496.66 107.21C529.52 99 558.87 99.68 569.43 101.04C583.52 105.34 617.7 117.28 641.76 130.68M86.44 269.66L209.58 235.04C225.73 230.82 268.26 221.02 309.25 215.61C324.18 212.81 362.15 203.41 394.63 188.21C405.85 183.55 436.33 177.19 468.45 189.11C484.24 189.57 520.14 187.16 537.46 173.79C553.26 166.45 587.72 151.5 599.19 150.49C610.66 149.48 635.65 150.98 646.71 151.85M88.43 332.52C124.4 326.82 213.38 310.28 281.52 289.67C300.67 284.19 359.9 265.81 443.55 236.15C449.26 233.75 475.33 226.38 533.92 216.09C566.88 209.15 635.83 193.35 648.01 185.73M484.56 167.87C506.33 161.76 551.23 149.62 556.65 149.95C565.02 147.07 577.86 138.34 562.27 126.44C548.28 107.66 510.76 125.2 510.76 125.2C510.76 125.2 500.79 129.96 486.2 134.49C468.05 140.12 447.41 145.97 445.61 152.33C444.29 159.66 450.23 173.03 484.56 167.87ZM479.47 160.17C492.98 157.69 525.96 149.93 549.83 138.8C555.14 135.06 560.23 127.81 538.08 128.74C535.17 129.01 527.31 130.71 517.37 134.48C510.26 137.18 501.82 141.79 494.56 143.77C482.3 147.1 464.21 147.49 462.69 150.84C459.34 154.53 458.02 161.55 479.47 160.17Z" stroke="#000000" stroke-opacity="1.000000" stroke-width="2.000000"/>
	<mask id="mask_695_2416" fill="white">
		<path id="Subtract" d="M242.489 0L249.087 129.119C249.355 134.666 253.621 139.007 258.46 139.007L310.798 139.007C315.723 139.007 319.85 134.771 320.002 129.119L325.234 0L242.489 0Z" clip-rule="evenodd" fill="" fill-opacity="1.000000" fill-rule="evenodd"/>
	</mask>
	<path id="Subtract" d="M242.489 0L249.087 129.119C249.355 134.666 253.621 139.007 258.46 139.007L310.798 139.007C315.723 139.007 319.85 134.771 320.002 129.119L325.234 0L242.489 0Z" clip-rule="evenodd" fill="#FFFFFF" fill-opacity="1.000000" fill-rule="evenodd" mask="url(#mask_695_2416)"/>
	<path id="Subtract" d="M242.591 2L242.489 0L325.234 0L325.153 2L320.002 129.119C319.85 134.771 315.723 139.007 310.798 139.007L258.46 139.007C253.621 139.007 249.355 134.666 249.087 129.119L242.591 2ZM244.594 2L251.084 129.017Q251.18 130.992 251.985 132.614Q252.562 133.777 253.503 134.759Q254.944 136.263 256.675 136.76Q257.532 137.007 258.46 137.007L310.798 137.007Q311.985 137.007 313.036 136.629Q314.521 136.096 315.735 134.81Q316.473 134.028 316.972 133.115Q317.942 131.338 318.003 129.065L323.151 2L244.594 2Z" clip-rule="evenodd" fill="#000000" fill-opacity="1.000000" fill-rule="evenodd"/>
	<mask id="mask_695_2419" fill="white">
		<path id="Subtract" d="M332.489 0L339.087 129.119C339.355 134.666 343.621 139.007 348.46 139.007L400.798 139.007C405.723 139.007 409.85 134.771 410.002 129.119L415.234 0L332.489 0Z" clip-rule="evenodd" fill="" fill-opacity="1.000000" fill-rule="evenodd"/>
	</mask>
	<path id="Subtract" d="M332.489 0L339.087 129.119C339.355 134.666 343.621 139.007 348.46 139.007L400.798 139.007C405.723 139.007 409.85 134.771 410.002 129.119L415.234 0L332.489 0Z" clip-rule="evenodd" fill="#FFFFFF" fill-opacity="1.000000" fill-rule="evenodd" mask="url(#mask_695_2419)"/>
	<path id="Subtract" d="M332.591 2L332.489 0L415.234 0L415.153 2L410.002 129.119C409.85 134.771 405.723 139.007 400.798 139.007L348.46 139.007C343.621 139.007 339.355 134.666 339.087 129.119L332.591 2ZM334.594 2L341.084 129.017Q341.18 130.992 341.985 132.614Q342.562 133.777 343.503 134.759Q344.944 136.263 346.675 136.76Q347.532 137.007 348.46 137.007L400.798 137.007Q401.985 137.007 403.036 136.629Q404.521 136.096 405.735 134.81Q406.473 134.028 406.972 133.115Q407.942 131.338 408.003 129.065L413.151 2L334.594 2Z" clip-rule="evenodd" fill="#000000" fill-opacity="1.000000" fill-rule="evenodd"/>
	<mask id="mask_695_2423" fill="white">
		<path id="Subtract" d="M414.49 387.007L407.893 257.888C407.624 252.34 403.358 248 398.52 248L346.182 248C341.257 248 337.13 252.236 336.978 257.888L331.745 387.007L414.49 387.007Z" clip-rule="evenodd" fill="" fill-opacity="1.000000" fill-rule="evenodd"/>
	</mask>
	<path id="Subtract" d="M414.49 387.007L407.893 257.888C407.624 252.34 403.358 248 398.52 248L346.182 248C341.257 248 337.13 252.236 336.978 257.888L331.745 387.007L414.49 387.007Z" clip-rule="evenodd" fill="#FFFFFF" fill-opacity="1.000000" fill-rule="evenodd" mask="url(#mask_695_2423)"/>
	<path id="Subtract" d="M414.388 385.007L414.49 387.007L331.745 387.007L331.826 385.007L336.978 257.888C337.13 252.236 341.257 248 346.182 248L398.52 248C403.358 248 407.624 252.34 407.893 257.888L414.388 385.007ZM412.386 385.007L405.896 257.99Q405.8 256.015 404.995 254.393Q404.418 253.23 403.477 252.248Q402.035 250.744 400.304 250.246Q399.447 250 398.52 250L346.182 250Q344.995 250 343.943 250.378Q342.458 250.911 341.244 252.197Q340.506 252.979 340.008 253.892Q339.038 255.669 338.977 257.942L333.828 385.007L412.386 385.007Z" clip-rule="evenodd" fill="#000000" fill-opacity="1.000000" fill-rule="evenodd"/>
	<mask id="mask_695_2426" fill="white">
		<path id="Subtract" d="M324.746 387.007L318.148 257.888C317.88 252.34 313.614 248 308.775 248L256.438 248C251.513 248 247.386 252.236 247.233 257.888L242.001 387.007L324.746 387.007Z" clip-rule="evenodd" fill="" fill-opacity="1.000000" fill-rule="evenodd"/>
	</mask>
	<path id="Subtract" d="M324.746 387.007L318.148 257.888C317.88 252.34 313.614 248 308.775 248L256.438 248C251.513 248 247.386 252.236 247.233 257.888L242.001 387.007L324.746 387.007Z" clip-rule="evenodd" fill="#FFFFFF" fill-opacity="1.000000" fill-rule="evenodd" mask="url(#mask_695_2426)"/>
	<path id="Subtract" d="M324.644 385.007L324.746 387.007L242.001 387.007L242.082 385.007L247.233 257.888C247.386 252.236 251.513 248 256.438 248L308.775 248C313.614 248 317.88 252.34 318.148 257.888L324.644 385.007ZM322.642 385.007L316.151 257.99Q316.056 256.015 315.251 254.393Q314.674 253.23 313.732 252.248Q312.291 250.744 310.56 250.246Q309.703 250 308.775 250L256.438 250Q255.251 250 254.199 250.378Q252.714 250.911 251.5 252.197Q250.762 252.979 250.264 253.892Q249.294 255.669 249.232 257.942L244.084 385.007L322.642 385.007Z" clip-rule="evenodd" fill="#000000" fill-opacity="1.000000" fill-rule="evenodd"/>
</svg>
