<svg width="657" height="1533" viewBox="0 0 657 1533" fill="none" xmlns="http://www.w3.org/2000/svg">
<rect x="0.5" y="0.5" width="656" height="391" rx="19.5" fill="#FFD527" stroke="black"/>
<path d="M444 219H459V391.484H444V219Z" fill="#D9D9D9" stroke="black"/>
<path d="M167 219H182V391.484H167V219Z" fill="#D9D9D9" stroke="black"/>
<path d="M313.268 239.557L434.507 20.1456C443.704 9.01531 454.77 15.508 458.023 20.1456L577.871 239.557C581.342 248.495 576.136 255.297 571.365 256H322.377C314.222 254.482 312.184 243.352 313.268 239.557Z" fill="#F87B21" stroke="black" stroke-width="4"/>
<path fill-rule="evenodd" clip-rule="evenodd" d="M421.402 65.0663C428.698 61.1723 448.339 55.4662 467.499 66.0863C468.701 69.6262 470.95 82.9188 470.332 107.77L464.924 137.506C464.666 139.276 465.593 146.958 471.362 167.773C471.104 181.667 471.98 210.731 477.542 215.828C477.8 216.89 480.272 220.289 488.101 225.386C489.989 226.625 493.87 229.528 494.282 231.227C497.286 233.174 502.728 237.546 500.462 239.458C499.861 241.051 496.548 243.281 488.101 239.458C485.869 238.485 481.251 236.166 480.633 234.679C477.628 233.086 470.744 229.847 467.241 229.634C465.353 230.165 462.863 233.925 467.241 241.051C467.756 243.483 462.091 250.344 454.623 245.034C450.502 241.317 442.519 230.962 442.004 231.227C440.029 230.873 430.157 235.21 427.067 236.538C422.947 237.334 412.594 238.12 400.027 242.155L382 242.379C382.343 240.963 386.223 236.431 398.997 229.634C402.173 227.599 408.886 220.767 410.328 209.722C411.358 207.598 413.47 197.456 413.676 173.879C424.492 168.835 445.867 154.764 446.897 144.674C447.412 139.63 447.051 129.381 438.398 119.186C436.681 116.974 432.475 112.814 426.295 107.77C426.81 107.239 425.264 112.591 422.174 74.6243C421.245 63.2078 421.402 65.0663 421.402 65.0663ZM449.214 132.196C444.888 118.602 434.02 110.248 429.127 107.77C431.394 100.336 441.403 108.389 446.124 113.345C449.214 105.699 454.451 110.159 456.683 113.345C463.481 105.486 465.524 108.52 465.439 110.998C463.893 118.432 461.061 132.196 461.061 139.099L463.378 155.295L466.469 170.959C455.138 161.825 450.76 169.454 449.987 174.41C452.047 176.711 454.777 179.826 449.214 173.879C443.652 167.932 437.282 174.41 434.793 178.393C431.909 172.87 422.26 173.083 417.796 173.879C432.836 166.87 442.948 156.799 446.124 152.639C450.451 147.329 449.987 136.798 449.214 132.196Z" fill="black"/>
<path d="M400.027 242.155C412.594 238.12 422.947 237.334 427.067 236.538C430.157 235.21 440.029 230.873 442.004 231.227C442.519 230.962 450.502 241.317 454.623 245.034C462.091 250.344 467.756 243.483 467.241 241.051C462.863 233.925 465.353 230.165 467.241 229.634C470.744 229.847 477.628 233.086 480.633 234.679C481.251 236.166 485.869 238.485 488.101 239.458C496.548 243.281 499.861 241.051 500.462 239.458C502.728 237.546 497.286 233.175 494.282 231.227C493.87 229.528 489.989 226.625 488.101 225.386C480.272 220.289 477.8 216.89 477.542 215.828C471.98 210.731 471.104 181.667 471.362 167.773C465.593 146.958 464.666 139.276 464.924 137.506L470.332 107.77C470.95 82.9188 468.701 69.6262 467.499 66.0863C448.339 55.4662 428.698 61.1723 421.402 65.0663C421.402 65.0663 421.245 63.2078 422.174 74.6243C425.264 112.591 426.81 107.239 426.295 107.77C432.475 112.814 436.681 116.974 438.398 119.186C447.051 129.381 447.412 139.63 446.897 144.674C445.867 154.764 424.492 168.835 413.676 173.879C413.47 197.456 411.358 207.598 410.328 209.722C408.886 220.767 402.173 227.599 398.997 229.634C386.223 236.431 382.343 240.963 382 242.379M400.027 242.155C398.997 242.486 394.361 242.379 382 242.379M400.027 242.155L382 242.379M429.127 107.77C434.02 110.248 444.888 118.602 449.214 132.196C449.987 136.798 450.451 147.329 446.124 152.639C442.948 156.799 432.836 166.87 417.796 173.879C422.26 173.083 431.909 172.87 434.793 178.393C437.282 174.41 443.652 167.932 449.214 173.879C454.777 179.826 452.047 176.711 449.987 174.41C450.76 169.454 455.138 161.825 466.469 170.959L463.378 155.295L461.061 139.099C461.061 132.196 463.893 118.432 465.439 110.998C465.524 108.52 463.481 105.486 456.683 113.345C454.451 110.159 449.214 105.699 446.124 113.345C441.403 108.389 431.394 100.336 429.127 107.77Z" stroke="black"/>
<path d="M167 132H182V302.121H167V132Z" fill="#D9D9D9"/>
<path d="M167 2101H182M167 132H182V302.121H167V132Z" stroke="black"/>
<path d="M47.7865 286.962L158 88.4972C166 74.5035 186.5 74.4993 193.5 88.496L301.5 284.999C307.59 297.73 302.786 313.462 285.5 313.462H63.2863C44.2866 311.463 44.2865 293.463 47.7865 286.962Z" fill="white" stroke="black" stroke-width="2"/>
<path d="M152.604 226.727L240.082 279.251C240.082 282.998 229.997 285.05 224.955 285.607C215.483 288.819 215.089 297.874 216.075 302H255.154H279.019C279.019 302 287.385 302 288.789 300.671C290.296 299.244 290.66 297.911 290.66 297.911L293 289.631L272 252.78C267.527 251.174 262.501 252.79 261.13 255.498C256.657 264.33 251.593 269.438 249.62 270.887L148 210L152.604 226.727Z" fill="black" stroke="black" stroke-width="5"/>
<path d="M93.2471 250.229C98.9848 246.149 116.471 253.751 124.497 258.062C104.825 211.865 144.989 188.536 167.529 182.646C162.885 169.821 170.489 171.837 174.872 174.448C177.468 172.991 181.19 171.412 182.727 170.805C191.47 169.347 199.576 170.197 202.536 170.805C207.317 171.971 209.879 175.298 210.562 176.816C212.065 179.439 213.935 180.462 216.709 180.642C222.345 181.006 222.515 191.936 216.709 192.665V199.587L208.683 199.405V193.575C205.815 195.033 199.405 194.183 196.559 193.575C197.789 195.761 202.536 198.373 204.756 199.405C192.734 214.124 198.836 228.248 203.39 233.47C208.581 236.822 207.488 240.574 206.293 242.032C202.058 247.278 191.436 239.846 186.655 235.474C190.07 249.756 180.223 261.341 174.872 265.349C189.49 257.771 194.396 267.292 195.022 273H76C77.6393 257.261 88.1811 251.262 93.2471 250.229Z" fill="black"/>
<path d="M57.5785 285.57L162.078 98.0689C169.578 83.0698 182.578 83.0689 190.578 99.5687L293.078 285.57C298.578 297.069 293.078 305.57 282.078 305.57H69.0785C53.0786 305.57 53.0785 293.07 57.5785 285.57Z" stroke="#F33332" stroke-width="7"/>
</svg>
