<svg width="657.000000" height="392.000000" viewBox="0 0 657 392" fill="none" xmlns="http://www.w3.org/2000/svg" xmlns:xlink="http://www.w3.org/1999/xlink">
	<desc>
			Created with Pixso.
	</desc>
	<defs/>
	<rect id="Rectangle 299" rx="20.000000" width="657.000000" height="392.000000" fill="#FFDE25" fill-opacity="1.000000"/>
	<rect id="Rectangle 299" x="0.500000" y="0.500000" rx="20.000000" width="656.000000" height="391.000000" stroke="#000000" stroke-opacity="1.000000" stroke-width="1.000000"/>
	<path id="Vector 20685" d="M438 219L453 219L453 391.48L438 391.48L438 219Z" fill="#D9D9D9" fill-opacity="1.000000" fill-rule="nonzero"/>
	<path id="Vector 20685" d="M438 219L438 391.48L453 391.48L453 219L438 219Z" stroke="#000000" stroke-opacity="1.000000" stroke-width="1.000000"/>
	<path id="Vector 20724" d="M167 219L182 219L182 391.48L167 391.48L167 219Z" fill="#D9D9D9" fill-opacity="1.000000" fill-rule="nonzero"/>
	<path id="Vector 20724" d="M167 219L167 391.48L182 391.48L182 219L167 219Z" stroke="#000000" stroke-opacity="1.000000" stroke-width="1.000000"/>
	<path id="Vector 20686" d="M313.26 239.55L434.5 20.14C443.7 9.01 454.77 15.5 458.02 20.14L577.87 239.55C581.34 248.49 576.13 255.29 571.36 256L322.37 256C314.22 254.48 312.18 243.35 313.26 239.55Z" fill="#FFFFFF" fill-opacity="1.000000" fill-rule="nonzero"/>
	<path id="Vector 20686" d="M313.26 239.55C312.18 243.35 314.22 254.48 322.37 256L571.36 256C576.13 255.29 581.34 248.49 577.87 239.55L458.02 20.14C454.77 15.5 443.7 9.01 434.5 20.14L313.26 239.55Z" stroke="#FF0000" stroke-opacity="1.000000" stroke-width="13.000000"/>
	<path id="Vector 20690" d="M47.78 286.96L158 88.49C166 74.5 186.5 74.49 193.5 88.49L301.5 284.99C307.59 297.73 302.78 313.46 285.5 313.46L63.28 313.46C44.28 311.46 44.28 293.46 47.78 286.96Z" fill="#FFFFFF" fill-opacity="1.000000" fill-rule="nonzero"/>
	<path id="Vector 20690" d="M47.78 286.96C44.28 293.46 44.28 311.46 63.28 313.46L285.5 313.46C302.78 313.46 307.59 297.73 301.5 284.99L193.5 88.49C186.5 74.49 166 74.5 158 88.49L47.78 286.96Z" stroke="#FF0000" stroke-opacity="1.000000" stroke-width="13.000000"/>
	<path id="!" d="M193.64 162.14Q194.49 152.98 194.49 145.8Q194.49 142.77 193.6 140.02Q193.31 139.1 192.91 138.22Q191.94 136.04 190.55 134.18Q189.68 133.02 188.65 131.98Q187.72 131.05 186.68 130.27Q184.71 128.77 182.36 127.77Q181.37 127.36 180.36 127.06Q177.66 126.26 174.72 126.26Q171.49 126.26 168.57 127.23Q167.85 127.47 167.14 127.77Q165.13 128.63 163.39 129.87Q162.07 130.82 160.91 131.98Q159.74 133.15 158.8 134.47Q157.56 136.21 156.7 138.22Q156.39 138.92 156.15 139.65Q155.18 142.56 155.18 145.8Q155.18 152.98 156.02 162.02Q156.86 171.06 158.21 181.23Q159.56 191.39 161.3 202.34Q163.04 213.29 164.84 224.18Q165.85 231.15 166.97 237.66Q168.09 244.18 168.99 250.24Q169.2 251.62 169.89 252.68Q170.33 253.35 170.96 253.89Q171.8 254.61 172.77 254.96Q173.69 255.29 174.72 255.29Q175.96 255.29 177.03 254.87Q177.9 254.52 178.65 253.89Q179.38 253.28 179.85 252.52Q180.48 251.52 180.67 250.24Q181.57 244.29 182.58 238.11Q183.59 231.93 184.6 225.42Q186.4 214.3 188.2 203.13Q189.99 191.95 191.4 181.62Q192.8 171.29 193.64 162.14ZM191.04 283.22Q191.9 280.63 191.9 277.75Q191.9 275.64 191.4 273.65Q191.08 272.36 190.56 271.13Q189.35 268.31 187.38 266.22Q187.15 265.97 186.91 265.74Q186.79 265.62 186.66 265.51Q184.44 263.42 181.46 262.14Q180.83 261.87 180.18 261.66Q177.6 260.8 174.72 260.8Q171.85 260.8 169.26 261.66Q168.61 261.87 167.98 262.14Q165.2 263.34 163.03 265.23Q162.75 265.48 162.48 265.74Q162.01 266.19 161.58 266.67Q159.85 268.61 158.77 271.13Q158.24 272.36 157.92 273.65Q157.42 275.64 157.42 277.75Q157.42 280.63 158.29 283.22Q158.5 283.86 158.77 284.49Q159.69 286.62 161.06 288.39Q161.72 289.23 162.48 290Q163.24 290.76 164.08 291.41Q165.85 292.79 167.98 293.7Q168.61 293.97 169.26 294.19Q171.85 295.05 174.72 295.05Q177.6 295.05 180.18 294.19Q180.83 293.97 181.46 293.7Q183.8 292.7 185.67 291.14Q186.31 290.6 186.91 290Q187.42 289.47 187.89 288.9Q189.51 286.93 190.56 284.49Q190.82 283.86 191.04 283.22Z" fill="#000000" fill-opacity="1.000000" fill-rule="evenodd"/>
	<path id="_" d="M510.55 201.55L497.77 219.7L393.27 146.12L406.05 127.97L510.55 201.55Z" fill="#000000" fill-opacity="1.000000" fill-rule="evenodd"/>
	<path id="_" d="M488.03 125.91L501.72 143.38L401.12 222.21L387.43 204.74L488.03 125.91Z" fill="#000000" fill-opacity="1.000000" fill-rule="evenodd"/>
</svg>
