<svg width="613" height="460" viewBox="0 0 613 460" fill="none" xmlns="http://www.w3.org/2000/svg">
<rect x="0.5" y="0.5" width="612" height="459" rx="19.5" fill="#6BD3FF" stroke="black"/>
<ellipse cx="311.5" cy="230" rx="223.5" ry="210" fill="#FFD527"/>
<path d="M294.11 172.989C294.745 177.766 296.94 188.187 300.64 191.662C302.363 193.472 308.802 196.875 317.509 196.006V167.229C308.86 171.71 300.523 173.537 294.11 172.989Z" fill="white"/>
<path d="M317.509 167.229V196.006C320.339 196.187 327.684 195.897 331.384 193.291C333.652 191.492 338.567 184.986 340.091 173.354C332.06 173.668 323.103 170.325 317.509 167.229Z" fill="white"/>
<path fill-rule="evenodd" clip-rule="evenodd" d="M271.256 110.49C270.531 107.865 271.039 102.02 278.874 99.6305C280.416 99.8115 283.663 100.608 284.316 102.345C284.364 102.849 284.413 103.513 284.448 104.246C284.011 103.16 282.395 100.988 279.419 100.988C277.061 101.54 272.998 104.326 275.609 111.047C274.274 110.974 272.817 110.801 271.256 110.49Z" fill="white"/>
<path fill-rule="evenodd" clip-rule="evenodd" d="M344.444 101.531C345.75 100.011 347.709 99.6305 348.525 99.6305C353.531 100.065 354.42 106.146 354.239 109.132C353.346 109.231 350.736 109.26 347.437 108.589C345.999 107.342 345.209 105.535 344.805 103.908C345.217 105.633 346.019 107.598 347.437 108.589C348.978 108.951 352.987 109.567 356.687 109.132C356.869 107.775 356.959 104.517 355.871 102.345C353.513 99.7212 347.926 95.8845 344.444 101.531Z" fill="white"/>
<path fill-rule="evenodd" clip-rule="evenodd" d="M246.226 118.091C241.51 124.244 232.949 140.624 236.431 156.912C236.975 167.048 237.138 189.164 233.438 196.549C233.094 197.005 232.731 197.49 232.35 198C231.458 199.195 230.471 200.531 229.417 201.973C226.796 205.562 223.759 209.812 220.727 214.215C217.434 218.997 214.146 223.96 211.4 228.449C209.099 232.212 207.18 235.643 205.959 238.357C205.497 239.517 205.024 240.803 204.553 242.196C203.147 246.358 201.765 251.477 200.773 257.06C199.79 262.594 199.19 268.583 199.332 274.548C199.377 276.451 199.498 278.35 199.705 280.232C200.261 285.27 201.44 290.179 203.464 294.659C204.006 295.858 204.608 297.026 205.275 298.157C206.332 299.95 207.552 301.652 208.952 303.24L211.4 307.041C209.672 309.068 207.513 311.982 205.275 315.565C203.547 318.33 201.772 321.495 200.112 324.959C195.569 334.435 191.882 346.153 192.355 358.079C190.995 366.405 191.866 386.693 206.231 401.245C205.868 405.95 206.394 417.371 211.4 425.407C218.656 432.646 236.812 442.781 251.395 425.407C253.118 422.873 257.054 416.013 259.013 408.846C279.419 414.909 328.228 421.877 360.224 401.245C363.308 398.621 371.216 388.051 378.181 366.767C385.146 345.483 388.701 314.824 389.608 302.155C391.349 283.043 387.25 257.632 384.983 247.316C389.245 257.632 397.607 280.545 396.954 289.667C395.656 290.391 392.75 292.273 391.512 294.01C390.968 295.911 390.152 303.784 402.667 297.268C401.278 300.04 398.313 301.677 395.61 303.169C393.548 304.307 391.638 305.36 390.696 306.77C390.056 308.047 389.868 311.41 393.417 311.482C391.15 313.26 387.703 317.466 392.057 320.073C395.503 320.615 403.756 320.452 409.197 315.457C414.457 308.036 423.998 289.829 420.08 276.364C418.448 265.324 410.394 237.759 391.24 215.824C387.976 212.385 380.575 203.118 377.093 193.562C377.455 189.219 379.487 178.414 384.711 169.943C387.703 163.428 392.546 145.836 387.976 127.593C386.524 123.611 382.316 114.236 377.093 108.589C377.002 105.965 376.168 99.0871 373.556 92.5716C371.651 90.6712 365.72 86.4904 357.231 84.9701C352.697 82.1648 339.764 76.0113 324.311 73.8394C320.229 73.206 309.183 72.3191 297.647 73.8394C290.029 75.559 272.453 80.8984 263.094 88.4998C253.753 88.952 237.302 95.5032 246.226 118.091ZM262.006 97.7302C259.829 102.943 253.844 108.408 251.123 110.49C248.13 105.332 247.858 100.988 249.763 97.7302C253.027 95.5583 259.285 96.1013 262.006 97.7302ZM370.563 93.9294C372.195 97.4587 371.379 101.802 370.563 103.431C364.904 100.608 362.038 96.2823 361.312 94.4724C363.761 93.115 368.114 93.0245 370.563 93.9294ZM300.64 191.662C296.94 188.187 294.745 177.766 294.11 172.989C300.523 173.537 308.86 171.71 317.509 167.229C317.236 167.376 318.336 167.229 317.509 167.229V131.394C315.695 131.122 311.632 129.005 309.891 122.706C309.619 120.444 307.768 116.517 302.545 118.906C301.094 119.63 298.192 119.829 298.192 114.833C297.829 111.938 299.552 105.386 309.347 102.345H325.943C329.299 103.522 336.01 107.666 336.01 114.833C335.647 117.186 334.105 121.295 330.84 118.906C329.48 117.91 326.269 117.277 324.311 122.706C323.948 125.421 322.08 130.959 317.509 131.394V167.229C317.25 167.086 317.756 167.373 317.509 167.229C323.103 170.325 332.06 173.668 340.091 173.354C338.567 184.986 333.652 191.492 331.384 193.291C327.684 195.897 320.339 196.187 317.509 196.006V167.229C317.25 167.086 317.756 167.373 317.509 167.229C317.236 167.376 318.336 167.229 317.509 167.229V196.006C308.802 196.875 302.363 193.472 300.64 191.662ZM271.256 110.49C270.531 107.865 271.039 102.02 278.874 99.6305C280.416 99.8115 283.663 100.608 284.316 102.345C284.364 102.849 284.413 103.513 284.448 104.246C284.543 106.276 284.524 108.83 284.044 109.947C282.871 110.498 279.859 111.279 275.609 111.047C274.274 110.974 272.817 110.801 271.256 110.49ZM356.687 109.132C352.987 109.567 348.978 108.951 347.437 108.589C346.019 107.598 345.217 105.633 344.805 103.908C344.585 103.023 344.479 102.191 344.444 101.531C347.926 95.8845 353.513 99.7212 355.871 102.345C356.959 104.517 356.869 107.775 356.687 109.132Z" fill="#996C4B"/>
<path d="M360.224 401.245C366.3 404.141 381.881 410.041 395.594 410.475C401.67 410.385 414.312 407.435 416.271 396.358C415.364 393.824 411.755 388.105 404.572 385.499C409.197 380.793 418.774 366.712 420.08 348.035C420.987 342.062 420.08 327.185 409.197 315.457C403.756 320.452 395.503 320.615 392.057 320.073C387.703 317.466 391.15 313.26 393.417 311.482C389.868 311.41 390.056 308.047 390.696 306.77C391.638 305.36 393.548 304.307 395.61 303.169C398.313 301.677 401.278 300.04 402.667 297.268C390.152 303.784 390.968 295.911 391.512 294.01C392.75 292.273 395.656 290.391 396.954 289.667C397.607 280.545 389.245 257.632 384.983 247.316C387.25 257.632 391.349 283.043 389.608 302.155C388.701 314.824 385.146 345.483 378.181 366.767C371.216 388.051 363.308 398.621 360.224 401.245Z" fill="#996C4B"/>
<path d="M208.952 303.24C207.552 301.652 206.332 299.95 205.275 298.157C204.608 297.026 204.006 295.858 203.464 294.659C201.44 290.179 200.261 285.27 199.705 280.232C199.498 278.35 199.377 276.451 199.332 274.548C199.19 268.583 199.79 262.594 200.773 257.06C201.765 251.477 203.147 246.358 204.553 242.196C205.024 240.803 205.497 239.517 205.959 238.357C207.18 235.643 209.099 232.212 211.4 228.449C214.146 223.96 217.434 218.997 220.727 214.215C223.759 209.812 226.796 205.562 229.417 201.973C230.471 200.531 231.458 199.195 232.35 198C230.859 196.042 228.937 193.74 226.666 191.278C223.76 188.127 220.281 184.714 216.4 181.425C214.818 180.084 213.169 178.764 211.465 177.49C208.642 175.381 205.667 173.4 202.593 171.665C197.396 168.733 191.914 166.506 186.398 165.558C185.335 165.375 184.271 165.239 183.207 165.156C182.265 165.081 181.324 165.048 180.384 165.057C176.641 164.624 171.828 164.794 166.702 166.045C164.056 166.691 161.327 167.624 158.618 168.911C154.489 170.872 150.408 173.655 146.744 177.49C146.338 177.915 145.938 178.352 145.544 178.802C142.899 181.821 140.506 185.433 138.515 189.732C137.813 191.248 137.161 192.85 136.566 194.541C135.535 197.471 134.673 200.67 134.016 204.159C133.612 206.307 133.285 208.565 133.043 210.937C132.948 213.619 133.003 216.958 133.276 220.773C133.47 223.471 133.772 226.407 134.207 229.517C134.71 233.108 135.39 236.93 136.285 240.884C137.469 246.121 139.028 251.59 141.049 257.06C141.75 258.958 142.506 260.856 143.321 262.744C145.249 267.211 147.508 271.625 150.144 275.86C152.622 279.842 155.434 283.665 158.618 287.223C159.068 287.804 159.576 288.443 160.137 289.131C161.028 290.223 162.054 291.442 163.201 292.758C165.624 295.539 168.588 298.756 171.954 302.138C175.343 305.543 179.14 309.117 183.207 312.585C186.322 315.241 189.595 317.835 192.964 320.243C195.307 321.919 197.697 323.505 200.112 324.959C201.772 321.495 203.547 318.33 205.275 315.565C207.513 311.982 209.672 309.068 211.4 307.041L208.952 303.24Z" fill="#422F22"/>
<path d="M325.943 102.345H309.347C299.552 105.386 297.829 111.938 298.192 114.833C298.192 119.829 301.094 119.63 302.545 118.906C307.768 116.517 309.619 120.444 309.891 122.706C311.632 129.005 315.695 131.122 317.509 131.394C322.08 130.959 323.948 125.421 324.311 122.706C326.269 117.277 329.48 117.91 330.84 118.906C334.105 121.295 335.647 117.186 336.01 114.833C336.01 107.666 329.299 103.522 325.943 102.345Z" fill="#4F3421"/>
<path d="M370.563 103.431C371.379 101.802 372.195 97.4587 370.563 93.9294C368.114 93.0245 363.761 93.115 361.312 94.4724C362.038 96.2823 364.904 100.608 370.563 103.431Z" fill="#97745C"/>
<path d="M251.123 110.49C253.844 108.408 259.829 102.943 262.006 97.7302C259.285 96.1013 253.027 95.5583 249.763 97.7302C247.858 100.988 248.13 105.332 251.123 110.49Z" fill="#97745C"/>
<path d="M354.239 109.132C354.42 106.146 353.531 100.065 348.525 99.6305C347.709 99.6305 345.75 100.011 344.444 101.531C344.475 102.13 344.584 102.985 344.805 103.908C345.209 105.535 345.999 107.342 347.437 108.589C350.736 109.26 353.346 109.231 354.239 109.132Z" fill="black"/>
<path d="M284.044 109.947C284.524 108.83 284.543 106.276 284.448 104.246C284.011 103.16 282.395 100.988 279.419 100.988C277.061 101.54 272.998 104.326 275.609 111.047C279.859 111.279 282.871 110.498 284.044 109.947Z" fill="black"/>
<path d="M211.4 307.041L208.952 303.24C207.552 301.652 206.332 299.95 205.275 298.157M211.4 307.041C213.359 312.47 218.928 320.525 221.467 323.873C226.075 330.094 231.907 333.48 236.703 335.171M211.4 307.041C209.672 309.068 207.513 311.982 205.275 315.565M360.224 401.245C328.228 421.877 279.418 414.909 259.013 408.846C257.054 416.013 253.118 422.873 251.395 425.407C236.812 442.781 218.656 432.646 211.4 425.407C206.394 417.371 205.868 405.95 206.231 401.245C191.866 386.693 190.995 366.405 192.355 358.079C191.882 346.153 195.569 334.435 200.112 324.959M360.224 401.245C366.3 404.141 381.881 410.041 395.594 410.475C401.67 410.385 414.312 407.435 416.271 396.358C415.364 393.824 411.755 388.105 404.572 385.499C409.197 380.793 418.774 366.712 420.08 348.035C420.987 342.062 420.08 327.185 409.197 315.457M360.224 401.245C363.308 398.621 371.216 388.051 378.181 366.767C385.146 345.483 388.701 314.824 389.608 302.155C391.349 283.043 387.25 257.632 384.983 247.316M409.197 315.457C414.457 308.036 423.998 289.829 420.08 276.364C418.448 265.324 410.394 237.759 391.24 215.824C387.976 212.385 380.575 203.118 377.093 193.562C377.455 189.219 379.487 178.414 384.711 169.943C387.703 163.428 392.546 145.836 387.976 127.593C386.524 123.611 382.316 114.236 377.093 108.589C377.002 105.965 376.168 99.0871 373.556 92.5716C371.651 90.6712 365.72 86.4904 357.231 84.9701C352.697 82.1648 339.764 76.0113 324.311 73.8394C320.229 73.206 309.183 72.3191 297.647 73.8394C290.029 75.559 272.453 80.8984 263.094 88.4998C253.753 88.952 237.302 95.5032 246.226 118.091C241.51 124.244 232.949 140.624 236.431 156.912C236.975 167.048 237.138 189.164 233.438 196.549C233.094 197.005 232.731 197.49 232.35 198M409.197 315.457C403.756 320.452 395.503 320.615 392.057 320.073C387.703 317.466 391.15 313.26 393.417 311.482M232.35 198C230.859 196.042 228.937 193.74 226.666 191.278M232.35 198C231.458 199.195 230.471 200.531 229.417 201.973M200.112 324.959C197.697 323.505 195.307 321.919 192.964 320.243M200.112 324.959C201.772 321.495 203.547 318.33 205.275 315.565M251.667 230.756C246.407 241.072 237.465 266.428 243.777 285.323C248.039 288.128 256.619 296.128 256.836 305.684C257.018 308.308 256.02 313.014 250.579 310.842C250.397 312.562 251.395 317.141 256.836 321.701C257.863 323.273 258.735 325.968 256.292 327.008M238.336 317.086C242.253 322.733 249.581 326.317 252.755 327.403C254.356 327.509 255.499 327.346 256.292 327.008M256.292 327.008C256.02 329.492 253.136 334.895 243.777 336.633C242.135 336.599 239.609 336.196 236.703 335.171M236.703 335.171C237.247 340.455 239.097 352.705 242.145 359.437C246.316 368.034 255.095 386.151 256.836 389.843M385.527 225.326C384.257 230.484 382.371 242.103 384.983 247.316M384.983 247.316C389.245 257.632 397.607 280.545 396.954 289.667C395.656 290.391 392.75 292.273 391.512 294.01C390.968 295.911 390.152 303.784 402.667 297.268C401.278 300.04 398.313 301.677 395.61 303.169C393.548 304.307 391.638 305.36 390.696 306.77C390.056 308.047 389.868 311.41 393.417 311.482M407.021 305.141C403.973 309.485 397.77 311.114 395.049 311.385C394.433 311.462 393.892 311.492 393.417 311.482M267.175 152.026C270.374 160.038 279.275 171.721 294.11 172.989M317.509 167.229C308.86 171.71 300.523 173.537 294.11 172.989M317.509 167.229C318.336 167.229 317.236 167.376 317.509 167.229ZM317.509 167.229V196.006M317.509 167.229C317.756 167.373 317.25 167.086 317.509 167.229ZM317.509 167.229C323.103 170.325 332.06 173.668 340.091 173.354M317.509 167.229V131.394M363.761 152.026C359.533 167.731 349.938 172.969 340.091 173.354M294.11 172.989C294.745 177.766 296.94 188.187 300.64 191.662C302.363 193.472 308.802 196.875 317.509 196.006M317.509 196.006C320.339 196.187 327.684 195.897 331.384 193.291C333.652 191.492 338.567 184.986 340.091 173.354M317.509 131.394C322.08 130.959 323.948 125.421 324.311 122.706C326.269 117.277 329.48 117.91 330.84 118.906C334.105 121.295 335.647 117.186 336.01 114.833C336.01 107.666 329.299 103.522 325.943 102.345H309.347C299.552 105.386 297.829 111.938 298.192 114.833C298.192 119.829 301.094 119.63 302.545 118.906C307.768 116.517 309.619 120.444 309.891 122.706C311.632 129.005 315.695 131.122 317.509 131.394ZM344.444 101.531C347.926 95.8845 353.513 99.7212 355.871 102.345C356.959 104.517 356.869 107.775 356.687 109.132C352.987 109.567 348.978 108.951 347.437 108.589M344.444 101.531C345.75 100.011 347.709 99.6305 348.525 99.6305C353.531 100.065 354.42 106.146 354.239 109.132C353.346 109.231 350.736 109.26 347.437 108.589M344.444 101.531C344.479 102.191 344.585 103.023 344.805 103.908M344.444 101.531C344.475 102.13 344.584 102.985 344.805 103.908M347.437 108.589C345.999 107.342 345.209 105.535 344.805 103.908M347.437 108.589C346.019 107.598 345.217 105.633 344.805 103.908M284.448 104.246C284.413 103.513 284.364 102.849 284.316 102.345C283.663 100.608 280.416 99.8115 278.874 99.6305C271.039 102.02 270.531 107.865 271.256 110.49C272.817 110.801 274.274 110.974 275.609 111.047M284.448 104.246C284.543 106.276 284.524 108.83 284.044 109.947C282.871 110.498 279.859 111.279 275.609 111.047M284.448 104.246C284.011 103.16 282.395 100.988 279.419 100.988C277.061 101.54 272.998 104.326 275.609 111.047M186.398 165.558L141.049 257.06M186.398 165.558C191.914 166.506 197.396 168.733 202.593 171.665M186.398 165.558C185.335 165.375 184.271 165.239 183.207 165.156M141.049 257.06C139.028 251.59 137.469 246.121 136.285 240.884M141.049 257.06C141.75 258.958 142.506 260.856 143.321 262.744M134.207 229.517L166.702 166.045M134.207 229.517C133.772 226.407 133.47 223.471 133.276 220.773M134.207 229.517C134.71 233.108 135.39 236.93 136.285 240.884M166.702 166.045C171.828 164.794 176.641 164.624 180.384 165.057C181.324 165.048 182.265 165.081 183.207 165.156M166.702 166.045C164.056 166.691 161.327 167.624 158.618 168.911M150.144 275.86C152.622 279.842 155.434 283.665 158.618 287.223C159.068 287.804 159.576 288.443 160.137 289.131M150.144 275.86L202.593 171.665M150.144 275.86C147.508 271.625 145.249 267.211 143.321 262.744M202.593 171.665C205.667 173.4 208.642 175.381 211.465 177.49M160.137 289.131L216.4 181.425M160.137 289.131C161.028 290.223 162.054 291.442 163.201 292.758M216.4 181.425C220.281 184.714 223.76 188.127 226.666 191.278M216.4 181.425C214.818 180.084 213.169 178.764 211.465 177.49M226.666 191.278L171.954 302.138M171.954 302.138C175.343 305.543 179.14 309.117 183.207 312.585M171.954 302.138C168.588 298.756 165.624 295.539 163.201 292.758M183.207 312.585L199.705 280.232M183.207 312.585C186.322 315.241 189.595 317.835 192.964 320.243M199.705 280.232C199.498 278.35 199.377 276.45 199.332 274.548M199.705 280.232C200.261 285.27 201.44 290.179 203.464 294.659M192.964 320.243L205.275 298.157M205.275 298.157C204.608 297.026 204.006 295.858 203.464 294.659M136.566 194.541L145.544 178.802M136.566 194.541C137.161 192.85 137.813 191.248 138.515 189.732M136.566 194.541C135.535 197.471 134.673 200.67 134.016 204.159M145.544 178.802C145.938 178.352 146.338 177.915 146.744 177.49M145.544 178.802C142.899 181.821 140.506 185.433 138.515 189.732M158.618 168.911L229.417 201.973M158.618 168.911C154.489 170.872 150.408 173.655 146.744 177.49M229.417 201.973C226.796 205.562 223.759 209.812 220.727 214.215M146.744 177.49L220.727 214.215M220.727 214.215C217.434 218.997 214.146 223.96 211.4 228.449M138.515 189.732L211.4 228.449M211.4 228.449C209.099 232.212 207.18 235.643 205.959 238.357C205.497 239.517 205.024 240.803 204.553 242.196M134.016 204.159C133.612 206.307 133.285 208.565 133.043 210.937C132.948 213.619 133.003 216.958 133.276 220.773M134.016 204.159L204.553 242.196M204.553 242.196C203.147 246.358 201.765 251.477 200.773 257.06M133.276 220.773L200.773 257.06M200.773 257.06C199.79 262.594 199.19 268.583 199.332 274.548M136.285 240.884L199.332 274.548M143.321 262.744L203.464 294.659M163.201 292.758L205.275 315.565M183.207 165.156L211.465 177.49M251.123 110.49C253.844 108.408 259.829 102.943 262.006 97.7302C259.285 96.1013 253.027 95.5583 249.763 97.7302C247.858 100.988 248.13 105.332 251.123 110.49ZM361.312 94.4724C363.761 93.115 368.114 93.0245 370.563 93.9294C372.195 97.4587 371.379 101.802 370.563 103.431C364.904 100.608 362.038 96.2823 361.312 94.4724Z" stroke="black"/>
<path fill-rule="evenodd" clip-rule="evenodd" d="M25.0221 391.946L45.2653 383.579C46.1558 382.713 46.8912 382.415 47.6628 382.103C48.5186 381.756 49.419 381.392 50.6252 380.213C52.4597 378.421 53.8787 377.029 54.0049 376.889C54.1163 376.766 53.9686 376.404 53.9944 376.046C54.0153 375.755 54.0862 375.607 54.1648 375.277C54.2981 374.717 55.2328 374.289 56.1328 374.26L58.8318 345.363C66.5537 347.276 85.9359 349.676 101.491 343.983L105.632 372.657C105.921 372.837 107.015 372.874 107.264 373.558C107.432 374.019 107.456 374.506 106.924 375.176L110.216 378.284L115.825 381.295L137.341 388.309L137.427 395.174L81.2352 423.131L25.1082 398.811L25.0221 391.946ZM97.9311 318.532C85.0415 323.223 68.1284 321.659 61.3962 320.096L64.0474 287.386C68.1486 287.799 80.605 288.16 93.3871 286.436L97.9311 318.532ZM90.0044 260.79L85.65 229.451C82.0309 228.042 72.6221 229.237 69.4501 229.975L66.4246 261.553L90.0044 260.79Z" fill="#F87B21"/>
<path d="M58.8318 345.363C66.5537 347.276 85.9359 349.676 101.491 343.983L97.9311 318.532C85.0415 323.223 68.1284 321.659 61.3962 320.096L58.8318 345.363Z" fill="white"/>
<path d="M64.0474 287.386C68.1486 287.799 80.605 288.16 93.3871 286.436L90.0044 260.79L66.4246 261.553L64.0474 287.386Z" fill="white"/>
<path d="M25.0221 391.946L45.2653 383.579M25.0221 391.946L81.6915 416.437M25.0221 391.946L25.1082 398.811L81.2352 423.131M45.2653 383.579C41.818 386.298 36.9392 394.531 50.7038 400.842C63.912 405.868 91.1276 407.849 111.014 398.889C119.022 395.282 123.392 387.399 115.825 381.295M45.2653 383.579C46.1558 382.713 46.8912 382.415 47.6628 382.103C48.5186 381.756 49.419 381.392 50.6252 380.213M115.825 381.295L137.341 388.309M115.825 381.295L110.216 378.284M137.341 388.309L81.6915 416.437M137.341 388.309L137.427 395.174L81.2352 423.131M81.6915 416.437L81.2352 423.131M58.8318 345.363L56.1328 374.26C55.2328 374.289 54.2981 374.717 54.1648 375.277M58.8318 345.363C66.5537 347.276 85.9359 349.676 101.491 343.983M58.8318 345.363L61.3962 320.096M101.491 343.983L105.632 372.657C105.921 372.837 107.015 372.874 107.264 373.558M101.491 343.983L97.9311 318.532M61.3962 320.096C68.1284 321.659 85.0415 323.223 97.9311 318.532M61.3962 320.096L64.0474 287.386M97.9311 318.532L93.3871 286.436M64.0474 287.386C68.1486 287.799 80.605 288.16 93.3871 286.436M64.0474 287.386L66.4246 261.553M93.3871 286.436L90.0044 260.79M66.4246 261.553L69.4501 229.975C72.6221 229.237 82.0309 228.042 85.65 229.451L90.0044 260.79M66.4246 261.553L90.0044 260.79M54.1648 375.277C62.0133 379.03 84.5363 383.909 107.264 373.558M54.1648 375.277C54.0862 375.607 54.0153 375.755 53.9944 376.046C53.9686 376.404 54.1163 376.766 54.0049 376.889C53.8787 377.029 52.4597 378.421 50.6252 380.213M107.264 373.558C107.432 374.019 107.456 374.506 106.924 375.176L110.216 378.284M50.6252 380.213C60.4187 385.165 86.0476 391.712 110.216 378.284" stroke="black"/>
<path fill-rule="evenodd" clip-rule="evenodd" d="M471.022 391.946L491.265 383.579C492.156 382.713 492.891 382.415 493.663 382.103C494.519 381.756 495.419 381.392 496.625 380.213C498.46 378.421 499.879 377.029 500.005 376.889C500.116 376.766 499.969 376.404 499.994 376.046C500.015 375.755 500.086 375.607 500.165 375.277C500.298 374.717 501.233 374.289 502.133 374.26L504.832 345.363C512.554 347.276 531.936 349.676 547.491 343.983L551.632 372.657C551.921 372.837 553.015 372.874 553.264 373.558C553.432 374.019 553.456 374.506 552.924 375.176L556.216 378.284L561.825 381.295L583.341 388.309L583.427 395.174L527.235 423.131L471.108 398.811L471.022 391.946ZM543.931 318.532C531.041 323.223 514.128 321.659 507.396 320.096L510.047 287.386C514.149 287.799 526.605 288.16 539.387 286.436L543.931 318.532ZM536.004 260.79L531.65 229.451C528.031 228.042 518.622 229.237 515.45 229.975L512.425 261.553L536.004 260.79Z" fill="#F87B21"/>
<path d="M504.832 345.363C512.554 347.276 531.936 349.676 547.491 343.983L543.931 318.532C531.041 323.223 514.128 321.659 507.396 320.096L504.832 345.363Z" fill="white"/>
<path d="M510.047 287.386C514.149 287.799 526.605 288.16 539.387 286.436L536.004 260.79L512.425 261.553L510.047 287.386Z" fill="white"/>
<path d="M471.022 391.946L491.265 383.579M471.022 391.946L527.691 416.437M471.022 391.946L471.108 398.811L527.235 423.131M491.265 383.579C487.818 386.298 482.939 394.531 496.704 400.842C509.912 405.868 537.128 407.849 557.014 398.889C565.022 395.282 569.392 387.399 561.825 381.295M491.265 383.579C492.156 382.713 492.891 382.415 493.663 382.103C494.519 381.756 495.419 381.392 496.625 380.213M561.825 381.295L583.341 388.309M561.825 381.295L556.216 378.284M583.341 388.309L527.691 416.437M583.341 388.309L583.427 395.174L527.235 423.131M527.691 416.437L527.235 423.131M504.832 345.363L502.133 374.26C501.233 374.289 500.298 374.717 500.165 375.277M504.832 345.363C512.554 347.276 531.936 349.676 547.491 343.983M504.832 345.363L507.396 320.096M547.491 343.983L551.632 372.657C551.921 372.837 553.015 372.874 553.264 373.558M547.491 343.983L543.931 318.532M507.396 320.096C514.128 321.659 531.041 323.223 543.931 318.532M507.396 320.096L510.047 287.386M543.931 318.532L539.387 286.436M510.047 287.386C514.149 287.799 526.605 288.16 539.387 286.436M510.047 287.386L512.425 261.553M539.387 286.436L536.004 260.79M512.425 261.553L515.45 229.975C518.622 229.237 528.031 228.042 531.65 229.451L536.004 260.79M512.425 261.553L536.004 260.79M500.165 375.277C508.013 379.03 530.536 383.909 553.264 373.558M500.165 375.277C500.086 375.607 500.015 375.755 499.994 376.046C499.969 376.404 500.116 376.766 500.005 376.889C499.879 377.029 498.46 378.421 496.625 380.213M553.264 373.558C553.432 374.019 553.456 374.506 552.924 375.176L556.216 378.284M496.625 380.213C506.419 385.165 532.048 391.712 556.216 378.284" stroke="black"/>
</svg>
