<svg width="465" height="325" viewBox="0 0 465 325" fill="none" xmlns="http://www.w3.org/2000/svg">
<path d="M55.3098 253.151C73.7099 240.275 129.786 264.263 155.525 277.867C92.4385 132.098 221.239 58.4861 293.525 39.9012C278.63 -0.56447 303.017 5.79662 317.073 14.0354C325.397 9.437 337.335 4.45513 342.264 2.539C370.302 -2.05937 396.296 0.623011 405.788 2.539C421.121 6.2177 429.335 16.7173 431.526 21.5073C436.345 29.7844 442.344 33.0119 451.24 33.578C469.312 34.7281 469.859 69.2159 451.24 71.5146V93.3569L425.502 92.7821V74.3886C416.302 78.987 395.748 76.3046 386.621 74.3886C390.564 81.2862 405.788 89.5249 412.907 92.7821C374.354 139.226 393.923 183.792 408.526 200.269C425.173 210.845 421.669 222.686 417.835 227.285C404.254 243.839 370.192 220.387 354.859 206.592C365.811 251.656 334.232 288.213 317.073 300.859C363.949 276.947 379.684 306.99 381.692 325H0C5.25717 275.338 39.0637 256.408 55.3098 253.151Z" fill="#FDFCF8"/>
</svg>
