<svg width="605" height="460" viewBox="0 0 605 460" fill="none" xmlns="http://www.w3.org/2000/svg">
<rect x="0.5" y="0.5" width="604" height="459" rx="19.5" fill="#F87B21" stroke="black"/>
<path d="M539.817 205.438C552.387 209.591 561.492 211.131 564.473 211.382C574.921 213.414 579.875 212.75 581.08 212.085C585.283 210.543 585.349 207.581 585.496 206.627L584.598 204.039L582.998 201.167L579.172 195.242C575.767 190.304 569.706 184.22 566.822 181.12C561.461 175.832 554.824 168.934 552.176 166.146C548.672 156.255 543.344 147.242 541.117 143.972C539.222 141.29 534.547 137.426 532.446 135.83L534.673 142.147C535.992 146.154 537.233 149.627 538.346 151.208C541.283 155.38 544.477 165.105 547.147 168.639C547.528 169.918 546.581 169.719 546.06 169.46C539.497 161.031 531.446 152.013 528.015 148.727C524.93 145.246 520.535 142.596 518.949 141.537C514.144 139.224 509.575 139.068 507.891 139.278L515.678 144.742C517.097 147.654 521.242 152.538 523.137 154.616C532.133 163.166 537.887 171.308 539.64 174.31C540.092 175.339 539.138 175.26 538.605 175.092C531.66 169.171 519.343 162.081 514.052 159.275C509.893 157.128 505.621 156.475 504.005 156.417C497.608 153.805 492.776 154.397 491.159 155.02L502.028 161.012C504.077 163.121 506.91 165.214 508.071 165.997L517.976 171.574L531.926 180.137C533.305 181.446 531.987 181.941 531.156 182.024L525.58 179.38L509.887 172.706C503.504 170.802 499.221 170.07 497.878 169.942L488.506 164.533C485.066 162.994 484.949 163.409 487.606 166.356L496.537 174.302C496.537 174.302 502.062 179.205 503.689 180.327C505.317 181.448 512.714 184.882 516.21 186.459L528.456 189.86C530.476 190.554 531.777 192.14 532.175 192.846L528.794 194.829L523.53 194.642L512.2 195.038C509.028 194.627 505.476 193.887 504.097 193.568L499.064 192.718L496.212 192.205L498.512 194.033L500.939 195.954L509.201 200.324C512.68 201.744 516.43 202.754 517.87 203.081L520.809 203.635L539.817 205.438Z" fill="black" stroke="black"/>
<path d="M214.623 84.1998C211.967 97.1684 211.501 106.391 211.601 109.382C210.802 119.996 212.041 124.838 212.842 125.957C214.864 129.951 217.814 129.67 218.779 129.704L221.244 128.511L223.909 126.586L229.347 122.094C233.853 118.136 239.187 111.405 241.929 108.179C246.555 102.237 252.63 94.8396 255.09 91.8837C264.504 87.2487 272.833 80.9037 275.82 78.3106C278.262 76.1145 281.553 71.0201 282.893 68.7474L276.879 71.6967C273.054 73.4752 269.75 75.1134 268.31 76.4034C264.509 79.8081 255.224 84.1165 252.027 87.1806C250.801 87.7084 250.887 86.7446 251.084 86.1967C258.689 78.6944 266.704 69.6444 269.567 65.8535C272.664 62.3828 274.782 57.7087 275.649 56.0091C277.384 50.9672 277.006 46.4113 276.6 44.7636L272.083 53.1352C269.357 54.8844 264.991 59.5717 263.148 61.6967C255.708 71.6297 248.294 78.2959 245.518 80.3874C244.548 80.957 244.515 80.0001 244.62 79.4504C249.688 71.862 255.292 58.8006 257.46 53.2184C259.107 48.8368 259.256 44.518 259.125 42.9063C260.972 36.2482 259.819 31.5179 259.011 29.985L254.33 41.4797C252.475 43.7608 250.727 46.8194 250.085 48.0636L245.703 58.5527L238.829 73.4069C237.69 74.9295 237.045 73.6787 236.864 72.8629L238.839 67.0165L243.634 50.6506C244.78 44.0892 245.006 39.7504 244.976 38.4012L249.253 28.4618C250.38 24.8656 249.954 24.7973 247.338 27.7808L240.489 37.5783C240.489 37.5783 236.265 43.6384 235.342 45.3859C234.419 47.1334 231.872 54.8813 230.714 58.5368L228.767 71.0962C228.314 73.1839 226.891 74.6611 226.236 75.1388L223.872 72.0124L223.442 66.7628L221.726 55.5573C221.763 52.3582 222.083 48.7446 222.239 47.3377L222.495 42.2394L222.672 39.3469L221.125 41.8449L219.5 44.4799L216.125 53.1955C215.121 56.8173 214.557 60.659 214.4 62.1272L214.193 65.1116L214.623 84.1998Z" fill="black" stroke="black"/>
<path d="M252.587 254.327C248.592 266.947 247.165 276.071 246.951 279.055C245.049 289.528 245.775 294.473 246.455 295.67C248.049 299.853 251.012 299.882 251.968 300.017L254.544 299.087L257.396 297.451L263.273 293.552C268.168 290.086 274.176 283.949 277.24 281.026C282.46 275.6 289.275 268.878 292.03 266.195C301.877 262.568 310.823 257.128 314.065 254.861C316.723 252.932 320.528 248.209 322.098 246.089L315.809 248.394C311.819 249.763 308.362 251.047 306.795 252.18C302.659 255.169 292.975 258.484 289.475 261.198C288.2 261.594 288.387 260.645 288.64 260.121C296.987 253.453 305.904 245.29 309.146 241.819C312.589 238.69 315.183 234.263 316.223 232.663C318.476 227.83 318.575 223.26 318.344 221.579L312.977 229.433C310.084 230.888 305.251 235.093 303.197 237.014C294.76 246.116 286.691 251.972 283.711 253.762C282.687 254.227 282.754 253.272 282.916 252.736C288.749 245.718 295.686 233.314 298.425 227.988C300.521 223.803 301.12 219.523 301.158 217.907C303.69 211.478 303.037 206.653 302.395 205.044L296.539 215.987C294.455 218.062 292.398 220.921 291.629 222.092L286.176 232.066L277.788 246.121C276.496 247.516 275.985 246.205 275.891 245.375L278.466 239.767L284.943 223.991C286.768 217.585 287.446 213.294 287.557 211.949L292.849 202.51C294.346 199.051 293.929 198.939 291.015 201.633L283.181 210.662C283.181 210.662 278.347 216.247 277.246 217.889C276.145 219.53 272.804 226.97 271.271 230.485L268.022 242.772C267.354 244.801 265.784 246.122 265.083 246.528L263.058 243.172L263.179 237.906L262.642 226.583C263.014 223.405 263.709 219.845 264.011 218.462L264.798 213.418L265.276 210.56L263.477 212.883L261.586 215.334L257.319 223.649C255.942 227.146 254.98 230.908 254.671 232.352L254.153 235.298L252.587 254.327Z" fill="black" stroke="black"/>
<path d="M464.567 55.9036C456.054 66.0409 451.25 73.9281 449.913 76.6045C444.155 85.5563 442.937 90.404 443.108 91.7698C442.984 96.2443 445.711 97.4031 446.543 97.8927L449.278 98.0175L452.539 97.5948L459.46 96.2361C465.308 94.9026 473.204 91.5255 477.152 89.9951C484.049 86.9744 492.915 83.3649 496.486 81.9377C506.971 82.3472 517.317 80.7362 521.179 79.8796C524.372 79.112 529.693 76.2007 531.954 74.8409L525.261 74.5691C521.05 74.3103 517.365 74.1767 515.484 74.6248C510.52 75.8077 500.305 75.1726 496.033 76.3433C494.704 76.2233 495.239 75.4172 495.673 75.0292C505.933 72.0557 517.293 67.9173 521.615 65.9477C525.991 64.3715 530.08 61.271 531.652 60.1898C535.58 56.5836 537.418 52.3976 537.846 50.7554L529.887 55.9643C526.657 56.2037 520.584 58.2447 517.952 59.2352C506.678 64.4241 496.984 66.7535 493.546 67.2696C492.423 67.3085 492.849 66.4515 493.203 66.0181C501.275 61.7607 512.424 52.9461 516.99 49.071C520.525 46.0031 522.714 42.277 523.366 40.7975C528.162 35.8233 529.402 31.1149 529.422 29.3826L519.83 37.259C517.112 38.3807 514.118 40.2373 512.961 41.0254L504.112 48.1602L490.991 57.9457C489.264 58.7419 489.293 57.3347 489.523 56.5316L494.045 52.3321L506.057 40.2266C510.19 35.0034 512.456 31.2966 513.072 30.096L521.568 23.3946C524.272 20.7697 523.93 20.5066 520.208 21.8834L509.519 27.235C509.519 27.235 502.919 30.5511 501.274 31.6476C499.63 32.7441 493.7 38.3432 490.94 41.0057L483.245 51.1207C481.852 52.7404 479.897 53.3614 479.094 53.4694L478.505 49.5943L480.628 44.7739L484.457 34.1039C486.014 31.309 488.017 28.2843 488.823 27.1213L491.478 22.7609L493.011 20.3018L490.461 21.7613L487.777 23.3041L480.658 29.3593C478.05 32.0654 475.723 35.1744 474.886 36.3906L473.282 38.9158L464.567 55.9036Z" fill="black" stroke="black"/>
<path d="M121.709 233.267C132.225 241.307 140.324 245.744 143.059 246.958C152.265 252.301 157.163 253.296 158.519 253.062C162.995 252.982 164.028 250.205 164.479 249.351L164.478 246.613L163.907 243.375L162.233 236.523C160.634 230.743 156.899 223.009 155.189 219.135C151.856 212.383 147.845 203.692 146.256 200.19C146.186 189.697 144.103 179.436 143.071 175.617C142.158 172.462 139.006 167.28 137.545 165.084L137.579 171.782C137.513 176 137.548 179.688 138.082 181.546C139.491 186.45 139.324 196.685 140.688 200.898C140.629 202.232 139.8 201.734 139.392 201.318C135.952 191.204 131.299 180.046 129.134 175.818C127.359 171.519 124.074 167.576 122.923 166.055C119.14 162.296 114.875 160.652 113.215 160.299L118.782 168.012C119.169 171.228 121.486 177.2 122.596 179.785C128.295 190.809 131.065 200.387 131.738 203.797C131.828 204.918 130.952 204.531 130.503 204.197C125.881 196.329 116.566 185.595 112.486 181.211C109.26 177.82 105.437 175.804 103.93 175.219C98.7412 170.656 93.9811 169.633 92.2496 169.692L100.557 178.914C101.801 181.577 103.793 184.483 104.633 185.603L112.165 194.117L122.541 206.776C123.415 208.465 122.008 208.501 121.195 208.308L116.793 203.983L104.151 192.537C98.7442 188.647 94.9376 186.553 93.7101 185.992L86.6271 177.812C83.8812 175.23 83.6341 175.584 85.1797 179.239L91.0146 189.672C91.0146 189.672 94.6291 196.114 95.7997 197.707C96.9703 199.299 102.835 204.967 105.621 207.602L116.077 214.826C117.759 216.144 118.468 218.068 118.613 218.866L114.769 219.632L109.857 217.731L99.0227 214.394C96.1595 212.967 93.0463 211.104 91.8476 210.352L87.3703 207.9L84.8437 206.48L86.4183 208.961L88.0823 211.571L94.4568 218.407C97.2794 220.888 100.491 223.07 101.745 223.85L104.341 225.337L121.709 233.267Z" fill="black" stroke="black"/>
<path d="M388.985 174.251C402.218 174.597 411.38 173.442 414.307 172.821C424.897 171.75 429.448 169.684 430.41 168.699C433.988 166.009 433.196 163.154 433.061 162.198L431.455 159.98L429.093 157.693L423.719 153.124C419.034 149.38 411.474 145.306 407.818 143.171C401.158 139.656 392.812 134.968 389.471 133.063C383.261 124.605 375.557 117.515 372.481 115.027C369.892 113.007 364.3 110.658 361.828 109.736L365.784 115.141C368.204 118.597 370.395 121.563 371.917 122.755C375.934 125.902 381.8 134.29 385.377 136.902C386.111 138.017 385.147 138.1 384.573 138.002C375.856 131.828 365.543 125.518 361.31 123.364C357.351 120.922 352.379 119.654 350.554 119.097C345.286 118.27 340.866 119.44 339.315 120.128L348.348 123.111C350.547 125.488 355.926 128.968 358.34 130.41C369.422 135.998 377.282 142.131 379.827 144.499C380.557 145.354 379.621 145.554 379.062 145.547C370.703 141.884 356.863 138.652 350.988 137.494C346.386 136.639 342.107 137.247 340.543 137.658C333.665 137.005 329.209 138.968 327.841 140.031L339.978 142.629C342.548 144.057 345.865 145.242 347.203 145.657L358.296 148.136L374.124 152.306C375.823 153.161 374.704 154.015 373.932 154.335L367.83 153.413L350.878 151.556C344.218 151.576 339.906 152.112 338.583 152.377L328.049 149.905C324.311 149.424 324.318 149.856 327.713 151.91L338.558 156.939C338.558 156.939 345.263 160.037 347.145 160.641C349.027 161.244 357.101 162.396 360.903 162.897L373.609 162.617C375.744 162.698 377.447 163.84 378.032 164.401L375.368 167.276L370.274 168.618L359.542 172.268C356.385 172.791 352.772 173.108 351.359 173.201L346.295 173.84L343.416 174.172L346.146 175.258L349.025 176.397L358.196 178.195C361.938 178.55 365.819 178.434 367.292 178.331L370.267 178.013L388.985 174.251Z" fill="black" stroke="black"/>
<path d="M457.333 259.944C445.322 254.378 436.454 251.804 433.521 251.212C423.375 247.995 418.377 248.086 417.104 248.609C412.752 249.659 412.347 252.594 412.092 253.525L412.687 256.198L413.947 259.235L417.068 265.56C419.884 270.855 425.208 277.594 427.717 281.004C432.436 286.873 438.238 294.486 440.549 297.56C442.895 307.787 447.155 317.352 448.991 320.856C450.567 323.737 454.768 328.112 456.672 329.939L455.184 323.408C454.333 319.276 453.499 315.683 452.574 313.985C450.135 309.504 448.077 299.477 445.831 295.66C445.599 294.346 446.517 294.652 447.005 294.969C452.557 304.095 459.522 313.977 462.553 317.635C465.218 321.447 469.28 324.583 470.735 325.818C475.242 328.666 479.763 329.345 481.46 329.329L474.351 323.008C473.276 319.953 469.718 314.626 468.074 312.344C460.118 302.819 455.335 294.071 453.938 290.888C453.607 289.813 454.546 290.001 455.057 290.229C461.276 296.907 472.699 305.364 477.633 308.758C481.519 311.368 485.687 312.507 487.286 312.75C493.341 316.078 498.21 316.044 499.887 315.61L489.777 308.411C487.984 306.081 485.409 303.677 484.346 302.766L475.145 296.089L462.27 285.984C461.05 284.525 462.416 284.185 463.251 284.197L468.487 287.463L483.312 295.893C489.434 298.517 493.604 299.735 494.924 300.016L503.613 306.464C506.854 308.388 507.019 307.989 504.717 304.757L496.757 295.839C496.757 295.839 491.83 290.334 490.342 289.034C488.854 287.733 481.899 283.473 478.608 281.506L466.833 276.723C464.905 275.802 463.795 274.077 463.48 273.33L467.067 271.748L472.274 272.537L483.574 273.443C486.679 274.216 490.122 275.358 491.456 275.833L496.358 277.255L499.133 278.092L497.057 276.012L494.867 273.825L487.161 268.536C483.867 266.726 480.258 265.294 478.865 264.803L476.008 263.915L457.333 259.944Z" fill="black" stroke="black"/>
<path d="M74.3716 369.332C81.3212 380.599 87.3001 387.637 89.4208 389.747C96.1103 398.026 100.33 400.706 101.681 400.972C105.889 402.496 107.846 400.271 108.572 399.635L109.55 397.077L110.173 393.848L111.058 386.851C111.629 380.881 110.904 372.323 110.691 368.094C109.99 360.597 109.349 351.046 109.116 347.208C112.798 337.382 114.519 327.054 114.919 323.118C115.194 319.846 114.101 313.88 113.521 311.306L111.16 317.575C109.592 321.491 108.307 324.948 108.141 326.874C107.705 331.958 103.893 341.457 103.662 345.88C103.131 347.104 102.533 346.343 102.301 345.809C102.702 335.134 102.342 323.05 101.83 318.327C101.708 313.677 100.049 308.821 99.5168 306.989C97.3272 302.127 93.9305 299.067 92.5059 298.145L94.9505 307.338C94.163 310.48 94.193 316.886 94.3064 319.696C95.6907 332.029 94.8567 341.964 94.2666 345.39C93.9505 346.469 93.271 345.795 92.9707 345.323C91.4647 336.322 86.599 322.968 84.3545 317.417C82.5525 313.096 79.7027 309.848 78.5031 308.764C75.2874 302.648 71.2069 299.992 69.5687 299.428L74.0329 311.009C74.2439 313.942 75.066 317.367 75.4506 318.713L79.4439 329.356L84.612 344.887C84.8253 346.776 83.4984 346.307 82.8082 345.836L80.2419 340.224L72.5231 325.017C68.8628 319.453 66.0556 316.137 65.1095 315.174L61.4164 305.003C59.774 301.611 59.4167 301.854 59.5546 305.819L61.2771 317.649C61.2771 317.649 62.3516 324.957 62.876 326.862C63.4004 328.768 66.853 336.157 68.5138 339.613L75.6991 350.096C76.7991 351.928 76.7745 353.979 76.6247 354.775L72.7607 354.117L68.8514 350.587L59.9245 343.6C57.7603 341.244 55.5179 338.392 54.6673 337.261L51.3615 333.371L49.5086 331.143L50.093 334.022L50.7147 337.055L54.2265 345.716C55.9764 349.042 58.197 352.228 59.0886 353.405L60.982 355.721L74.3716 369.332Z" fill="black" stroke="black"/>
<path d="M544.014 410.206C551.47 421.144 557.763 427.901 559.978 429.913C567.038 437.879 571.376 440.363 572.737 440.567C577.011 441.897 578.864 439.586 579.561 438.917L580.421 436.317L580.896 433.064L581.461 426.033C581.759 420.043 580.644 411.527 580.239 407.313C579.197 399.855 578.12 390.343 577.713 386.52C580.943 376.536 582.191 366.141 582.411 362.191C582.536 358.909 581.173 352.999 580.476 350.455L578.403 356.824C577.015 360.808 575.889 364.32 575.812 366.252C575.608 371.35 572.233 381.013 572.204 385.442C571.729 386.69 571.098 385.956 570.842 385.433C570.755 374.751 569.844 362.696 569.117 358.002C568.784 353.362 566.905 348.587 566.289 346.781C563.88 342.024 560.348 339.122 558.883 338.266L561.744 347.338C561.1 350.512 561.423 356.91 561.664 359.712C563.609 371.97 563.229 381.932 562.796 385.381C562.53 386.474 561.82 385.831 561.498 385.373C559.583 376.451 554.114 363.333 551.618 357.889C549.621 353.655 546.626 350.54 545.379 349.512C541.887 343.549 537.69 341.082 536.028 340.594L541.015 351.959C541.36 354.879 542.337 358.263 542.783 359.59L547.258 370.04L553.129 385.319C553.428 387.197 552.081 386.789 551.37 386.35L548.55 380.86L540.146 366.021C536.236 360.629 533.28 357.445 532.291 356.527L528.138 346.535C526.343 343.221 525.997 343.479 526.316 347.435L528.576 359.173C528.576 359.173 529.982 366.425 530.593 368.305C531.204 370.184 534.99 377.408 536.807 380.785L544.463 390.929C545.645 392.709 545.714 394.759 545.601 395.561L541.711 395.08L537.644 391.732L528.408 385.159C526.139 382.904 523.769 380.158 522.867 379.066L519.387 375.332L517.435 373.19L518.15 376.04L518.909 379.041L522.813 387.533C524.712 390.776 527.076 393.857 528.02 394.992L530.017 397.219L544.014 410.206Z" fill="black" stroke="black"/>
<path d="M385.518 408.191C397.738 413.279 406.702 415.501 409.656 415.976C419.921 418.791 424.911 418.502 426.162 417.93C430.469 416.709 430.759 413.761 430.977 412.82L430.277 410.173L428.898 407.188L425.53 400.991C422.507 395.811 416.921 389.287 414.279 385.979C409.332 380.301 403.234 372.922 400.804 369.942C398.056 359.815 393.422 350.426 391.449 346.998C389.761 344.181 385.39 339.975 383.416 338.225L385.16 344.692C386.174 348.787 387.149 352.344 388.14 354.004C390.754 358.386 393.206 368.324 395.601 372.049C395.885 373.353 394.956 373.084 394.455 372.786C388.547 363.886 381.198 354.286 378.025 350.752C375.211 347.048 371.029 344.074 369.527 342.898C364.91 340.229 360.366 339.729 358.671 339.812L366.024 345.848C367.219 348.858 370.984 354.041 372.717 356.256C381.043 365.46 386.167 374.012 387.688 377.138C388.062 378.198 387.116 378.048 386.597 377.84C380.119 371.412 368.371 363.413 363.307 360.217C359.321 357.762 355.111 356.789 353.504 356.609C347.322 353.522 342.459 353.748 340.8 354.247L351.186 361.042C353.07 363.3 355.738 365.6 356.836 366.469L366.293 372.777L379.557 382.367C380.833 383.776 379.482 384.17 378.647 384.191L373.286 381.133L358.14 373.296C351.92 370.916 347.704 369.863 346.374 369.634L337.437 363.534C334.123 361.739 333.975 362.144 336.402 365.283L344.708 373.88C344.708 373.88 349.848 379.186 351.386 380.427C352.925 381.668 360.042 385.65 363.408 387.486L375.363 391.8C377.325 392.645 378.503 394.324 378.847 395.058L375.326 396.78L370.091 396.198L358.764 395.738C355.631 395.089 352.145 394.083 350.794 393.662L345.839 392.434L343.034 391.707L345.19 393.704L347.465 395.802L355.374 400.783C358.737 402.461 362.399 403.751 363.81 404.185L366.7 404.96L385.518 408.191Z" fill="black" stroke="black"/>
<path d="M103.503 78.1209C113.844 69.8572 120.106 63.0695 121.944 60.7086C129.351 53.0651 131.499 48.5518 131.6 47.1789C132.602 42.8165 130.157 41.1437 129.437 40.4999L126.78 39.8392L123.5 39.6119L116.447 39.582C110.451 39.7387 102.044 41.4958 97.8729 42.2194C90.5155 43.8236 81.1127 45.6178 77.3309 46.3143C67.1314 43.8495 56.6711 43.393 52.7159 43.4729C49.434 43.597 43.6446 45.4044 41.1602 46.2926L47.6684 47.8762C51.746 48.9585 55.3331 49.8148 57.2651 49.7455C62.3646 49.5627 72.2557 52.1957 76.6738 51.8885C77.9537 52.2678 77.2701 52.9527 76.7684 53.2478C66.1235 54.144 54.1721 55.966 49.5465 57.0465C44.9456 57.7306 40.3263 59.9658 38.5722 60.7165C34.0114 63.4792 31.3859 67.2216 30.6432 68.7475L39.472 65.2068C42.6859 65.6078 49.0411 64.8017 51.8169 64.3485C63.8915 61.4797 73.8543 61.1036 77.3264 61.2741C78.436 61.4571 77.8487 62.2134 77.4164 62.5687C68.6649 65.1544 55.9991 71.6025 50.7602 74.5034C46.6904 76.8156 43.8111 80.038 42.8802 81.3602C37.1994 85.2934 35.0573 89.6657 34.6964 91.3602L45.6507 85.5254C48.5363 84.9605 51.8369 83.7294 53.1265 83.1844L63.2072 77.9307L77.997 70.9186C79.8466 70.4778 79.5417 71.8519 79.158 72.594L73.8983 75.8215L59.7389 85.3263C54.6587 89.634 51.7075 92.8225 50.8668 93.8782L41.2184 98.7767C38.0505 100.818 38.3342 101.143 42.2541 100.526L53.7873 97.3825C53.7873 97.3825 60.9115 95.4303 62.7395 94.6788C64.5675 93.9273 71.4834 89.6047 74.7129 87.5373L84.2482 79.1344C85.9326 77.8206 87.9714 77.5964 88.7803 77.6486L88.5955 81.5639L85.5654 85.8722L79.7116 95.5801C77.6349 98.0139 75.076 100.585 74.0561 101.567L70.5957 105.32L68.6084 107.429L71.3959 106.5L74.3306 105.515L82.5026 100.98C85.5921 98.8395 88.4849 96.2492 89.5451 95.2216L91.6146 93.0614L103.503 78.1209Z" fill="black" stroke="black"/>
<path d="M227.131 419.84C240.239 421.691 249.473 421.587 252.451 421.304C263.094 421.446 267.851 419.911 268.918 419.042C272.78 416.778 272.318 413.851 272.293 412.886L270.949 410.499L268.864 407.958L264.045 402.807C259.817 398.554 252.77 393.645 249.38 391.107C243.165 386.857 235.407 381.249 232.305 378.976C227.098 369.866 220.252 361.944 217.479 359.122C215.137 356.82 209.849 353.85 207.498 352.652L210.813 358.473C212.824 362.181 214.662 365.378 216.039 366.736C219.671 370.319 224.544 379.321 227.8 382.323C228.402 383.515 227.435 383.487 226.876 383.325C218.919 376.197 209.392 368.755 205.431 366.132C201.776 363.255 196.981 361.429 195.231 360.668C190.091 359.247 185.568 359.905 183.948 360.412L192.582 364.404C194.496 367.017 199.444 371.086 201.678 372.794C212.051 379.608 219.162 386.597 221.421 389.239C222.049 390.172 221.096 390.264 220.541 390.193C212.654 385.602 199.272 380.815 193.567 378.995C189.092 377.621 184.772 377.738 183.172 377.969C176.413 376.536 171.762 377.978 170.282 378.879L182.044 382.842C184.435 384.553 187.595 386.109 188.877 386.673L199.616 390.4L214.866 396.345C216.456 397.388 215.247 398.109 214.444 398.34L208.487 396.729L191.857 392.953C185.237 392.214 180.893 392.255 179.548 392.368L169.363 388.712C165.705 387.809 165.663 388.239 168.802 390.666L179.003 396.897C179.003 396.897 185.312 400.74 187.113 401.553C188.914 402.367 196.804 404.431 200.524 405.361L213.18 406.53C215.292 406.854 216.854 408.183 217.371 408.807L214.396 411.36L209.183 412.112L198.105 414.517C194.91 414.677 191.283 414.58 189.869 414.512L184.765 414.57L181.867 414.572L184.456 415.962L187.186 417.421L196.093 420.252C199.77 421.031 203.639 421.357 205.114 421.423L208.105 421.446L227.131 419.84Z" fill="black" stroke="black"/>
</svg>
