<svg width="605" height="460" viewBox="0 0 605 460" fill="none" xmlns="http://www.w3.org/2000/svg">
<rect x="0.5" y="0.5" width="604" height="459" rx="19.5" fill="#F87B21" stroke="black"/>
<path d="M476.817 263.474C489.387 267.627 498.492 269.167 501.473 269.418C511.921 271.451 516.875 270.786 518.08 270.121C522.283 268.579 522.349 265.617 522.496 264.663L521.598 262.075L519.998 259.203L516.172 253.278C512.767 248.34 506.706 242.256 503.822 239.157C498.461 233.868 491.824 226.97 489.176 224.182C485.672 214.291 480.344 205.278 478.117 202.008C476.222 199.326 471.547 195.463 469.446 193.866L471.673 200.183C472.992 204.19 474.233 207.663 475.346 209.244C478.283 213.417 481.477 223.141 484.147 226.675C484.528 227.954 483.581 227.755 483.06 227.496C476.497 219.067 468.446 210.049 465.015 206.763C461.93 203.282 457.535 200.633 455.949 199.573C451.144 197.26 446.575 197.104 444.891 197.315L452.678 202.778C454.097 205.69 458.242 210.574 460.137 212.652C469.133 221.202 474.887 229.344 476.64 232.346C477.092 233.375 476.138 233.296 475.605 233.128C468.66 227.208 456.343 220.117 451.052 217.311C446.893 215.164 442.621 214.511 441.005 214.453C434.608 211.841 429.776 212.433 428.159 213.056L439.028 219.048C441.077 221.157 443.91 223.25 445.071 224.033L454.976 229.611L468.926 238.173C470.305 239.482 468.987 239.977 468.156 240.061L462.58 237.416L446.887 230.743C440.504 228.838 436.221 228.106 434.878 227.979L425.506 222.569C422.066 221.03 421.949 221.445 424.606 224.392L433.537 232.339C433.537 232.339 439.062 237.241 440.689 238.363C442.317 239.484 449.714 242.918 453.21 244.495L465.456 247.896C467.476 248.59 468.777 250.176 469.175 250.882L465.794 252.865L460.53 252.678L449.2 253.074C446.028 252.663 442.476 251.923 441.097 251.604L436.064 250.754L433.212 250.241L435.512 252.069L437.939 253.99L446.201 258.36C449.68 259.78 453.43 260.79 454.87 261.117L457.809 261.671L476.817 263.474Z" fill="#FFD527" stroke="#FFD527"/>
<path d="M49.6228 86.2359C46.9672 99.2045 46.5015 108.427 46.6006 111.418C45.8022 122.032 47.0408 126.874 47.8424 127.993C49.8644 131.987 52.8141 131.706 53.7788 131.741L56.2436 130.547L58.9091 128.622L64.3471 124.13C68.8531 120.172 74.1871 113.441 76.9289 110.215C81.5546 104.273 87.6303 96.8757 90.0899 93.9199C99.5038 89.2848 107.833 82.9399 110.82 80.3468C113.262 78.1507 116.553 73.0563 117.893 70.7836L111.879 73.7329C108.054 75.5114 104.75 77.1496 103.31 78.4395C99.5091 81.8442 90.2244 86.1526 87.0266 89.2167C85.8005 89.7445 85.8873 88.7807 86.0839 88.2329C93.6886 80.7305 101.704 71.6805 104.567 67.8896C107.664 64.4189 109.782 59.7448 110.649 58.0453C112.384 53.0033 112.006 48.4475 111.6 46.7998L107.083 55.1714C104.357 56.9206 99.9908 61.6078 98.1482 63.7328C90.7078 73.6659 83.2942 80.3321 80.5175 82.4236C79.5479 82.9932 79.515 82.0362 79.6197 81.4866C84.6883 73.8981 90.2918 60.8367 92.4599 55.2546C94.1067 50.873 94.2561 46.5542 94.125 44.9425C95.9718 38.2844 94.8188 33.554 94.0115 32.0211L89.3303 43.5159C87.4749 45.7969 85.7271 48.8555 85.0851 50.0997L80.7032 60.5888L73.8289 75.443C72.69 76.9656 72.0447 75.7148 71.8644 74.8991L73.8395 69.0526L78.6339 52.6867C79.7795 46.1253 80.006 41.7865 79.9761 40.4373L84.2533 30.4979C85.3805 26.9017 84.9543 26.8334 82.338 29.817L75.4893 39.6144C75.4893 39.6144 71.2654 45.6745 70.342 47.422C69.4186 49.1695 66.8721 56.9174 65.7143 60.5729L63.7671 73.1323C63.314 75.22 61.8911 76.6972 61.2363 77.1749L58.872 74.0485L58.4423 68.7989L56.7256 57.5935C56.7632 54.3943 57.0832 50.7807 57.2385 49.3738L57.495 44.2755L57.6716 41.383L56.1248 43.881L54.5002 46.516L51.1251 55.2317C50.1213 58.8534 49.5569 62.6952 49.4002 64.1633L49.1929 67.1477L49.6228 86.2359Z" fill="#FFD527" stroke="#FFD527"/>
<path d="M329.587 386.363C325.592 398.983 324.165 408.107 323.951 411.091C322.049 421.564 322.775 426.509 323.455 427.706C325.049 431.889 328.012 431.918 328.968 432.053L331.544 431.123L334.396 429.487L340.273 425.588C345.168 422.122 351.176 415.985 354.24 413.063C359.46 407.636 366.275 400.914 369.03 398.231C378.877 394.604 387.823 389.164 391.065 386.897C393.723 384.968 397.528 380.245 399.098 378.125L392.809 380.43C388.819 381.799 385.362 383.083 383.795 384.216C379.659 387.205 369.975 390.52 366.475 393.234C365.2 393.631 365.387 392.681 365.64 392.157C373.987 385.49 382.904 377.326 386.146 373.855C389.589 370.727 392.183 366.299 393.223 364.7C395.476 359.866 395.575 355.296 395.344 353.615L389.977 361.469C387.084 362.924 382.251 367.13 380.197 369.051C371.76 378.152 363.691 384.008 360.711 385.798C359.687 386.263 359.754 385.308 359.916 384.772C365.749 377.755 372.686 365.35 375.425 360.025C377.521 355.839 378.12 351.559 378.158 349.943C380.69 343.514 380.037 338.689 379.395 337.08L373.539 348.023C371.455 350.098 369.398 352.957 368.629 354.128L363.176 364.102L354.788 378.157C353.496 379.552 352.985 378.241 352.891 377.411L355.466 371.803L361.943 356.027C363.768 349.621 364.446 345.33 364.557 343.985L369.849 334.546C371.346 331.087 370.929 330.975 368.015 333.669L360.181 342.698C360.181 342.698 355.347 348.284 354.246 349.925C353.145 351.567 349.804 359.006 348.271 362.521L345.022 374.808C344.354 376.837 342.784 378.158 342.083 378.564L340.058 375.208L340.179 369.942L339.642 358.619C340.014 355.441 340.709 351.881 341.011 350.498L341.798 345.454L342.276 342.596L340.477 344.919L338.586 347.37L334.319 355.685C332.942 359.182 331.98 362.944 331.671 364.388L331.153 367.334L329.587 386.363Z" fill="#FFD527" stroke="#FFD527"/>
<path d="M312.226 184.714C303.713 194.851 298.91 202.738 297.572 205.415C291.814 214.367 290.596 219.214 290.768 220.58C290.643 225.055 293.37 226.213 294.202 226.703L296.937 226.828L300.198 226.405L307.119 225.046C312.967 223.713 320.863 220.336 324.811 218.805C331.709 215.785 340.574 212.175 344.145 210.748C354.63 211.158 364.976 209.547 368.838 208.69C372.031 207.922 377.352 205.011 379.613 203.651L372.92 203.379C368.709 203.121 365.024 202.987 363.143 203.435C358.18 204.618 347.964 203.983 343.692 205.154C342.363 205.034 342.898 204.227 343.332 203.839C353.593 200.866 364.952 196.728 369.274 194.758C373.651 193.182 377.74 190.081 379.312 189C383.24 185.394 385.077 181.208 385.505 179.566L377.546 184.775C374.316 185.014 368.244 187.055 365.611 188.046C354.337 193.234 344.643 195.564 341.206 196.08C340.082 196.119 340.509 195.262 340.863 194.828C348.934 190.571 360.083 181.756 364.649 177.881C368.184 174.813 370.373 171.087 371.025 169.608C375.821 164.634 377.061 159.925 377.081 158.193L367.489 166.069C364.771 167.191 361.778 169.048 360.62 169.836L351.771 176.971L338.65 186.756C336.923 187.552 336.952 186.145 337.182 185.342L341.704 181.142L353.716 169.037C357.849 163.814 360.115 160.107 360.731 158.906L369.227 152.205C371.931 149.58 371.589 149.317 367.868 150.694L357.179 156.045C357.179 156.045 350.578 159.361 348.933 160.458C347.289 161.554 341.359 167.154 338.6 169.816L330.904 179.931C329.511 181.551 327.557 182.172 326.753 182.28L326.164 178.405L328.287 173.584L332.116 162.914C333.673 160.119 335.676 157.095 336.483 155.932L339.137 151.571L340.67 149.112L338.12 150.572L335.436 152.114L328.317 158.17C325.709 160.876 323.382 163.985 322.545 165.201L320.941 167.726L312.226 184.714Z" fill="#FFD527" stroke="#FFD527"/>
<path d="M245.739 307.135C256.255 315.175 264.353 319.613 267.088 320.826C276.294 326.169 281.192 327.164 282.549 326.93C287.024 326.85 288.057 324.073 288.508 323.219L288.508 320.481L287.936 317.243L286.262 310.391C284.663 304.611 280.928 296.877 279.219 293.004C275.886 286.251 271.874 277.56 270.286 274.058C270.215 263.565 268.132 253.304 267.1 249.485C266.187 246.33 263.036 241.149 261.574 238.952L261.608 245.65C261.543 249.868 261.578 253.556 262.111 255.414C263.52 260.319 263.353 270.553 264.718 274.766C264.659 276.1 263.829 275.602 263.421 275.186C259.982 265.073 255.328 253.915 253.163 249.687C251.388 245.387 248.104 241.444 246.952 239.923C243.17 236.164 238.904 234.52 237.244 234.168L242.812 241.88C243.198 245.096 245.515 251.069 246.625 253.653C252.324 264.678 255.094 274.255 255.767 277.665C255.857 278.786 254.982 278.399 254.533 278.065C249.911 270.197 240.595 259.463 236.515 255.079C233.289 251.688 229.467 249.672 227.959 249.088C222.77 244.525 218.01 243.501 216.279 243.56L224.586 252.782C225.831 255.446 227.822 258.351 228.662 259.471L236.195 267.985L246.57 280.645C247.444 282.333 246.037 282.369 245.224 282.176L240.823 277.851L228.18 266.405C222.774 262.515 218.967 260.421 217.739 259.86L210.656 251.68C207.911 249.099 207.663 249.452 209.209 253.107L215.044 263.54C215.044 263.54 218.658 269.982 219.829 271.575C221 273.168 226.864 278.835 229.65 281.47L240.106 288.695C241.788 290.012 242.498 291.936 242.642 292.734L238.798 293.5L233.886 291.599L223.052 288.263C220.189 286.835 217.076 284.973 215.877 284.22L211.4 281.768L208.873 280.349L210.448 282.829L212.112 285.44L218.486 292.275C221.309 294.756 224.521 296.938 225.774 297.719L228.37 299.205L245.739 307.135Z" fill="#FFD527" stroke="#FFD527"/>
<path d="M407.985 95.2844C421.218 95.6303 430.38 94.4755 433.307 93.8548C443.897 92.7841 448.448 90.7175 449.41 89.7325C452.988 87.0431 452.196 84.1879 452.061 83.232L450.455 81.0141L448.093 78.7264L442.719 74.158C438.034 70.4139 430.474 66.3397 426.818 64.2046C420.158 60.6897 411.812 56.0017 408.471 54.0971C402.261 45.6392 394.557 38.5488 391.481 36.0609C388.892 34.0408 383.3 31.6917 380.828 30.7697L384.784 36.1749C387.204 39.6304 389.395 42.5969 390.917 43.789C394.934 46.9356 400.8 55.3234 404.377 57.9359C405.111 59.0507 404.147 59.1339 403.573 59.0361C394.856 52.8612 384.543 46.5521 380.31 44.3972C376.351 41.9552 371.379 40.6874 369.554 40.1309C364.286 39.304 359.866 40.4736 358.315 41.1618L367.348 44.1443C369.547 46.5221 374.926 50.0014 377.34 51.4438C388.422 57.0319 396.282 63.1649 398.827 65.533C399.557 66.388 398.621 66.5878 398.062 66.5808C389.703 62.9179 375.863 59.6858 369.988 58.5276C365.386 57.6727 361.107 58.2811 359.543 58.6921C352.665 58.0386 348.209 60.0012 346.841 61.0643L358.978 63.6624C361.548 65.0902 364.865 66.276 366.203 66.6904L377.296 69.1699L393.124 73.3396C394.823 74.1946 393.704 75.0488 392.932 75.369L386.83 74.4471L369.878 72.5896C363.218 72.6095 358.906 73.1454 357.583 73.4109L347.049 70.9385C343.311 70.4578 343.318 70.8894 346.713 72.9433L357.558 77.9726C357.558 77.9726 364.263 81.0711 366.145 81.6746C368.027 82.2781 376.101 83.4299 379.903 83.9304L392.609 83.6504C394.744 83.7314 396.447 84.8739 397.032 85.4351L394.368 88.3098L389.274 89.6512L378.542 93.3017C375.385 93.8243 371.772 94.1414 370.359 94.2346L365.295 94.874L362.416 95.206L365.146 96.292L368.025 97.4306L377.196 99.229C380.938 99.5837 384.819 99.4674 386.292 99.3649L389.267 99.0469L407.985 95.2844Z" fill="#FFD527" stroke="#FFD527"/>
<path d="M210.053 49.9443C198.043 44.3776 189.174 41.8035 186.242 41.2123C176.096 37.9945 171.098 38.0864 169.825 38.6092C165.473 39.6586 165.068 42.5937 164.813 43.5248L165.407 46.1979L166.668 49.2347L169.789 55.5599C172.604 60.8553 177.929 67.5942 180.438 71.0044C185.157 76.8726 190.959 84.4865 193.27 87.5599C195.616 97.7874 199.875 107.352 201.712 110.856C203.288 113.737 207.489 118.112 209.392 119.939L207.905 113.408C207.054 109.276 206.219 105.683 205.295 103.985C202.856 99.5036 200.798 89.477 198.551 85.6603C198.32 84.3456 199.238 84.6517 199.726 84.9691C205.278 94.0951 212.242 103.977 215.273 107.635C217.939 111.447 222.001 114.583 223.455 115.818C227.963 118.666 232.484 119.345 234.181 119.329L227.072 113.008C225.997 109.953 222.439 104.626 220.795 102.344C212.839 92.8188 208.056 84.071 206.659 80.8877C206.328 79.8131 207.267 80.0011 207.777 80.2295C213.997 86.9072 225.42 95.3641 230.354 98.7578C234.239 101.368 238.408 102.507 240.007 102.75C246.062 106.078 250.93 106.044 252.608 105.61L242.498 98.4115C240.704 96.0812 238.13 93.6769 237.066 92.766L227.866 86.0895L214.991 75.9836C213.771 74.525 215.137 74.1847 215.972 74.1968L221.207 77.4634L236.032 85.8928C242.154 88.5166 246.325 89.7348 247.645 90.0159L256.334 96.4641C259.575 98.3881 259.739 97.989 257.437 94.7567L249.477 85.8385C249.477 85.8385 244.551 80.3343 243.063 79.0338C241.574 77.7333 234.62 73.4734 231.328 71.506L219.553 66.7228C217.626 65.8018 216.515 64.0773 216.201 63.3302L219.787 61.7482L224.995 62.5372L236.295 63.4433C239.4 64.2156 242.843 65.358 244.176 65.8327L249.079 67.2546L251.853 68.0917L249.778 66.0118L247.587 63.8249L239.881 58.536C236.588 56.7263 232.979 55.2935 231.586 54.8034L228.729 53.9154L210.053 49.9443Z" fill="#FFD527" stroke="#FFD527"/>
<path d="M155.372 406.368C162.321 417.635 168.3 424.673 170.421 426.783C177.11 435.062 181.33 437.742 182.681 438.008C186.889 439.532 188.846 437.307 189.572 436.671L190.55 434.113L191.173 430.885L192.058 423.887C192.629 417.917 191.904 409.359 191.691 405.131C190.99 397.633 190.349 388.082 190.116 384.244C193.798 374.418 195.519 364.09 195.919 360.155C196.194 356.882 195.101 350.916 194.521 348.342L192.16 354.611C190.592 358.527 189.307 361.984 189.141 363.91C188.705 368.994 184.893 378.493 184.662 382.916C184.131 384.14 183.533 383.379 183.301 382.845C183.702 372.17 183.342 360.086 182.83 355.364C182.708 350.714 181.049 345.857 180.517 344.025C178.327 339.163 174.931 336.104 173.506 335.182L175.95 344.374C175.163 347.516 175.193 353.922 175.306 356.732C176.691 369.066 175.857 379 175.267 382.426C174.951 383.505 174.271 382.831 173.971 382.359C172.465 373.358 167.599 360.005 165.354 354.453C163.552 350.133 160.703 346.884 159.503 345.8C156.287 339.684 152.207 337.028 150.569 336.464L155.033 348.045C155.244 350.978 156.066 354.403 156.451 355.749L160.444 366.393L165.612 381.923C165.825 383.813 164.498 383.343 163.808 382.873L161.242 377.26L153.523 362.054C149.863 356.489 147.056 353.173 146.11 352.21L142.416 342.04C140.774 338.648 140.417 338.89 140.555 342.856L142.277 354.685C142.277 354.685 143.352 361.993 143.876 363.899C144.4 365.804 147.853 373.193 149.514 376.649L156.699 387.133C157.799 388.964 157.775 391.015 157.625 391.811L153.761 391.153L149.851 387.623L140.924 380.636C138.76 378.28 136.518 375.428 135.667 374.297L132.361 370.407L130.509 368.179L131.093 371.059L131.715 374.091L135.227 382.752C136.976 386.079 139.197 389.264 140.089 390.441L141.982 392.757L155.372 406.368Z" fill="#FFD527" stroke="#FFD527"/>
<path d="M531.014 148.241C538.47 159.179 544.763 165.937 546.978 167.949C554.038 175.914 558.376 178.398 559.737 178.602C564.011 179.933 565.864 177.621 566.561 176.953L567.421 174.353L567.896 171.099L568.461 164.069C568.759 158.079 567.644 149.563 567.239 145.349C566.197 137.891 565.12 128.379 564.713 124.555C567.943 114.572 569.191 104.176 569.411 100.226C569.536 96.9447 568.173 91.035 567.476 88.4903L565.403 94.8598C564.015 98.8436 562.889 102.355 562.812 104.287C562.608 109.386 559.233 119.049 559.204 123.478C558.729 124.725 558.098 123.992 557.842 123.469C557.755 112.787 556.844 100.732 556.117 96.0374C555.784 91.3979 553.905 86.6225 553.289 84.8166C550.88 80.0594 547.348 77.1578 545.883 76.3017L548.744 85.3734C548.1 88.5477 548.423 94.9457 548.664 97.7479C550.609 110.005 550.229 119.968 549.796 123.417C549.53 124.509 548.82 123.867 548.498 123.409C546.583 114.486 541.114 101.368 538.618 95.9245C536.621 91.6911 533.626 88.5759 532.379 87.5474C528.887 81.5849 524.69 79.1176 523.028 78.6292L528.015 89.9943C528.36 92.9144 529.337 96.2988 529.783 97.6261L534.258 108.076L540.129 123.355C540.428 125.232 539.081 124.824 538.37 124.385L535.55 118.896L527.146 104.057C523.236 98.665 520.28 95.4805 519.291 94.5623L515.138 84.5704C513.343 81.2568 512.997 81.5151 513.316 85.4705L515.576 97.2087C515.576 97.2087 516.982 104.46 517.593 106.34C518.204 108.22 521.99 115.444 523.807 118.82L531.463 128.965C532.645 130.744 532.714 132.794 532.601 133.597L528.711 133.116L524.644 129.768L515.408 123.195C513.139 120.94 510.769 118.193 509.867 117.102L506.387 113.367L504.435 111.226L505.15 114.076L505.909 117.077L509.813 125.569C511.712 128.812 514.076 131.892 515.02 133.027L517.017 135.255L531.014 148.241Z" fill="#FFD527" stroke="#FFD527"/>
<path d="M510.518 425.224C522.738 430.313 531.702 432.535 534.656 433.01C544.921 435.825 549.911 435.536 551.162 434.963C555.469 433.743 555.759 430.794 555.977 429.853L555.277 427.206L553.898 424.221L550.53 418.024C547.507 412.844 541.921 406.32 539.279 403.012C534.332 397.334 528.234 389.955 525.804 386.976C523.056 376.849 518.422 367.46 516.449 364.031C514.761 361.214 510.39 357.009 508.416 355.258L510.16 361.725C511.174 365.821 512.149 369.377 513.14 371.037C515.754 375.419 518.206 385.357 520.601 389.082C520.885 390.387 519.956 390.117 519.455 389.819C513.547 380.919 506.198 371.32 503.025 367.785C500.211 364.081 496.029 361.107 494.527 359.931C489.91 357.263 485.366 356.762 483.671 356.846L491.024 362.881C492.219 365.891 495.984 371.074 497.717 373.289C506.043 382.493 511.167 391.045 512.688 394.171C513.062 395.232 512.116 395.081 511.597 394.873C505.119 388.446 493.371 380.446 488.307 377.25C484.321 374.795 480.111 373.822 478.504 373.642C472.322 370.555 467.459 370.782 465.8 371.281L476.186 378.075C478.07 380.333 480.738 382.634 481.836 383.502L491.293 389.81L504.557 399.4C505.833 400.809 504.482 401.203 503.647 401.224L498.286 398.167L483.14 390.329C476.92 387.949 472.704 386.896 471.374 386.667L462.437 380.567C459.123 378.772 458.975 379.178 461.402 382.317L469.708 390.914C469.708 390.914 474.848 396.219 476.386 397.46C477.925 398.701 485.042 402.683 488.408 404.519L500.363 408.834C502.325 409.678 503.503 411.357 503.847 412.091L500.326 413.814L495.091 413.231L483.764 412.771C480.631 412.122 477.145 411.116 475.794 410.695L470.839 409.467L468.034 408.74L470.19 410.737L472.465 412.836L480.374 417.816C483.737 419.495 487.399 420.784 488.81 421.219L491.7 421.993L510.518 425.224Z" fill="#FFD527" stroke="#FFD527"/>
<path d="M160.503 200.157C170.844 191.893 177.106 185.105 178.944 182.744C186.351 175.101 188.499 170.587 188.6 169.215C189.602 164.852 187.157 163.179 186.437 162.536L183.78 161.875L180.5 161.648L173.447 161.618C167.451 161.774 159.044 163.531 154.873 164.255C147.516 165.859 138.113 167.653 134.331 168.35C124.131 165.885 113.671 165.429 109.716 165.509C106.434 165.633 100.645 167.44 98.1602 168.328L104.668 169.912C108.746 170.994 112.333 171.85 114.265 171.781C119.365 171.598 129.256 174.231 133.674 173.924C134.954 174.303 134.27 174.988 133.768 175.283C123.124 176.18 111.172 178.002 106.546 179.082C101.946 179.766 97.3263 182.001 95.5722 182.752C91.0114 185.515 88.3859 189.257 87.6432 190.783L96.472 187.242C99.6859 187.643 106.041 186.837 108.817 186.384C120.892 183.515 130.854 183.139 134.326 183.31C135.436 183.493 134.849 184.249 134.416 184.604C125.665 187.19 112.999 193.638 107.76 196.539C103.69 198.851 100.811 202.074 99.8802 203.396C94.1994 207.329 92.0573 211.701 91.6964 213.396L102.651 207.561C105.536 206.996 108.837 205.765 110.127 205.22L120.207 199.966L134.997 192.954C136.847 192.513 136.542 193.888 136.158 194.63L130.898 197.857L116.739 207.362C111.659 211.67 108.707 214.858 107.867 215.914L98.2184 220.812C95.0505 222.854 95.3342 223.179 99.2541 222.561L110.787 219.418C110.787 219.418 117.911 217.466 119.74 216.714C121.568 215.963 128.483 211.64 131.713 209.573L141.248 201.17C142.933 199.856 144.971 199.632 145.78 199.684L145.595 203.6L142.565 207.908L136.712 217.616C134.635 220.05 132.076 222.621 131.056 223.602L127.596 227.355L125.608 229.464L128.396 228.535L131.331 227.551L139.503 223.015C142.592 220.875 145.485 218.285 146.545 217.257L148.615 215.097L160.503 200.157Z" fill="#FFD527" stroke="#FFD527"/>
<path d="M84.1309 327.877C97.2386 329.728 106.473 329.624 109.451 329.341C120.094 329.483 124.851 327.948 125.918 327.079C129.78 324.815 129.318 321.888 129.293 320.923L127.949 318.536L125.864 315.995L121.045 310.844C116.817 306.591 109.77 301.682 106.38 299.144C100.165 294.894 92.4067 289.286 89.3048 287.013C84.0981 277.903 77.2517 269.981 74.4793 267.159C72.1368 264.857 66.8491 261.887 64.4981 260.689L67.8127 266.51C69.8236 270.218 71.6625 273.415 73.0387 274.773C76.6713 278.356 81.5441 287.358 84.7995 290.361C85.402 291.552 84.4347 291.525 83.8757 291.362C75.9187 284.235 66.3916 276.792 62.4314 274.169C58.7764 271.292 53.9806 269.466 52.2308 268.705C47.0914 267.284 42.5675 267.943 40.948 268.45L49.5822 272.441C51.4962 275.054 56.4438 279.124 58.6783 280.832C69.0513 287.645 76.162 294.634 78.4207 297.276C79.049 298.209 78.0959 298.301 77.5408 298.23C69.6543 293.639 56.2722 288.852 50.567 287.032C46.0922 285.658 41.7724 285.776 40.1718 286.006C33.4125 284.573 28.7623 286.016 27.2821 286.916L39.0436 290.879C41.4347 292.591 44.5953 294.146 45.8767 294.71L56.616 298.437L71.8659 304.383C73.4558 305.425 72.2472 306.147 71.4441 306.377L65.487 304.766L48.8565 300.99C42.237 300.251 37.8925 300.292 36.5477 300.406L26.3635 296.749C22.7046 295.846 22.6627 296.276 25.8019 298.703L36.003 304.935C36.003 304.935 42.3121 308.777 44.1132 309.591C45.9143 310.405 53.8045 312.468 57.5244 313.399L70.18 314.568C72.2916 314.891 73.8538 316.22 74.3709 316.844L71.3963 319.397L66.1832 320.15L55.1049 322.554C51.9095 322.714 48.2831 322.617 46.8693 322.549L41.7649 322.607L38.867 322.609L41.4556 323.999L44.1858 325.458L53.093 328.289C56.7697 329.068 60.639 329.394 62.114 329.46L65.1055 329.483L84.1309 327.877Z" fill="#FFD527" stroke="#FFD527"/>
</svg>
