<svg width="177" height="117" viewBox="0 0 177 117" fill="none" xmlns="http://www.w3.org/2000/svg">
<path d="M157.82 1.92057C160.341 3.08976 166.925 9.35285 173.095 25.0517C175.859 32.2312 179.325 47.5113 171.073 51.1956C171.04 51.212 171.007 51.2279 170.974 51.2431C169.575 51.9168 135.941 68.2636 124.992 71.9561C114.995 75.3276 114.676 74.8904 109.821 75.5474C109.222 75.6283 108.978 74.662 108.222 73.9376C107.451 73.648 106.891 73.8241 105.561 73.7107C104.722 73.3245 104.511 72.0404 103.886 71.1456C103.188 71.1265 101.233 71.7183 100.596 71.4725C99.9785 71.234 99.4615 70.7035 98.7956 70.2522C98.0485 70.17 97.3305 70.05 96.1801 70.229C95.3822 70.0558 94.7185 69.5917 93.8804 69.5064C93.4116 69.4587 92.7535 69.2899 92.1787 70.0379C91.9998 69.48 91.4805 69.4026 90.9843 69.4273C90.6433 69.5376 90.3483 69.6105 90.0951 69.6569C89.1403 69.8318 88.7798 69.6295 88.7798 69.6295C86.3445 71.191 82.9569 75.2128 81.845 77.3292C81.4228 77.8702 80.347 78.4723 79.9246 79.0324C79.6135 79.4451 79.4777 80.1045 79.1998 80.7713C77.7671 82.1484 77.1481 84.325 76.333 85.8261C75.4943 86.9718 74.1974 87.2792 73.3803 88.3439C72.7584 89.1544 71.7448 89.728 71.1399 90.4587C70.7072 91.3881 70.3119 92.3367 70.0735 93.1737C68.6524 94.689 66.6364 95.3821 65.3797 95.9682C62.7087 97.2139 60.488 98.7568 60.488 98.7568C60.488 98.7568 37.5093 110.626 27.8434 115.264C23.0249 117.134 16.5028 112.712 11.0536 105.627C8.80422 102.702 6.73762 99.3241 5.04914 95.7476C4.13502 93.8114 3.33171 91.817 2.67025 89.805C1.58482 86.5036 0.881251 83.1548 0.696513 79.9377C0.435643 75.3953 1.20914 71.1155 3.40246 67.6025C3.40246 67.6025 37.5974 54.3933 44.2555 51.9842C48.0936 50.5955 55.707 51.6786 61.3421 53.2316C62.8465 53.6463 63.7719 53.8915 64.6738 54.1678C67.2556 54.9589 68.3359 55.4647 68.3359 55.4647L69.9502 55.6748L71.1475 56.2869L74.1273 54.7816L76.4676 54.6356L79.3635 53.2395L82.2689 53.1268L84.6003 49.588L88.6466 48.0129L90.5863 45.4888L93.1562 43.9897L95.0477 40.7377L98.388 39.3769L99.7346 37.9314L100.325 35.189L102.169 34.4568L103.848 32.5793L104.878 30.38L105.365 29.328L106.525 27.819C106.525 27.819 143.784 3.23208 150.06 1.82721C151.432 0.23636 153.833 -0.170185 157.82 1.92057Z" fill="#A46C43"/>
<path d="M50.2345 75.839C59.4854 72.4817 61.7654 76.0852 61.7491 78.3067C61.5546 80.2685 56.1264 83.0906 51.3738 85.717C47.5542 87.8278 45.0231 89.7599 45.0231 89.7599C45.0231 89.7599 35.4812 96.9187 30.7161 92.1619C25.8374 89.5093 28.9722 86.2579 31.1494 84.9638C32.6653 84.7701 44.5044 78.7999 50.2345 75.839Z" fill="#A46C43"/>
<path d="M171.073 51.1956C179.325 47.5113 175.859 32.2312 173.095 25.0517C166.925 9.35285 160.341 3.08976 157.82 1.92057C153.833 -0.170186 151.432 0.23636 150.06 1.82721M171.073 51.1956C171.073 51.1956 171.039 51.2118 170.974 51.2431M171.073 51.1956C171.04 51.212 171.007 51.2279 170.974 51.2431M170.974 51.2431C169.575 51.9168 135.941 68.2636 124.992 71.9561C114.995 75.3276 114.676 74.8904 109.821 75.5474C109.222 75.6283 108.978 74.662 108.222 73.9376M170.974 51.2431C169.56 51.8896 170.687 50.9418 167.785 48.1142M90.9843 69.4273C102.133 65.0423 121.231 66.9613 132.412 63.0319C143.594 59.1025 161.46 50.8576 167.785 48.1142M90.9843 69.4273C91.4805 69.4026 91.9998 69.4799 92.1787 70.0379M90.9843 69.4273C90.6433 69.5376 90.3483 69.6105 90.0951 69.6569M68.3359 55.4647C61.8568 58.1321 49.9984 58.1864 34.2812 64.3471C25.4973 68.1534 3.70225 77.0499 0.696511 79.9377M68.3359 55.4647L69.9502 55.6748L71.1475 56.2869L74.1273 54.7816L76.4676 54.6356L79.3635 53.2395L82.2689 53.1268M68.3359 55.4647C68.3359 55.4647 67.2556 54.9589 64.6738 54.1678M68.3359 55.4647L64.6738 54.1678M99.7346 37.9313C110.009 30.5231 142.275 9.88879 151.953 6.28695M99.7346 37.9313L98.388 39.3769L95.0477 40.7377L93.1562 43.9897L90.5863 45.4888L88.6466 48.0129L84.6003 49.588L82.2689 53.1268M99.7346 37.9313L100.325 35.189L102.169 34.4568L103.848 32.5793L104.878 30.38L105.365 29.328L106.525 27.819C106.525 27.819 143.784 3.23209 150.06 1.82721M150.06 1.82721C149.032 3.01985 152.058 4.3163 151.953 6.28695M153.696 18.0516L157.282 19.9542M153.696 18.0516C154.426 20.5174 154.777 22.4815 155.502 24.6135M153.696 18.0516L82.2689 53.1268M157.282 19.9542C158.919 27.9187 164.205 43.6742 172.252 42.9802C174.83 42.3174 178.077 36.5519 170.434 18.7923C168.277 13.7972 162.823 4.41298 158.26 6.83666C157.171 7.64482 155.217 10.4415 156.111 15.163M157.282 19.9542L160.393 21.7054M156.111 15.163L152.365 11.6263C152.056 10.0452 151.856 8.11758 151.953 6.28695M156.111 15.163L159.376 18.2453M160.393 21.7054L166.956 25.401L159.376 18.2453M160.393 21.7054C161.604 26.4787 165.246 36.0118 170.125 35.9588C171.572 34.9103 173.083 29.9524 167.553 18.5086C164.632 13.8675 158.908 7.31725 159.376 18.2453M167.785 48.1142C166.225 46.5933 164.505 44.366 162.685 41.2131M162.685 41.2131C158.623 44.6768 146.413 52.5357 130.062 56.261C124.762 57.5809 100.974 62.4462 88.7798 69.6295M162.685 41.2131C161.483 39.1315 160.237 36.6465 158.966 33.695M88.7798 69.6295C88.7798 69.6295 89.1403 69.8318 90.0951 69.6569M88.7798 69.6295C88.3109 69.8966 88.0125 70.2488 87.5719 70.6239M88.7798 69.6295C86.3445 71.191 82.9569 75.2128 81.845 77.3292M11.0536 105.627C16.5028 112.712 23.0249 117.134 27.8434 115.264C37.5093 110.626 60.488 98.7568 60.488 98.7568C60.488 98.7568 62.7087 97.2139 65.3797 95.9682C66.6365 95.3821 68.6524 94.689 70.0735 93.1737C70.3119 92.3367 70.7072 91.3881 71.1399 90.4587M11.0536 105.627C14.2798 106.924 27.0211 107.966 38.2725 104.005C49.5239 100.045 61.8286 92.2404 66.5746 88.8333C75.2805 83.3351 79.6063 78.8157 82.6685 75.4046M11.0536 105.627C8.80421 102.702 6.73761 99.3241 5.04914 95.7476M158.966 33.695C153.962 36.2106 141.753 42.5876 132.943 47.97C128.01 50.7364 114.753 56.9852 101.196 59.8495C87.6396 62.7138 76.44 72.1504 72.5347 76.5107C68.5752 80.6939 58.4812 90.1038 49.7819 94.2776C41.0826 98.4515 32.933 99.8276 29.9456 99.9939C25.8448 99.4899 12.3435 98.3845 5.04914 95.7476M158.966 33.695C157.828 31.0559 156.67 28.0437 155.502 24.6135M5.04914 95.7476C4.13502 93.8114 3.33172 91.817 2.67025 89.805M155.502 24.6135L123.091 41.3788C118.827 43.4837 107.53 48.6402 96.4509 52.4273C92.4548 54.0504 82.398 58.8464 74.14 65.0454C71.2581 67.0164 63.1309 70.5162 53.677 68.7468C49.2889 69.458 39.4741 72.0929 35.3195 76.9429C31.3 79.9452 22.4799 86.1777 19.3555 87.0896C16.2312 88.0014 5.77151 89.4671 2.67025 89.805M2.67025 89.805C1.58481 86.5036 0.881257 83.1548 0.696511 79.9377M0.696511 79.9377C0.435646 75.3953 1.20913 71.1155 3.40247 67.6025C3.40247 67.6025 37.5974 54.3933 44.2555 51.9842C48.0936 50.5955 55.707 51.6786 61.3421 53.2316C62.8465 53.6463 63.7719 53.8915 64.6738 54.1678M108.222 73.9376C107.451 73.648 106.891 73.8241 105.561 73.7107M108.222 73.9376L105.561 73.7107M105.561 73.7107C104.722 73.3245 104.511 72.0404 103.886 71.1456C103.188 71.1265 101.233 71.7183 100.596 71.4725M100.596 71.4725C99.9785 71.234 99.4615 70.7035 98.7956 70.2522M100.596 71.4725L98.7956 70.2522M98.7956 70.2522C98.0485 70.17 97.3305 70.05 96.1801 70.229M96.1801 70.229C95.3822 70.0558 94.7185 69.5917 93.8804 69.5064M96.1801 70.229L93.8804 69.5064M93.8804 69.5064C93.4116 69.4587 92.7535 69.2899 92.1787 70.0379M92.1787 70.0379L90.0951 69.6569M87.5719 70.6239C87.0238 71.0904 86.6657 72.0783 86.1219 72.951M87.5719 70.6239L86.1219 72.951M86.1219 72.951C85.2949 73.8503 83.7529 74.1967 82.6685 75.4046M82.6685 75.4046L81.845 77.3292M81.845 77.3292C81.4228 77.8702 80.347 78.4723 79.9246 79.0324M79.9246 79.0324C79.6134 79.4451 79.4777 80.1045 79.1998 80.7713M79.9246 79.0324L79.1998 80.7713M79.1998 80.7713C77.767 82.1484 77.1481 84.325 76.333 85.8261M77.4149 81.7322L76.333 85.8261M76.333 85.8261C75.4943 86.9718 74.1974 87.2792 73.3803 88.3439M73.3803 88.3439C72.7584 89.1544 71.7448 89.728 71.1399 90.4587M73.3803 88.3439L71.1399 90.4587M61.7491 78.3067C61.7654 76.0852 59.4854 72.4817 50.2345 75.839C44.5044 78.7999 32.6653 84.7701 31.1494 84.9638C28.9722 86.2579 25.8374 89.5093 30.7161 92.1619C35.4812 96.9187 45.0231 89.7599 45.0231 89.7599C45.0231 89.7599 47.5542 87.8278 51.3738 85.717C56.1263 83.0906 61.5546 80.2685 61.7491 78.3067ZM57.0975 79.6587C57.846 78.3986 57.8765 76.2675 52.01 77.824C48.3926 79.278 39.6399 83.3227 33.5675 87.8695C32.2768 89.2509 31.2157 91.6489 37.297 90.1898C38.0898 89.9532 40.1821 89.0323 42.7514 87.3926C44.5898 86.2194 46.7031 84.4135 48.618 83.4445C51.852 81.8082 56.8353 80.7236 57.0975 79.6587Z" stroke="black" stroke-linecap="round"/>
</svg>
