<svg width="224" height="89" viewBox="0 0 224 89" fill="none" xmlns="http://www.w3.org/2000/svg">
<path d="M214.596 84.4293C217.003 82.4134 221.973 73.6924 222.6 54.9358C222.82 46.3752 220.521 28.8818 209.562 27.3928C209.518 27.3849 209.474 27.3777 209.429 27.3713C207.551 27.0661 186.118 23.5955 172.112 21.8116C148.041 18.7457 124.177 17.8065 110.302 16.1268C100.048 14.8856 79.3566 11.7999 69.2527 10.2734C65.6835 9.73422 63.4355 9.3896 63.4355 9.3896C63.4355 9.3896 32.2568 3.5095 19.2873 1.41863C13.003 0.851758 7.34911 7.57233 4.01545 16.8372C2.63932 20.6617 1.65857 24.9198 1.19208 29.2778C0.939523 31.6371 0.837699 34.0258 0.905474 36.3908C1.01668 40.2716 1.58455 44.0887 2.69242 47.6081C4.25672 52.5775 6.89764 56.9534 10.8498 60.0774C10.8498 60.0774 44.468 63.2473 53.0795 63.8418C61.691 64.4363 97.8434 70.4167 97.8434 70.4167L131.068 78.1367L172.049 82.5946C172.049 82.5946 197.988 87.2319 205.75 86.86C207.972 88.1611 210.889 87.8777 214.596 84.4293Z" fill="#A46C43"/>
<path d="M56.8841 37.5842C68.8533 38.4212 69.986 33.8564 69.0562 31.4694C68.029 29.4154 60.6561 28.0068 54.1372 26.606C48.8982 25.4803 45.2076 24.1599 45.2076 24.1599C45.2076 24.1599 31.3461 19.3171 27.8409 25.8699C23.3428 30.1911 28.2655 32.7507 31.2892 33.4903C33.1043 33.2437 49.1087 36.1168 56.8841 37.5842Z" fill="#A46C43"/>
<path d="M209.562 27.3928C220.521 28.8818 222.82 46.3752 222.6 54.9358C221.973 73.6924 217.003 82.4134 214.596 84.4293C210.889 87.8777 207.972 88.1611 205.75 86.86M209.562 27.3928C209.562 27.3928 209.516 27.3855 209.429 27.3713M209.562 27.3928C209.518 27.3849 209.474 27.3777 209.429 27.3713M209.429 27.3713C207.551 27.0661 186.118 23.5955 172.112 21.8116C148.041 18.7457 124.177 17.8065 110.302 16.1268C100.048 14.8856 79.3566 11.7999 69.2527 10.2734M209.429 27.3713C207.544 27.0999 205.013 28.2209 202.851 32.1367M205.75 86.86C197.988 87.2319 172.049 82.5946 172.049 82.5946L131.068 78.1367L97.8434 70.4167C97.8434 70.4167 61.691 64.4363 53.0795 63.8418C44.468 63.2473 10.8498 60.0774 10.8498 60.0774C6.89764 56.9534 4.25672 52.5775 2.69242 47.6081M205.75 86.86C204.083 85.8846 202.806 84.0188 201.878 81.9284M198.75 69.2056L202.374 65.6121M198.75 69.2056C198.574 66.3315 198.468 63.6431 198.425 61.1297M198.75 69.2056L76.0288 51.6528L200.159 76.0557M202.374 65.6121C200.982 56.5447 200.573 37.9927 210.07 36.3236C213.295 36.2629 219.377 41.496 217.909 62.9137C217.488 68.9398 215.092 80.6821 208.873 79.4426C207.295 78.8994 203.911 76.4749 202.998 71.1226M202.374 65.6121L205.217 62.7923M202.998 71.1226L200.159 76.0557M202.998 71.1226L205.473 66.8232M200.159 76.0557C200.453 77.851 201.015 79.9866 201.878 81.9284M205.217 62.7923L211.217 56.8421L205.473 66.8232M205.217 62.7923C204.646 57.2891 204.906 45.9307 210.515 44.5225C212.602 45.217 216.365 50.1016 214.727 64.0843C213.286 69.9587 209.418 78.7306 205.473 66.8232M202.851 32.1367C194.484 31.0821 174.145 28.7547 159.731 27.8814C145.317 27.0082 127.403 24.7635 120.247 23.7502C113.187 22.9554 97.2369 20.846 89.9175 18.7664C84.8248 17.6136 73.5621 14.301 69.2527 10.2734M202.851 32.1367C201.688 34.2429 200.632 37.1577 199.841 41.0993M69.2527 10.2734C65.6835 9.73422 63.4355 9.3896 63.4355 9.3896C63.4355 9.3896 32.2568 3.5095 19.2873 1.41863C13.003 0.851758 7.3491 7.57233 4.01545 16.8372M199.841 41.0993C193.77 38.5893 176.566 33.794 156.317 34.6928C149.706 34.8634 132.257 34.1862 115.349 30.1134C109.483 28.782 92.2526 24.6326 70.2641 18.6858C63.4327 16.4424 46.1429 11.7341 31.6356 10.8482C17.1284 9.96236 7.17749 14.4717 4.01545 16.8372M199.841 41.0993C199.318 43.7015 198.912 46.7512 198.666 50.3112M4.01545 16.8372C2.63932 20.6617 1.65857 24.9198 1.19208 29.2778M198.666 50.3112C191.905 49.105 175.31 45.905 163.016 42.7549C156.232 41.2578 138.49 38.5104 121.793 39.4973C105.096 40.4841 88.4022 33.6865 82.1424 30.1644C75.893 26.8491 60.4761 19.7482 48.8036 17.8664C37.131 15.9846 27.2354 16.9502 23.7466 17.6682C19.2578 19.4423 8.46273 24.2481 1.19208 29.2778M198.666 50.3112C198.446 53.4944 198.355 57.0856 198.425 61.1297M1.19208 29.2778C0.939522 31.6371 0.837697 34.0258 0.905471 36.3908M198.425 61.1297L154.438 52.8107C148.693 51.8246 133.643 49.6648 119.404 48.9141C114.163 48.3664 100.681 46.2224 88.6827 42.0275C84.5746 40.7706 73.8335 39.4428 63.7344 44.1869C58.4184 44.7389 46.0997 44.8491 39.3536 40.8745C33.5199 38.8488 20.8647 34.7866 16.9133 34.743C12.962 34.6994 4.59502 35.8234 0.905471 36.3908M0.905471 36.3908C1.01668 40.2716 1.58454 44.0887 2.69242 47.6081M201.878 81.9284C189.319 80.9565 158.093 77.7422 133.66 72.6603C126.812 71.3353 105.544 66.7657 75.2579 59.0865C73.1667 58.438 63.8535 56.6625 43.3306 54.7488C31.712 53.2881 7.31839 49.8149 2.69242 47.6081M69.0562 31.4694C69.986 33.8564 68.8533 38.4212 56.8841 37.5842C49.1087 36.1168 33.1043 33.2437 31.2892 33.4903C28.2655 32.7507 23.3428 30.1911 27.8409 25.8699C31.3461 19.3171 45.2076 24.1599 45.2076 24.1599C45.2076 24.1599 48.8981 25.4803 54.1372 26.606C60.6561 28.0068 68.029 29.4154 69.0562 31.4694ZM63.1756 31.4104C64.5495 32.5425 65.4584 34.828 58.1029 34.9138C53.3647 34.4345 41.6839 32.7077 32.8663 29.6355C30.8218 28.5356 28.6234 26.2722 36.1849 26.0171C37.1897 26.0338 39.9631 26.3971 43.5774 27.3911C46.1635 28.1023 49.3239 29.4122 51.9139 29.8804C56.2879 30.6712 62.4386 30.3426 63.1756 31.4104Z" stroke="black" stroke-linecap="round"/>
</svg>
