<svg width="1280" height="534" viewBox="0 0 1280 534" fill="none" xmlns="http://www.w3.org/2000/svg">
<path fill-rule="evenodd" clip-rule="evenodd" d="M0 1.00001C0 0.447724 0.447715 0 1 0H238.525V7.08961C238.525 7.39144 238.662 7.67711 238.896 7.86698L246.202 13.7788C246.418 13.9534 246.697 14.0305 246.972 13.9915L257.283 12.5292C257.74 12.4643 258.182 12.7212 258.353 13.1506L260.893 19.5576C261.004 19.8363 261.234 20.0508 261.519 20.1418L273.739 24.0345C273.967 24.1073 274.162 24.2596 274.287 24.4638L279.553 33.0324C279.823 33.4712 280.382 33.6334 280.844 33.407L294.016 26.9628C294.092 26.9257 294.172 26.8984 294.255 26.8815L306.952 24.2761C307.335 24.1976 307.728 24.3491 307.96 24.664L314.148 33.0964C314.446 33.5022 314.999 33.6234 315.439 33.3794L327.012 26.9652C327.082 26.9265 327.156 26.8963 327.233 26.8753L336.679 24.293C337.01 24.2023 337.365 24.2884 337.619 24.521L342.936 29.4033C343.121 29.5727 343.362 29.6667 343.613 29.6667H349.4C349.554 29.6667 349.705 29.702 349.843 29.77L357.441 33.5205C357.793 33.6944 358.215 33.6459 358.518 33.3964L368.803 24.9443C369.3 24.5363 370.047 24.6957 370.333 25.2707L378.097 40.8442C378.51 41.6722 379.729 41.5439 379.96 40.6482L382.644 30.261C382.738 29.8964 383.029 29.6156 383.397 29.5346L394.827 27.016C395.138 26.9475 395.397 26.7349 395.526 26.4436L399.066 18.4319C399.226 18.0697 399.584 17.836 399.98 17.836H409.078C409.255 17.836 409.428 17.7892 409.581 17.7003L418.126 12.7274C418.452 12.538 418.856 12.5475 419.173 12.7521L429.9 19.6927C430.202 19.8875 430.584 19.9061 430.903 19.7414L441.684 14.1691C441.832 14.0927 441.958 13.9805 442.052 13.8429L447.03 6.51897C447.264 6.17398 447.688 6.01078 448.094 6.10952L462.7 9.668C462.863 9.70785 463.034 9.70576 463.197 9.66191L476.792 5.99472C476.913 5.96209 477.027 5.90703 477.128 5.83239L484.991 0H819.045L835.518 19.35C835.839 19.7278 836.389 19.8127 836.81 19.5494L845.568 14.0667C846.234 13.6498 847.098 14.1286 847.098 14.9143V25.3721C847.098 26.0948 847.841 26.5789 848.502 26.2869L866.402 18.3815C867.016 18.1101 867.718 18.5096 867.799 19.1765L871.433 49.2967C871.526 50.0693 872.427 50.4441 873.04 49.9654L881.264 43.5509C881.515 43.3548 881.845 43.2903 882.152 43.3773L907.943 50.6932C908.581 50.8743 909.216 50.3947 909.216 49.7311V35.7651C909.216 35.1182 909.82 34.6416 910.449 34.7928L940.304 41.9719C940.601 42.0435 940.915 41.9748 941.156 41.7855L951.295 33.8062L966.886 20.3857C967.158 20.1519 967.534 20.0813 967.871 20.2007L986.146 26.6539C986.569 26.8035 987.04 26.6524 987.298 26.2844L998.486 10.2989C998.726 9.95621 999.153 9.799 999.558 9.90485L1014.16 13.7249C1014.8 13.8906 1015.42 13.4125 1015.42 12.7574V0H1177.27L1180.29 6.45243C1180.42 6.73409 1180.41 7.06099 1180.27 7.33691L1177.46 12.7431C1177.34 12.9772 1177.32 13.2498 1177.39 13.5016L1178.43 16.8307C1178.51 17.0968 1178.48 17.3854 1178.34 17.627L1173.72 25.6653C1173.52 26.0019 1173.54 26.4202 1173.77 26.7382L1178.94 34.12C1179.11 34.3588 1179.17 34.6587 1179.09 34.9413L1177.34 41.8259C1177.29 41.9958 1177.3 42.1733 1177.34 42.3418C1178 44.6033 1179.47 48.9312 1180.89 50.7543C1181.04 50.9545 1181.14 51.194 1181.15 51.4475C1181.22 54.8501 1182.22 61.086 1185.75 62.5927C1186.08 62.7341 1186.36 62.9984 1186.45 63.3471L1189.34 74.4934C1189.45 74.9151 1189.82 75.2174 1190.26 75.2406L1202.18 75.8783C1202.35 75.887 1202.5 75.9346 1202.64 76.0172L1208.09 79.2572C1208.19 79.3128 1208.29 79.3524 1208.39 79.3746C1210.61 79.8378 1215.81 80.697 1220.31 80.7204C1220.43 80.7211 1220.55 80.744 1220.67 80.7889L1227.36 83.3924C1227.51 83.4504 1227.67 83.4717 1227.83 83.4547L1233.9 82.8058C1233.99 82.7958 1234.08 82.7986 1234.18 82.8148C1238.03 83.487 1246.6 84.3851 1251.75 82.899C1251.98 82.8322 1252.22 82.8428 1252.44 82.9376L1261.59 86.8496C1261.71 86.9028 1261.85 86.9302 1261.98 86.9302H1269.08C1269.36 86.9302 1269.63 87.045 1269.81 87.2473L1272.36 89.9666C1272.6 90.223 1272.95 90.3349 1273.3 90.2615L1282.42 88.3101V436.721L1279.98 442.601C1279.89 442.814 1279.73 442.99 1279.52 443.099L1272.63 446.787C1272.3 446.961 1272.1 447.3 1272.1 447.669V460.327C1272.1 460.665 1271.93 460.98 1271.65 461.164L1260.94 468.161C1260.66 468.346 1260.49 468.661 1260.49 468.998V479.235C1260.49 479.406 1260.44 479.575 1260.36 479.724L1254.81 489.617C1254.73 489.766 1254.68 489.935 1254.68 490.106V501.202C1254.68 501.442 1254.6 501.674 1254.44 501.855L1247.1 510.356C1247 510.479 1246.92 510.625 1246.88 510.782L1245.71 515.818C1245.67 515.978 1245.67 516.145 1245.71 516.304L1248.09 525.185C1248.18 525.518 1248.09 525.874 1247.85 526.126L1243.91 530.338C1243.78 530.477 1243.7 530.65 1243.66 530.837L1243.07 534H1105.59L1099.73 528.195C1099.63 528.095 1099.51 528.017 1099.37 527.967L1083.03 521.911C1082.49 521.712 1081.9 522.005 1081.73 522.554L1080.43 526.765C1080.23 527.403 1079.48 527.673 1078.92 527.304L1065.59 518.469C1065.04 518.107 1064.3 518.359 1064.09 518.98L1061.41 526.855C1061.2 527.463 1060.48 527.721 1059.93 527.383L1050.69 521.674C1050.55 521.588 1050.44 521.47 1050.36 521.33L1047.45 516.385C1047.18 515.935 1046.61 515.765 1046.14 515.995L1030.44 523.71L1010.41 534H802.514L753.839 516.899C753.573 516.805 753.28 516.828 753.032 516.962L728.318 530.31C728.039 530.461 727.704 530.47 727.416 530.335L698.933 516.899C698.732 516.804 698.504 516.779 698.286 516.828L677.667 521.493C677.417 521.55 677.155 521.508 676.935 521.377L658.743 510.543L638.097 500.08C637.846 499.953 637.553 499.937 637.29 500.037L609.65 510.543L593.495 516.611C593.254 516.701 592.987 516.695 592.75 516.594L571.097 507.316C570.774 507.178 570.402 507.219 570.118 507.425L550.801 521.392C550.631 521.515 550.425 521.581 550.215 521.581H512.125C512.02 521.581 511.915 521.598 511.815 521.631L473.894 534H269.509L274.218 528.41C274.408 528.185 274.688 528.055 274.983 528.055H278.59C278.868 528.055 279.134 527.939 279.323 527.734L282.267 524.559C282.438 524.374 282.533 524.131 282.533 523.879V517.898C282.533 517.276 281.971 516.805 281.358 516.914L274.706 518.098C274.582 518.12 274.455 518.119 274.331 518.094L267.837 516.772C267.621 516.728 267.398 516.757 267.2 516.853L257.926 521.367C257.648 521.502 257.324 521.502 257.047 521.365L250.768 518.277C250.576 518.183 250.359 518.152 250.148 518.19L231.754 521.524C231.548 521.561 231.335 521.533 231.145 521.443L215.835 514.143C215.171 513.827 214.405 514.311 214.405 515.046V523.895C214.405 524.138 214.317 524.372 214.157 524.554L205.888 534H101.692L76.0764 515.114C75.7318 514.86 75.5872 514.414 75.7168 514.006L81.4394 495.988C81.4794 495.862 81.5367 495.754 81.622 495.653C82.9506 494.083 94.7542 480.132 98.2703 475.876C98.5323 475.559 98.5649 475.121 98.3637 474.762L85.3337 451.536C85.2156 451.325 85.1777 451.079 85.2267 450.843L88.9568 432.891C88.9986 432.689 88.9787 432.483 88.8964 432.294C85.8875 425.402 80.3963 415.599 77.7157 411.024C77.5272 410.702 77.5334 410.305 77.7306 409.989L84.7686 398.698C84.9967 398.332 84.9646 397.861 84.689 397.53L69.8222 379.642C69.7213 379.521 69.6506 379.377 69.6158 379.223L65.2489 359.874C65.1878 359.603 65.017 359.37 64.7773 359.23L51.0553 351.225C50.9929 351.189 50.9345 351.146 50.8814 351.097L32.5056 334.154C32.3425 334.004 32.1341 333.912 31.913 333.893L0 331.163V1.00001Z" fill="#F87B21"/>
</svg>
