<svg width="414" height="317" viewBox="0 0 414 317" fill="none" xmlns="http://www.w3.org/2000/svg">
<path fill-rule="evenodd" clip-rule="evenodd" d="M0 0H18L24.5 10.5881L31.5 8.34211L28 20.0685L39 15.9729L48.5 18.5L51 25.668L64 20.0685L70.5 13L75 18.5H84L81 25.668L90.5 28L87 35L104 34L110 43.5L120 40L129.588 48L132.839 38.5L127.5 31.5V18.5L119 5.7753L121 0H129.588H134H138.5H142.5H146H149H153.5H155.5H157.386H235.5L230 15.9729L235.5 26.5059H246.5L247.5 36L258.5 32L263 40L271 36L277.5 40L281 48L289 41.5L302 36L307.5 44.6421L315 37.27H324.5L326.5 25L332.5 27.5V20L337.5 15L334.5 6.69341H341L346 3L355 6.69341L357.5 0L382.5 -4.5L388.5 -3.71739L386.5 -4.5L387.5 0L397.307 -7L421.5 -9.5L416.893 6.69341L423.5 14C423.5 15.3387 421.5 21.6867 421.5 21.6867C420.087 22.4899 417.799 23.8023 416.581 26.2119C418.205 27.5506 414.924 30.8662 415.5 31.5L410 37.27L407 46L412 56C407 63 405.5 65 405.5 65L410 70L397.307 75.5C399.337 75.5 406.825 80.9829 408.5 80V87.5L403.5 96L416.163 128.5V52.4238V259.252L415.325 262.938L412.813 265.395V273.587L409.045 278.092V284.645L406.5 289L407.161 294L403.5 297.5L405.5 299.5L405 300L403 302L399.813 303.076L400.263 304.5L401 306.835L399 300.5L391.674 311.11H391.623L389.389 310.039L387.156 307.355L384.432 309.606L384.5 312L381.269 310.039L379 308.432L377.614 312.181L375.99 310.039L374.191 309.606L372.5 307.355L371.118 308.432L368.276 310.039L367.463 314.323L362.997 317H313.5L276.308 310.574L267.375 314.952L257.833 303.075L251.134 308.7L244.496 306.761L236.205 314.952L226.712 306.761L219.786 309.628L213.771 303.075L206.943 296.745L197.84 303.075L192.475 306.761L185.16 301.027L178.657 309.628H166.14L153.785 317H117.5L108.5 315L106 311L98.5 312.984L96.4338 308.432L91.6858 306.733L89.0848 307.58L86.8089 306.733L82.6285 301.739L74.2915 309.628L68.6202 305.536L60.0935 309.628L51.9727 306.733L45.4761 317H25.3773L23.7532 312.984L27.0015 305.536L22.5 294C22.5 294 11.0231 283.184 12 281L17 273L16 264L25.1205 262C24.1157 257.741 20.3373 254.094 19.5 251.5L27.0015 243.5L30 233L20.5 229L12 225.258L16 217.5L5 214L-1 204.5L0 0Z" fill="#F87B21"/>
</svg>
